<?xml version="1.0" encoding="UTF-8" standalone="no"?>
<!DOCTYPE svg PUBLIC "-//W3C//DTD SVG 1.1//EN"
 "http://www.w3.org/Graphics/SVG/1.1/DTD/svg11.dtd">
<!-- Generated by graphviz version 2.36.0 (20140111.2315)
 -->
<!-- Title: local_correlations_movie Pages: 1 -->
<svg width="232pt" height="66pt"
 viewBox="0.00 0.00 232.00 66.00" xmlns="http://www.w3.org/2000/svg" xmlns:xlink="http://www.w3.org/1999/xlink">
<g id="graph0" class="graph" transform="scale(1 1) rotate(0) translate(4 62)">
<title>local_correlations_movie</title>
<polygon fill="white" stroke="none" points="-4,4 -4,-62 228,-62 228,4 -4,4"/>
<!-- Node63 -->
<g id="node1" class="node"><title>Node63</title>
<polygon fill="#bfbfbf" stroke="black" points="0,-14 0,-44 94,-44 94,-14 0,-14"/>
<text text-anchor="start" x="8" y="-32" font-family="Helvetica,sans-Serif" font-size="10.00">local_correlations</text>
<text text-anchor="middle" x="47" y="-21" font-family="Helvetica,sans-Serif" font-size="10.00">_movie</text>
</g>
<!-- Node64 -->
<g id="node2" class="node"><title>Node64</title>
<g id="a_node2"><a xlink:href="classcaiman_1_1base_1_1movies_1_1movie.html#a83c12a3ff5c0251e6ca9b71b2d33abc7" target="_top" xlink:title="Computes the correlation image for the input dataset Y. ">
<polygon fill="white" stroke="black" points="130,-38.5 130,-57.5 224,-57.5 224,-38.5 130,-38.5"/>
<text text-anchor="middle" x="177" y="-45.5" font-family="Helvetica,sans-Serif" font-size="10.00">local_correlations</text>
</a>
</g>
</g>
<!-- Node63&#45;&gt;Node64 -->
<g id="edge1" class="edge"><title>Node63&#45;&gt;Node64</title>
<path fill="none" stroke="midnightblue" d="M94.2109,-35.8594C102.549,-37.0971 111.325,-38.3997 119.908,-39.6738"/>
<polygon fill="midnightblue" stroke="midnightblue" points="119.451,-43.1443 129.857,-41.1506 120.479,-36.2202 119.451,-43.1443"/>
</g>
<!-- Node65 -->
<g id="node3" class="node"><title>Node65</title>
<g id="a_node3"><a xlink:href="classcaiman_1_1base_1_1movies_1_1movie.html#a4a210e94cbb1420c5b3f892affeaba8e" target="_top" xlink:title="Play the movie using opencv. ">
<polygon fill="white" stroke="black" points="159.5,-0.5 159.5,-19.5 194.5,-19.5 194.5,-0.5 159.5,-0.5"/>
<text text-anchor="middle" x="177" y="-7.5" font-family="Helvetica,sans-Serif" font-size="10.00">play</text>
</a>
</g>
</g>
<!-- Node63&#45;&gt;Node65 -->
<g id="edge2" class="edge"><title>Node63&#45;&gt;Node65</title>
<path fill="none" stroke="midnightblue" d="M94.2109,-22.1406C112.713,-19.3942 133.37,-16.3279 149.295,-13.964"/>
<polygon fill="midnightblue" stroke="midnightblue" points="150.102,-17.3827 159.479,-12.4523 149.074,-10.4586 150.102,-17.3827"/>
</g>
</g>
</svg>
