<?xml version="1.0" encoding="UTF-8" standalone="no"?>
<!DOCTYPE svg PUBLIC "-//W3C//DTD SVG 1.1//EN"
 "http://www.w3.org/Graphics/SVG/1.1/DTD/svg11.dtd">
<!-- Generated by graphviz version 2.36.0 (20140111.2315)
 -->
<!-- Title: __new__ Pages: 1 -->
<svg width="630pt" height="87pt"
 viewBox="0.00 0.00 630.00 87.00" xmlns="http://www.w3.org/2000/svg" xmlns:xlink="http://www.w3.org/1999/xlink">
<g id="graph0" class="graph" transform="scale(1 1) rotate(0) translate(4 83)">
<title>__new__</title>
<polygon fill="white" stroke="none" points="-4,4 -4,-83 626,-83 626,4 -4,4"/>
<!-- Node0 -->
<g id="node1" class="node"><title>Node0</title>
<polygon fill="#bfbfbf" stroke="black" points="0.5,-29.5 0.5,-48.5 57.5,-48.5 57.5,-29.5 0.5,-29.5"/>
<text text-anchor="middle" x="29" y="-36.5" font-family="Helvetica,sans-Serif" font-size="10.00">__new__</text>
</g>
<!-- Node1 -->
<g id="node2" class="node"><title>Node1</title>
<g id="a_node2"><a xlink:href="classcaiman_1_1base_1_1movies_1_1movie.html#a9ea3b23aad7b04c484259dc0f2117aed" target="_top" xlink:title="motion_correction_online">
<polygon fill="white" stroke="black" points="94,-29.5 94,-48.5 222,-48.5 222,-29.5 94,-29.5"/>
<text text-anchor="middle" x="158" y="-36.5" font-family="Helvetica,sans-Serif" font-size="10.00">motion_correction_online</text>
</a>
</g>
</g>
<!-- Node0&#45;&gt;Node1 -->
<g id="edge1" class="edge"><title>Node0&#45;&gt;Node1</title>
<path fill="none" stroke="midnightblue" d="M57.5571,-39C65.4326,-39 74.4078,-39 83.669,-39"/>
<polygon fill="midnightblue" stroke="midnightblue" points="83.7922,-42.5001 93.7921,-39 83.7921,-35.5001 83.7922,-42.5001"/>
</g>
<!-- Node2 -->
<g id="node3" class="node"><title>Node2</title>
<g id="a_node3"><a xlink:href="namespacecaiman_1_1motion__correction.html#a178e8317ba3a15bd5e072132ce6fa9f3" target="_top" xlink:title="caiman.motion_correction.motion\l_correct_online">
<polygon fill="white" stroke="black" points="258,-24 258,-54 422,-54 422,-24 258,-24"/>
<text text-anchor="start" x="266" y="-42" font-family="Helvetica,sans-Serif" font-size="10.00">caiman.motion_correction.motion</text>
<text text-anchor="middle" x="340" y="-31" font-family="Helvetica,sans-Serif" font-size="10.00">_correct_online</text>
</a>
</g>
</g>
<!-- Node1&#45;&gt;Node2 -->
<g id="edge2" class="edge"><title>Node1&#45;&gt;Node2</title>
<path fill="none" stroke="midnightblue" d="M222.208,-39C230.508,-39 239.143,-39 247.793,-39"/>
<polygon fill="midnightblue" stroke="midnightblue" points="247.934,-42.5001 257.934,-39 247.934,-35.5001 247.934,-42.5001"/>
</g>
<!-- Node3 -->
<g id="node4" class="node"><title>Node3</title>
<g id="a_node4"><a xlink:href="namespacecaiman_1_1motion__correction.html#a089b96a369b9ee10a01d01e3df54c3bb" target="_top" xlink:title="compute median of 3D array in along axis o by binning values ">
<polygon fill="white" stroke="black" points="466.5,-49 466.5,-79 613.5,-79 613.5,-49 466.5,-49"/>
<text text-anchor="start" x="474.5" y="-67" font-family="Helvetica,sans-Serif" font-size="10.00">caiman.motion_correction.bin</text>
<text text-anchor="middle" x="540" y="-56" font-family="Helvetica,sans-Serif" font-size="10.00">_median</text>
</a>
</g>
</g>
<!-- Node2&#45;&gt;Node3 -->
<g id="edge3" class="edge"><title>Node2&#45;&gt;Node3</title>
<path fill="none" stroke="midnightblue" d="M422.105,-49.2406C433.308,-50.655 444.826,-52.1093 456.061,-53.5278"/>
<polygon fill="midnightblue" stroke="midnightblue" points="455.922,-57.038 466.281,-54.8183 456.799,-50.0931 455.922,-57.038"/>
</g>
<!-- Node4 -->
<g id="node5" class="node"><title>Node4</title>
<g id="a_node5"><a xlink:href="namespacecaiman_1_1motion__correction.html#acc77134c68d447075e79102eca9649e1" target="_top" xlink:title="caiman.motion_correction.motion\l_correct_iteration">
<polygon fill="white" stroke="black" points="458,-0 458,-30 622,-30 622,-0 458,-0"/>
<text text-anchor="start" x="466" y="-18" font-family="Helvetica,sans-Serif" font-size="10.00">caiman.motion_correction.motion</text>
<text text-anchor="middle" x="540" y="-7" font-family="Helvetica,sans-Serif" font-size="10.00">_correct_iteration</text>
</a>
</g>
</g>
<!-- Node2&#45;&gt;Node4 -->
<g id="edge4" class="edge"><title>Node2&#45;&gt;Node4</title>
<path fill="none" stroke="midnightblue" d="M422.105,-29.169C430.549,-28.1456 439.172,-27.1003 447.719,-26.0644"/>
<polygon fill="midnightblue" stroke="midnightblue" points="448.194,-29.5325 457.7,-24.8545 447.352,-22.5833 448.194,-29.5325"/>
</g>
</g>
</svg>
