<?xml version="1.0" encoding="UTF-8" standalone="no"?>
<!DOCTYPE svg PUBLIC "-//W3C//DTD SVG 1.1//EN"
 "http://www.w3.org/Graphics/SVG/1.1/DTD/svg11.dtd">
<!-- Generated by graphviz version 2.36.0 (20140111.2315)
 -->
<!-- Title: Graphical Class Hierarchy Pages: 1 -->
<svg width="168pt" height="180pt"
 viewBox="0.00 0.00 168.00 180.00" xmlns="http://www.w3.org/2000/svg" xmlns:xlink="http://www.w3.org/1999/xlink">
<g id="graph0" class="graph" transform="scale(1 1) rotate(0) translate(4 176)">
<title>Graphical Class Hierarchy</title>
<polygon fill="white" stroke="none" points="-4,4 -4,-176 164,-176 164,4 -4,4"/>
<!-- Node7 -->
<g id="node1" class="node"><title>Node7</title>
<polygon fill="white" stroke="#bfbfbf" points="0.5,-76.5 0.5,-95.5 43.5,-95.5 43.5,-76.5 0.5,-76.5"/>
<text text-anchor="middle" x="22" y="-83.5" font-family="Helvetica,sans-Serif" font-size="10.00">object</text>
</g>
<!-- Node0 -->
<g id="node2" class="node"><title>Node0</title>
<g id="a_node2"><a xlink:href="classcaiman_1_1motion__correction_1_1_motion_correct.html" target="_top" xlink:title="class implementing motion correction operations ">
<polygon fill="white" stroke="black" points="80.5,-152.5 80.5,-171.5 159.5,-171.5 159.5,-152.5 80.5,-152.5"/>
<text text-anchor="middle" x="120" y="-159.5" font-family="Helvetica,sans-Serif" font-size="10.00">MotionCorrect</text>
</a>
</g>
</g>
<!-- Node7&#45;&gt;Node0 -->
<g id="edge1" class="edge"><title>Node7&#45;&gt;Node0</title>
<path fill="none" stroke="midnightblue" d="M37.7352,-103.563C48.5507,-115.702 64.0752,-131.646 80,-143 84.9061,-146.498 90.5544,-149.665 96.002,-152.367"/>
<polygon fill="midnightblue" stroke="midnightblue" points="40.253,-101.124 31.0528,-95.87 34.9683,-105.715 40.253,-101.124"/>
</g>
<!-- Node9 -->
<g id="node3" class="node"><title>Node9</title>
<g id="a_node3"><a xlink:href="classcaiman_1_1source__extraction_1_1cnmf_1_1cnmf_1_1_c_n_m_f.html" target="_top" xlink:title="Source extraction using constrained non&#45;negative matrix factorization. ">
<polygon fill="white" stroke="black" points="97.5,-114.5 97.5,-133.5 142.5,-133.5 142.5,-114.5 97.5,-114.5"/>
<text text-anchor="middle" x="120" y="-121.5" font-family="Helvetica,sans-Serif" font-size="10.00">CNMF</text>
</a>
</g>
</g>
<!-- Node7&#45;&gt;Node9 -->
<g id="edge2" class="edge"><title>Node7&#45;&gt;Node9</title>
<path fill="none" stroke="midnightblue" d="M53.2421,-97.9708C67.5076,-103.618 84.2091,-110.229 97.2105,-115.375"/>
<polygon fill="midnightblue" stroke="midnightblue" points="54.4168,-94.6717 43.8306,-94.2454 51.8405,-101.18 54.4168,-94.6717"/>
</g>
<!-- Node10 -->
<g id="node4" class="node"><title>Node10</title>
<g id="a_node4"><a xlink:href="classcaiman_1_1source__extraction_1_1cnmf_1_1cnmf__optional__outputs_1_1_c_n_m_f.html" target="_top" xlink:title="Source extraction using constrained non&#45;negative matrix factorization. ">
<polygon fill="white" stroke="black" points="97.5,-76.5 97.5,-95.5 142.5,-95.5 142.5,-76.5 97.5,-76.5"/>
<text text-anchor="middle" x="120" y="-83.5" font-family="Helvetica,sans-Serif" font-size="10.00">CNMF</text>
</a>
</g>
</g>
<!-- Node7&#45;&gt;Node10 -->
<g id="edge3" class="edge"><title>Node7&#45;&gt;Node10</title>
<path fill="none" stroke="midnightblue" d="M54.0677,-86C68.1486,-86 84.4591,-86 97.2105,-86"/>
<polygon fill="midnightblue" stroke="midnightblue" points="53.8306,-82.5001 43.8306,-86 53.8305,-89.5001 53.8306,-82.5001"/>
</g>
<!-- Node11 -->
<g id="node5" class="node"><title>Node11</title>
<g id="a_node5"><a xlink:href="classcaiman_1_1tests_1_1comparison_1_1comparison_1_1_comparison.html" target="_top" xlink:title="Comparison It is used for comparison the modification on the CaImAn program. ">
<polygon fill="white" stroke="black" points="85,-38.5 85,-57.5 155,-57.5 155,-38.5 85,-38.5"/>
<text text-anchor="middle" x="120" y="-45.5" font-family="Helvetica,sans-Serif" font-size="10.00">Comparison</text>
</a>
</g>
</g>
<!-- Node7&#45;&gt;Node11 -->
<g id="edge4" class="edge"><title>Node7&#45;&gt;Node11</title>
<path fill="none" stroke="midnightblue" d="M53.15,-74.0656C66.5768,-68.7508 82.1766,-62.5759 94.8216,-57.5706"/>
<polygon fill="midnightblue" stroke="midnightblue" points="51.8405,-70.8197 43.8306,-77.7546 54.4168,-77.3283 51.8405,-70.8197"/>
</g>
<!-- Node12 -->
<g id="node6" class="node"><title>Node12</title>
<g id="a_node6"><a xlink:href="classcaiman_1_1tests_1_1comparison_1_1comparisonplots_1_1_comparison.html" target="_top" xlink:title="Comparison It is used for comparison the modification on the CaImAn program. ">
<polygon fill="white" stroke="black" points="85,-0.5 85,-19.5 155,-19.5 155,-0.5 85,-0.5"/>
<text text-anchor="middle" x="120" y="-7.5" font-family="Helvetica,sans-Serif" font-size="10.00">Comparison</text>
</a>
</g>
</g>
<!-- Node7&#45;&gt;Node12 -->
<g id="edge5" class="edge"><title>Node7&#45;&gt;Node12</title>
<path fill="none" stroke="midnightblue" d="M37.7352,-68.437C48.5507,-56.2978 64.0752,-40.3537 80,-29 84.9061,-25.5022 90.5544,-22.3351 96.002,-19.6335"/>
<polygon fill="midnightblue" stroke="midnightblue" points="34.9683,-66.2852 31.0528,-76.13 40.253,-70.8757 34.9683,-66.2852"/>
</g>
</g>
</svg>
