<?xml version="1.0" encoding="UTF-8" standalone="no"?>
<!DOCTYPE svg PUBLIC "-//W3C//DTD SVG 1.1//EN"
 "http://www.w3.org/Graphics/SVG/1.1/DTD/svg11.dtd">
<!-- Generated by graphviz version 2.36.0 (20140111.2315)
 -->
<!-- Title: _hsm Pages: 1 -->
<svg width="1118pt" height="185pt"
 viewBox="0.00 0.00 1118.00 185.00" xmlns="http://www.w3.org/2000/svg" xmlns:xlink="http://www.w3.org/1999/xlink">
<g id="graph0" class="graph" transform="scale(1 1) rotate(0) translate(4 181)">
<title>_hsm</title>
<polygon fill="white" stroke="none" points="-4,4 -4,-181 1114,-181 1114,4 -4,4"/>
<!-- Node1 -->
<g id="node1" class="node"><title>Node1</title>
<polygon fill="#bfbfbf" stroke="black" points="0.5,-127.5 0.5,-146.5 41.5,-146.5 41.5,-127.5 0.5,-127.5"/>
<text text-anchor="middle" x="21" y="-134.5" font-family="Helvetica,sans-Serif" font-size="10.00">_hsm</text>
</g>
<!-- Node2 -->
<g id="node2" class="node"><title>Node2</title>
<g id="a_node2"><a xlink:href="namespacecaiman_1_1utils_1_1stats.html#ad89811d5260ec000aff655f547770d16" target="_top" xlink:title="Robust estimator of the mode of a data set using the half&#45;sample mode. ">
<polygon fill="white" stroke="black" points="78.5,-146.5 78.5,-165.5 175.5,-165.5 175.5,-146.5 78.5,-146.5"/>
<text text-anchor="middle" x="127" y="-153.5" font-family="Helvetica,sans-Serif" font-size="10.00">mode_robust_fast</text>
</a>
</g>
</g>
<!-- Node1&#45;&gt;Node2 -->
<g id="edge1" class="edge"><title>Node1&#45;&gt;Node2</title>
<path fill="none" stroke="midnightblue" d="M51.5762,-142.403C59.9565,-143.934 69.2978,-145.641 78.4536,-147.314"/>
<polygon fill="midnightblue" stroke="midnightblue" points="52.0278,-138.928 41.5616,-140.574 50.7697,-145.814 52.0278,-138.928"/>
</g>
<!-- Node11 -->
<g id="node11" class="node"><title>Node11</title>
<g id="a_node11"><a xlink:href="namespacecaiman_1_1utils_1_1stats.html#ad63c9de399766045f2623d9ec6653709" target="_top" xlink:title="Robust estimator of the mode of a data set using the half&#45;sample mode. ">
<polygon fill="white" stroke="black" points="89.5,-108.5 89.5,-127.5 164.5,-127.5 164.5,-108.5 89.5,-108.5"/>
<text text-anchor="middle" x="127" y="-115.5" font-family="Helvetica,sans-Serif" font-size="10.00">mode_robust</text>
</a>
</g>
</g>
<!-- Node1&#45;&gt;Node11 -->
<g id="edge11" class="edge"><title>Node1&#45;&gt;Node11</title>
<path fill="none" stroke="midnightblue" d="M51.6956,-131.575C63.3966,-129.437 76.9567,-126.96 89.2649,-124.711"/>
<polygon fill="midnightblue" stroke="midnightblue" points="50.7697,-128.186 41.5616,-133.426 52.0278,-135.072 50.7697,-128.186"/>
</g>
<!-- Node3 -->
<g id="node3" class="node"><title>Node3</title>
<g id="a_node3"><a xlink:href="namespacecaiman_1_1components__evaluation.html#a115ea8d0f9c41cb31cb7fe05535f65f7" target="_top" xlink:title="estimate the noise in the traces under assumption that signals are sparse and only positive...">
<polygon fill="white" stroke="black" points="212,-147 212,-177 410,-177 410,-147 212,-147"/>
<text text-anchor="start" x="220" y="-165" font-family="Helvetica,sans-Serif" font-size="10.00">caiman.components_evaluation.estimate</text>
<text text-anchor="middle" x="311" y="-154" font-family="Helvetica,sans-Serif" font-size="10.00">_noise_mode</text>
</a>
</g>
</g>
<!-- Node2&#45;&gt;Node3 -->
<g id="edge2" class="edge"><title>Node2&#45;&gt;Node3</title>
<path fill="none" stroke="midnightblue" d="M186.035,-157.913C194.297,-158.186 202.978,-158.472 211.75,-158.761"/>
<polygon fill="midnightblue" stroke="midnightblue" points="185.928,-154.408 175.818,-157.576 185.698,-161.404 185.928,-154.408"/>
</g>
<!-- Node4 -->
<g id="node4" class="node"><title>Node4</title>
<g id="a_node4"><a xlink:href="namespacecaiman_1_1components__evaluation.html#a967e8c445c84976814609f9c120153a2" target="_top" xlink:title="Define a metric and order components according to the probabilty if some &quot;exceptional events&quot; (like a...">
<polygon fill="white" stroke="black" points="212,-98 212,-128 410,-128 410,-98 212,-98"/>
<text text-anchor="start" x="220" y="-116" font-family="Helvetica,sans-Serif" font-size="10.00">caiman.components_evaluation.compute</text>
<text text-anchor="middle" x="311" y="-105" font-family="Helvetica,sans-Serif" font-size="10.00">_event_exceptionality</text>
</a>
</g>
</g>
<!-- Node2&#45;&gt;Node4 -->
<g id="edge3" class="edge"><title>Node2&#45;&gt;Node4</title>
<path fill="none" stroke="midnightblue" d="M178.127,-144.157C199.255,-139.165 224.095,-133.296 246.485,-128.006"/>
<polygon fill="midnightblue" stroke="midnightblue" points="177.319,-140.751 168.392,-146.457 178.929,-147.564 177.319,-140.751"/>
</g>
<!-- Node5 -->
<g id="node5" class="node"><title>Node5</title>
<g id="a_node5"><a xlink:href="namespacecaiman_1_1components__evaluation.html#ad2a8435be788c8e75130e41f884adb0f" target="_top" xlink:title="Define a metric and order components according to the probabilty if some &quot;exceptional events&quot; (like a...">
<polygon fill="white" stroke="black" points="446,-98 446,-128 644,-128 644,-98 446,-98"/>
<text text-anchor="start" x="454" y="-116" font-family="Helvetica,sans-Serif" font-size="10.00">caiman.components_evaluation.evaluate</text>
<text text-anchor="middle" x="545" y="-105" font-family="Helvetica,sans-Serif" font-size="10.00">_components</text>
</a>
</g>
</g>
<!-- Node4&#45;&gt;Node5 -->
<g id="edge4" class="edge"><title>Node4&#45;&gt;Node5</title>
<path fill="none" stroke="midnightblue" d="M420.119,-113C428.727,-113 437.393,-113 445.926,-113"/>
<polygon fill="midnightblue" stroke="midnightblue" points="420.053,-109.5 410.053,-113 420.053,-116.5 420.053,-109.5"/>
</g>
<!-- Node6 -->
<g id="node6" class="node"><title>Node6</title>
<g id="a_node6"><a xlink:href="namespacecaiman_1_1components__evaluation.html#ad0d76d63424939fa0004f5cc800f0105" target="_top" xlink:title="caiman.components_evaluation.classify\l_components_ep">
<polygon fill="white" stroke="black" points="682.5,-98 682.5,-128 875.5,-128 875.5,-98 682.5,-98"/>
<text text-anchor="start" x="690.5" y="-116" font-family="Helvetica,sans-Serif" font-size="10.00">caiman.components_evaluation.classify</text>
<text text-anchor="middle" x="779" y="-105" font-family="Helvetica,sans-Serif" font-size="10.00">_components_ep</text>
</a>
</g>
</g>
<!-- Node5&#45;&gt;Node6 -->
<g id="edge5" class="edge"><title>Node5&#45;&gt;Node6</title>
<path fill="none" stroke="midnightblue" d="M654.154,-106.264C663.499,-106.231 672.912,-106.257 682.149,-106.341"/>
<polygon fill="midnightblue" stroke="midnightblue" points="654.032,-102.764 644.053,-106.322 654.073,-109.764 654.032,-102.764"/>
</g>
<!-- Node7 -->
<g id="node7" class="node"><title>Node7</title>
<g id="a_node7"><a xlink:href="namespacecaiman_1_1components__evaluation.html#afc8731dfc865b4380b0e0894bbb3a34d" target="_top" xlink:title="Define a metric and order components according to the probabilty if some &quot;exceptional events&quot; (like a...">
<polygon fill="white" stroke="black" points="680,-49 680,-79 878,-79 878,-49 680,-49"/>
<text text-anchor="start" x="688" y="-67" font-family="Helvetica,sans-Serif" font-size="10.00">caiman.components_evaluation.estimate</text>
<text text-anchor="middle" x="779" y="-56" font-family="Helvetica,sans-Serif" font-size="10.00">_components_quality</text>
</a>
</g>
</g>
<!-- Node5&#45;&gt;Node7 -->
<g id="edge7" class="edge"><title>Node5&#45;&gt;Node7</title>
<path fill="none" stroke="midnightblue" d="M627.023,-95.8873C653.058,-90.3885 681.687,-84.342 706.95,-79.0062"/>
<polygon fill="midnightblue" stroke="midnightblue" points="626.245,-92.4744 617.184,-97.9654 627.692,-99.3233 626.245,-92.4744"/>
</g>
<!-- Node6&#45;&gt;Node5 -->
<g id="edge6" class="edge"><title>Node6&#45;&gt;Node5</title>
<path fill="none" stroke="midnightblue" d="M672.069,-119.727C662.736,-119.769 653.316,-119.753 644.053,-119.678"/>
<polygon fill="midnightblue" stroke="midnightblue" points="672.173,-123.227 682.149,-119.659 672.126,-116.227 672.173,-123.227"/>
</g>
<!-- Node8 -->
<g id="node8" class="node"><title>Node8</title>
<g id="a_node8"><a xlink:href="namespacecaiman_1_1components__evaluation.html#a68ebc78b1982bec697fe2fd84e6f997e" target="_top" xlink:title="caiman.components_evaluation.chunker">
<polygon fill="white" stroke="black" points="914.5,-98.5 914.5,-117.5 1109.5,-117.5 1109.5,-98.5 914.5,-98.5"/>
<text text-anchor="middle" x="1012" y="-105.5" font-family="Helvetica,sans-Serif" font-size="10.00">caiman.components_evaluation.chunker</text>
</a>
</g>
</g>
<!-- Node7&#45;&gt;Node8 -->
<g id="edge8" class="edge"><title>Node7&#45;&gt;Node8</title>
<path fill="none" stroke="midnightblue" d="M868.89,-80.9314C900.146,-86.885 934.152,-93.3623 961.06,-98.4876"/>
<polygon fill="midnightblue" stroke="midnightblue" points="869.329,-77.4523 858.851,-79.0192 868.019,-84.3286 869.329,-77.4523"/>
</g>
<!-- Node9 -->
<g id="node9" class="node"><title>Node9</title>
<g id="a_node9"><a xlink:href="namespacecaiman_1_1tests_1_1comparison_1_1create__gt.html#a6d8adb7810bd5f7de466b0a661a69743" target="_top" xlink:title="the function that will create a groundtruth ">
<polygon fill="white" stroke="black" points="933,-49 933,-79 1091,-79 1091,-49 933,-49"/>
<text text-anchor="start" x="941" y="-67" font-family="Helvetica,sans-Serif" font-size="10.00">caiman.tests.comparison.create</text>
<text text-anchor="middle" x="1012" y="-56" font-family="Helvetica,sans-Serif" font-size="10.00">_gt.create</text>
</a>
</g>
</g>
<!-- Node7&#45;&gt;Node9 -->
<g id="edge9" class="edge"><title>Node7&#45;&gt;Node9</title>
<path fill="none" stroke="midnightblue" d="M888.572,-64C903.462,-64 918.507,-64 932.711,-64"/>
<polygon fill="midnightblue" stroke="midnightblue" points="888.3,-60.5001 878.3,-64 888.3,-67.5001 888.3,-60.5001"/>
</g>
<!-- Node10 -->
<g id="node10" class="node"><title>Node10</title>
<g id="a_node10"><a xlink:href="namespacecaiman_1_1tests_1_1comparison_1_1investigative__comparison.html#a50b1b2517f6b995f96014e15fa877ba7" target="_top" xlink:title="the function that will do the test ">
<polygon fill="white" stroke="black" points="919.5,-0 919.5,-30 1104.5,-30 1104.5,-0 919.5,-0"/>
<text text-anchor="start" x="927.5" y="-18" font-family="Helvetica,sans-Serif" font-size="10.00">caiman.tests.comparison.investigative</text>
<text text-anchor="middle" x="1012" y="-7" font-family="Helvetica,sans-Serif" font-size="10.00">_comparison.test_general</text>
</a>
</g>
</g>
<!-- Node7&#45;&gt;Node10 -->
<g id="edge10" class="edge"><title>Node7&#45;&gt;Node10</title>
<path fill="none" stroke="midnightblue" d="M860.674,-46.8873C886.597,-41.3885 915.102,-35.342 940.257,-30.0062"/>
<polygon fill="midnightblue" stroke="midnightblue" points="859.934,-43.4664 850.877,-48.9654 861.386,-50.3141 859.934,-43.4664"/>
</g>
<!-- Node11&#45;&gt;Node3 -->
<g id="edge12" class="edge"><title>Node11&#45;&gt;Node3</title>
<path fill="none" stroke="midnightblue" d="M174.691,-129.288C196.927,-134.664 223.833,-141.168 247.776,-146.957"/>
<polygon fill="midnightblue" stroke="midnightblue" points="175.373,-125.852 164.83,-126.904 173.728,-132.656 175.373,-125.852"/>
</g>
<!-- Node11&#45;&gt;Node4 -->
<g id="edge13" class="edge"><title>Node11&#45;&gt;Node4</title>
<path fill="none" stroke="midnightblue" d="M174.946,-116.71C186.366,-116.397 199.006,-116.049 211.838,-115.697"/>
<polygon fill="midnightblue" stroke="midnightblue" points="174.73,-113.215 164.83,-116.988 174.923,-120.212 174.73,-113.215"/>
</g>
</g>
</svg>
