<?xml version="1.0" encoding="UTF-8" standalone="no"?>
<!DOCTYPE svg PUBLIC "-//W3C//DTD SVG 1.1//EN"
 "http://www.w3.org/Graphics/SVG/1.1/DTD/svg11.dtd">
<!-- Generated by graphviz version 2.36.0 (20140111.2315)
 -->
<!-- Title: motion_correct_online Pages: 1 -->
<svg width="506pt" height="87pt"
 viewBox="0.00 0.00 506.00 87.00" xmlns="http://www.w3.org/2000/svg" xmlns:xlink="http://www.w3.org/1999/xlink">
<g id="graph0" class="graph" transform="scale(1 1) rotate(0) translate(4 83)">
<title>motion_correct_online</title>
<polygon fill="white" stroke="none" points="-4,4 -4,-83 502,-83 502,4 -4,4"/>
<!-- Node106 -->
<g id="node1" class="node"><title>Node106</title>
<polygon fill="#bfbfbf" stroke="black" points="0.5,-29.5 0.5,-48.5 115.5,-48.5 115.5,-29.5 0.5,-29.5"/>
<text text-anchor="middle" x="58" y="-36.5" font-family="Helvetica,sans-Serif" font-size="10.00">motion_correct_online</text>
</g>
<!-- Node107 -->
<g id="node2" class="node"><title>Node107</title>
<g id="a_node2"><a xlink:href="namespacecaiman_1_1motion__correction.html#aef9c5f795aeb47c5b86066492953fc4f" target="_top" xlink:title="motion_correct_online\l_multifile">
<polygon fill="white" stroke="black" points="179.5,-49 179.5,-79 294.5,-79 294.5,-49 179.5,-49"/>
<text text-anchor="start" x="187.5" y="-67" font-family="Helvetica,sans-Serif" font-size="10.00">motion_correct_online</text>
<text text-anchor="middle" x="237" y="-56" font-family="Helvetica,sans-Serif" font-size="10.00">_multifile</text>
</a>
</g>
</g>
<!-- Node106&#45;&gt;Node107 -->
<g id="edge1" class="edge"><title>Node106&#45;&gt;Node107</title>
<path fill="none" stroke="midnightblue" d="M126.159,-48.4858C143.723,-50.9666 162.48,-53.6158 179.431,-56.0101"/>
<polygon fill="midnightblue" stroke="midnightblue" points="126.369,-44.9808 115.978,-47.0478 125.39,-51.912 126.369,-44.9808"/>
</g>
<!-- Node108 -->
<g id="node3" class="node"><title>Node108</title>
<g id="a_node3"><a xlink:href="classcaiman_1_1base_1_1movies_1_1movie.html#a9ea3b23aad7b04c484259dc0f2117aed" target="_top" xlink:title="caiman.base.movies.movie.motion\l_correction_online">
<polygon fill="white" stroke="black" points="152,-0 152,-30 322,-30 322,-0 152,-0"/>
<text text-anchor="start" x="160" y="-18" font-family="Helvetica,sans-Serif" font-size="10.00">caiman.base.movies.movie.motion</text>
<text text-anchor="middle" x="237" y="-7" font-family="Helvetica,sans-Serif" font-size="10.00">_correction_online</text>
</a>
</g>
</g>
<!-- Node106&#45;&gt;Node108 -->
<g id="edge2" class="edge"><title>Node106&#45;&gt;Node108</title>
<path fill="none" stroke="midnightblue" d="M126.061,-29.907C134.457,-28.7686 143.126,-27.593 151.742,-26.4248"/>
<polygon fill="midnightblue" stroke="midnightblue" points="125.417,-26.4622 115.978,-31.2741 126.358,-33.3987 125.417,-26.4622"/>
</g>
<!-- Node109 -->
<g id="node4" class="node"><title>Node109</title>
<g id="a_node4"><a xlink:href="classcaiman_1_1base_1_1movies_1_1movie.html#adcd77e28fc825e081a417d36501c1021" target="_top" xlink:title="caiman.base.movies.movie.\l__new__">
<polygon fill="white" stroke="black" points="358,-0 358,-30 498,-30 498,-0 358,-0"/>
<text text-anchor="start" x="366" y="-18" font-family="Helvetica,sans-Serif" font-size="10.00">caiman.base.movies.movie.</text>
<text text-anchor="middle" x="428" y="-7" font-family="Helvetica,sans-Serif" font-size="10.00">__new__</text>
</a>
</g>
</g>
<!-- Node108&#45;&gt;Node109 -->
<g id="edge3" class="edge"><title>Node108&#45;&gt;Node109</title>
<path fill="none" stroke="midnightblue" d="M332.359,-15C340.965,-15 349.572,-15 357.896,-15"/>
<polygon fill="midnightblue" stroke="midnightblue" points="332.274,-11.5001 322.274,-15 332.274,-18.5001 332.274,-11.5001"/>
</g>
</g>
</svg>
