<?xml version="1.0" encoding="UTF-8" standalone="no"?>
<!DOCTYPE svg PUBLIC "-//W3C//DTD SVG 1.1//EN"
 "http://www.w3.org/Graphics/SVG/1.1/DTD/svg11.dtd">
<!-- Generated by graphviz version 2.36.0 (20140111.2315)
 -->
<!-- Title: save_place_holder Pages: 1 -->
<svg width="388pt" height="28pt"
 viewBox="0.00 0.00 388.00 28.00" xmlns="http://www.w3.org/2000/svg" xmlns:xlink="http://www.w3.org/1999/xlink">
<g id="graph0" class="graph" transform="scale(1 1) rotate(0) translate(4 24)">
<title>save_place_holder</title>
<polygon fill="white" stroke="none" points="-4,4 -4,-24 384,-24 384,4 -4,4"/>
<!-- Node74 -->
<g id="node1" class="node"><title>Node74</title>
<polygon fill="#bfbfbf" stroke="black" points="0,-0.5 0,-19.5 100,-19.5 100,-0.5 0,-0.5"/>
<text text-anchor="middle" x="50" y="-7.5" font-family="Helvetica,sans-Serif" font-size="10.00">save_place_holder</text>
</g>
<!-- Node75 -->
<g id="node2" class="node"><title>Node75</title>
<g id="a_node2"><a xlink:href="namespacecaiman_1_1mmapping.html#a9b91f0f0beb14445934247cd13240698" target="_top" xlink:title="Saves efficiently a list of tif files into a memory mappable file. ">
<polygon fill="white" stroke="black" points="136.5,-0.5 136.5,-19.5 221.5,-19.5 221.5,-0.5 136.5,-0.5"/>
<text text-anchor="middle" x="179" y="-7.5" font-family="Helvetica,sans-Serif" font-size="10.00">save_memmap</text>
</a>
</g>
</g>
<!-- Node74&#45;&gt;Node75 -->
<g id="edge1" class="edge"><title>Node74&#45;&gt;Node75</title>
<path fill="none" stroke="midnightblue" d="M100.102,-10C108.731,-10 117.734,-10 126.428,-10"/>
<polygon fill="midnightblue" stroke="midnightblue" points="126.451,-13.5001 136.451,-10 126.451,-6.5001 126.451,-13.5001"/>
</g>
<!-- Node76 -->
<g id="node3" class="node"><title>Node76</title>
<g id="a_node3"><a xlink:href="namespacecaiman_1_1mmapping.html#a0ca76459e4a04193dae30f0cf41cb779" target="_top" xlink:title="Saves efficiently a list of tif files into a memory mappable file. ">
<polygon fill="white" stroke="black" points="258,-0.5 258,-19.5 380,-19.5 380,-0.5 258,-0.5"/>
<text text-anchor="middle" x="319" y="-7.5" font-family="Helvetica,sans-Serif" font-size="10.00">save_memmap_chunks</text>
</a>
</g>
</g>
<!-- Node75&#45;&gt;Node76 -->
<g id="edge2" class="edge"><title>Node75&#45;&gt;Node76</title>
<path fill="none" stroke="midnightblue" d="M221.779,-10C230.021,-10 238.881,-10 247.767,-10"/>
<polygon fill="midnightblue" stroke="midnightblue" points="247.781,-13.5001 257.781,-10 247.781,-6.5001 247.781,-13.5001"/>
</g>
</g>
</svg>
