<?xml version="1.0" encoding="UTF-8" standalone="no"?>
<!DOCTYPE svg PUBLIC "-//W3C//DTD SVG 1.1//EN"
 "http://www.w3.org/Graphics/SVG/1.1/DTD/svg11.dtd">
<!-- Generated by graphviz version 2.36.0 (20140111.2315)
 -->
<!-- Title: extract_patch_coordinates Pages: 1 -->
<svg width="356pt" height="115pt"
 viewBox="0.00 0.00 356.00 115.00" xmlns="http://www.w3.org/2000/svg" xmlns:xlink="http://www.w3.org/1999/xlink">
<g id="graph0" class="graph" transform="scale(1 1) rotate(0) translate(4 111)">
<title>extract_patch_coordinates</title>
<polygon fill="white" stroke="none" points="-4,4 -4,-111 352,-111 352,4 -4,4"/>
<!-- Node4 -->
<g id="node1" class="node"><title>Node4</title>
<polygon fill="#bfbfbf" stroke="black" points="0,-49.5 0,-68.5 134,-68.5 134,-49.5 0,-49.5"/>
<text text-anchor="middle" x="67" y="-56.5" font-family="Helvetica,sans-Serif" font-size="10.00">extract_patch_coordinates</text>
</g>
<!-- Node5 -->
<g id="node2" class="node"><title>Node5</title>
<g id="a_node2"><a xlink:href="namespacecaiman_1_1cluster.html#a37de3dc274656637965b654ffc856e2f" target="_top" xlink:title="get_patches_from_image">
<polygon fill="white" stroke="black" points="194.5,-87.5 194.5,-106.5 323.5,-106.5 323.5,-87.5 194.5,-87.5"/>
<text text-anchor="middle" x="259" y="-94.5" font-family="Helvetica,sans-Serif" font-size="10.00">get_patches_from_image</text>
</a>
</g>
</g>
<!-- Node4&#45;&gt;Node5 -->
<g id="edge1" class="edge"><title>Node4&#45;&gt;Node5</title>
<path fill="none" stroke="midnightblue" d="M126.048,-70.6095C153.07,-76.014 184.818,-82.3635 210.4,-87.4799"/>
<polygon fill="midnightblue" stroke="midnightblue" points="126.437,-67.1182 115.945,-68.589 125.064,-73.9823 126.437,-67.1182"/>
</g>
<!-- Node6 -->
<g id="node3" class="node"><title>Node6</title>
<g id="a_node3"><a xlink:href="namespacecaiman_1_1cluster.html#a225b519413ba9700997a06cfa2469ff4" target="_top" xlink:title="apply function to patches in parallel or not ">
<polygon fill="white" stroke="black" points="217,-49.5 217,-68.5 301,-68.5 301,-49.5 217,-49.5"/>
<text text-anchor="middle" x="259" y="-56.5" font-family="Helvetica,sans-Serif" font-size="10.00">apply_to_patch</text>
</a>
</g>
</g>
<!-- Node4&#45;&gt;Node6 -->
<g id="edge2" class="edge"><title>Node4&#45;&gt;Node6</title>
<path fill="none" stroke="midnightblue" d="M144.323,-59C169.137,-59 195.721,-59 216.938,-59"/>
<polygon fill="midnightblue" stroke="midnightblue" points="144.186,-55.5001 134.186,-59 144.186,-62.5001 144.186,-55.5001"/>
</g>
<!-- Node7 -->
<g id="node4" class="node"><title>Node7</title>
<g id="a_node4"><a xlink:href="namespacecaiman_1_1source__extraction_1_1cnmf_1_1map__reduce.html#affc25cb11b12edae4343574054636eee" target="_top" xlink:title="Function that runs CNMF in patches. ">
<polygon fill="white" stroke="black" points="170.5,-0 170.5,-30 347.5,-30 347.5,-0 170.5,-0"/>
<text text-anchor="start" x="178.5" y="-18" font-family="Helvetica,sans-Serif" font-size="10.00">caiman.source_extraction.cnmf.map</text>
<text text-anchor="middle" x="259" y="-7" font-family="Helvetica,sans-Serif" font-size="10.00">_reduce.run_CNMF_patches</text>
</a>
</g>
</g>
<!-- Node4&#45;&gt;Node7 -->
<g id="edge3" class="edge"><title>Node4&#45;&gt;Node7</title>
<path fill="none" stroke="midnightblue" d="M119.011,-47.1868C141.741,-41.9231 168.783,-35.6609 192.945,-30.0654"/>
<polygon fill="midnightblue" stroke="midnightblue" points="118.18,-43.7867 109.227,-49.4527 119.759,-50.6063 118.18,-43.7867"/>
</g>
</g>
</svg>
