<?xml version="1.0" encoding="UTF-8" standalone="no"?>
<!DOCTYPE svg PUBLIC "-//W3C//DTD SVG 1.1//EN"
 "http://www.w3.org/Graphics/SVG/1.1/DTD/svg11.dtd">
<!-- Generated by graphviz version 2.36.0 (20140111.2315)
 -->
<!-- Title: mode_robust Pages: 1 -->
<svg width="1018pt" height="185pt"
 viewBox="0.00 0.00 1018.00 185.00" xmlns="http://www.w3.org/2000/svg" xmlns:xlink="http://www.w3.org/1999/xlink">
<g id="graph0" class="graph" transform="scale(1 1) rotate(0) translate(4 181)">
<title>mode_robust</title>
<polygon fill="white" stroke="none" points="-4,4 -4,-181 1014,-181 1014,4 -4,4"/>
<!-- Node14 -->
<g id="node1" class="node"><title>Node14</title>
<polygon fill="#bfbfbf" stroke="black" points="0.5,-127.5 0.5,-146.5 75.5,-146.5 75.5,-127.5 0.5,-127.5"/>
<text text-anchor="middle" x="38" y="-134.5" font-family="Helvetica,sans-Serif" font-size="10.00">mode_robust</text>
</g>
<!-- Node15 -->
<g id="node2" class="node"><title>Node15</title>
<g id="a_node2"><a xlink:href="namespacecaiman_1_1components__evaluation.html#a115ea8d0f9c41cb31cb7fe05535f65f7" target="_top" xlink:title="estimate the noise in the traces under assumption that signals are sparse and only positive...">
<polygon fill="white" stroke="black" points="112,-147 112,-177 310,-177 310,-147 112,-147"/>
<text text-anchor="start" x="120" y="-165" font-family="Helvetica,sans-Serif" font-size="10.00">caiman.components_evaluation.estimate</text>
<text text-anchor="middle" x="211" y="-154" font-family="Helvetica,sans-Serif" font-size="10.00">_noise_mode</text>
</a>
</g>
</g>
<!-- Node14&#45;&gt;Node15 -->
<g id="edge1" class="edge"><title>Node14&#45;&gt;Node15</title>
<path fill="none" stroke="midnightblue" d="M85.7743,-143.838C94.0228,-145.044 102.881,-146.339 111.931,-147.662"/>
<polygon fill="midnightblue" stroke="midnightblue" points="86.0849,-140.347 75.6838,-142.363 85.0723,-147.273 86.0849,-140.347"/>
</g>
<!-- Node16 -->
<g id="node3" class="node"><title>Node16</title>
<g id="a_node3"><a xlink:href="namespacecaiman_1_1components__evaluation.html#a967e8c445c84976814609f9c120153a2" target="_top" xlink:title="Define a metric and order components according to the probabilty if some &quot;exceptional events&quot; (like a...">
<polygon fill="white" stroke="black" points="112,-98 112,-128 310,-128 310,-98 112,-98"/>
<text text-anchor="start" x="120" y="-116" font-family="Helvetica,sans-Serif" font-size="10.00">caiman.components_evaluation.compute</text>
<text text-anchor="middle" x="211" y="-105" font-family="Helvetica,sans-Serif" font-size="10.00">_event_exceptionality</text>
</a>
</g>
</g>
<!-- Node14&#45;&gt;Node16 -->
<g id="edge2" class="edge"><title>Node14&#45;&gt;Node16</title>
<path fill="none" stroke="midnightblue" d="M85.7743,-130.435C94.0228,-129.278 102.881,-128.034 111.931,-126.764"/>
<polygon fill="midnightblue" stroke="midnightblue" points="85.1002,-126.995 75.6838,-131.851 86.0732,-133.927 85.1002,-126.995"/>
</g>
<!-- Node17 -->
<g id="node4" class="node"><title>Node17</title>
<g id="a_node4"><a xlink:href="namespacecaiman_1_1components__evaluation.html#ad2a8435be788c8e75130e41f884adb0f" target="_top" xlink:title="Define a metric and order components according to the probabilty if some &quot;exceptional events&quot; (like a...">
<polygon fill="white" stroke="black" points="346,-98 346,-128 544,-128 544,-98 346,-98"/>
<text text-anchor="start" x="354" y="-116" font-family="Helvetica,sans-Serif" font-size="10.00">caiman.components_evaluation.evaluate</text>
<text text-anchor="middle" x="445" y="-105" font-family="Helvetica,sans-Serif" font-size="10.00">_components</text>
</a>
</g>
</g>
<!-- Node16&#45;&gt;Node17 -->
<g id="edge3" class="edge"><title>Node16&#45;&gt;Node17</title>
<path fill="none" stroke="midnightblue" d="M320.119,-113C328.727,-113 337.393,-113 345.926,-113"/>
<polygon fill="midnightblue" stroke="midnightblue" points="320.053,-109.5 310.053,-113 320.053,-116.5 320.053,-109.5"/>
</g>
<!-- Node18 -->
<g id="node5" class="node"><title>Node18</title>
<g id="a_node5"><a xlink:href="namespacecaiman_1_1components__evaluation.html#ad0d76d63424939fa0004f5cc800f0105" target="_top" xlink:title="caiman.components_evaluation.classify\l_components_ep">
<polygon fill="white" stroke="black" points="582.5,-98 582.5,-128 775.5,-128 775.5,-98 582.5,-98"/>
<text text-anchor="start" x="590.5" y="-116" font-family="Helvetica,sans-Serif" font-size="10.00">caiman.components_evaluation.classify</text>
<text text-anchor="middle" x="679" y="-105" font-family="Helvetica,sans-Serif" font-size="10.00">_components_ep</text>
</a>
</g>
</g>
<!-- Node17&#45;&gt;Node18 -->
<g id="edge4" class="edge"><title>Node17&#45;&gt;Node18</title>
<path fill="none" stroke="midnightblue" d="M554.154,-106.264C563.499,-106.231 572.912,-106.257 582.149,-106.341"/>
<polygon fill="midnightblue" stroke="midnightblue" points="554.032,-102.764 544.053,-106.322 554.073,-109.764 554.032,-102.764"/>
</g>
<!-- Node19 -->
<g id="node6" class="node"><title>Node19</title>
<g id="a_node6"><a xlink:href="namespacecaiman_1_1components__evaluation.html#afc8731dfc865b4380b0e0894bbb3a34d" target="_top" xlink:title="Define a metric and order components according to the probabilty if some &quot;exceptional events&quot; (like a...">
<polygon fill="white" stroke="black" points="580,-49 580,-79 778,-79 778,-49 580,-49"/>
<text text-anchor="start" x="588" y="-67" font-family="Helvetica,sans-Serif" font-size="10.00">caiman.components_evaluation.estimate</text>
<text text-anchor="middle" x="679" y="-56" font-family="Helvetica,sans-Serif" font-size="10.00">_components_quality</text>
</a>
</g>
</g>
<!-- Node17&#45;&gt;Node19 -->
<g id="edge6" class="edge"><title>Node17&#45;&gt;Node19</title>
<path fill="none" stroke="midnightblue" d="M527.023,-95.8873C553.058,-90.3885 581.687,-84.342 606.95,-79.0062"/>
<polygon fill="midnightblue" stroke="midnightblue" points="526.245,-92.4744 517.184,-97.9654 527.692,-99.3233 526.245,-92.4744"/>
</g>
<!-- Node18&#45;&gt;Node17 -->
<g id="edge5" class="edge"><title>Node18&#45;&gt;Node17</title>
<path fill="none" stroke="midnightblue" d="M572.069,-119.727C562.736,-119.769 553.316,-119.753 544.053,-119.678"/>
<polygon fill="midnightblue" stroke="midnightblue" points="572.173,-123.227 582.149,-119.659 572.126,-116.227 572.173,-123.227"/>
</g>
<!-- Node20 -->
<g id="node7" class="node"><title>Node20</title>
<g id="a_node7"><a xlink:href="namespacecaiman_1_1components__evaluation.html#a68ebc78b1982bec697fe2fd84e6f997e" target="_top" xlink:title="caiman.components_evaluation.chunker">
<polygon fill="white" stroke="black" points="814.5,-98.5 814.5,-117.5 1009.5,-117.5 1009.5,-98.5 814.5,-98.5"/>
<text text-anchor="middle" x="912" y="-105.5" font-family="Helvetica,sans-Serif" font-size="10.00">caiman.components_evaluation.chunker</text>
</a>
</g>
</g>
<!-- Node19&#45;&gt;Node20 -->
<g id="edge7" class="edge"><title>Node19&#45;&gt;Node20</title>
<path fill="none" stroke="midnightblue" d="M768.89,-80.9314C800.146,-86.885 834.152,-93.3623 861.06,-98.4876"/>
<polygon fill="midnightblue" stroke="midnightblue" points="769.329,-77.4523 758.851,-79.0192 768.019,-84.3286 769.329,-77.4523"/>
</g>
<!-- Node21 -->
<g id="node8" class="node"><title>Node21</title>
<g id="a_node8"><a xlink:href="namespacecaiman_1_1tests_1_1comparison_1_1create__gt.html#a6d8adb7810bd5f7de466b0a661a69743" target="_top" xlink:title="the function that will create a groundtruth ">
<polygon fill="white" stroke="black" points="833,-49 833,-79 991,-79 991,-49 833,-49"/>
<text text-anchor="start" x="841" y="-67" font-family="Helvetica,sans-Serif" font-size="10.00">caiman.tests.comparison.create</text>
<text text-anchor="middle" x="912" y="-56" font-family="Helvetica,sans-Serif" font-size="10.00">_gt.create</text>
</a>
</g>
</g>
<!-- Node19&#45;&gt;Node21 -->
<g id="edge8" class="edge"><title>Node19&#45;&gt;Node21</title>
<path fill="none" stroke="midnightblue" d="M788.572,-64C803.462,-64 818.507,-64 832.711,-64"/>
<polygon fill="midnightblue" stroke="midnightblue" points="788.3,-60.5001 778.3,-64 788.3,-67.5001 788.3,-60.5001"/>
</g>
<!-- Node22 -->
<g id="node9" class="node"><title>Node22</title>
<g id="a_node9"><a xlink:href="namespacecaiman_1_1tests_1_1comparison_1_1investigative__comparison.html#a50b1b2517f6b995f96014e15fa877ba7" target="_top" xlink:title="the function that will do the test ">
<polygon fill="white" stroke="black" points="819.5,-0 819.5,-30 1004.5,-30 1004.5,-0 819.5,-0"/>
<text text-anchor="start" x="827.5" y="-18" font-family="Helvetica,sans-Serif" font-size="10.00">caiman.tests.comparison.investigative</text>
<text text-anchor="middle" x="912" y="-7" font-family="Helvetica,sans-Serif" font-size="10.00">_comparison.test_general</text>
</a>
</g>
</g>
<!-- Node19&#45;&gt;Node22 -->
<g id="edge9" class="edge"><title>Node19&#45;&gt;Node22</title>
<path fill="none" stroke="midnightblue" d="M760.674,-46.8873C786.597,-41.3885 815.102,-35.342 840.257,-30.0062"/>
<polygon fill="midnightblue" stroke="midnightblue" points="759.934,-43.4664 750.877,-48.9654 761.386,-50.3141 759.934,-43.4664"/>
</g>
</g>
</svg>
