<?xml version="1.0" encoding="UTF-8" standalone="no"?>
<!DOCTYPE svg PUBLIC "-//W3C//DTD SVG 1.1//EN"
 "http://www.w3.org/Graphics/SVG/1.1/DTD/svg11.dtd">
<!-- Generated by graphviz version 2.36.0 (20140111.2315)
 -->
<!-- Title: nf_read_roi Pages: 1 -->
<svg width="328pt" height="28pt"
 viewBox="0.00 0.00 328.00 28.00" xmlns="http://www.w3.org/2000/svg" xmlns:xlink="http://www.w3.org/1999/xlink">
<g id="graph0" class="graph" transform="scale(1 1) rotate(0) translate(4 24)">
<title>nf_read_roi</title>
<polygon fill="white" stroke="none" points="-4,4 -4,-24 324,-24 324,4 -4,4"/>
<!-- Node62 -->
<g id="node1" class="node"><title>Node62</title>
<polygon fill="#bfbfbf" stroke="black" points="0.5,-0.5 0.5,-19.5 67.5,-19.5 67.5,-0.5 0.5,-0.5"/>
<text text-anchor="middle" x="34" y="-7.5" font-family="Helvetica,sans-Serif" font-size="10.00">nf_read_roi</text>
</g>
<!-- Node63 -->
<g id="node2" class="node"><title>Node63</title>
<g id="a_node2"><a xlink:href="namespacecaiman_1_1base_1_1rois.html#a9c5a9463f0aa19a2b004192adff1e5fe" target="_top" xlink:title="nf_read_roi_zip">
<polygon fill="white" stroke="black" points="104.5,-0.5 104.5,-19.5 189.5,-19.5 189.5,-0.5 104.5,-0.5"/>
<text text-anchor="middle" x="147" y="-7.5" font-family="Helvetica,sans-Serif" font-size="10.00">nf_read_roi_zip</text>
</a>
</g>
</g>
<!-- Node62&#45;&gt;Node63 -->
<g id="edge1" class="edge"><title>Node62&#45;&gt;Node63</title>
<path fill="none" stroke="midnightblue" d="M77.735,-10C86.5045,-10 95.7236,-10 104.451,-10"/>
<polygon fill="midnightblue" stroke="midnightblue" points="77.7033,-6.5001 67.7033,-10 77.7033,-13.5001 77.7033,-6.5001"/>
</g>
<!-- Node64 -->
<g id="node3" class="node"><title>Node64</title>
<g id="a_node3"><a xlink:href="namespacecaiman_1_1base_1_1rois.html#a070957c81de2e5bac645b9e74264edad" target="_top" xlink:title="Removes duplicate ROIs from file file_name. ">
<polygon fill="white" stroke="black" points="226,-0.5 226,-19.5 320,-19.5 320,-0.5 226,-0.5"/>
<text text-anchor="middle" x="273" y="-7.5" font-family="Helvetica,sans-Serif" font-size="10.00">detect_duplicates</text>
</a>
</g>
</g>
<!-- Node63&#45;&gt;Node64 -->
<g id="edge2" class="edge"><title>Node63&#45;&gt;Node64</title>
<path fill="none" stroke="midnightblue" d="M199.704,-10C208.427,-10 217.43,-10 225.996,-10"/>
<polygon fill="midnightblue" stroke="midnightblue" points="199.635,-6.5001 189.635,-10 199.635,-13.5001 199.635,-6.5001"/>
</g>
</g>
</svg>
