<?xml version="1.0" encoding="UTF-8" standalone="no"?>
<!DOCTYPE svg PUBLIC "-//W3C//DTD SVG 1.1//EN"
 "http://www.w3.org/Graphics/SVG/1.1/DTD/svg11.dtd">
<!-- Generated by graphviz version 2.36.0 (20140111.2315)
 -->
<!-- Title: compute_flow_single_frame Pages: 1 -->
<svg width="408pt" height="77pt"
 viewBox="0.00 0.00 408.00 77.00" xmlns="http://www.w3.org/2000/svg" xmlns:xlink="http://www.w3.org/1999/xlink">
<g id="graph0" class="graph" transform="scale(1 1) rotate(0) translate(4 73)">
<title>compute_flow_single_frame</title>
<polygon fill="white" stroke="none" points="-4,4 -4,-73 404,-73 404,4 -4,4"/>
<!-- Node48 -->
<g id="node1" class="node"><title>Node48</title>
<polygon fill="#bfbfbf" stroke="black" points="0,-39 0,-69 110,-69 110,-39 0,-39"/>
<text text-anchor="start" x="8" y="-57" font-family="Helvetica,sans-Serif" font-size="10.00">compute_flow_single</text>
<text text-anchor="middle" x="55" y="-46" font-family="Helvetica,sans-Serif" font-size="10.00">_frame</text>
</g>
<!-- Node49 -->
<g id="node2" class="node"><title>Node49</title>
<g id="a_node2"><a xlink:href="namespacecaiman_1_1motion__correction.html#aea060208c09f0e4fb01e6d31b9acf36f" target="_top" xlink:title="perform piecewise rigid motion correction iteration, by 1) dividing the FOV in patches 2) motion corr...">
<polygon fill="white" stroke="black" points="146,-44.5 146,-63.5 234,-63.5 234,-44.5 146,-44.5"/>
<text text-anchor="middle" x="190" y="-51.5" font-family="Helvetica,sans-Serif" font-size="10.00">tile_and_correct</text>
</a>
</g>
</g>
<!-- Node48&#45;&gt;Node49 -->
<g id="edge1" class="edge"><title>Node48&#45;&gt;Node49</title>
<path fill="none" stroke="midnightblue" d="M120.264,-54C128.977,-54 137.741,-54 145.956,-54"/>
<polygon fill="midnightblue" stroke="midnightblue" points="120.096,-50.5001 110.096,-54 120.096,-57.5001 120.096,-50.5001"/>
</g>
<!-- Node50 -->
<g id="node3" class="node"><title>Node50</title>
<g id="a_node3"><a xlink:href="namespacecaiman_1_1motion__correction.html#a88ef513cfa324fc8548e4fb46d7a67e5" target="_top" xlink:title="create a matrix that is used to normalize the intersection of the stiched patches ...">
<polygon fill="white" stroke="black" points="279,-39 279,-69 391,-69 391,-39 279,-39"/>
<text text-anchor="start" x="287" y="-57" font-family="Helvetica,sans-Serif" font-size="10.00">create_weight_matrix</text>
<text text-anchor="middle" x="335" y="-46" font-family="Helvetica,sans-Serif" font-size="10.00">_for_blending</text>
</a>
</g>
</g>
<!-- Node49&#45;&gt;Node50 -->
<g id="edge2" class="edge"><title>Node49&#45;&gt;Node50</title>
<path fill="none" stroke="midnightblue" d="M244.427,-47.4454C255.696,-47.1969 267.607,-47.1854 278.935,-47.4111"/>
<polygon fill="midnightblue" stroke="midnightblue" points="244.187,-43.9508 234.293,-47.7404 244.39,-50.9479 244.187,-43.9508"/>
</g>
<!-- Node51 -->
<g id="node4" class="node"><title>Node51</title>
<g id="a_node4"><a xlink:href="namespacecaiman_1_1motion__correction.html#a9c4d6e518f42c395cb58a08d2ff21f45" target="_top" xlink:title="tile_and_correct_wrapper">
<polygon fill="white" stroke="black" points="270.5,-0.5 270.5,-19.5 399.5,-19.5 399.5,-0.5 270.5,-0.5"/>
<text text-anchor="middle" x="335" y="-7.5" font-family="Helvetica,sans-Serif" font-size="10.00">tile_and_correct_wrapper</text>
</a>
</g>
</g>
<!-- Node49&#45;&gt;Node51 -->
<g id="edge4" class="edge"><title>Node49&#45;&gt;Node51</title>
<path fill="none" stroke="midnightblue" d="M231.717,-41.4715C254.384,-34.4973 282.151,-25.9535 303.032,-19.5287"/>
<polygon fill="midnightblue" stroke="midnightblue" points="230.557,-38.1665 222.029,-44.4527 232.616,-44.857 230.557,-38.1665"/>
</g>
<!-- Node50&#45;&gt;Node49 -->
<g id="edge3" class="edge"><title>Node50&#45;&gt;Node49</title>
<path fill="none" stroke="midnightblue" d="M268.757,-60.727C257.073,-60.8132 245.165,-60.6574 234.293,-60.2596"/>
<polygon fill="midnightblue" stroke="midnightblue" points="268.984,-64.2243 278.935,-60.5889 268.889,-57.225 268.984,-64.2243"/>
</g>
</g>
</svg>
