<?xml version="1.0" encoding="UTF-8" standalone="no"?>
<!DOCTYPE svg PUBLIC "-//W3C//DTD SVG 1.1//EN"
 "http://www.w3.org/Graphics/SVG/1.1/DTD/svg11.dtd">
<!-- Generated by graphviz version 2.36.0 (20140111.2315)
 -->
<!-- Title: distance_masks Pages: 1 -->
<svg width="394pt" height="94pt"
 viewBox="0.00 0.00 394.00 94.00" xmlns="http://www.w3.org/2000/svg" xmlns:xlink="http://www.w3.org/1999/xlink">
<g id="graph0" class="graph" transform="scale(1 1) rotate(0) translate(4 90)">
<title>distance_masks</title>
<polygon fill="white" stroke="none" points="-4,4 -4,-90 390,-90 390,4 -4,4"/>
<!-- Node15 -->
<g id="node1" class="node"><title>Node15</title>
<polygon fill="#bfbfbf" stroke="black" points="0,-44.5 0,-63.5 88,-63.5 88,-44.5 0,-44.5"/>
<text text-anchor="middle" x="44" y="-51.5" font-family="Helvetica,sans-Serif" font-size="10.00">distance_masks</text>
</g>
<!-- Node16 -->
<g id="node2" class="node"><title>Node16</title>
<g id="a_node2"><a xlink:href="namespacecaiman_1_1base_1_1rois.html#a55efa0edbb0867a0fa3a8e86bb1fa407" target="_top" xlink:title="get_distance_from_A">
<polygon fill="white" stroke="black" points="274.5,-66.5 274.5,-85.5 385.5,-85.5 385.5,-66.5 274.5,-66.5"/>
<text text-anchor="middle" x="330" y="-73.5" font-family="Helvetica,sans-Serif" font-size="10.00">get_distance_from_A</text>
</a>
</g>
</g>
<!-- Node15&#45;&gt;Node16 -->
<g id="edge1" class="edge"><title>Node15&#45;&gt;Node16</title>
<path fill="none" stroke="midnightblue" d="M79.3316,-66.8385C93.0214,-71.3186 109.054,-75.7798 124,-78 174.52,-85.5046 232.816,-83.9674 274.296,-81.1671"/>
<polygon fill="midnightblue" stroke="midnightblue" points="80.4208,-63.5121 69.8264,-63.6047 78.1662,-70.1391 80.4208,-63.5121"/>
</g>
<!-- Node17 -->
<g id="node3" class="node"><title>Node17</title>
<g id="a_node3"><a xlink:href="namespacecaiman_1_1base_1_1rois.html#a110f7c7d62671deddd9e58cc0c873a4c" target="_top" xlink:title="Match neurons expressed as binary masks. ">
<polygon fill="white" stroke="black" points="124.5,-39 124.5,-69 237.5,-69 237.5,-39 124.5,-39"/>
<text text-anchor="start" x="132.5" y="-57" font-family="Helvetica,sans-Serif" font-size="10.00">nf_match_neurons_in</text>
<text text-anchor="middle" x="181" y="-46" font-family="Helvetica,sans-Serif" font-size="10.00">_binary_masks</text>
</a>
</g>
</g>
<!-- Node15&#45;&gt;Node17 -->
<g id="edge2" class="edge"><title>Node15&#45;&gt;Node17</title>
<path fill="none" stroke="midnightblue" d="M98.3614,-54C106.948,-54 115.854,-54 124.489,-54"/>
<polygon fill="midnightblue" stroke="midnightblue" points="98.0861,-50.5001 88.086,-54 98.086,-57.5001 98.0861,-50.5001"/>
</g>
<!-- Node18 -->
<g id="node4" class="node"><title>Node18</title>
<g id="a_node4"><a xlink:href="namespacecaiman_1_1base_1_1rois.html#a070957c81de2e5bac645b9e74264edad" target="_top" xlink:title="Removes duplicate ROIs from file file_name. ">
<polygon fill="white" stroke="black" points="134,-0.5 134,-19.5 228,-19.5 228,-0.5 134,-0.5"/>
<text text-anchor="middle" x="181" y="-7.5" font-family="Helvetica,sans-Serif" font-size="10.00">detect_duplicates</text>
</a>
</g>
</g>
<!-- Node15&#45;&gt;Node18 -->
<g id="edge4" class="edge"><title>Node15&#45;&gt;Node18</title>
<path fill="none" stroke="midnightblue" d="M84.0165,-41.2835C105.307,-34.3442 131.228,-25.8959 150.764,-19.5287"/>
<polygon fill="midnightblue" stroke="midnightblue" points="82.7161,-38.0261 74.293,-44.4527 84.8854,-44.6815 82.7161,-38.0261"/>
</g>
<!-- Node17&#45;&gt;Node16 -->
<g id="edge3" class="edge"><title>Node17&#45;&gt;Node16</title>
<path fill="none" stroke="midnightblue" d="M247.57,-63.8132C256.508,-65.1508 265.604,-66.5122 274.321,-67.8168"/>
<polygon fill="midnightblue" stroke="midnightblue" points="247.982,-60.336 237.574,-62.3173 246.946,-67.2589 247.982,-60.336"/>
</g>
</g>
</svg>
