<?xml version="1.0" encoding="UTF-8" standalone="no"?>
<!DOCTYPE svg PUBLIC "-//W3C//DTD SVG 1.1//EN"
 "http://www.w3.org/Graphics/SVG/1.1/DTD/svg11.dtd">
<!-- Generated by graphviz version 2.36.0 (20140111.2315)
 -->
<!-- Title: constrained_foopsi_parallel Pages: 1 -->
<svg width="1906pt" height="297pt"
 viewBox="0.00 0.00 1906.00 296.81" xmlns="http://www.w3.org/2000/svg" xmlns:xlink="http://www.w3.org/1999/xlink">
<g id="graph0" class="graph" transform="scale(1 1) rotate(0) translate(4 292.81)">
<title>constrained_foopsi_parallel</title>
<polygon fill="white" stroke="none" points="-4,4 -4,-292.81 1902,-292.81 1902,4 -4,4"/>
<!-- Node0 -->
<g id="node1" class="node"><title>Node0</title>
<polygon fill="#bfbfbf" stroke="black" points="0,-136 0,-166 100,-166 100,-136 0,-136"/>
<text text-anchor="start" x="8" y="-154" font-family="Helvetica,sans-Serif" font-size="10.00">constrained_foopsi</text>
<text text-anchor="middle" x="50" y="-143" font-family="Helvetica,sans-Serif" font-size="10.00">_parallel</text>
</g>
<!-- Node1 -->
<g id="node2" class="node"><title>Node1</title>
<g id="a_node2"><a xlink:href="namespacecaiman_1_1source__extraction_1_1cnmf_1_1deconvolution.html#a0afb63d84485a181bb40f2eefe7b581e" target="_top" xlink:title="Infer the most likely discretized spike train underlying a fluorescence trace. ">
<polygon fill="white" stroke="black" points="136,-186 136,-216 410,-216 410,-186 136,-186"/>
<text text-anchor="start" x="144" y="-204" font-family="Helvetica,sans-Serif" font-size="10.00">caiman.source_extraction.cnmf.deconvolution.constrained</text>
<text text-anchor="middle" x="273" y="-193" font-family="Helvetica,sans-Serif" font-size="10.00">_foopsi</text>
</a>
</g>
</g>
<!-- Node0&#45;&gt;Node1 -->
<g id="edge1" class="edge"><title>Node0&#45;&gt;Node1</title>
<path fill="none" stroke="midnightblue" d="M100.047,-162.097C128.045,-168.431 163.761,-176.512 195.38,-183.665"/>
<polygon fill="midnightblue" stroke="midnightblue" points="194.961,-187.159 205.487,-185.952 196.506,-180.331 194.961,-187.159"/>
</g>
<!-- Node12 -->
<g id="node13" class="node"><title>Node12</title>
<g id="a_node13"><a xlink:href="namespacecaiman_1_1source__extraction_1_1cnmf_1_1temporal.html#ac3279e405da3b8cc2e4a21b68320971c" target="_top" xlink:title="Update temporal components and background given spatial components using a block coordinate descent a...">
<polygon fill="white" stroke="black" points="197,-68.5 197,-87.5 349,-87.5 349,-68.5 197,-68.5"/>
<text text-anchor="middle" x="273" y="-75.5" font-family="Helvetica,sans-Serif" font-size="10.00">update_temporal_components</text>
</a>
</g>
</g>
<!-- Node0&#45;&gt;Node12 -->
<g id="edge16" class="edge"><title>Node0&#45;&gt;Node12</title>
<path fill="none" stroke="midnightblue" d="M96.5234,-135.963C136.889,-122.63 195.195,-103.37 233.341,-90.7699"/>
<polygon fill="midnightblue" stroke="midnightblue" points="234.659,-94.0204 243.057,-87.5605 232.463,-87.3736 234.659,-94.0204"/>
</g>
<!-- Node2 -->
<g id="node3" class="node"><title>Node2</title>
<g id="a_node3"><a xlink:href="namespacecaiman_1_1source__extraction_1_1cnmf_1_1deconvolution.html#a7199190b4f33e4a70dedc9deea7e4c45" target="_top" xlink:title="Estimate noise standard deviation and AR coefficients if they are not present. ">
<polygon fill="white" stroke="black" points="756,-222 756,-252 1016,-252 1016,-222 756,-222"/>
<text text-anchor="start" x="764" y="-240" font-family="Helvetica,sans-Serif" font-size="10.00">caiman.source_extraction.cnmf.deconvolution.estimate</text>
<text text-anchor="middle" x="886" y="-229" font-family="Helvetica,sans-Serif" font-size="10.00">_parameters</text>
</a>
</g>
</g>
<!-- Node1&#45;&gt;Node2 -->
<g id="edge2" class="edge"><title>Node1&#45;&gt;Node2</title>
<path fill="none" stroke="midnightblue" d="M300.316,-216.142C333.16,-234.086 391.642,-262.942 446,-274 565.334,-298.276 598.962,-287.404 720,-274 754.08,-270.226 791.408,-262.194 821.927,-254.575"/>
<polygon fill="midnightblue" stroke="midnightblue" points="823.171,-257.87 832.001,-252.013 821.447,-251.085 823.171,-257.87"/>
</g>
<!-- Node7 -->
<g id="node8" class="node"><title>Node7</title>
<g id="a_node8"><a xlink:href="namespacecaiman_1_1source__extraction_1_1cnmf_1_1deconvolution.html#a04aa84702e9977187b4ac0ba95891fb6" target="_top" xlink:title="Solve the deconvolution problem using cvxopt and picos packages. ">
<polygon fill="white" stroke="black" points="457.5,-235 457.5,-265 708.5,-265 708.5,-235 457.5,-235"/>
<text text-anchor="start" x="465.5" y="-253" font-family="Helvetica,sans-Serif" font-size="10.00">caiman.source_extraction.cnmf.deconvolution.cvxopt</text>
<text text-anchor="middle" x="583" y="-242" font-family="Helvetica,sans-Serif" font-size="10.00">_foopsi</text>
</a>
</g>
</g>
<!-- Node1&#45;&gt;Node7 -->
<g id="edge8" class="edge"><title>Node1&#45;&gt;Node7</title>
<path fill="none" stroke="midnightblue" d="M368.503,-216.035C402.945,-221.514 442.079,-227.74 477.351,-233.351"/>
<polygon fill="midnightblue" stroke="midnightblue" points="477.25,-236.879 487.675,-234.994 478.35,-229.966 477.25,-236.879"/>
</g>
<!-- Node8 -->
<g id="node9" class="node"><title>Node8</title>
<g id="a_node9"><a xlink:href="namespacecaiman_1_1source__extraction_1_1cnmf_1_1deconvolution.html#a0dd508a8cc717626fa4c45d0a5c08bfd" target="_top" xlink:title="Solves the deconvolution problem using the cvxpy package and the ECOS/SCS library. ">
<polygon fill="white" stroke="black" points="459,-186 459,-216 707,-216 707,-186 459,-186"/>
<text text-anchor="start" x="467" y="-204" font-family="Helvetica,sans-Serif" font-size="10.00">caiman.source_extraction.cnmf.deconvolution.cvxpy</text>
<text text-anchor="middle" x="583" y="-193" font-family="Helvetica,sans-Serif" font-size="10.00">_foopsi</text>
</a>
</g>
</g>
<!-- Node1&#45;&gt;Node8 -->
<g id="edge9" class="edge"><title>Node1&#45;&gt;Node8</title>
<path fill="none" stroke="midnightblue" d="M410.438,-201C423.135,-201 435.993,-201 448.661,-201"/>
<polygon fill="midnightblue" stroke="midnightblue" points="448.773,-204.5 458.773,-201 448.773,-197.5 448.773,-204.5"/>
</g>
<!-- Node9 -->
<g id="node10" class="node"><title>Node9</title>
<g id="a_node10"><a xlink:href="namespacecaiman_1_1source__extraction_1_1cnmf_1_1deconvolution.html#a5753e123f06d6f8a5f53e8f1cc50baba" target="_top" xlink:title="Infer the most likely discretized spike train underlying an AR(2) fluorescence trace. ">
<polygon fill="white" stroke="black" points="446,-137 446,-167 720,-167 720,-137 446,-137"/>
<text text-anchor="start" x="454" y="-155" font-family="Helvetica,sans-Serif" font-size="10.00">caiman.source_extraction.cnmf.deconvolution.constrained</text>
<text text-anchor="middle" x="583" y="-144" font-family="Helvetica,sans-Serif" font-size="10.00">_oasisAR2</text>
</a>
</g>
</g>
<!-- Node1&#45;&gt;Node9 -->
<g id="edge10" class="edge"><title>Node1&#45;&gt;Node9</title>
<path fill="none" stroke="midnightblue" d="M368.503,-185.965C402.945,-180.486 442.079,-174.26 477.351,-168.649"/>
<polygon fill="midnightblue" stroke="midnightblue" points="478.35,-172.034 487.675,-167.006 477.25,-165.121 478.35,-172.034"/>
</g>
<!-- Node3 -->
<g id="node4" class="node"><title>Node3</title>
<g id="a_node4"><a xlink:href="namespacecaiman_1_1source__extraction_1_1cnmf_1_1deconvolution.html#a16b9a254776edd0d9093ee35b1ef17a2" target="_top" xlink:title="Estimate noise power through the power spectral density over the range of large frequencies. ">
<polygon fill="white" stroke="black" points="1361,-223 1361,-253 1583,-253 1583,-223 1361,-223"/>
<text text-anchor="start" x="1369" y="-241" font-family="Helvetica,sans-Serif" font-size="10.00">caiman.source_extraction.cnmf.deconvolution.</text>
<text text-anchor="middle" x="1472" y="-230" font-family="Helvetica,sans-Serif" font-size="10.00">GetSn</text>
</a>
</g>
</g>
<!-- Node2&#45;&gt;Node3 -->
<g id="edge3" class="edge"><title>Node2&#45;&gt;Node3</title>
<path fill="none" stroke="midnightblue" d="M1016.25,-237.221C1116.03,-237.392 1253.06,-237.627 1350.56,-237.794"/>
<polygon fill="midnightblue" stroke="midnightblue" points="1350.75,-241.294 1360.75,-237.811 1350.76,-234.294 1350.75,-241.294"/>
</g>
<!-- Node4 -->
<g id="node5" class="node"><title>Node4</title>
<g id="a_node5"><a xlink:href="namespacecaiman_1_1source__extraction_1_1cnmf_1_1deconvolution.html#a7a73db2b3e0e88f4a5f30f80944c1319" target="_top" xlink:title="Estimate AR model parameters through the autocovariance function. ">
<polygon fill="white" stroke="black" points="1052,-179 1052,-209 1312,-209 1312,-179 1052,-179"/>
<text text-anchor="start" x="1060" y="-197" font-family="Helvetica,sans-Serif" font-size="10.00">caiman.source_extraction.cnmf.deconvolution.estimate</text>
<text text-anchor="middle" x="1182" y="-186" font-family="Helvetica,sans-Serif" font-size="10.00">_time_constant</text>
</a>
</g>
</g>
<!-- Node2&#45;&gt;Node4 -->
<g id="edge4" class="edge"><title>Node2&#45;&gt;Node4</title>
<path fill="none" stroke="midnightblue" d="M989.827,-221.961C1015.12,-218.262 1042.33,-214.282 1068.07,-210.517"/>
<polygon fill="midnightblue" stroke="midnightblue" points="1068.84,-213.941 1078.23,-209.031 1067.83,-207.015 1068.84,-213.941"/>
</g>
<!-- Node4&#45;&gt;Node3 -->
<g id="edge5" class="edge"><title>Node4&#45;&gt;Node3</title>
<path fill="none" stroke="midnightblue" d="M1281.31,-209.019C1307.46,-213.015 1335.86,-217.353 1362.52,-221.427"/>
<polygon fill="midnightblue" stroke="midnightblue" points="1362.23,-224.923 1372.65,-222.974 1363.29,-218.004 1362.23,-224.923"/>
</g>
<!-- Node5 -->
<g id="node6" class="node"><title>Node5</title>
<g id="a_node6"><a xlink:href="namespacecaiman_1_1source__extraction_1_1cnmf_1_1deconvolution.html#a458da977dee6e97910a1b006e899b309" target="_top" xlink:title="Compute the autocovariance of data at lag = &#45;maxlag:0:maxlag. ">
<polygon fill="white" stroke="black" points="1348,-184.5 1348,-203.5 1596,-203.5 1596,-184.5 1348,-184.5"/>
<text text-anchor="middle" x="1472" y="-191.5" font-family="Helvetica,sans-Serif" font-size="10.00">caiman.source_extraction.cnmf.deconvolution.axcov</text>
</a>
</g>
</g>
<!-- Node4&#45;&gt;Node5 -->
<g id="edge6" class="edge"><title>Node4&#45;&gt;Node5</title>
<path fill="none" stroke="midnightblue" d="M1312.26,-194C1320.66,-194 1329.12,-194 1337.54,-194"/>
<polygon fill="midnightblue" stroke="midnightblue" points="1337.78,-197.5 1347.78,-194 1337.78,-190.5 1337.78,-197.5"/>
</g>
<!-- Node6 -->
<g id="node7" class="node"><title>Node6</title>
<g id="a_node7"><a xlink:href="namespacecaiman_1_1source__extraction_1_1cnmf_1_1deconvolution.html#a8d83696f273bd0121651cf48a6b899ae" target="_top" xlink:title="Find exponent such that 2^exponent is equal to or greater than abs(value). ">
<polygon fill="white" stroke="black" points="1632.5,-184.5 1632.5,-203.5 1897.5,-203.5 1897.5,-184.5 1632.5,-184.5"/>
<text text-anchor="middle" x="1765" y="-191.5" font-family="Helvetica,sans-Serif" font-size="10.00">caiman.source_extraction.cnmf.deconvolution.nextpow2</text>
</a>
</g>
</g>
<!-- Node5&#45;&gt;Node6 -->
<g id="edge7" class="edge"><title>Node5&#45;&gt;Node6</title>
<path fill="none" stroke="midnightblue" d="M1596.41,-194C1604.98,-194 1613.66,-194 1622.32,-194"/>
<polygon fill="midnightblue" stroke="midnightblue" points="1622.47,-197.5 1632.47,-194 1622.47,-190.5 1622.47,-197.5"/>
</g>
<!-- Node9&#45;&gt;Node2 -->
<g id="edge15" class="edge"><title>Node9&#45;&gt;Node2</title>
<path fill="none" stroke="midnightblue" d="M693.148,-167.024C702.416,-169.804 711.49,-173.097 720,-177 738.676,-185.564 737.563,-196.934 756,-206 766.416,-211.121 777.729,-215.428 789.183,-219.041"/>
<polygon fill="midnightblue" stroke="midnightblue" points="788.238,-222.412 798.821,-221.917 790.239,-215.704 788.238,-222.412"/>
</g>
<!-- Node9&#45;&gt;Node4 -->
<g id="edge11" class="edge"><title>Node9&#45;&gt;Node4</title>
<path fill="none" stroke="midnightblue" d="M712.597,-167C727.225,-168.47 741.927,-169.843 756,-171 851.182,-178.827 958.584,-184.613 1041.61,-188.424"/>
<polygon fill="midnightblue" stroke="midnightblue" points="1041.46,-191.921 1051.61,-188.879 1041.78,-184.928 1041.46,-191.921"/>
</g>
<!-- Node10 -->
<g id="node11" class="node"><title>Node10</title>
<g id="a_node11"><a xlink:href="namespacecaiman_1_1source__extraction_1_1cnmf_1_1deconvolution.html#affae481e26d5e13bc6f62c6e643b63d5" target="_top" xlink:title="Infer the most likely discretized spike train underlying an AR(2) fluorescence trace. ">
<polygon fill="white" stroke="black" points="763,-142.5 763,-161.5 1009,-161.5 1009,-142.5 763,-142.5"/>
<text text-anchor="middle" x="886" y="-149.5" font-family="Helvetica,sans-Serif" font-size="10.00">caiman.source_extraction.cnmf.deconvolution.onnls</text>
</a>
</g>
</g>
<!-- Node9&#45;&gt;Node10 -->
<g id="edge12" class="edge"><title>Node9&#45;&gt;Node10</title>
<path fill="none" stroke="midnightblue" d="M720.409,-145.276C731.136,-145.236 741.959,-145.242 752.658,-145.294"/>
<polygon fill="midnightblue" stroke="midnightblue" points="752.848,-148.795 762.87,-145.358 752.892,-141.795 752.848,-148.795"/>
</g>
<!-- Node10&#45;&gt;Node9 -->
<g id="edge14" class="edge"><title>Node10&#45;&gt;Node9</title>
<path fill="none" stroke="midnightblue" d="M762.87,-158.642C752.273,-158.724 741.482,-158.759 730.716,-158.748"/>
<polygon fill="midnightblue" stroke="midnightblue" points="730.417,-155.247 720.409,-158.724 730.401,-162.247 730.417,-155.247"/>
</g>
<!-- Node11 -->
<g id="node12" class="node"><title>Node11</title>
<g id="a_node12"><a xlink:href="namespacecaiman_1_1source__extraction_1_1cnmf_1_1deconvolution.html#ad9f9b2ef0aad5c652f86bd8c7ae64bdd" target="_top" xlink:title="caiman.source_extraction.cnmf.deconvolution._nnls">
<polygon fill="white" stroke="black" points="1059,-140.5 1059,-159.5 1305,-159.5 1305,-140.5 1059,-140.5"/>
<text text-anchor="middle" x="1182" y="-147.5" font-family="Helvetica,sans-Serif" font-size="10.00">caiman.source_extraction.cnmf.deconvolution._nnls</text>
</a>
</g>
</g>
<!-- Node10&#45;&gt;Node11 -->
<g id="edge13" class="edge"><title>Node10&#45;&gt;Node11</title>
<path fill="none" stroke="midnightblue" d="M1009.13,-151.169C1022.2,-151.08 1035.55,-150.989 1048.73,-150.9"/>
<polygon fill="midnightblue" stroke="midnightblue" points="1048.8,-154.399 1058.78,-150.831 1048.76,-147.4 1048.8,-154.399"/>
</g>
<!-- Node13 -->
<g id="node14" class="node"><title>Node13</title>
<g id="a_node14"><a xlink:href="namespacecaiman_1_1mmapping.html#aa75ec735ea507b2ce7eb0e0bd33d2ba3" target="_top" xlink:title="Chunk matrix product between matrix and column vectors. ">
<polygon fill="white" stroke="black" points="516.5,-88 516.5,-118 649.5,-118 649.5,-88 516.5,-88"/>
<text text-anchor="start" x="524.5" y="-106" font-family="Helvetica,sans-Serif" font-size="10.00">caiman.mmapping.parallel</text>
<text text-anchor="middle" x="583" y="-95" font-family="Helvetica,sans-Serif" font-size="10.00">_dot_product</text>
</a>
</g>
</g>
<!-- Node12&#45;&gt;Node13 -->
<g id="edge17" class="edge"><title>Node12&#45;&gt;Node13</title>
<path fill="none" stroke="midnightblue" d="M349.345,-84.1157C397.063,-87.9889 458.554,-92.98 506.334,-96.8583"/>
<polygon fill="midnightblue" stroke="midnightblue" points="506.061,-100.348 516.311,-97.6681 506.627,-93.3705 506.061,-100.348"/>
</g>
<!-- Node17 -->
<g id="node18" class="node"><title>Node17</title>
<g id="a_node18"><a xlink:href="namespacecaiman_1_1source__extraction_1_1cnmf_1_1utilities.html#aa1b3d1b8495a6d9dcecf91484544babb" target="_top" xlink:title="Determines the update order of the temporal components. ">
<polygon fill="white" stroke="black" points="472,-39 472,-69 694,-69 694,-39 472,-39"/>
<text text-anchor="start" x="480" y="-57" font-family="Helvetica,sans-Serif" font-size="10.00">caiman.source_extraction.cnmf.utilities.update</text>
<text text-anchor="middle" x="583" y="-46" font-family="Helvetica,sans-Serif" font-size="10.00">_order_greedy</text>
</a>
</g>
</g>
<!-- Node12&#45;&gt;Node17 -->
<g id="edge21" class="edge"><title>Node12&#45;&gt;Node17</title>
<path fill="none" stroke="midnightblue" d="M349.345,-72.1289C383.186,-69.492 423.954,-66.3153 461.846,-63.3627"/>
<polygon fill="midnightblue" stroke="midnightblue" points="462.23,-66.8434 471.928,-62.5771 461.686,-59.8646 462.23,-66.8434"/>
</g>
<!-- Node18 -->
<g id="node19" class="node"><title>Node18</title>
<g id="a_node19"><a xlink:href="namespacecaiman_1_1source__extraction_1_1cnmf_1_1temporal.html#a89ac8f2ed05b17a8f7becca80506532a" target="_top" xlink:title="Update temporal components and background given spatial components using a block coordinate descent a...">
<polygon fill="white" stroke="black" points="539,-0.5 539,-19.5 627,-19.5 627,-0.5 539,-0.5"/>
<text text-anchor="middle" x="583" y="-7.5" font-family="Helvetica,sans-Serif" font-size="10.00">update_iteration</text>
</a>
</g>
</g>
<!-- Node12&#45;&gt;Node18 -->
<g id="edge22" class="edge"><title>Node12&#45;&gt;Node18</title>
<path fill="none" stroke="midnightblue" d="M302.908,-68.4321C336.838,-57.5141 394.963,-39.7804 446,-29 473.061,-23.2838 503.527,-18.8464 528.752,-15.7028"/>
<polygon fill="midnightblue" stroke="midnightblue" points="529.352,-19.1558 538.858,-14.4771 528.51,-12.2067 529.352,-19.1558"/>
</g>
<!-- Node14 -->
<g id="node15" class="node"><title>Node14</title>
<g id="a_node15"><a xlink:href="namespacecaiman_1_1mmapping.html#a14d47c076020d7d3adf2599ed3354e4b" target="_top" xlink:title="caiman.mmapping.dot\l_place_holder">
<polygon fill="white" stroke="black" points="828.5,-88 828.5,-118 943.5,-118 943.5,-88 828.5,-88"/>
<text text-anchor="start" x="836.5" y="-106" font-family="Helvetica,sans-Serif" font-size="10.00">caiman.mmapping.dot</text>
<text text-anchor="middle" x="886" y="-95" font-family="Helvetica,sans-Serif" font-size="10.00">_place_holder</text>
</a>
</g>
</g>
<!-- Node13&#45;&gt;Node14 -->
<g id="edge18" class="edge"><title>Node13&#45;&gt;Node14</title>
<path fill="none" stroke="midnightblue" d="M649.684,-103C699.528,-103 767.801,-103 817.972,-103"/>
<polygon fill="midnightblue" stroke="midnightblue" points="818.072,-106.5 828.072,-103 818.072,-99.5001 818.072,-106.5"/>
</g>
<!-- Node15 -->
<g id="node16" class="node"><title>Node15</title>
<g id="a_node16"><a xlink:href="namespacecaiman_1_1mmapping.html#aeb2ed62e4a9028089a2eec09d392707f" target="_top" xlink:title="Load a memory mapped file created by the function save_memmap. ">
<polygon fill="white" stroke="black" points="1122,-88 1122,-118 1242,-118 1242,-88 1122,-88"/>
<text text-anchor="start" x="1130" y="-106" font-family="Helvetica,sans-Serif" font-size="10.00">caiman.mmapping.load</text>
<text text-anchor="middle" x="1182" y="-95" font-family="Helvetica,sans-Serif" font-size="10.00">_memmap</text>
</a>
</g>
</g>
<!-- Node14&#45;&gt;Node15 -->
<g id="edge19" class="edge"><title>Node14&#45;&gt;Node15</title>
<path fill="none" stroke="midnightblue" d="M943.686,-103C991.611,-103 1060.45,-103 1111.65,-103"/>
<polygon fill="midnightblue" stroke="midnightblue" points="1111.97,-106.5 1121.97,-103 1111.97,-99.5001 1111.97,-106.5"/>
</g>
<!-- Node16 -->
<g id="node17" class="node"><title>Node16</title>
<g id="a_node17"><a xlink:href="namespacecaiman_1_1mmapping.html#ad949509ed734151b99d635a4264a59ad" target="_top" xlink:title="Create several memory mapped files using parallel processing. ">
<polygon fill="white" stroke="black" points="1411,-88 1411,-118 1533,-118 1533,-88 1411,-88"/>
<text text-anchor="start" x="1419" y="-106" font-family="Helvetica,sans-Serif" font-size="10.00">caiman.mmapping.save</text>
<text text-anchor="middle" x="1472" y="-95" font-family="Helvetica,sans-Serif" font-size="10.00">_memmap_each</text>
</a>
</g>
</g>
<!-- Node15&#45;&gt;Node16 -->
<g id="edge20" class="edge"><title>Node15&#45;&gt;Node16</title>
<path fill="none" stroke="midnightblue" d="M1242.32,-103C1288.29,-103 1352.11,-103 1400.65,-103"/>
<polygon fill="midnightblue" stroke="midnightblue" points="1400.76,-106.5 1410.76,-103 1400.76,-99.5001 1400.76,-106.5"/>
</g>
</g>
</svg>
