<?xml version="1.0" encoding="UTF-8" standalone="no"?>
<!DOCTYPE svg PUBLIC "-//W3C//DTD SVG 1.1//EN"
 "http://www.w3.org/Graphics/SVG/1.1/DTD/svg11.dtd">
<!-- Generated by graphviz version 2.36.0 (20140111.2315)
 -->
<!-- Title: compute_optical_flow Pages: 1 -->
<svg width="436pt" height="77pt"
 viewBox="0.00 0.00 436.00 77.00" xmlns="http://www.w3.org/2000/svg" xmlns:xlink="http://www.w3.org/1999/xlink">
<g id="graph0" class="graph" transform="scale(1 1) rotate(0) translate(4 73)">
<title>compute_optical_flow</title>
<polygon fill="white" stroke="none" points="-4,4 -4,-73 432,-73 432,4 -4,4"/>
<!-- Node1 -->
<g id="node1" class="node"><title>Node1</title>
<polygon fill="#bfbfbf" stroke="black" points="0.5,-22.5 0.5,-41.5 113.5,-41.5 113.5,-22.5 0.5,-22.5"/>
<text text-anchor="middle" x="57" y="-29.5" font-family="Helvetica,sans-Serif" font-size="10.00">compute_optical_flow</text>
</g>
<!-- Node2 -->
<g id="node2" class="node"><title>Node2</title>
<g id="a_node2"><a xlink:href="namespacecaiman_1_1behavior_1_1behavior.html#a4bf41564df958e14887175cbda5e2cf4" target="_top" xlink:title="extract_magnitude_and\l_angle_from_OF">
<polygon fill="white" stroke="black" points="150.5,-39 150.5,-69 271.5,-69 271.5,-39 150.5,-39"/>
<text text-anchor="start" x="158.5" y="-57" font-family="Helvetica,sans-Serif" font-size="10.00">extract_magnitude_and</text>
<text text-anchor="middle" x="211" y="-46" font-family="Helvetica,sans-Serif" font-size="10.00">_angle_from_OF</text>
</a>
</g>
</g>
<!-- Node1&#45;&gt;Node2 -->
<g id="edge1" class="edge"><title>Node1&#45;&gt;Node2</title>
<path fill="none" stroke="midnightblue" d="M123.671,-41.505C132.567,-42.7925 141.655,-44.1079 150.435,-45.3788"/>
<polygon fill="midnightblue" stroke="midnightblue" points="124.134,-38.0357 113.736,-40.0671 123.132,-44.9635 124.134,-38.0357"/>
</g>
<!-- Node3 -->
<g id="node3" class="node"><title>Node3</title>
<g id="a_node3"><a xlink:href="namespacecaiman_1_1behavior_1_1behavior.html#a513c5d7fc1e56d74ff55d4f74ee836a3" target="_top" xlink:title="main">
<polygon fill="white" stroke="black" points="192,-0.5 192,-19.5 230,-19.5 230,-0.5 192,-0.5"/>
<text text-anchor="middle" x="211" y="-7.5" font-family="Helvetica,sans-Serif" font-size="10.00">main</text>
</a>
</g>
</g>
<!-- Node1&#45;&gt;Node3 -->
<g id="edge2" class="edge"><title>Node1&#45;&gt;Node3</title>
<path fill="none" stroke="midnightblue" d="M123.848,-22.4693C148.582,-18.8894 174.777,-15.0981 191.698,-12.6489"/>
<polygon fill="midnightblue" stroke="midnightblue" points="123.132,-19.0365 113.736,-23.9329 124.134,-25.9643 123.132,-19.0365"/>
</g>
<!-- Node4 -->
<g id="node4" class="node"><title>Node4</title>
<g id="a_node4"><a xlink:href="namespacecaiman_1_1behavior_1_1behavior.html#ac7ebff37cde3a2bef4c8613654b60395" target="_top" xlink:title="Normalize the components using the std of the components obtaining using biunary masks. ">
<polygon fill="white" stroke="black" points="308,-0.5 308,-19.5 428,-19.5 428,-0.5 308,-0.5"/>
<text text-anchor="middle" x="368" y="-7.5" font-family="Helvetica,sans-Serif" font-size="10.00">normalize_components</text>
</a>
</g>
</g>
<!-- Node3&#45;&gt;Node4 -->
<g id="edge3" class="edge"><title>Node3&#45;&gt;Node4</title>
<path fill="none" stroke="midnightblue" d="M240.334,-10C259.148,-10 284.548,-10 307.663,-10"/>
<polygon fill="midnightblue" stroke="midnightblue" points="240.084,-6.5001 230.084,-10 240.084,-13.5001 240.084,-6.5001"/>
</g>
</g>
</svg>
