<?xml version="1.0" encoding="UTF-8" standalone="no"?>
<!DOCTYPE svg PUBLIC "-//W3C//DTD SVG 1.1//EN"
 "http://www.w3.org/Graphics/SVG/1.1/DTD/svg11.dtd">
<!-- Generated by graphviz version 2.36.0 (20140111.2315)
 -->
<!-- Title: com Pages: 1 -->
<svg width="866pt" height="136pt"
 viewBox="0.00 0.00 866.00 136.00" xmlns="http://www.w3.org/2000/svg" xmlns:xlink="http://www.w3.org/1999/xlink">
<g id="graph0" class="graph" transform="scale(1 1) rotate(0) translate(4 132)">
<title>com</title>
<polygon fill="white" stroke="none" points="-4,4 -4,-132 862,-132 862,4 -4,4"/>
<!-- Node1 -->
<g id="node1" class="node"><title>Node1</title>
<polygon fill="#bfbfbf" stroke="black" points="0.5,-55.5 0.5,-74.5 35.5,-74.5 35.5,-55.5 0.5,-55.5"/>
<text text-anchor="middle" x="18" y="-62.5" font-family="Helvetica,sans-Serif" font-size="10.00">com</text>
</g>
<!-- Node2 -->
<g id="node2" class="node"><title>Node2</title>
<g id="a_node2"><a xlink:href="namespacecaiman_1_1source__extraction_1_1cnmf_1_1utilities.html#ad671b2e9120b3437304b3149d174f625" target="_top" xlink:title="Plots contour of spatial components. ">
<polygon fill="white" stroke="black" points="72.5,-95 72.5,-125 303.5,-125 303.5,-95 72.5,-95"/>
<text text-anchor="start" x="80.5" y="-113" font-family="Helvetica,sans-Serif" font-size="10.00">caiman.source_extraction.cnmf.utilities.manually</text>
<text text-anchor="middle" x="188" y="-102" font-family="Helvetica,sans-Serif" font-size="10.00">_refine_components</text>
</a>
</g>
</g>
<!-- Node1&#45;&gt;Node2 -->
<g id="edge1" class="edge"><title>Node1&#45;&gt;Node2</title>
<path fill="none" stroke="midnightblue" d="M45.6773,-72.1457C68.4643,-78.2494 102.012,-87.2355 130.704,-94.9208"/>
<polygon fill="midnightblue" stroke="midnightblue" points="46.2878,-68.6859 35.7227,-69.4793 44.4766,-75.4475 46.2878,-68.6859"/>
</g>
<!-- Node5 -->
<g id="node5" class="node"><title>Node5</title>
<g id="a_node5"><a xlink:href="namespacecaiman_1_1utils_1_1visualization.html#aa6b9002875d7d86524868e7d795a4f3f" target="_top" xlink:title="Interactive Equivalent of plot_contours for ipython notebook. ">
<polygon fill="white" stroke="black" points="396,-49 396,-79 536,-79 536,-49 396,-49"/>
<text text-anchor="start" x="404" y="-67" font-family="Helvetica,sans-Serif" font-size="10.00">caiman.utils.visualization.nb</text>
<text text-anchor="middle" x="466" y="-56" font-family="Helvetica,sans-Serif" font-size="10.00">_plot_contour</text>
</a>
</g>
</g>
<!-- Node1&#45;&gt;Node5 -->
<g id="edge4" class="edge"><title>Node1&#45;&gt;Node5</title>
<path fill="none" stroke="midnightblue" d="M45.9798,-64.9395C114.195,-64.7866 295.25,-64.3806 395.599,-64.1556"/>
<polygon fill="midnightblue" stroke="midnightblue" points="45.6618,-61.4401 35.6697,-64.9626 45.6776,-68.4401 45.6618,-61.4401"/>
</g>
<!-- Node7 -->
<g id="node7" class="node"><title>Node7</title>
<g id="a_node7"><a xlink:href="namespacecaiman_1_1utils_1_1visualization.html#ad48f24a70009a82e7a8cafa02e283a0e" target="_top" xlink:title="Plots contour of spatial components against a background image and returns their coordinates. ">
<polygon fill="white" stroke="black" points="115.5,-6 115.5,-36 260.5,-36 260.5,-6 115.5,-6"/>
<text text-anchor="start" x="123.5" y="-24" font-family="Helvetica,sans-Serif" font-size="10.00">caiman.utils.visualization.plot</text>
<text text-anchor="middle" x="188" y="-13" font-family="Helvetica,sans-Serif" font-size="10.00">_contours</text>
</a>
</g>
</g>
<!-- Node1&#45;&gt;Node7 -->
<g id="edge7" class="edge"><title>Node1&#45;&gt;Node7</title>
<path fill="none" stroke="midnightblue" d="M45.4575,-57.9942C53.9344,-55.7541 63.3616,-53.2677 72,-51 90.5603,-46.1278 110.812,-40.8363 129.077,-36.0732"/>
<polygon fill="midnightblue" stroke="midnightblue" points="44.4786,-54.6326 35.7058,-60.5731 46.2683,-61.4 44.4786,-54.6326"/>
</g>
<!-- Node3 -->
<g id="node3" class="node"><title>Node3</title>
<g id="a_node3"><a xlink:href="namespacecaiman_1_1source__extraction_1_1cnmf_1_1utilities.html#a280d064e1a9888eca4b375647d031491" target="_top" xlink:title="Compute DFF function from cnmf output. ">
<polygon fill="white" stroke="black" points="340,-102.5 340,-121.5 592,-121.5 592,-102.5 340,-102.5"/>
<text text-anchor="middle" x="466" y="-109.5" font-family="Helvetica,sans-Serif" font-size="10.00">caiman.source_extraction.cnmf.utilities.extract_DF_F</text>
</a>
</g>
</g>
<!-- Node2&#45;&gt;Node3 -->
<g id="edge2" class="edge"><title>Node2&#45;&gt;Node3</title>
<path fill="none" stroke="midnightblue" d="M313.822,-110.905C322.522,-110.968 331.291,-111.031 339.991,-111.094"/>
<polygon fill="midnightblue" stroke="midnightblue" points="313.676,-107.403 303.651,-110.831 313.625,-114.403 313.676,-107.403"/>
</g>
<!-- Node4 -->
<g id="node4" class="node"><title>Node4</title>
<g id="a_node4"><a xlink:href="namespacecaiman_1_1source__extraction_1_1cnmf_1_1utilities.html#aea3aa78c7c153170012079014e1f4895" target="_top" xlink:title="caiman.source_extraction.cnmf.utilities.compute\lDFF_traces">
<polygon fill="white" stroke="black" points="628.5,-98 628.5,-128 857.5,-128 857.5,-98 628.5,-98"/>
<text text-anchor="start" x="636.5" y="-116" font-family="Helvetica,sans-Serif" font-size="10.00">caiman.source_extraction.cnmf.utilities.compute</text>
<text text-anchor="middle" x="743" y="-105" font-family="Helvetica,sans-Serif" font-size="10.00">DFF_traces</text>
</a>
</g>
</g>
<!-- Node3&#45;&gt;Node4 -->
<g id="edge3" class="edge"><title>Node3&#45;&gt;Node4</title>
<path fill="none" stroke="midnightblue" d="M602.226,-112.492C610.925,-112.523 619.636,-112.555 628.22,-112.586"/>
<polygon fill="midnightblue" stroke="midnightblue" points="602.04,-108.991 592.027,-112.455 602.015,-115.991 602.04,-108.991"/>
</g>
<!-- Node6 -->
<g id="node6" class="node"><title>Node6</title>
<g id="a_node6"><a xlink:href="namespacecaiman_1_1utils_1_1visualization.html#ac95a3a5e8c3bee95392831c57548fc04" target="_top" xlink:title="Interactive equivalent of imshow for ipython notebook. ">
<polygon fill="white" stroke="black" points="673,-49 673,-79 813,-79 813,-49 673,-49"/>
<text text-anchor="start" x="681" y="-67" font-family="Helvetica,sans-Serif" font-size="10.00">caiman.utils.visualization.nb</text>
<text text-anchor="middle" x="743" y="-56" font-family="Helvetica,sans-Serif" font-size="10.00">_imshow</text>
</a>
</g>
</g>
<!-- Node5&#45;&gt;Node6 -->
<g id="edge5" class="edge"><title>Node5&#45;&gt;Node6</title>
<path fill="none" stroke="midnightblue" d="M546.043,-57.8243C586.126,-56.9879 634.353,-57.0651 672.932,-58.056"/>
<polygon fill="midnightblue" stroke="midnightblue" points="545.955,-54.3254 536.039,-58.0567 546.118,-61.3235 545.955,-54.3254"/>
</g>
<!-- Node6&#45;&gt;Node5 -->
<g id="edge6" class="edge"><title>Node6&#45;&gt;Node5</title>
<path fill="none" stroke="midnightblue" d="M662.927,-70.1763C622.84,-71.0123 574.614,-70.9346 536.039,-69.9433"/>
<polygon fill="midnightblue" stroke="midnightblue" points="663.016,-73.6752 672.932,-69.944 662.854,-66.6771 663.016,-73.6752"/>
</g>
<!-- Node7&#45;&gt;Node5 -->
<g id="edge8" class="edge"><title>Node7&#45;&gt;Node5</title>
<path fill="none" stroke="midnightblue" d="M270.749,-33.7362C310.579,-39.9417 357.953,-47.3224 395.945,-53.2414"/>
<polygon fill="midnightblue" stroke="midnightblue" points="271.215,-30.2667 260.795,-32.1855 270.137,-37.1833 271.215,-30.2667"/>
</g>
<!-- Node8 -->
<g id="node8" class="node"><title>Node8</title>
<g id="a_node8"><a xlink:href="namespacecaiman_1_1utils_1_1visualization.html#a329e25e43645b98ac6124f7ab37b67a9" target="_top" xlink:title="view spatial and temporal components interactively ">
<polygon fill="white" stroke="black" points="391.5,-0 391.5,-30 540.5,-30 540.5,-0 391.5,-0"/>
<text text-anchor="start" x="399.5" y="-18" font-family="Helvetica,sans-Serif" font-size="10.00">caiman.utils.visualization.view</text>
<text text-anchor="middle" x="466" y="-7" font-family="Helvetica,sans-Serif" font-size="10.00">_patches_bar</text>
</a>
</g>
</g>
<!-- Node7&#45;&gt;Node8 -->
<g id="edge9" class="edge"><title>Node7&#45;&gt;Node8</title>
<path fill="none" stroke="midnightblue" d="M270.848,-19.2207C309.002,-18.3913 354.06,-17.4117 391.16,-16.6052"/>
<polygon fill="midnightblue" stroke="midnightblue" points="270.717,-15.7226 260.795,-19.4392 270.869,-22.721 270.717,-15.7226"/>
</g>
</g>
</svg>
