<?xml version="1.0" encoding="UTF-8" standalone="no"?>
<!DOCTYPE svg PUBLIC "-//W3C//DTD SVG 1.1//EN"
 "http://www.w3.org/Graphics/SVG/1.1/DTD/svg11.dtd">
<!-- Generated by graphviz version 2.36.0 (20140111.2315)
 -->
<!-- Title: finetune Pages: 1 -->
<svg width="310pt" height="28pt"
 viewBox="0.00 0.00 310.00 28.00" xmlns="http://www.w3.org/2000/svg" xmlns:xlink="http://www.w3.org/1999/xlink">
<g id="graph0" class="graph" transform="scale(1 1) rotate(0) translate(4 24)">
<title>finetune</title>
<polygon fill="white" stroke="none" points="-4,4 -4,-24 306,-24 306,4 -4,4"/>
<!-- Node1 -->
<g id="node1" class="node"><title>Node1</title>
<polygon fill="#bfbfbf" stroke="black" points="0,-0.5 0,-19.5 52,-19.5 52,-0.5 0,-0.5"/>
<text text-anchor="middle" x="26" y="-7.5" font-family="Helvetica,sans-Serif" font-size="10.00">finetune</text>
</g>
<!-- Node2 -->
<g id="node2" class="node"><title>Node2</title>
<g id="a_node2"><a xlink:href="namespacecaiman_1_1source__extraction_1_1cnmf_1_1initialization.html#a7dd7bbb01fcb5237fc7d7674b870c9ae" target="_top" xlink:title="Greedy initialization of spatial and temporal components using spatial Gaussian filtering. ">
<polygon fill="white" stroke="black" points="88.5,-0.5 88.5,-19.5 153.5,-19.5 153.5,-0.5 88.5,-0.5"/>
<text text-anchor="middle" x="121" y="-7.5" font-family="Helvetica,sans-Serif" font-size="10.00">greedyROI</text>
</a>
</g>
</g>
<!-- Node1&#45;&gt;Node2 -->
<g id="edge1" class="edge"><title>Node1&#45;&gt;Node2</title>
<path fill="none" stroke="midnightblue" d="M62.4452,-10C70.9509,-10 79.9804,-10 88.3035,-10"/>
<polygon fill="midnightblue" stroke="midnightblue" points="62.4127,-6.5001 52.4127,-10 62.4126,-13.5001 62.4127,-6.5001"/>
</g>
<!-- Node3 -->
<g id="node3" class="node"><title>Node3</title>
<g id="a_node3"><a xlink:href="namespacecaiman_1_1source__extraction_1_1cnmf_1_1initialization.html#ad762ff1c4aefedc408fe609de7cb1ebc" target="_top" xlink:title="Initalize components. ">
<polygon fill="white" stroke="black" points="190,-0.5 190,-19.5 302,-19.5 302,-0.5 190,-0.5"/>
<text text-anchor="middle" x="246" y="-7.5" font-family="Helvetica,sans-Serif" font-size="10.00">initialize_components</text>
</a>
</g>
</g>
<!-- Node2&#45;&gt;Node3 -->
<g id="edge2" class="edge"><title>Node2&#45;&gt;Node3</title>
<path fill="none" stroke="midnightblue" d="M163.827,-10C172.107,-10 180.919,-10 189.569,-10"/>
<polygon fill="midnightblue" stroke="midnightblue" points="163.676,-6.5001 153.676,-10 163.676,-13.5001 163.676,-6.5001"/>
</g>
</g>
</svg>
