<?xml version="1.0" encoding="UTF-8" standalone="no"?>
<!DOCTYPE svg PUBLIC "-//W3C//DTD SVG 1.1//EN"
 "http://www.w3.org/Graphics/SVG/1.1/DTD/svg11.dtd">
<!-- Generated by graphviz version 2.36.0 (20140111.2315)
 -->
<!-- Title: nb_view_patches3d Pages: 1 -->
<svg width="576pt" height="38pt"
 viewBox="0.00 0.00 576.00 38.00" xmlns="http://www.w3.org/2000/svg" xmlns:xlink="http://www.w3.org/1999/xlink">
<g id="graph0" class="graph" transform="scale(1 1) rotate(0) translate(4 34)">
<title>nb_view_patches3d</title>
<polygon fill="white" stroke="none" points="-4,4 -4,-34 572,-34 572,4 -4,4"/>
<!-- Node36 -->
<g id="node1" class="node"><title>Node36</title>
<polygon fill="#bfbfbf" stroke="black" points="0.5,-5.5 0.5,-24.5 105.5,-24.5 105.5,-5.5 0.5,-5.5"/>
<text text-anchor="middle" x="53" y="-12.5" font-family="Helvetica,sans-Serif" font-size="10.00">nb_view_patches3d</text>
</g>
<!-- Node37 -->
<g id="node2" class="node"><title>Node37</title>
<g id="a_node2"><a xlink:href="namespacecaiman_1_1utils_1_1visualization.html#a16b7fa13b839c4162b7c08d924c31358" target="_top" xlink:title="Gets contour of spatial components and returns their coordinates. ">
<polygon fill="white" stroke="black" points="142,-5.5 142,-24.5 216,-24.5 216,-5.5 142,-5.5"/>
<text text-anchor="middle" x="179" y="-12.5" font-family="Helvetica,sans-Serif" font-size="10.00">get_contours</text>
</a>
</g>
</g>
<!-- Node36&#45;&gt;Node37 -->
<g id="edge1" class="edge"><title>Node36&#45;&gt;Node37</title>
<path fill="none" stroke="midnightblue" d="M115.639,-8.2501C124.65,-8.24502 133.671,-8.43007 141.941,-8.80523"/>
<polygon fill="midnightblue" stroke="midnightblue" points="115.48,-4.75124 105.51,-8.33662 115.539,-11.751 115.48,-4.75124"/>
</g>
<!-- Node37&#45;&gt;Node36 -->
<g id="edge4" class="edge"><title>Node37&#45;&gt;Node36</title>
<path fill="none" stroke="midnightblue" d="M131.762,-21.5523C123.203,-21.7713 114.214,-21.8084 105.51,-21.6634"/>
<polygon fill="midnightblue" stroke="midnightblue" points="132.07,-25.0437 141.941,-21.1948 131.825,-18.048 132.07,-25.0437"/>
</g>
<!-- Node38 -->
<g id="node3" class="node"><title>Node38</title>
<g id="a_node3"><a xlink:href="namespacecaiman_1_1utils_1_1visualization.html#aa4202ac829178bc43b687c976927f108" target="_top" xlink:title="Interactive plotting utility for ipython notebook. ">
<polygon fill="white" stroke="black" points="252,-5.5 252,-24.5 346,-24.5 346,-5.5 252,-5.5"/>
<text text-anchor="middle" x="299" y="-12.5" font-family="Helvetica,sans-Serif" font-size="10.00">nb_view_patches</text>
</a>
</g>
</g>
<!-- Node37&#45;&gt;Node38 -->
<g id="edge2" class="edge"><title>Node37&#45;&gt;Node38</title>
<path fill="none" stroke="midnightblue" d="M226.083,-15C234.503,-15 243.292,-15 251.718,-15"/>
<polygon fill="midnightblue" stroke="midnightblue" points="226.045,-11.5001 216.045,-15 226.045,-18.5001 226.045,-11.5001"/>
</g>
<!-- Node39 -->
<g id="node4" class="node"><title>Node39</title>
<g id="a_node4"><a xlink:href="namespacecaiman_1_1tests_1_1comparison_1_1investigative__comparison.html#a50b1b2517f6b995f96014e15fa877ba7" target="_top" xlink:title="the function that will do the test ">
<polygon fill="white" stroke="black" points="382.5,-0 382.5,-30 567.5,-30 567.5,-0 382.5,-0"/>
<text text-anchor="start" x="390.5" y="-18" font-family="Helvetica,sans-Serif" font-size="10.00">caiman.tests.comparison.investigative</text>
<text text-anchor="middle" x="475" y="-7" font-family="Helvetica,sans-Serif" font-size="10.00">_comparison.test_general</text>
</a>
</g>
</g>
<!-- Node38&#45;&gt;Node39 -->
<g id="edge3" class="edge"><title>Node38&#45;&gt;Node39</title>
<path fill="none" stroke="midnightblue" d="M356.222,-15C364.662,-15 373.546,-15 382.494,-15"/>
<polygon fill="midnightblue" stroke="midnightblue" points="356.172,-11.5001 346.172,-15 356.172,-18.5001 356.172,-11.5001"/>
</g>
</g>
</svg>
