<?xml version="1.0" encoding="UTF-8" standalone="no"?>
<!DOCTYPE svg PUBLIC "-//W3C//DTD SVG 1.1//EN"
 "http://www.w3.org/Graphics/SVG/1.1/DTD/svg11.dtd">
<!-- Generated by graphviz version 2.36.0 (20140111.2315)
 -->
<!-- Title: compute_metrics_motion_correction Pages: 1 -->
<svg width="618pt" height="38pt"
 viewBox="0.00 0.00 618.00 38.00" xmlns="http://www.w3.org/2000/svg" xmlns:xlink="http://www.w3.org/1999/xlink">
<g id="graph0" class="graph" transform="scale(1 1) rotate(0) translate(4 34)">
<title>compute_metrics_motion_correction</title>
<polygon fill="white" stroke="none" points="-4,4 -4,-34 614,-34 614,4 -4,4"/>
<!-- Node52 -->
<g id="node1" class="node"><title>Node52</title>
<polygon fill="#bfbfbf" stroke="black" points="0,-0 0,-30 128,-30 128,-0 0,-0"/>
<text text-anchor="start" x="8" y="-18" font-family="Helvetica,sans-Serif" font-size="10.00">compute_metrics_motion</text>
<text text-anchor="middle" x="64" y="-7" font-family="Helvetica,sans-Serif" font-size="10.00">_correction</text>
</g>
<!-- Node53 -->
<g id="node2" class="node"><title>Node53</title>
<g id="a_node2"><a xlink:href="namespacecaiman_1_1motion__correction.html#aa13476234008dda16f62dc69804dab54" target="_top" xlink:title="Function that perform memory efficient hyper parallelized rigid motion corrections while also saving ...">
<polygon fill="white" stroke="black" points="164.5,-0 164.5,-30 277.5,-30 277.5,-0 164.5,-0"/>
<text text-anchor="start" x="172.5" y="-18" font-family="Helvetica,sans-Serif" font-size="10.00">motion_correct_batch</text>
<text text-anchor="middle" x="221" y="-7" font-family="Helvetica,sans-Serif" font-size="10.00">_rigid</text>
</a>
</g>
</g>
<!-- Node52&#45;&gt;Node53 -->
<g id="edge1" class="edge"><title>Node52&#45;&gt;Node53</title>
<path fill="none" stroke="midnightblue" d="M128.044,-15C136.719,-15 145.644,-15 154.364,-15"/>
<polygon fill="midnightblue" stroke="midnightblue" points="154.479,-18.5001 164.479,-15 154.479,-11.5001 154.479,-18.5001"/>
</g>
<!-- Node54 -->
<g id="node3" class="node"><title>Node54</title>
<g id="a_node3"><a xlink:href="namespacecaiman_1_1motion__correction.html#a29956f4cd15f5c59388862472d370986" target="_top" xlink:title="Function that perform memory efficient hyper parallelized rigid motion corrections while also saving ...">
<polygon fill="white" stroke="black" points="314.5,-0 314.5,-30 427.5,-30 427.5,-0 314.5,-0"/>
<text text-anchor="start" x="322.5" y="-18" font-family="Helvetica,sans-Serif" font-size="10.00">motion_correct_batch</text>
<text text-anchor="middle" x="371" y="-7" font-family="Helvetica,sans-Serif" font-size="10.00">_pwrigid</text>
</a>
</g>
</g>
<!-- Node53&#45;&gt;Node54 -->
<g id="edge2" class="edge"><title>Node53&#45;&gt;Node54</title>
<path fill="none" stroke="midnightblue" d="M277.531,-15C286.138,-15 295.101,-15 303.913,-15"/>
<polygon fill="midnightblue" stroke="midnightblue" points="304.158,-18.5001 314.158,-15 304.158,-11.5001 304.158,-18.5001"/>
</g>
<!-- Node55 -->
<g id="node4" class="node"><title>Node55</title>
<g id="a_node4"><a xlink:href="namespacecaiman_1_1motion__correction.html#a0609d5c64bb9cae41d945bbc89535d2a" target="_top" xlink:title="motion_correction_piecewise">
<polygon fill="white" stroke="black" points="464.5,-5.5 464.5,-24.5 609.5,-24.5 609.5,-5.5 464.5,-5.5"/>
<text text-anchor="middle" x="537" y="-12.5" font-family="Helvetica,sans-Serif" font-size="10.00">motion_correction_piecewise</text>
</a>
</g>
</g>
<!-- Node54&#45;&gt;Node55 -->
<g id="edge3" class="edge"><title>Node54&#45;&gt;Node55</title>
<path fill="none" stroke="midnightblue" d="M427.523,-15C436.097,-15 445.105,-15 454.11,-15"/>
<polygon fill="midnightblue" stroke="midnightblue" points="454.254,-18.5001 464.254,-15 454.254,-11.5001 454.254,-18.5001"/>
</g>
</g>
</svg>
