<?xml version="1.0" encoding="UTF-8" standalone="no"?>
<!DOCTYPE svg PUBLIC "-//W3C//DTD SVG 1.1//EN"
 "http://www.w3.org/Graphics/SVG/1.1/DTD/svg11.dtd">
<!-- Generated by graphviz version 2.36.0 (20140111.2315)
 -->
<!-- Title: initialize_components Pages: 1 -->
<svg width="312pt" height="161pt"
 viewBox="0.00 0.00 312.00 161.00" xmlns="http://www.w3.org/2000/svg" xmlns:xlink="http://www.w3.org/1999/xlink">
<g id="graph0" class="graph" transform="scale(1 1) rotate(0) translate(4 157)">
<title>initialize_components</title>
<polygon fill="white" stroke="none" points="-4,4 -4,-157 308,-157 308,4 -4,4"/>
<!-- Node19 -->
<g id="node1" class="node"><title>Node19</title>
<polygon fill="#bfbfbf" stroke="black" points="0,-57.5 0,-76.5 112,-76.5 112,-57.5 0,-57.5"/>
<text text-anchor="middle" x="56" y="-64.5" font-family="Helvetica,sans-Serif" font-size="10.00">initialize_components</text>
</g>
<!-- Node20 -->
<g id="node2" class="node"><title>Node20</title>
<g id="a_node2"><a xlink:href="namespacecaiman_1_1source__extraction_1_1cnmf_1_1initialization.html#a7dd7bbb01fcb5237fc7d7674b870c9ae" target="_top" xlink:title="Greedy initialization of spatial and temporal components using spatial Gaussian filtering. ">
<polygon fill="white" stroke="black" points="149.5,-114.5 149.5,-133.5 214.5,-133.5 214.5,-114.5 149.5,-114.5"/>
<text text-anchor="middle" x="182" y="-121.5" font-family="Helvetica,sans-Serif" font-size="10.00">greedyROI</text>
</a>
</g>
</g>
<!-- Node19&#45;&gt;Node20 -->
<g id="edge1" class="edge"><title>Node19&#45;&gt;Node20</title>
<path fill="none" stroke="midnightblue" d="M77.7548,-76.5405C97.7833,-85.7472 128.321,-99.7847 150.995,-110.207"/>
<polygon fill="midnightblue" stroke="midnightblue" points="149.63,-113.432 160.177,-114.428 152.553,-107.072 149.63,-113.432"/>
</g>
<!-- Node23 -->
<g id="node5" class="node"><title>Node23</title>
<g id="a_node5"><a xlink:href="namespacecaiman_1_1source__extraction_1_1cnmf_1_1initialization.html#aaedc4182f94a08193a9a93e9931bbb37" target="_top" xlink:title="Hierarchical alternating least square method for solving NMF problem. ">
<polygon fill="white" stroke="black" points="164.5,-76.5 164.5,-95.5 199.5,-95.5 199.5,-76.5 164.5,-76.5"/>
<text text-anchor="middle" x="182" y="-83.5" font-family="Helvetica,sans-Serif" font-size="10.00">hals</text>
</a>
</g>
</g>
<!-- Node19&#45;&gt;Node23 -->
<g id="edge4" class="edge"><title>Node19&#45;&gt;Node23</title>
<path fill="none" stroke="midnightblue" d="M112.11,-75.4443C126.718,-77.6827 141.843,-80.0002 154.186,-81.8915"/>
<polygon fill="midnightblue" stroke="midnightblue" points="153.82,-85.3761 164.235,-83.4311 154.88,-78.4568 153.82,-85.3761"/>
</g>
<!-- Node24 -->
<g id="node6" class="node"><title>Node24</title>
<g id="a_node6"><a xlink:href="namespacecaiman_1_1source__extraction_1_1cnmf_1_1initialization.html#a12935eff3707e6c9e0e56b2152a90bd5" target="_top" xlink:title="Initilaization using sparse NMF. ">
<polygon fill="white" stroke="black" points="148,-38.5 148,-57.5 216,-57.5 216,-38.5 148,-38.5"/>
<text text-anchor="middle" x="182" y="-45.5" font-family="Helvetica,sans-Serif" font-size="10.00">sparseNMF</text>
</a>
</g>
</g>
<!-- Node19&#45;&gt;Node24 -->
<g id="edge5" class="edge"><title>Node19&#45;&gt;Node24</title>
<path fill="none" stroke="midnightblue" d="M112.11,-58.5557C120.661,-57.2456 129.388,-55.9083 137.631,-54.6453"/>
<polygon fill="midnightblue" stroke="midnightblue" points="138.408,-58.0671 147.763,-53.0928 137.348,-51.1479 138.408,-58.0671"/>
</g>
<!-- Node25 -->
<g id="node7" class="node"><title>Node25</title>
<g id="a_node7"><a xlink:href="namespacecaiman_1_1source__extraction_1_1cnmf_1_1initialization.html#a88bfdfe3cc85c90317fb6d8d6c09f792" target="_top" xlink:title="Initialization using ICA and PCA. ">
<polygon fill="white" stroke="black" points="152.5,-0.5 152.5,-19.5 211.5,-19.5 211.5,-0.5 152.5,-0.5"/>
<text text-anchor="middle" x="182" y="-7.5" font-family="Helvetica,sans-Serif" font-size="10.00">ICA_PCA</text>
</a>
</g>
</g>
<!-- Node19&#45;&gt;Node25 -->
<g id="edge6" class="edge"><title>Node19&#45;&gt;Node25</title>
<path fill="none" stroke="midnightblue" d="M77.7548,-57.4595C97.7833,-48.2528 128.321,-34.2153 150.995,-23.7926"/>
<polygon fill="midnightblue" stroke="midnightblue" points="152.553,-26.9284 160.177,-19.5716 149.63,-20.5682 152.553,-26.9284"/>
</g>
<!-- Node21 -->
<g id="node3" class="node"><title>Node21</title>
<g id="a_node3"><a xlink:href="namespacecaiman_1_1source__extraction_1_1cnmf_1_1initialization.html#ac8f4ada67920c28ee00d92af03cb4f8b" target="_top" xlink:title="Spatial filtering with a Gaussian or user defined kernel. ">
<polygon fill="white" stroke="black" points="256,-133.5 256,-152.5 300,-152.5 300,-133.5 256,-133.5"/>
<text text-anchor="middle" x="278" y="-140.5" font-family="Helvetica,sans-Serif" font-size="10.00">imblur</text>
</a>
</g>
</g>
<!-- Node20&#45;&gt;Node21 -->
<g id="edge2" class="edge"><title>Node20&#45;&gt;Node21</title>
<path fill="none" stroke="midnightblue" d="M214.562,-130.38C224.617,-132.412 235.732,-134.659 245.763,-136.686"/>
<polygon fill="midnightblue" stroke="midnightblue" points="245.24,-140.151 255.735,-138.702 246.627,-133.29 245.24,-140.151"/>
</g>
<!-- Node22 -->
<g id="node4" class="node"><title>Node22</title>
<g id="a_node4"><a xlink:href="namespacecaiman_1_1source__extraction_1_1cnmf_1_1initialization.html#a34abf87100936b47d488cefbb9def7e9" target="_top" xlink:title="compute a initialized version of A and C ">
<polygon fill="white" stroke="black" points="252,-95.5 252,-114.5 304,-114.5 304,-95.5 252,-95.5"/>
<text text-anchor="middle" x="278" y="-102.5" font-family="Helvetica,sans-Serif" font-size="10.00">finetune</text>
</a>
</g>
</g>
<!-- Node20&#45;&gt;Node22 -->
<g id="edge3" class="edge"><title>Node20&#45;&gt;Node22</title>
<path fill="none" stroke="midnightblue" d="M214.562,-117.62C223.398,-115.835 233.052,-113.883 242.07,-112.06"/>
<polygon fill="midnightblue" stroke="midnightblue" points="242.796,-115.484 251.904,-110.073 241.409,-108.623 242.796,-115.484"/>
</g>
</g>
</svg>
