<?xml version="1.0" encoding="UTF-8" standalone="no"?>
<!DOCTYPE svg PUBLIC "-//W3C//DTD SVG 1.1//EN"
 "http://www.w3.org/Graphics/SVG/1.1/DTD/svg11.dtd">
<!-- Generated by graphviz version 2.36.0 (20140111.2315)
 -->
<!-- Title: extract_binary_masks_blob_parallel Pages: 1 -->
<svg width="446pt" height="88pt"
 viewBox="0.00 0.00 446.00 88.00" xmlns="http://www.w3.org/2000/svg" xmlns:xlink="http://www.w3.org/1999/xlink">
<g id="graph0" class="graph" transform="scale(1 1) rotate(0) translate(4 84)">
<title>extract_binary_masks_blob_parallel</title>
<polygon fill="white" stroke="none" points="-4,4 -4,-84 442,-84 442,4 -4,4"/>
<!-- Node25 -->
<g id="node1" class="node"><title>Node25</title>
<polygon fill="#bfbfbf" stroke="black" points="0,-30 0,-60 114,-60 114,-30 0,-30"/>
<text text-anchor="start" x="8" y="-48" font-family="Helvetica,sans-Serif" font-size="10.00">extract_binary_masks</text>
<text text-anchor="middle" x="57" y="-37" font-family="Helvetica,sans-Serif" font-size="10.00">_blob_parallel</text>
</g>
<!-- Node26 -->
<g id="node2" class="node"><title>Node26</title>
<g id="a_node2"><a xlink:href="namespacecaiman_1_1base_1_1rois.html#a6c407af6009f8ede225fa785d6bfc040" target="_top" xlink:title="Function to extract masks from data. ">
<polygon fill="white" stroke="black" points="150,-35.5 150,-54.5 288,-54.5 288,-35.5 150,-35.5"/>
<text text-anchor="middle" x="219" y="-42.5" font-family="Helvetica,sans-Serif" font-size="10.00">extract_binary_masks_blob</text>
</a>
</g>
</g>
<!-- Node25&#45;&gt;Node26 -->
<g id="edge1" class="edge"><title>Node25&#45;&gt;Node26</title>
<path fill="none" stroke="midnightblue" d="M124.47,-45C132.821,-45 141.374,-45 149.751,-45"/>
<polygon fill="midnightblue" stroke="midnightblue" points="124.41,-41.5001 114.41,-45 124.41,-48.5001 124.41,-41.5001"/>
</g>
<!-- Node27 -->
<g id="node3" class="node"><title>Node27</title>
<g id="a_node3"><a xlink:href="namespacecaiman_1_1base_1_1rois.html#a547c857f35b0906431911026c4cb5bff" target="_top" xlink:title="Create a zip file containing ROIs for ImageJ by combining elements from a list of ROI zip files...">
<polygon fill="white" stroke="black" points="334,-60.5 334,-79.5 428,-79.5 428,-60.5 334,-60.5"/>
<text text-anchor="middle" x="381" y="-67.5" font-family="Helvetica,sans-Serif" font-size="10.00">nf_merge_roi_zip</text>
</a>
</g>
</g>
<!-- Node26&#45;&gt;Node27 -->
<g id="edge2" class="edge"><title>Node26&#45;&gt;Node27</title>
<path fill="none" stroke="midnightblue" d="M290.894,-56.0771C305.391,-58.3423 320.292,-60.6706 333.659,-62.7593"/>
<polygon fill="midnightblue" stroke="midnightblue" points="291.366,-52.6086 280.946,-54.5227 290.285,-59.5246 291.366,-52.6086"/>
</g>
<!-- Node28 -->
<g id="node4" class="node"><title>Node28</title>
<g id="a_node4"><a xlink:href="namespacecaiman_1_1base_1_1rois.html#afde6c0bad0f753a9a785404bdfda1000" target="_top" xlink:title="extract_binary_masks\l_blob_parallel_place\l_holder">
<polygon fill="white" stroke="black" points="324,-0.5 324,-41.5 438,-41.5 438,-0.5 324,-0.5"/>
<text text-anchor="start" x="332" y="-29.5" font-family="Helvetica,sans-Serif" font-size="10.00">extract_binary_masks</text>
<text text-anchor="start" x="332" y="-18.5" font-family="Helvetica,sans-Serif" font-size="10.00">_blob_parallel_place</text>
<text text-anchor="middle" x="381" y="-7.5" font-family="Helvetica,sans-Serif" font-size="10.00">_holder</text>
</a>
</g>
</g>
<!-- Node26&#45;&gt;Node28 -->
<g id="edge3" class="edge"><title>Node26&#45;&gt;Node28</title>
<path fill="none" stroke="midnightblue" d="M293.723,-33.9415C303.82,-32.4271 314.05,-30.8925 323.766,-29.4351"/>
<polygon fill="midnightblue" stroke="midnightblue" points="293.066,-30.5008 283.696,-35.4456 294.105,-37.4234 293.066,-30.5008"/>
</g>
</g>
</svg>
