<?xml version="1.0" encoding="UTF-8" standalone="no"?>
<!DOCTYPE svg PUBLIC "-//W3C//DTD SVG 1.1//EN"
 "http://www.w3.org/Graphics/SVG/1.1/DTD/svg11.dtd">
<!-- Generated by graphviz version 2.36.0 (20140111.2315)
 -->
<!-- Title: process_movie_parallel Pages: 1 -->
<svg width="410pt" height="28pt"
 viewBox="0.00 0.00 410.00 28.00" xmlns="http://www.w3.org/2000/svg" xmlns:xlink="http://www.w3.org/1999/xlink">
<g id="graph0" class="graph" transform="scale(1 1) rotate(0) translate(4 24)">
<title>process_movie_parallel</title>
<polygon fill="white" stroke="none" points="-4,4 -4,-24 406,-24 406,4 -4,4"/>
<!-- Node128 -->
<g id="node1" class="node"><title>Node128</title>
<polygon fill="#bfbfbf" stroke="black" points="0,-0.5 0,-19.5 122,-19.5 122,-0.5 0,-0.5"/>
<text text-anchor="middle" x="61" y="-7.5" font-family="Helvetica,sans-Serif" font-size="10.00">process_movie_parallel</text>
</g>
<!-- Node129 -->
<g id="node2" class="node"><title>Node129</title>
<g id="a_node2"><a xlink:href="namespacecaiman_1_1motion__correction.html#a7d2c5818773d564a27f831175498ee9a" target="_top" xlink:title="motion correct many movies usingthe ipyparallel cluster ">
<polygon fill="white" stroke="black" points="158,-0.5 158,-19.5 278,-19.5 278,-0.5 158,-0.5"/>
<text text-anchor="middle" x="218" y="-7.5" font-family="Helvetica,sans-Serif" font-size="10.00">motion_correct_parallel</text>
</a>
</g>
</g>
<!-- Node128&#45;&gt;Node129 -->
<g id="edge1" class="edge"><title>Node128&#45;&gt;Node129</title>
<path fill="none" stroke="midnightblue" d="M122.371,-10C130.65,-10 139.204,-10 147.628,-10"/>
<polygon fill="midnightblue" stroke="midnightblue" points="147.812,-13.5001 157.812,-10 147.812,-6.5001 147.812,-13.5001"/>
</g>
<!-- Node130 -->
<g id="node3" class="node"><title>Node130</title>
<g id="a_node3"><a xlink:href="namespacecaiman_1_1motion__correction.html#aa339d12f180017a763175f450816f158" target="_top" xlink:title="adapted from SIMA (https://github.com/losonczylab) and the scikit&#45;image (http://scikit&#45;image.org/) package. ">
<polygon fill="white" stroke="black" points="314,-0.5 314,-19.5 402,-19.5 402,-0.5 314,-0.5"/>
<text text-anchor="middle" x="358" y="-7.5" font-family="Helvetica,sans-Serif" font-size="10.00">_upsampled_dft</text>
</a>
</g>
</g>
<!-- Node129&#45;&gt;Node130 -->
<g id="edge2" class="edge"><title>Node129&#45;&gt;Node130</title>
<path fill="none" stroke="midnightblue" d="M278.325,-10C286.843,-10 295.561,-10 303.946,-10"/>
<polygon fill="midnightblue" stroke="midnightblue" points="303.974,-13.5001 313.974,-10 303.974,-6.5001 303.974,-13.5001"/>
</g>
</g>
</svg>
