<?xml version="1.0" encoding="UTF-8" standalone="no"?>
<!DOCTYPE svg PUBLIC "-//W3C//DTD SVG 1.1//EN"
 "http://www.w3.org/Graphics/SVG/1.1/DTD/svg11.dtd">
<!-- Generated by graphviz version 2.36.0 (20140111.2315)
 -->
<!-- Title: load_movie_chain Pages: 1 -->
<svg width="684pt" height="115pt"
 viewBox="0.00 0.00 684.00 115.00" xmlns="http://www.w3.org/2000/svg" xmlns:xlink="http://www.w3.org/1999/xlink">
<g id="graph0" class="graph" transform="scale(1 1) rotate(0) translate(4 111)">
<title>load_movie_chain</title>
<polygon fill="white" stroke="none" points="-4,4 -4,-111 680,-111 680,4 -4,4"/>
<!-- Node29 -->
<g id="node1" class="node"><title>Node29</title>
<polygon fill="#bfbfbf" stroke="black" points="0.5,-38.5 0.5,-57.5 97.5,-57.5 97.5,-38.5 0.5,-38.5"/>
<text text-anchor="middle" x="49" y="-45.5" font-family="Helvetica,sans-Serif" font-size="10.00">load_movie_chain</text>
</g>
<!-- Node30 -->
<g id="node2" class="node"><title>Node30</title>
<g id="a_node2"><a xlink:href="namespacecaiman_1_1base_1_1movies.html#a5392a2c6b37a9407231041bee3f521a4" target="_top" xlink:title="load movie from file. ">
<polygon fill="white" stroke="black" points="134.5,-38.5 134.5,-57.5 169.5,-57.5 169.5,-38.5 134.5,-38.5"/>
<text text-anchor="middle" x="152" y="-45.5" font-family="Helvetica,sans-Serif" font-size="10.00">load</text>
</a>
</g>
</g>
<!-- Node29&#45;&gt;Node30 -->
<g id="edge1" class="edge"><title>Node29&#45;&gt;Node30</title>
<path fill="none" stroke="midnightblue" d="M97.5425,-41.2603C106.65,-41.1968 115.886,-41.4269 124.06,-41.9506"/>
<polygon fill="midnightblue" stroke="midnightblue" points="123.833,-45.4439 134.095,-42.8082 124.429,-38.4693 123.833,-45.4439"/>
</g>
<!-- Node30&#45;&gt;Node29 -->
<g id="edge10" class="edge"><title>Node30&#45;&gt;Node29</title>
<path fill="none" stroke="midnightblue" d="M134.095,-53.1918C126.606,-54.0254 117.314,-54.5246 107.666,-54.6892"/>
<polygon fill="midnightblue" stroke="midnightblue" points="107.525,-51.1898 97.5425,-54.7397 107.56,-58.1897 107.525,-51.1898"/>
</g>
<!-- Node31 -->
<g id="node3" class="node"><title>Node31</title>
<g id="a_node3"><a xlink:href="namespacecaiman_1_1mmapping.html#aeb2ed62e4a9028089a2eec09d392707f" target="_top" xlink:title="Load a memory mapped file created by the function save_memmap. ">
<polygon fill="white" stroke="black" points="206,-77 206,-107 326,-107 326,-77 206,-77"/>
<text text-anchor="start" x="214" y="-95" font-family="Helvetica,sans-Serif" font-size="10.00">caiman.mmapping.load</text>
<text text-anchor="middle" x="266" y="-84" font-family="Helvetica,sans-Serif" font-size="10.00">_memmap</text>
</a>
</g>
</g>
<!-- Node30&#45;&gt;Node31 -->
<g id="edge2" class="edge"><title>Node30&#45;&gt;Node31</title>
<path fill="none" stroke="midnightblue" d="M169.526,-54.4924C182.156,-59.4541 200.236,-66.5572 217.272,-73.2499"/>
<polygon fill="midnightblue" stroke="midnightblue" points="216.001,-76.5107 226.588,-76.9096 218.56,-69.9954 216.001,-76.5107"/>
</g>
<!-- Node33 -->
<g id="node5" class="node"><title>Node33</title>
<g id="a_node5"><a xlink:href="namespacecaiman_1_1base_1_1movies.html#ad9b115e435b36308da1248112f09f0db" target="_top" xlink:title="sbxreadskip">
<polygon fill="white" stroke="black" points="231,-38.5 231,-57.5 301,-57.5 301,-38.5 231,-38.5"/>
<text text-anchor="middle" x="266" y="-45.5" font-family="Helvetica,sans-Serif" font-size="10.00">sbxreadskip</text>
</a>
</g>
</g>
<!-- Node30&#45;&gt;Node33 -->
<g id="edge4" class="edge"><title>Node30&#45;&gt;Node33</title>
<path fill="none" stroke="midnightblue" d="M169.526,-48C183.017,-48 202.728,-48 220.741,-48"/>
<polygon fill="midnightblue" stroke="midnightblue" points="220.807,-51.5001 230.807,-48 220.807,-44.5001 220.807,-51.5001"/>
</g>
<!-- Node37 -->
<g id="node9" class="node"><title>Node37</title>
<g id="a_node9"><a xlink:href="namespacecaiman_1_1base_1_1movies.html#ad72bfc8cc5386d4470caa0be723598e9" target="_top" xlink:title="sbxread">
<polygon fill="white" stroke="black" points="240,-0.5 240,-19.5 292,-19.5 292,-0.5 240,-0.5"/>
<text text-anchor="middle" x="266" y="-7.5" font-family="Helvetica,sans-Serif" font-size="10.00">sbxread</text>
</a>
</g>
</g>
<!-- Node30&#45;&gt;Node37 -->
<g id="edge8" class="edge"><title>Node30&#45;&gt;Node37</title>
<path fill="none" stroke="midnightblue" d="M169.66,-41.8698C180.075,-38.0768 193.785,-33.1552 206,-29 213.808,-26.344 222.229,-23.5754 230.196,-20.9997"/>
<polygon fill="midnightblue" stroke="midnightblue" points="231.513,-24.2528 239.964,-17.8632 229.373,-17.5879 231.513,-24.2528"/>
</g>
<!-- Node32 -->
<g id="node4" class="node"><title>Node32</title>
<g id="a_node4"><a xlink:href="namespacecaiman_1_1mmapping.html#ad949509ed734151b99d635a4264a59ad" target="_top" xlink:title="Create several memory mapped files using parallel processing. ">
<polygon fill="white" stroke="black" points="362,-77 362,-107 484,-107 484,-77 362,-77"/>
<text text-anchor="start" x="370" y="-95" font-family="Helvetica,sans-Serif" font-size="10.00">caiman.mmapping.save</text>
<text text-anchor="middle" x="423" y="-84" font-family="Helvetica,sans-Serif" font-size="10.00">_memmap_each</text>
</a>
</g>
</g>
<!-- Node31&#45;&gt;Node32 -->
<g id="edge3" class="edge"><title>Node31&#45;&gt;Node32</title>
<path fill="none" stroke="midnightblue" d="M326.041,-92C334.465,-92 343.198,-92 351.81,-92"/>
<polygon fill="midnightblue" stroke="midnightblue" points="351.838,-95.5001 361.838,-92 351.838,-88.5001 351.838,-95.5001"/>
</g>
<!-- Node34 -->
<g id="node6" class="node"><title>Node34</title>
<g id="a_node6"><a xlink:href="namespacecaiman_1_1base_1_1movies.html#a1dae08ecd6c4b9ef41d5e820eb86604d" target="_top" xlink:title="this function should be called instead of direct spio.loadmat ">
<polygon fill="white" stroke="black" points="386.5,-19.5 386.5,-38.5 459.5,-38.5 459.5,-19.5 386.5,-19.5"/>
<text text-anchor="middle" x="423" y="-26.5" font-family="Helvetica,sans-Serif" font-size="10.00">loadmat_sbx</text>
</a>
</g>
</g>
<!-- Node33&#45;&gt;Node34 -->
<g id="edge5" class="edge"><title>Node33&#45;&gt;Node34</title>
<path fill="none" stroke="midnightblue" d="M301.015,-43.8304C323.16,-41.1158 352.309,-37.5428 376.446,-34.584"/>
<polygon fill="midnightblue" stroke="midnightblue" points="376.949,-38.0487 386.449,-33.3579 376.097,-31.1007 376.949,-38.0487"/>
</g>
<!-- Node35 -->
<g id="node7" class="node"><title>Node35</title>
<g id="a_node7"><a xlink:href="namespacecaiman_1_1base_1_1movies.html#abb80862aafd574c59a95c0b24268be69" target="_top" xlink:title="checks if entries in dictionary rare mat&#45;objects. ">
<polygon fill="white" stroke="black" points="520,-19.5 520,-38.5 594,-38.5 594,-19.5 520,-19.5"/>
<text text-anchor="middle" x="557" y="-26.5" font-family="Helvetica,sans-Serif" font-size="10.00">_check_keys</text>
</a>
</g>
</g>
<!-- Node34&#45;&gt;Node35 -->
<g id="edge6" class="edge"><title>Node34&#45;&gt;Node35</title>
<path fill="none" stroke="midnightblue" d="M459.721,-29C475.003,-29 493.051,-29 509.366,-29"/>
<polygon fill="midnightblue" stroke="midnightblue" points="509.791,-32.5001 519.791,-29 509.791,-25.5001 509.791,-32.5001"/>
</g>
<!-- Node36 -->
<g id="node8" class="node"><title>Node36</title>
<g id="a_node8"><a xlink:href="namespacecaiman_1_1base_1_1movies.html#a3678b9e2ae337ad61ebe7630c5e08ead" target="_top" xlink:title="A recursive function which constructs from matobjects nested dictionaries. ">
<polygon fill="white" stroke="black" points="630,-19.5 630,-38.5 676,-38.5 676,-19.5 630,-19.5"/>
<text text-anchor="middle" x="653" y="-26.5" font-family="Helvetica,sans-Serif" font-size="10.00">_todict</text>
</a>
</g>
</g>
<!-- Node35&#45;&gt;Node36 -->
<g id="edge7" class="edge"><title>Node35&#45;&gt;Node36</title>
<path fill="none" stroke="midnightblue" d="M594.074,-29C602.52,-29 611.464,-29 619.731,-29"/>
<polygon fill="midnightblue" stroke="midnightblue" points="619.753,-32.5001 629.753,-29 619.753,-25.5001 619.753,-32.5001"/>
</g>
<!-- Node37&#45;&gt;Node34 -->
<g id="edge9" class="edge"><title>Node37&#45;&gt;Node34</title>
<path fill="none" stroke="midnightblue" d="M292.248,-13.095C314.916,-15.8736 348.746,-20.0205 376.18,-23.3833"/>
<polygon fill="midnightblue" stroke="midnightblue" points="375.993,-26.8865 386.344,-24.6293 376.844,-19.9385 375.993,-26.8865"/>
</g>
</g>
</svg>
