<?xml version="1.0" encoding="UTF-8" standalone="no"?>
<!DOCTYPE svg PUBLIC "-//W3C//DTD SVG 1.1//EN"
 "http://www.w3.org/Graphics/SVG/1.1/DTD/svg11.dtd">
<!-- Generated by graphviz version 2.36.0 (20140111.2315)
 -->
<!-- Title: get_distance_from_A Pages: 1 -->
<svg width="394pt" height="74pt"
 viewBox="0.00 0.00 394.00 74.00" xmlns="http://www.w3.org/2000/svg" xmlns:xlink="http://www.w3.org/1999/xlink">
<g id="graph0" class="graph" transform="scale(1 1) rotate(0) translate(4 70)">
<title>get_distance_from_A</title>
<polygon fill="white" stroke="none" points="-4,4 -4,-70 390,-70 390,4 -4,4"/>
<!-- Node39 -->
<g id="node1" class="node"><title>Node39</title>
<polygon fill="#bfbfbf" stroke="black" points="0.5,-27.5 0.5,-46.5 111.5,-46.5 111.5,-27.5 0.5,-27.5"/>
<text text-anchor="middle" x="56" y="-34.5" font-family="Helvetica,sans-Serif" font-size="10.00">get_distance_from_A</text>
</g>
<!-- Node40 -->
<g id="node2" class="node"><title>Node40</title>
<g id="a_node2"><a xlink:href="namespacecaiman_1_1base_1_1rois.html#adc8128004edb81aefbc6d8ba07557414" target="_top" xlink:title="distance_masks">
<polygon fill="white" stroke="black" points="298,-46.5 298,-65.5 386,-65.5 386,-46.5 298,-46.5"/>
<text text-anchor="middle" x="342" y="-53.5" font-family="Helvetica,sans-Serif" font-size="10.00">distance_masks</text>
</a>
</g>
</g>
<!-- Node39&#45;&gt;Node40 -->
<g id="edge1" class="edge"><title>Node39&#45;&gt;Node40</title>
<path fill="none" stroke="midnightblue" d="M111.758,-40.6634C162.426,-44.0531 237.288,-49.0615 287.538,-52.4233"/>
<polygon fill="midnightblue" stroke="midnightblue" points="287.346,-55.9182 297.557,-53.0936 287.813,-48.9338 287.346,-55.9182"/>
</g>
<!-- Node41 -->
<g id="node3" class="node"><title>Node41</title>
<g id="a_node3"><a xlink:href="namespacecaiman_1_1base_1_1rois.html#a110f7c7d62671deddd9e58cc0c873a4c" target="_top" xlink:title="Match neurons expressed as binary masks. ">
<polygon fill="white" stroke="black" points="148.5,-0 148.5,-30 261.5,-30 261.5,-0 148.5,-0"/>
<text text-anchor="start" x="156.5" y="-18" font-family="Helvetica,sans-Serif" font-size="10.00">nf_match_neurons_in</text>
<text text-anchor="middle" x="205" y="-7" font-family="Helvetica,sans-Serif" font-size="10.00">_binary_masks</text>
</a>
</g>
</g>
<!-- Node39&#45;&gt;Node41 -->
<g id="edge2" class="edge"><title>Node39&#45;&gt;Node41</title>
<path fill="none" stroke="midnightblue" d="M111.737,-28.808C120.396,-27.5121 129.428,-26.1605 138.306,-24.8318"/>
<polygon fill="midnightblue" stroke="midnightblue" points="138.864,-28.2873 148.236,-23.3457 137.828,-21.3644 138.864,-28.2873"/>
</g>
<!-- Node41&#45;&gt;Node40 -->
<g id="edge3" class="edge"><title>Node41&#45;&gt;Node40</title>
<path fill="none" stroke="midnightblue" d="M255.502,-30.0341C270.035,-34.4478 285.769,-39.2262 299.73,-43.4662"/>
<polygon fill="midnightblue" stroke="midnightblue" points="298.955,-46.8884 309.54,-46.4455 300.989,-40.1905 298.955,-46.8884"/>
</g>
<!-- Node42 -->
<g id="node4" class="node"><title>Node42</title>
<g id="a_node4"><a xlink:href="namespacecaiman_1_1base_1_1rois.html#ad8b7c6d1ce325bba2b0369a7ce7b8c85" target="_top" xlink:title="find_matches">
<polygon fill="white" stroke="black" points="304,-5.5 304,-24.5 380,-24.5 380,-5.5 304,-5.5"/>
<text text-anchor="middle" x="342" y="-12.5" font-family="Helvetica,sans-Serif" font-size="10.00">find_matches</text>
</a>
</g>
</g>
<!-- Node41&#45;&gt;Node42 -->
<g id="edge4" class="edge"><title>Node41&#45;&gt;Node42</title>
<path fill="none" stroke="midnightblue" d="M261.689,-15C272.366,-15 283.45,-15 293.827,-15"/>
<polygon fill="midnightblue" stroke="midnightblue" points="293.927,-18.5001 303.927,-15 293.926,-11.5001 293.927,-18.5001"/>
</g>
</g>
</svg>
