<?xml version="1.0" encoding="UTF-8" standalone="no"?>
<!DOCTYPE svg PUBLIC "-//W3C//DTD SVG 1.1//EN"
 "http://www.w3.org/Graphics/SVG/1.1/DTD/svg11.dtd">
<!-- Generated by graphviz version 2.36.0 (20140111.2315)
 -->
<!-- Title: extract_magnitude_and_angle_from_OF Pages: 1 -->
<svg width="280pt" height="66pt"
 viewBox="0.00 0.00 280.00 66.00" xmlns="http://www.w3.org/2000/svg" xmlns:xlink="http://www.w3.org/1999/xlink">
<g id="graph0" class="graph" transform="scale(1 1) rotate(0) translate(4 62)">
<title>extract_magnitude_and_angle_from_OF</title>
<polygon fill="white" stroke="none" points="-4,4 -4,-62 276,-62 276,4 -4,4"/>
<!-- Node9 -->
<g id="node1" class="node"><title>Node9</title>
<polygon fill="#bfbfbf" stroke="black" points="0.5,-14 0.5,-44 121.5,-44 121.5,-14 0.5,-14"/>
<text text-anchor="start" x="8.5" y="-32" font-family="Helvetica,sans-Serif" font-size="10.00">extract_magnitude_and</text>
<text text-anchor="middle" x="61" y="-21" font-family="Helvetica,sans-Serif" font-size="10.00">_angle_from_OF</text>
</g>
<!-- Node10 -->
<g id="node2" class="node"><title>Node10</title>
<g id="a_node2"><a xlink:href="namespacecaiman_1_1behavior_1_1behavior.html#ac3499bf4c197011ae9e65aa044269f82" target="_top" xlink:title="to_polar">
<polygon fill="white" stroke="black" points="188.5,-38.5 188.5,-57.5 241.5,-57.5 241.5,-38.5 188.5,-38.5"/>
<text text-anchor="middle" x="215" y="-45.5" font-family="Helvetica,sans-Serif" font-size="10.00">to_polar</text>
</a>
</g>
</g>
<!-- Node9&#45;&gt;Node10 -->
<g id="edge1" class="edge"><title>Node9&#45;&gt;Node10</title>
<path fill="none" stroke="midnightblue" d="M121.638,-36.4548C140.786,-38.8482 161.388,-41.4235 178.265,-43.5332"/>
<polygon fill="midnightblue" stroke="midnightblue" points="177.889,-47.0133 188.246,-44.7808 178.758,-40.0674 177.889,-47.0133"/>
</g>
<!-- Node11 -->
<g id="node3" class="node"><title>Node11</title>
<g id="a_node3"><a xlink:href="namespacecaiman_1_1behavior_1_1behavior.html#a8f9ed50a7ba21081b068bf7967f74e09" target="_top" xlink:title="This function compute the optical flow of behavioral movies using the opencv cv2.calcOpticalFlowFarne...">
<polygon fill="white" stroke="black" points="158.5,-0.5 158.5,-19.5 271.5,-19.5 271.5,-0.5 158.5,-0.5"/>
<text text-anchor="middle" x="215" y="-7.5" font-family="Helvetica,sans-Serif" font-size="10.00">compute_optical_flow</text>
</a>
</g>
</g>
<!-- Node9&#45;&gt;Node11 -->
<g id="edge2" class="edge"><title>Node9&#45;&gt;Node11</title>
<path fill="none" stroke="midnightblue" d="M121.638,-21.5452C130.246,-20.4692 139.149,-19.3564 147.874,-18.2657"/>
<polygon fill="midnightblue" stroke="midnightblue" points="148.519,-21.7124 158.008,-16.999 147.651,-14.7665 148.519,-21.7124"/>
</g>
</g>
</svg>
