<?xml version="1.0" encoding="UTF-8" standalone="no"?>
<!DOCTYPE svg PUBLIC "-//W3C//DTD SVG 1.1//EN"
 "http://www.w3.org/Graphics/SVG/1.1/DTD/svg11.dtd">
<!-- Generated by graphviz version 2.36.0 (20140111.2315)
 -->
<!-- Title: mode_robust_fast Pages: 1 -->
<svg width="1040pt" height="185pt"
 viewBox="0.00 0.00 1040.00 185.00" xmlns="http://www.w3.org/2000/svg" xmlns:xlink="http://www.w3.org/1999/xlink">
<g id="graph0" class="graph" transform="scale(1 1) rotate(0) translate(4 181)">
<title>mode_robust_fast</title>
<polygon fill="white" stroke="none" points="-4,4 -4,-181 1036,-181 1036,4 -4,4"/>
<!-- Node25 -->
<g id="node1" class="node"><title>Node25</title>
<polygon fill="#bfbfbf" stroke="black" points="0.5,-127.5 0.5,-146.5 97.5,-146.5 97.5,-127.5 0.5,-127.5"/>
<text text-anchor="middle" x="49" y="-134.5" font-family="Helvetica,sans-Serif" font-size="10.00">mode_robust_fast</text>
</g>
<!-- Node26 -->
<g id="node2" class="node"><title>Node26</title>
<g id="a_node2"><a xlink:href="namespacecaiman_1_1components__evaluation.html#a115ea8d0f9c41cb31cb7fe05535f65f7" target="_top" xlink:title="estimate the noise in the traces under assumption that signals are sparse and only positive...">
<polygon fill="white" stroke="black" points="134,-147 134,-177 332,-177 332,-147 134,-147"/>
<text text-anchor="start" x="142" y="-165" font-family="Helvetica,sans-Serif" font-size="10.00">caiman.components_evaluation.estimate</text>
<text text-anchor="middle" x="233" y="-154" font-family="Helvetica,sans-Serif" font-size="10.00">_noise_mode</text>
</a>
</g>
</g>
<!-- Node25&#45;&gt;Node26 -->
<g id="edge1" class="edge"><title>Node25&#45;&gt;Node26</title>
<path fill="none" stroke="midnightblue" d="M107.76,-144.934C116.104,-146.08 124.881,-147.286 133.75,-148.504"/>
<polygon fill="midnightblue" stroke="midnightblue" points="108.202,-141.462 97.8184,-143.568 107.249,-148.397 108.202,-141.462"/>
</g>
<!-- Node27 -->
<g id="node3" class="node"><title>Node27</title>
<g id="a_node3"><a xlink:href="namespacecaiman_1_1components__evaluation.html#a967e8c445c84976814609f9c120153a2" target="_top" xlink:title="Define a metric and order components according to the probabilty if some &quot;exceptional events&quot; (like a...">
<polygon fill="white" stroke="black" points="134,-98 134,-128 332,-128 332,-98 134,-98"/>
<text text-anchor="start" x="142" y="-116" font-family="Helvetica,sans-Serif" font-size="10.00">caiman.components_evaluation.compute</text>
<text text-anchor="middle" x="233" y="-105" font-family="Helvetica,sans-Serif" font-size="10.00">_event_exceptionality</text>
</a>
</g>
</g>
<!-- Node25&#45;&gt;Node27 -->
<g id="edge2" class="edge"><title>Node25&#45;&gt;Node27</title>
<path fill="none" stroke="midnightblue" d="M107.76,-129.383C116.104,-128.283 124.881,-127.126 133.75,-125.956"/>
<polygon fill="midnightblue" stroke="midnightblue" points="107.275,-125.917 97.8184,-130.694 108.19,-132.857 107.275,-125.917"/>
</g>
<!-- Node28 -->
<g id="node4" class="node"><title>Node28</title>
<g id="a_node4"><a xlink:href="namespacecaiman_1_1components__evaluation.html#ad2a8435be788c8e75130e41f884adb0f" target="_top" xlink:title="Define a metric and order components according to the probabilty if some &quot;exceptional events&quot; (like a...">
<polygon fill="white" stroke="black" points="368,-98 368,-128 566,-128 566,-98 368,-98"/>
<text text-anchor="start" x="376" y="-116" font-family="Helvetica,sans-Serif" font-size="10.00">caiman.components_evaluation.evaluate</text>
<text text-anchor="middle" x="467" y="-105" font-family="Helvetica,sans-Serif" font-size="10.00">_components</text>
</a>
</g>
</g>
<!-- Node27&#45;&gt;Node28 -->
<g id="edge3" class="edge"><title>Node27&#45;&gt;Node28</title>
<path fill="none" stroke="midnightblue" d="M342.119,-113C350.727,-113 359.393,-113 367.926,-113"/>
<polygon fill="midnightblue" stroke="midnightblue" points="342.053,-109.5 332.053,-113 342.053,-116.5 342.053,-109.5"/>
</g>
<!-- Node29 -->
<g id="node5" class="node"><title>Node29</title>
<g id="a_node5"><a xlink:href="namespacecaiman_1_1components__evaluation.html#ad0d76d63424939fa0004f5cc800f0105" target="_top" xlink:title="caiman.components_evaluation.classify\l_components_ep">
<polygon fill="white" stroke="black" points="604.5,-98 604.5,-128 797.5,-128 797.5,-98 604.5,-98"/>
<text text-anchor="start" x="612.5" y="-116" font-family="Helvetica,sans-Serif" font-size="10.00">caiman.components_evaluation.classify</text>
<text text-anchor="middle" x="701" y="-105" font-family="Helvetica,sans-Serif" font-size="10.00">_components_ep</text>
</a>
</g>
</g>
<!-- Node28&#45;&gt;Node29 -->
<g id="edge4" class="edge"><title>Node28&#45;&gt;Node29</title>
<path fill="none" stroke="midnightblue" d="M576.154,-106.264C585.499,-106.231 594.912,-106.257 604.149,-106.341"/>
<polygon fill="midnightblue" stroke="midnightblue" points="576.032,-102.764 566.053,-106.322 576.073,-109.764 576.032,-102.764"/>
</g>
<!-- Node30 -->
<g id="node6" class="node"><title>Node30</title>
<g id="a_node6"><a xlink:href="namespacecaiman_1_1components__evaluation.html#afc8731dfc865b4380b0e0894bbb3a34d" target="_top" xlink:title="Define a metric and order components according to the probabilty if some &quot;exceptional events&quot; (like a...">
<polygon fill="white" stroke="black" points="602,-49 602,-79 800,-79 800,-49 602,-49"/>
<text text-anchor="start" x="610" y="-67" font-family="Helvetica,sans-Serif" font-size="10.00">caiman.components_evaluation.estimate</text>
<text text-anchor="middle" x="701" y="-56" font-family="Helvetica,sans-Serif" font-size="10.00">_components_quality</text>
</a>
</g>
</g>
<!-- Node28&#45;&gt;Node30 -->
<g id="edge6" class="edge"><title>Node28&#45;&gt;Node30</title>
<path fill="none" stroke="midnightblue" d="M549.023,-95.8873C575.058,-90.3885 603.687,-84.342 628.95,-79.0062"/>
<polygon fill="midnightblue" stroke="midnightblue" points="548.245,-92.4744 539.184,-97.9654 549.692,-99.3233 548.245,-92.4744"/>
</g>
<!-- Node29&#45;&gt;Node28 -->
<g id="edge5" class="edge"><title>Node29&#45;&gt;Node28</title>
<path fill="none" stroke="midnightblue" d="M594.069,-119.727C584.736,-119.769 575.316,-119.753 566.053,-119.678"/>
<polygon fill="midnightblue" stroke="midnightblue" points="594.173,-123.227 604.149,-119.659 594.126,-116.227 594.173,-123.227"/>
</g>
<!-- Node31 -->
<g id="node7" class="node"><title>Node31</title>
<g id="a_node7"><a xlink:href="namespacecaiman_1_1components__evaluation.html#a68ebc78b1982bec697fe2fd84e6f997e" target="_top" xlink:title="caiman.components_evaluation.chunker">
<polygon fill="white" stroke="black" points="836.5,-98.5 836.5,-117.5 1031.5,-117.5 1031.5,-98.5 836.5,-98.5"/>
<text text-anchor="middle" x="934" y="-105.5" font-family="Helvetica,sans-Serif" font-size="10.00">caiman.components_evaluation.chunker</text>
</a>
</g>
</g>
<!-- Node30&#45;&gt;Node31 -->
<g id="edge7" class="edge"><title>Node30&#45;&gt;Node31</title>
<path fill="none" stroke="midnightblue" d="M790.89,-80.9314C822.146,-86.885 856.152,-93.3623 883.06,-98.4876"/>
<polygon fill="midnightblue" stroke="midnightblue" points="791.329,-77.4523 780.851,-79.0192 790.019,-84.3286 791.329,-77.4523"/>
</g>
<!-- Node32 -->
<g id="node8" class="node"><title>Node32</title>
<g id="a_node8"><a xlink:href="namespacecaiman_1_1tests_1_1comparison_1_1create__gt.html#a6d8adb7810bd5f7de466b0a661a69743" target="_top" xlink:title="the function that will create a groundtruth ">
<polygon fill="white" stroke="black" points="855,-49 855,-79 1013,-79 1013,-49 855,-49"/>
<text text-anchor="start" x="863" y="-67" font-family="Helvetica,sans-Serif" font-size="10.00">caiman.tests.comparison.create</text>
<text text-anchor="middle" x="934" y="-56" font-family="Helvetica,sans-Serif" font-size="10.00">_gt.create</text>
</a>
</g>
</g>
<!-- Node30&#45;&gt;Node32 -->
<g id="edge8" class="edge"><title>Node30&#45;&gt;Node32</title>
<path fill="none" stroke="midnightblue" d="M810.572,-64C825.462,-64 840.507,-64 854.711,-64"/>
<polygon fill="midnightblue" stroke="midnightblue" points="810.3,-60.5001 800.3,-64 810.3,-67.5001 810.3,-60.5001"/>
</g>
<!-- Node33 -->
<g id="node9" class="node"><title>Node33</title>
<g id="a_node9"><a xlink:href="namespacecaiman_1_1tests_1_1comparison_1_1investigative__comparison.html#a50b1b2517f6b995f96014e15fa877ba7" target="_top" xlink:title="the function that will do the test ">
<polygon fill="white" stroke="black" points="841.5,-0 841.5,-30 1026.5,-30 1026.5,-0 841.5,-0"/>
<text text-anchor="start" x="849.5" y="-18" font-family="Helvetica,sans-Serif" font-size="10.00">caiman.tests.comparison.investigative</text>
<text text-anchor="middle" x="934" y="-7" font-family="Helvetica,sans-Serif" font-size="10.00">_comparison.test_general</text>
</a>
</g>
</g>
<!-- Node30&#45;&gt;Node33 -->
<g id="edge9" class="edge"><title>Node30&#45;&gt;Node33</title>
<path fill="none" stroke="midnightblue" d="M782.674,-46.8873C808.597,-41.3885 837.102,-35.342 862.257,-30.0062"/>
<polygon fill="midnightblue" stroke="midnightblue" points="781.934,-43.4664 772.877,-48.9654 783.386,-50.3141 781.934,-43.4664"/>
</g>
</g>
</svg>
