<?xml version="1.0" encoding="UTF-8" standalone="no"?>
<!DOCTYPE svg PUBLIC "-//W3C//DTD SVG 1.1//EN"
 "http://www.w3.org/Graphics/SVG/1.1/DTD/svg11.dtd">
<!-- Generated by graphviz version 2.36.0 (20140111.2315)
 -->
<!-- Title: save_memmap_chunks Pages: 1 -->
<svg width="388pt" height="28pt"
 viewBox="0.00 0.00 388.00 28.00" xmlns="http://www.w3.org/2000/svg" xmlns:xlink="http://www.w3.org/1999/xlink">
<g id="graph0" class="graph" transform="scale(1 1) rotate(0) translate(4 24)">
<title>save_memmap_chunks</title>
<polygon fill="white" stroke="none" points="-4,4 -4,-24 384,-24 384,4 -4,4"/>
<!-- Node47 -->
<g id="node1" class="node"><title>Node47</title>
<polygon fill="#bfbfbf" stroke="black" points="0,-0.5 0,-19.5 122,-19.5 122,-0.5 0,-0.5"/>
<text text-anchor="middle" x="61" y="-7.5" font-family="Helvetica,sans-Serif" font-size="10.00">save_memmap_chunks</text>
</g>
<!-- Node48 -->
<g id="node2" class="node"><title>Node48</title>
<g id="a_node2"><a xlink:href="namespacecaiman_1_1mmapping.html#a9b91f0f0beb14445934247cd13240698" target="_top" xlink:title="Saves efficiently a list of tif files into a memory mappable file. ">
<polygon fill="white" stroke="black" points="158.5,-0.5 158.5,-19.5 243.5,-19.5 243.5,-0.5 158.5,-0.5"/>
<text text-anchor="middle" x="201" y="-7.5" font-family="Helvetica,sans-Serif" font-size="10.00">save_memmap</text>
</a>
</g>
</g>
<!-- Node47&#45;&gt;Node48 -->
<g id="edge1" class="edge"><title>Node47&#45;&gt;Node48</title>
<path fill="none" stroke="midnightblue" d="M132.19,-10C141.12,-10 150.024,-10 158.303,-10"/>
<polygon fill="midnightblue" stroke="midnightblue" points="132.127,-6.5001 122.127,-10 132.127,-13.5001 132.127,-6.5001"/>
</g>
<!-- Node49 -->
<g id="node3" class="node"><title>Node49</title>
<g id="a_node3"><a xlink:href="namespacecaiman_1_1mmapping.html#a65ad8807d28aef2da8cd8f716429b6ec" target="_top" xlink:title="To use map reduce. ">
<polygon fill="white" stroke="black" points="280,-0.5 280,-19.5 380,-19.5 380,-0.5 280,-0.5"/>
<text text-anchor="middle" x="330" y="-7.5" font-family="Helvetica,sans-Serif" font-size="10.00">save_place_holder</text>
</a>
</g>
</g>
<!-- Node48&#45;&gt;Node49 -->
<g id="edge2" class="edge"><title>Node48&#45;&gt;Node49</title>
<path fill="none" stroke="midnightblue" d="M253.855,-10C262.431,-10 271.3,-10 279.808,-10"/>
<polygon fill="midnightblue" stroke="midnightblue" points="253.585,-6.5001 243.585,-10 253.585,-13.5001 253.585,-6.5001"/>
</g>
</g>
</svg>
