<?xml version="1.0" encoding="UTF-8" standalone="no"?>
<!DOCTYPE svg PUBLIC "-//W3C//DTD SVG 1.1//EN"
 "http://www.w3.org/Graphics/SVG/1.1/DTD/svg11.dtd">
<!-- Generated by graphviz version 2.36.0 (20140111.2315)
 -->
<!-- Title: mode_robust_fast Pages: 1 -->
<svg width="1002pt" height="111pt"
 viewBox="0.00 0.00 1002.00 111.00" xmlns="http://www.w3.org/2000/svg" xmlns:xlink="http://www.w3.org/1999/xlink">
<g id="graph0" class="graph" transform="scale(1 1) rotate(0) translate(4 107)">
<title>mode_robust_fast</title>
<polygon fill="white" stroke="none" points="-4,4 -4,-107 998,-107 998,4 -4,4"/>
<!-- Node21 -->
<g id="node1" class="node"><title>Node21</title>
<polygon fill="#bfbfbf" stroke="black" points="0.5,-53.5 0.5,-72.5 97.5,-72.5 97.5,-53.5 0.5,-53.5"/>
<text text-anchor="middle" x="49" y="-60.5" font-family="Helvetica,sans-Serif" font-size="10.00">mode_robust_fast</text>
</g>
<!-- Node22 -->
<g id="node2" class="node"><title>Node22</title>
<g id="a_node2"><a xlink:href="namespacecaiman_1_1components__evaluation.html#a115ea8d0f9c41cb31cb7fe05535f65f7" target="_top" xlink:title="estimate the noise in the traces under assumption that signals are sparse and only positive...">
<polygon fill="white" stroke="black" points="134,-73 134,-103 332,-103 332,-73 134,-73"/>
<text text-anchor="start" x="142" y="-91" font-family="Helvetica,sans-Serif" font-size="10.00">caiman.components_evaluation.estimate</text>
<text text-anchor="middle" x="233" y="-80" font-family="Helvetica,sans-Serif" font-size="10.00">_noise_mode</text>
</a>
</g>
</g>
<!-- Node21&#45;&gt;Node22 -->
<g id="edge1" class="edge"><title>Node21&#45;&gt;Node22</title>
<path fill="none" stroke="midnightblue" d="M107.76,-70.934C116.104,-72.0802 124.881,-73.2859 133.75,-74.5042"/>
<polygon fill="midnightblue" stroke="midnightblue" points="108.202,-67.4619 97.8184,-69.5685 107.249,-74.3968 108.202,-67.4619"/>
</g>
<!-- Node23 -->
<g id="node3" class="node"><title>Node23</title>
<g id="a_node3"><a xlink:href="namespacecaiman_1_1components__evaluation.html#a967e8c445c84976814609f9c120153a2" target="_top" xlink:title="Define a metric and order components according to the probabilty if some &quot;exceptional events&quot; (like a...">
<polygon fill="white" stroke="black" points="134,-24 134,-54 332,-54 332,-24 134,-24"/>
<text text-anchor="start" x="142" y="-42" font-family="Helvetica,sans-Serif" font-size="10.00">caiman.components_evaluation.compute</text>
<text text-anchor="middle" x="233" y="-31" font-family="Helvetica,sans-Serif" font-size="10.00">_event_exceptionality</text>
</a>
</g>
</g>
<!-- Node21&#45;&gt;Node23 -->
<g id="edge2" class="edge"><title>Node21&#45;&gt;Node23</title>
<path fill="none" stroke="midnightblue" d="M107.76,-55.3833C116.104,-54.283 124.881,-53.1256 133.75,-51.956"/>
<polygon fill="midnightblue" stroke="midnightblue" points="107.275,-51.9169 97.8184,-56.6943 108.19,-58.8568 107.275,-51.9169"/>
</g>
<!-- Node24 -->
<g id="node4" class="node"><title>Node24</title>
<g id="a_node4"><a xlink:href="namespacecaiman_1_1components__evaluation.html#ad2a8435be788c8e75130e41f884adb0f" target="_top" xlink:title="Define a metric and order components according to the probabilty if some &quot;exceptional events&quot; (like a...">
<polygon fill="white" stroke="black" points="368,-24 368,-54 566,-54 566,-24 368,-24"/>
<text text-anchor="start" x="376" y="-42" font-family="Helvetica,sans-Serif" font-size="10.00">caiman.components_evaluation.evaluate</text>
<text text-anchor="middle" x="467" y="-31" font-family="Helvetica,sans-Serif" font-size="10.00">_components</text>
</a>
</g>
</g>
<!-- Node23&#45;&gt;Node24 -->
<g id="edge3" class="edge"><title>Node23&#45;&gt;Node24</title>
<path fill="none" stroke="midnightblue" d="M342.119,-39C350.727,-39 359.393,-39 367.926,-39"/>
<polygon fill="midnightblue" stroke="midnightblue" points="342.053,-35.5001 332.053,-39 342.053,-42.5001 342.053,-35.5001"/>
</g>
<!-- Node25 -->
<g id="node5" class="node"><title>Node25</title>
<g id="a_node5"><a xlink:href="namespacecaiman_1_1components__evaluation.html#ad0d76d63424939fa0004f5cc800f0105" target="_top" xlink:title="caiman.components_evaluation.classify\l_components_ep">
<polygon fill="white" stroke="black" points="604.5,-49 604.5,-79 797.5,-79 797.5,-49 604.5,-49"/>
<text text-anchor="start" x="612.5" y="-67" font-family="Helvetica,sans-Serif" font-size="10.00">caiman.components_evaluation.classify</text>
<text text-anchor="middle" x="701" y="-56" font-family="Helvetica,sans-Serif" font-size="10.00">_components_ep</text>
</a>
</g>
</g>
<!-- Node24&#45;&gt;Node25 -->
<g id="edge4" class="edge"><title>Node24&#45;&gt;Node25</title>
<path fill="none" stroke="midnightblue" d="M576.33,-43.9366C591.231,-45.4913 606.302,-47.2133 620.554,-48.9961"/>
<polygon fill="midnightblue" stroke="midnightblue" points="576.356,-40.4212 566.053,-42.8883 575.646,-47.3851 576.356,-40.4212"/>
</g>
<!-- Node26 -->
<g id="node6" class="node"><title>Node26</title>
<g id="a_node6"><a xlink:href="namespacecaiman_1_1components__evaluation.html#a57b89e19503abe333d5767d462266e7a" target="_top" xlink:title="caiman.components_evaluation.estimate\l_components_quality">
<polygon fill="white" stroke="black" points="602,-0 602,-30 800,-30 800,-0 602,-0"/>
<text text-anchor="start" x="610" y="-18" font-family="Helvetica,sans-Serif" font-size="10.00">caiman.components_evaluation.estimate</text>
<text text-anchor="middle" x="701" y="-7" font-family="Helvetica,sans-Serif" font-size="10.00">_components_quality</text>
</a>
</g>
</g>
<!-- Node24&#45;&gt;Node26 -->
<g id="edge6" class="edge"><title>Node24&#45;&gt;Node26</title>
<path fill="none" stroke="midnightblue" d="M560.719,-22.7807C574.28,-21.2336 588.284,-19.7682 601.947,-18.4657"/>
<polygon fill="midnightblue" stroke="midnightblue" points="559.975,-19.3436 550.448,-23.9784 560.786,-26.2965 559.975,-19.3436"/>
</g>
<!-- Node25&#45;&gt;Node24 -->
<g id="edge5" class="edge"><title>Node25&#45;&gt;Node24</title>
<path fill="none" stroke="midnightblue" d="M593.946,-59.2996C578.331,-57.6865 562.473,-55.8831 547.517,-54.0127"/>
<polygon fill="midnightblue" stroke="midnightblue" points="593.859,-62.8086 604.16,-60.331 594.563,-55.844 593.859,-62.8086"/>
</g>
<!-- Node26&#45;&gt;Node24 -->
<g id="edge7" class="edge"><title>Node26&#45;&gt;Node24</title>
<path fill="none" stroke="midnightblue" d="M607.385,-31.2075C593.791,-32.759 579.751,-34.2285 566.053,-35.5343"/>
<polygon fill="midnightblue" stroke="midnightblue" points="608.152,-34.6418 617.679,-30.0064 607.341,-27.6889 608.152,-34.6418"/>
</g>
<!-- Node27 -->
<g id="node7" class="node"><title>Node27</title>
<g id="a_node7"><a xlink:href="namespacecaiman_1_1tests_1_1comparison_1_1create__gt.html#a6d8adb7810bd5f7de466b0a661a69743" target="_top" xlink:title="the function that will create a groundtruth ">
<polygon fill="white" stroke="black" points="836,-0 836,-30 994,-30 994,-0 836,-0"/>
<text text-anchor="start" x="844" y="-18" font-family="Helvetica,sans-Serif" font-size="10.00">caiman.tests.comparison.create</text>
<text text-anchor="middle" x="915" y="-7" font-family="Helvetica,sans-Serif" font-size="10.00">_gt.create</text>
</a>
</g>
</g>
<!-- Node26&#45;&gt;Node27 -->
<g id="edge8" class="edge"><title>Node26&#45;&gt;Node27</title>
<path fill="none" stroke="midnightblue" d="M810.313,-15C818.895,-15 827.457,-15 835.773,-15"/>
<polygon fill="midnightblue" stroke="midnightblue" points="810.243,-11.5001 800.242,-15 810.242,-18.5001 810.243,-11.5001"/>
</g>
</g>
</svg>
