<?xml version="1.0" encoding="UTF-8" standalone="no"?>
<!DOCTYPE svg PUBLIC "-//W3C//DTD SVG 1.1//EN"
 "http://www.w3.org/Graphics/SVG/1.1/DTD/svg11.dtd">
<!-- Generated by graphviz version 2.36.0 (20140111.2315)
 -->
<!-- Title: get_contours Pages: 1 -->
<svg width="446pt" height="71pt"
 viewBox="0.00 0.00 446.00 71.00" xmlns="http://www.w3.org/2000/svg" xmlns:xlink="http://www.w3.org/1999/xlink">
<g id="graph0" class="graph" transform="scale(1 1) rotate(0) translate(4 67)">
<title>get_contours</title>
<polygon fill="white" stroke="none" points="-4,4 -4,-67 442,-67 442,4 -4,4"/>
<!-- Node9 -->
<g id="node1" class="node"><title>Node9</title>
<polygon fill="#bfbfbf" stroke="black" points="0,-0.5 0,-19.5 74,-19.5 74,-0.5 0,-0.5"/>
<text text-anchor="middle" x="37" y="-7.5" font-family="Helvetica,sans-Serif" font-size="10.00">get_contours</text>
</g>
<!-- Node10 -->
<g id="node2" class="node"><title>Node10</title>
<g id="a_node2"><a xlink:href="namespacecaiman_1_1utils_1_1visualization.html#aa4202ac829178bc43b687c976927f108" target="_top" xlink:title="Interactive plotting utility for ipython notebook. ">
<polygon fill="white" stroke="black" points="116,-38.5 116,-57.5 210,-57.5 210,-38.5 116,-38.5"/>
<text text-anchor="middle" x="163" y="-45.5" font-family="Helvetica,sans-Serif" font-size="10.00">nb_view_patches</text>
</a>
</g>
</g>
<!-- Node9&#45;&gt;Node10 -->
<g id="edge1" class="edge"><title>Node9&#45;&gt;Node10</title>
<path fill="none" stroke="midnightblue" d="M78.9047,-22.5353C95.7734,-27.7048 115.008,-33.5991 130.72,-38.4141"/>
<polygon fill="midnightblue" stroke="midnightblue" points="79.8771,-19.1727 69.2904,-19.589 77.826,-25.8655 79.8771,-19.1727"/>
</g>
<!-- Node12 -->
<g id="node4" class="node"><title>Node12</title>
<g id="a_node4"><a xlink:href="namespacecaiman_1_1utils_1_1visualization.html#accae53a5e7469ad871c431db8b073b82" target="_top" xlink:title="Interactive plotting utility for ipython notbook. ">
<polygon fill="white" stroke="black" points="110.5,-0.5 110.5,-19.5 215.5,-19.5 215.5,-0.5 110.5,-0.5"/>
<text text-anchor="middle" x="163" y="-7.5" font-family="Helvetica,sans-Serif" font-size="10.00">nb_view_patches3d</text>
</a>
</g>
</g>
<!-- Node9&#45;&gt;Node12 -->
<g id="edge3" class="edge"><title>Node9&#45;&gt;Node12</title>
<path fill="none" stroke="midnightblue" d="M84.2957,-3.44626C92.782,-3.22991 101.689,-3.19243 110.321,-3.33382"/>
<polygon fill="midnightblue" stroke="midnightblue" points="84.071,0.0481219 74.1993,-3.79887 84.3154,-6.94761 84.071,0.0481219"/>
</g>
<!-- Node11 -->
<g id="node3" class="node"><title>Node11</title>
<g id="a_node3"><a xlink:href="namespacecaiman_1_1tests_1_1comparison_1_1investigative__comparison.html#a50b1b2517f6b995f96014e15fa877ba7" target="_top" xlink:title="the function that will do the test ">
<polygon fill="white" stroke="black" points="252.5,-33 252.5,-63 437.5,-63 437.5,-33 252.5,-33"/>
<text text-anchor="start" x="260.5" y="-51" font-family="Helvetica,sans-Serif" font-size="10.00">caiman.tests.comparison.investigative</text>
<text text-anchor="middle" x="345" y="-40" font-family="Helvetica,sans-Serif" font-size="10.00">_comparison.test_general</text>
</a>
</g>
</g>
<!-- Node10&#45;&gt;Node11 -->
<g id="edge2" class="edge"><title>Node10&#45;&gt;Node11</title>
<path fill="none" stroke="midnightblue" d="M220.634,-48C230.751,-48 241.523,-48 252.327,-48"/>
<polygon fill="midnightblue" stroke="midnightblue" points="220.355,-44.5001 210.354,-48 220.354,-51.5001 220.355,-44.5001"/>
</g>
<!-- Node12&#45;&gt;Node9 -->
<g id="edge4" class="edge"><title>Node12&#45;&gt;Node9</title>
<path fill="none" stroke="midnightblue" d="M100.278,-16.7499C91.3457,-16.7538 82.4055,-16.5709 74.1993,-16.2011"/>
<polygon fill="midnightblue" stroke="midnightblue" points="100.35,-20.2496 110.321,-16.6662 100.292,-13.2498 100.35,-20.2496"/>
</g>
</g>
</svg>
