<?xml version="1.0" encoding="UTF-8" standalone="no"?>
<!DOCTYPE svg PUBLIC "-//W3C//DTD SVG 1.1//EN"
 "http://www.w3.org/Graphics/SVG/1.1/DTD/svg11.dtd">
<!-- Generated by graphviz version 2.36.0 (20140111.2315)
 -->
<!-- Title: parallel_dot_product Pages: 1 -->
<svg width="692pt" height="136pt"
 viewBox="0.00 0.00 692.00 136.00" xmlns="http://www.w3.org/2000/svg" xmlns:xlink="http://www.w3.org/1999/xlink">
<g id="graph0" class="graph" transform="scale(1 1) rotate(0) translate(4 132)">
<title>parallel_dot_product</title>
<polygon fill="white" stroke="none" points="-4,4 -4,-132 688,-132 688,4 -4,4"/>
<!-- Node35 -->
<g id="node1" class="node"><title>Node35</title>
<polygon fill="#bfbfbf" stroke="black" points="0.5,-54.5 0.5,-73.5 107.5,-73.5 107.5,-54.5 0.5,-54.5"/>
<text text-anchor="middle" x="54" y="-61.5" font-family="Helvetica,sans-Serif" font-size="10.00">parallel_dot_product</text>
</g>
<!-- Node36 -->
<g id="node2" class="node"><title>Node36</title>
<g id="a_node2"><a xlink:href="namespacecaiman_1_1source__extraction_1_1cnmf_1_1spatial.html#a9f53b6bac6a1560b0102e55a7ec1710d" target="_top" xlink:title="update spatial footprints and background through Basis Pursuit Denoising ">
<polygon fill="white" stroke="black" points="160,-98 160,-128 380,-128 380,-98 160,-98"/>
<text text-anchor="start" x="168" y="-116" font-family="Helvetica,sans-Serif" font-size="10.00">caiman.source_extraction.cnmf.spatial.update</text>
<text text-anchor="middle" x="270" y="-105" font-family="Helvetica,sans-Serif" font-size="10.00">_spatial_components</text>
</a>
</g>
</g>
<!-- Node35&#45;&gt;Node36 -->
<g id="edge1" class="edge"><title>Node35&#45;&gt;Node36</title>
<path fill="none" stroke="midnightblue" d="M98.0011,-76.2101C112.555,-80.1786 128.936,-84.4665 144,-88 158.759,-91.462 174.57,-94.8612 189.812,-97.9834"/>
<polygon fill="midnightblue" stroke="midnightblue" points="98.8262,-72.8071 88.2559,-73.527 96.968,-79.556 98.8262,-72.8071"/>
</g>
<!-- Node38 -->
<g id="node4" class="node"><title>Node38</title>
<g id="a_node4"><a xlink:href="namespacecaiman_1_1source__extraction_1_1cnmf_1_1temporal.html#ac3279e405da3b8cc2e4a21b68320971c" target="_top" xlink:title="Update temporal components and background given spatial components using a block coordinate descent a...">
<polygon fill="white" stroke="black" points="155,-49 155,-79 385,-79 385,-49 155,-49"/>
<text text-anchor="start" x="163" y="-67" font-family="Helvetica,sans-Serif" font-size="10.00">caiman.source_extraction.cnmf.temporal.update</text>
<text text-anchor="middle" x="270" y="-56" font-family="Helvetica,sans-Serif" font-size="10.00">_temporal_components</text>
</a>
</g>
</g>
<!-- Node35&#45;&gt;Node38 -->
<g id="edge3" class="edge"><title>Node35&#45;&gt;Node38</title>
<path fill="none" stroke="midnightblue" d="M117.726,-64C129.496,-64 142.134,-64 154.908,-64"/>
<polygon fill="midnightblue" stroke="midnightblue" points="117.624,-60.5001 107.624,-64 117.624,-67.5001 117.624,-60.5001"/>
</g>
<!-- Node40 -->
<g id="node6" class="node"><title>Node40</title>
<g id="a_node6"><a xlink:href="namespacecaiman_1_1source__extraction_1_1cnmf_1_1utilities.html#a280d064e1a9888eca4b375647d031491" target="_top" xlink:title="Compute DFF function from cnmf output. ">
<polygon fill="white" stroke="black" points="144,-8.5 144,-27.5 396,-27.5 396,-8.5 144,-8.5"/>
<text text-anchor="middle" x="270" y="-15.5" font-family="Helvetica,sans-Serif" font-size="10.00">caiman.source_extraction.cnmf.utilities.extract_DF_F</text>
</a>
</g>
</g>
<!-- Node35&#45;&gt;Node40 -->
<g id="edge6" class="edge"><title>Node35&#45;&gt;Node40</title>
<path fill="none" stroke="midnightblue" d="M96.0858,-51.4644C111.076,-47.1548 128.22,-42.531 144,-39 163.434,-34.6512 184.75,-30.7527 204.187,-27.5296"/>
<polygon fill="midnightblue" stroke="midnightblue" points="94.7137,-48.2188 86.095,-54.3805 96.6751,-54.9384 94.7137,-48.2188"/>
</g>
<!-- Node37 -->
<g id="node3" class="node"><title>Node37</title>
<g id="a_node3"><a xlink:href="namespacecaiman_1_1source__extraction_1_1cnmf_1_1merging.html#ad08adf2e086a22ef379b10ed3ee36936" target="_top" xlink:title="Merging of spatially overlapping components that have highly correlated temporal activity. ">
<polygon fill="white" stroke="black" points="445.5,-98 445.5,-128 670.5,-128 670.5,-98 445.5,-98"/>
<text text-anchor="start" x="453.5" y="-116" font-family="Helvetica,sans-Serif" font-size="10.00">caiman.source_extraction.cnmf.merging.merge</text>
<text text-anchor="middle" x="558" y="-105" font-family="Helvetica,sans-Serif" font-size="10.00">_components</text>
</a>
</g>
</g>
<!-- Node36&#45;&gt;Node37 -->
<g id="edge2" class="edge"><title>Node36&#45;&gt;Node37</title>
<path fill="none" stroke="midnightblue" d="M390.397,-113C408.595,-113 427.318,-113 445.343,-113"/>
<polygon fill="midnightblue" stroke="midnightblue" points="390.349,-109.5 380.349,-113 390.349,-116.5 390.349,-109.5"/>
</g>
<!-- Node38&#45;&gt;Node37 -->
<g id="edge4" class="edge"><title>Node38&#45;&gt;Node37</title>
<path fill="none" stroke="midnightblue" d="M368.766,-80.7501C401.42,-86.3448 437.583,-92.5405 469.413,-97.9938"/>
<polygon fill="midnightblue" stroke="midnightblue" points="369.201,-77.2736 358.753,-79.0346 368.018,-84.1731 369.201,-77.2736"/>
</g>
<!-- Node39 -->
<g id="node5" class="node"><title>Node39</title>
<g id="a_node5"><a xlink:href="namespacecaiman_1_1source__extraction_1_1cnmf_1_1temporal.html#a2ede407f1e0d0722f51ddb6e99f48f9f" target="_top" xlink:title="necessary for parallel computation of the function constrained_foopsi ">
<polygon fill="white" stroke="black" points="432.5,-49 432.5,-79 683.5,-79 683.5,-49 432.5,-49"/>
<text text-anchor="start" x="440.5" y="-67" font-family="Helvetica,sans-Serif" font-size="10.00">caiman.source_extraction.cnmf.temporal.constrained</text>
<text text-anchor="middle" x="558" y="-56" font-family="Helvetica,sans-Serif" font-size="10.00">_foopsi_parallel</text>
</a>
</g>
</g>
<!-- Node38&#45;&gt;Node39 -->
<g id="edge5" class="edge"><title>Node38&#45;&gt;Node39</title>
<path fill="none" stroke="midnightblue" d="M395.435,-64C407.599,-64 419.946,-64 432.114,-64"/>
<polygon fill="midnightblue" stroke="midnightblue" points="395.268,-60.5001 385.268,-64 395.268,-67.5001 395.268,-60.5001"/>
</g>
<!-- Node41 -->
<g id="node7" class="node"><title>Node41</title>
<g id="a_node7"><a xlink:href="namespacecaiman_1_1source__extraction_1_1cnmf_1_1utilities.html#aea3aa78c7c153170012079014e1f4895" target="_top" xlink:title="caiman.source_extraction.cnmf.utilities.compute\lDFF_traces">
<polygon fill="white" stroke="black" points="443.5,-0 443.5,-30 672.5,-30 672.5,-0 443.5,-0"/>
<text text-anchor="start" x="451.5" y="-18" font-family="Helvetica,sans-Serif" font-size="10.00">caiman.source_extraction.cnmf.utilities.compute</text>
<text text-anchor="middle" x="558" y="-7" font-family="Helvetica,sans-Serif" font-size="10.00">DFF_traces</text>
</a>
</g>
</g>
<!-- Node40&#45;&gt;Node41 -->
<g id="edge7" class="edge"><title>Node40&#45;&gt;Node41</title>
<path fill="none" stroke="midnightblue" d="M406.047,-16.5834C418.572,-16.452 431.178,-16.3198 443.48,-16.1908"/>
<polygon fill="midnightblue" stroke="midnightblue" points="405.99,-13.0837 396.028,-16.6885 406.064,-20.0833 405.99,-13.0837"/>
</g>
</g>
</svg>
