<?xml version="1.0" encoding="UTF-8" standalone="no"?>
<!DOCTYPE svg PUBLIC "-//W3C//DTD SVG 1.1//EN"
 "http://www.w3.org/Graphics/SVG/1.1/DTD/svg11.dtd">
<!-- Generated by graphviz version 2.36.0 (20140111.2315)
 -->
<!-- Title: download_demo Pages: 1 -->
<svg width="320pt" height="136pt"
 viewBox="0.00 0.00 320.00 136.00" xmlns="http://www.w3.org/2000/svg" xmlns:xlink="http://www.w3.org/1999/xlink">
<g id="graph0" class="graph" transform="scale(1 1) rotate(0) translate(4 132)">
<title>download_demo</title>
<polygon fill="white" stroke="none" points="-4,4 -4,-132 316,-132 316,4 -4,4"/>
<!-- Node1 -->
<g id="node1" class="node"><title>Node1</title>
<polygon fill="#bfbfbf" stroke="black" points="0,-54.5 0,-73.5 90,-73.5 90,-54.5 0,-54.5"/>
<text text-anchor="middle" x="45" y="-61.5" font-family="Helvetica,sans-Serif" font-size="10.00">download_demo</text>
</g>
<!-- Node2 -->
<g id="node2" class="node"><title>Node2</title>
<g id="a_node2"><a xlink:href="namespacecaiman_1_1tests_1_1comparison_1_1create__gt.html#a6d8adb7810bd5f7de466b0a661a69743" target="_top" xlink:title="the function that will create a groundtruth ">
<polygon fill="white" stroke="black" points="140,-98 140,-128 298,-128 298,-98 140,-98"/>
<text text-anchor="start" x="148" y="-116" font-family="Helvetica,sans-Serif" font-size="10.00">caiman.tests.comparison.create</text>
<text text-anchor="middle" x="219" y="-105" font-family="Helvetica,sans-Serif" font-size="10.00">_gt.create</text>
</a>
</g>
</g>
<!-- Node1&#45;&gt;Node2 -->
<g id="edge1" class="edge"><title>Node1&#45;&gt;Node2</title>
<path fill="none" stroke="midnightblue" d="M86.8304,-76.4732C99.3757,-80.2453 113.239,-84.3526 126,-88 137.458,-91.2749 149.749,-94.6853 161.496,-97.8958"/>
<polygon fill="midnightblue" stroke="midnightblue" points="87.6828,-73.0746 77.098,-73.5352 85.6597,-79.7759 87.6828,-73.0746"/>
</g>
<!-- Node3 -->
<g id="node3" class="node"><title>Node3</title>
<g id="a_node3"><a xlink:href="namespacecaiman_1_1tests_1_1comparison_1_1investigative__comparison.html#a50b1b2517f6b995f96014e15fa877ba7" target="_top" xlink:title="the function that will do the test ">
<polygon fill="white" stroke="black" points="126.5,-49 126.5,-79 311.5,-79 311.5,-49 126.5,-49"/>
<text text-anchor="start" x="134.5" y="-67" font-family="Helvetica,sans-Serif" font-size="10.00">caiman.tests.comparison.investigative</text>
<text text-anchor="middle" x="219" y="-56" font-family="Helvetica,sans-Serif" font-size="10.00">_comparison.test_general</text>
</a>
</g>
</g>
<!-- Node1&#45;&gt;Node3 -->
<g id="edge2" class="edge"><title>Node1&#45;&gt;Node3</title>
<path fill="none" stroke="midnightblue" d="M100.521,-64C108.808,-64 117.547,-64 126.366,-64"/>
<polygon fill="midnightblue" stroke="midnightblue" points="100.294,-60.5001 90.2943,-64 100.294,-67.5001 100.294,-60.5001"/>
</g>
<!-- Node4 -->
<g id="node4" class="node"><title>Node4</title>
<g id="a_node4"><a xlink:href="namespacecaiman_1_1tests_1_1test__general.html#a2b1bcf9a89fad08ce0c74c1ffceeeb0c" target="_top" xlink:title="the function that will do the test ">
<polygon fill="white" stroke="black" points="144.5,-0 144.5,-30 293.5,-30 293.5,-0 144.5,-0"/>
<text text-anchor="start" x="152.5" y="-18" font-family="Helvetica,sans-Serif" font-size="10.00">caiman.tests.test_general.test</text>
<text text-anchor="middle" x="219" y="-7" font-family="Helvetica,sans-Serif" font-size="10.00">_general</text>
</a>
</g>
</g>
<!-- Node1&#45;&gt;Node4 -->
<g id="edge3" class="edge"><title>Node1&#45;&gt;Node4</title>
<path fill="none" stroke="midnightblue" d="M86.8304,-51.5268C99.3757,-47.7547 113.239,-43.6474 126,-40 137.458,-36.7251 149.749,-33.3147 161.496,-30.1042"/>
<polygon fill="midnightblue" stroke="midnightblue" points="85.6597,-48.2241 77.098,-54.4648 87.6828,-54.9254 85.6597,-48.2241"/>
</g>
</g>
</svg>
