<?xml version="1.0" encoding="UTF-8" standalone="no"?>
<!DOCTYPE svg PUBLIC "-//W3C//DTD SVG 1.1//EN"
 "http://www.w3.org/Graphics/SVG/1.1/DTD/svg11.dtd">
<!-- Generated by graphviz version 2.36.0 (20140111.2315)
 -->
<!-- Title: tile_and_correct_wrapper Pages: 1 -->
<svg width="1056pt" height="288pt"
 viewBox="0.00 0.00 1056.00 288.00" xmlns="http://www.w3.org/2000/svg" xmlns:xlink="http://www.w3.org/1999/xlink">
<g id="graph0" class="graph" transform="scale(1 1) rotate(0) translate(4 284)">
<title>tile_and_correct_wrapper</title>
<polygon fill="white" stroke="none" points="-4,4 -4,-284 1052,-284 1052,4 -4,4"/>
<!-- Node161 -->
<g id="node1" class="node"><title>Node161</title>
<polygon fill="#bfbfbf" stroke="black" points="0.5,-47.5 0.5,-66.5 129.5,-66.5 129.5,-47.5 0.5,-47.5"/>
<text text-anchor="middle" x="65" y="-54.5" font-family="Helvetica,sans-Serif" font-size="10.00">tile_and_correct_wrapper</text>
</g>
<!-- Node162 -->
<g id="node2" class="node"><title>Node162</title>
<g id="a_node2"><a xlink:href="namespacecaiman_1_1motion__correction.html#aea060208c09f0e4fb01e6d31b9acf36f" target="_top" xlink:title="perform piecewise rigid motion correction iteration, by 1) dividing the FOV in patches 2) motion corr...">
<polygon fill="white" stroke="black" points="166,-105.5 166,-124.5 254,-124.5 254,-105.5 166,-105.5"/>
<text text-anchor="middle" x="210" y="-112.5" font-family="Helvetica,sans-Serif" font-size="10.00">tile_and_correct</text>
</a>
</g>
</g>
<!-- Node161&#45;&gt;Node162 -->
<g id="edge1" class="edge"><title>Node161&#45;&gt;Node162</title>
<path fill="none" stroke="midnightblue" d="M89.6135,-66.5775C113.108,-76.1066 149.368,-90.8137 175.765,-101.52"/>
<polygon fill="midnightblue" stroke="midnightblue" points="174.769,-104.893 185.351,-105.408 177.4,-98.4063 174.769,-104.893"/>
</g>
<!-- Node174 -->
<g id="node14" class="node"><title>Node174</title>
<g id="a_node14"><a xlink:href="namespacecaiman_1_1motion__correction.html#a0609d5c64bb9cae41d945bbc89535d2a" target="_top" xlink:title="motion_correction_piecewise">
<polygon fill="white" stroke="black" points="902.5,-12.5 902.5,-31.5 1047.5,-31.5 1047.5,-12.5 902.5,-12.5"/>
<text text-anchor="middle" x="975" y="-19.5" font-family="Helvetica,sans-Serif" font-size="10.00">motion_correction_piecewise</text>
</a>
</g>
</g>
<!-- Node161&#45;&gt;Node174 -->
<g id="edge16" class="edge"><title>Node161&#45;&gt;Node174</title>
<path fill="none" stroke="midnightblue" d="M93.7332,-47.4595C143.45,-31.233 251.315,-0 345,-0 345,-0 345,-0 660,-0 738.943,-0 828.777,-7.00529 892.074,-13.1098"/>
<polygon fill="midnightblue" stroke="midnightblue" points="892.098,-16.6289 902.392,-14.1196 892.78,-9.66218 892.098,-16.6289"/>
</g>
<!-- Node163 -->
<g id="node3" class="node"><title>Node163</title>
<g id="a_node3"><a xlink:href="namespacecaiman_1_1motion__correction.html#a0700d66a3a6b2556b1c712daf9c18a9b" target="_top" xlink:title="register_translation">
<polygon fill="white" stroke="black" points="295,-241.5 295,-260.5 397,-260.5 397,-241.5 295,-241.5"/>
<text text-anchor="middle" x="346" y="-248.5" font-family="Helvetica,sans-Serif" font-size="10.00">register_translation</text>
</a>
</g>
</g>
<!-- Node162&#45;&gt;Node163 -->
<g id="edge2" class="edge"><title>Node162&#45;&gt;Node163</title>
<path fill="none" stroke="midnightblue" d="M214.962,-124.727C224.509,-146.982 250.924,-202 290,-232 292.445,-233.877 295.089,-235.577 297.849,-237.115"/>
<polygon fill="midnightblue" stroke="midnightblue" points="296.432,-240.317 306.961,-241.494 299.464,-234.008 296.432,-240.317"/>
</g>
<!-- Node166 -->
<g id="node6" class="node"><title>Node166</title>
<g id="a_node6"><a xlink:href="namespacecaiman_1_1motion__correction.html#a54e0e94e8c54dadcad8bc6688e46c590" target="_top" xlink:title="apply_shift_iteration">
<polygon fill="white" stroke="black" points="293.5,-203.5 293.5,-222.5 398.5,-222.5 398.5,-203.5 293.5,-203.5"/>
<text text-anchor="middle" x="346" y="-210.5" font-family="Helvetica,sans-Serif" font-size="10.00">apply_shift_iteration</text>
</a>
</g>
</g>
<!-- Node162&#45;&gt;Node166 -->
<g id="edge5" class="edge"><title>Node162&#45;&gt;Node166</title>
<path fill="none" stroke="midnightblue" d="M218.217,-124.667C230.971,-141.121 259.086,-174.661 290,-194 293.185,-195.992 296.605,-197.807 300.125,-199.453"/>
<polygon fill="midnightblue" stroke="midnightblue" points="299.007,-202.78 309.582,-203.424 301.717,-196.326 299.007,-202.78"/>
</g>
<!-- Node167 -->
<g id="node7" class="node"><title>Node167</title>
<g id="a_node7"><a xlink:href="namespacecaiman_1_1motion__correction.html#ad4fabc7e2b2082da438e99a60ca41d96" target="_top" xlink:title="apply_shifts_dft">
<polygon fill="white" stroke="black" points="303,-165.5 303,-184.5 389,-184.5 389,-165.5 303,-165.5"/>
<text text-anchor="middle" x="346" y="-172.5" font-family="Helvetica,sans-Serif" font-size="10.00">apply_shifts_dft</text>
</a>
</g>
</g>
<!-- Node162&#45;&gt;Node167 -->
<g id="edge6" class="edge"><title>Node162&#45;&gt;Node167</title>
<path fill="none" stroke="midnightblue" d="M231.75,-124.566C247.66,-131.874 270.178,-142.16 290,-151 297.56,-154.372 305.725,-157.962 313.391,-161.311"/>
<polygon fill="midnightblue" stroke="midnightblue" points="312.187,-164.604 322.753,-165.389 314.982,-158.186 312.187,-164.604"/>
</g>
<!-- Node168 -->
<g id="node8" class="node"><title>Node168</title>
<g id="a_node8"><a xlink:href="namespacecaiman_1_1motion__correction.html#aef362667b31a29dfcc1a0c35c87f01ad" target="_top" xlink:title="efficiently and lazily slides a window across the image ">
<polygon fill="white" stroke="black" points="460,-105.5 460,-124.5 544,-124.5 544,-105.5 460,-105.5"/>
<text text-anchor="middle" x="502" y="-112.5" font-family="Helvetica,sans-Serif" font-size="10.00">sliding_window</text>
</a>
</g>
</g>
<!-- Node162&#45;&gt;Node168 -->
<g id="edge7" class="edge"><title>Node162&#45;&gt;Node168</title>
<path fill="none" stroke="midnightblue" d="M254.047,-116.287C265.713,-116.582 278.339,-116.852 290,-117 339.774,-117.63 352.225,-117.503 402,-117 417.364,-116.845 434.066,-116.554 449.301,-116.242"/>
<polygon fill="midnightblue" stroke="midnightblue" points="449.655,-119.735 459.578,-116.023 449.506,-112.737 449.655,-119.735"/>
</g>
<!-- Node169 -->
<g id="node9" class="node"><title>Node169</title>
<g id="a_node9"><a xlink:href="namespacecaiman_1_1motion__correction.html#a88ef513cfa324fc8548e4fb46d7a67e5" target="_top" xlink:title="create a matrix that is used to normalize the intersection of the stiched patches ...">
<polygon fill="white" stroke="black" points="290,-78 290,-108 402,-108 402,-78 290,-78"/>
<text text-anchor="start" x="298" y="-96" font-family="Helvetica,sans-Serif" font-size="10.00">create_weight_matrix</text>
<text text-anchor="middle" x="346" y="-85" font-family="Helvetica,sans-Serif" font-size="10.00">_for_blending</text>
</a>
</g>
</g>
<!-- Node162&#45;&gt;Node169 -->
<g id="edge8" class="edge"><title>Node162&#45;&gt;Node169</title>
<path fill="none" stroke="midnightblue" d="M236.204,-105.451C248.643,-102.48 264.28,-99.4675 279.79,-96.9582"/>
<polygon fill="midnightblue" stroke="midnightblue" points="280.583,-100.377 289.929,-95.3875 279.511,-93.4598 280.583,-100.377"/>
</g>
<!-- Node170 -->
<g id="node10" class="node"><title>Node170</title>
<g id="a_node10"><a xlink:href="namespacecaiman_1_1motion__correction.html#ab468f81cbf77caf649a1aa60b21fecdd" target="_top" xlink:title="compute_flow_single\l_frame">
<polygon fill="white" stroke="black" points="291,-29 291,-59 401,-59 401,-29 291,-29"/>
<text text-anchor="start" x="299" y="-47" font-family="Helvetica,sans-Serif" font-size="10.00">compute_flow_single</text>
<text text-anchor="middle" x="346" y="-36" font-family="Helvetica,sans-Serif" font-size="10.00">_frame</text>
</a>
</g>
</g>
<!-- Node162&#45;&gt;Node170 -->
<g id="edge11" class="edge"><title>Node162&#45;&gt;Node170</title>
<path fill="none" stroke="midnightblue" d="M225.828,-105.417C241.472,-95.4887 266.998,-79.8025 290,-68 293.059,-66.4305 296.243,-64.8669 299.469,-63.3336"/>
<polygon fill="midnightblue" stroke="midnightblue" points="300.994,-66.4847 308.604,-59.1135 298.058,-60.13 300.994,-66.4847"/>
</g>
<!-- Node164 -->
<g id="node4" class="node"><title>Node164</title>
<g id="a_node4"><a xlink:href="namespacecaiman_1_1motion__correction.html#aa339d12f180017a763175f450816f158" target="_top" xlink:title="adapted from SIMA (https://github.com/losonczylab) and the scikit&#45;image (http://scikit&#45;image.org/) package. ">
<polygon fill="white" stroke="black" points="458,-260.5 458,-279.5 546,-279.5 546,-260.5 458,-260.5"/>
<text text-anchor="middle" x="502" y="-267.5" font-family="Helvetica,sans-Serif" font-size="10.00">_upsampled_dft</text>
</a>
</g>
</g>
<!-- Node163&#45;&gt;Node164 -->
<g id="edge3" class="edge"><title>Node163&#45;&gt;Node164</title>
<path fill="none" stroke="midnightblue" d="M397.425,-257.221C413.625,-259.22 431.613,-261.439 447.992,-263.46"/>
<polygon fill="midnightblue" stroke="midnightblue" points="447.599,-266.938 457.952,-264.689 448.456,-259.991 447.599,-266.938"/>
</g>
<!-- Node165 -->
<g id="node5" class="node"><title>Node165</title>
<g id="a_node5"><a xlink:href="namespacecaiman_1_1motion__correction.html#a09859fe5f2beba321b5397662b26651b" target="_top" xlink:title="Compute global phase difference between the two images (should be zero if images are non&#45;negative)...">
<polygon fill="white" stroke="black" points="448.5,-222.5 448.5,-241.5 555.5,-241.5 555.5,-222.5 448.5,-222.5"/>
<text text-anchor="middle" x="502" y="-229.5" font-family="Helvetica,sans-Serif" font-size="10.00">_compute_phasediff</text>
</a>
</g>
</g>
<!-- Node163&#45;&gt;Node165 -->
<g id="edge4" class="edge"><title>Node163&#45;&gt;Node165</title>
<path fill="none" stroke="midnightblue" d="M397.425,-244.779C410.427,-243.175 424.581,-241.428 438.131,-239.757"/>
<polygon fill="midnightblue" stroke="midnightblue" points="438.849,-243.195 448.345,-238.496 437.992,-236.247 438.849,-243.195"/>
</g>
<!-- Node169&#45;&gt;Node162 -->
<g id="edge10" class="edge"><title>Node169&#45;&gt;Node162</title>
<path fill="none" stroke="midnightblue" d="M293.521,-108.038C283.868,-109.83 273.761,-111.5 264.061,-112.907"/>
<polygon fill="midnightblue" stroke="midnightblue" points="263.566,-109.442 254.136,-114.272 264.52,-116.377 263.566,-109.442"/>
</g>
<!-- Node169&#45;&gt;Node168 -->
<g id="edge9" class="edge"><title>Node169&#45;&gt;Node168</title>
<path fill="none" stroke="midnightblue" d="M402.163,-100.88C417.59,-103.084 434.292,-105.47 449.498,-107.643"/>
<polygon fill="midnightblue" stroke="midnightblue" points="449.358,-111.158 459.753,-109.108 450.348,-104.228 449.358,-111.158"/>
</g>
<!-- Node171 -->
<g id="node11" class="node"><title>Node171</title>
<g id="a_node11"><a xlink:href="namespacecaiman_1_1motion__correction.html#a93dc0dbba76cd31384bb0fdca775fff6" target="_top" xlink:title="compute_metrics_motion\l_correction">
<polygon fill="white" stroke="black" points="438,-29 438,-59 566,-59 566,-29 438,-29"/>
<text text-anchor="start" x="446" y="-47" font-family="Helvetica,sans-Serif" font-size="10.00">compute_metrics_motion</text>
<text text-anchor="middle" x="502" y="-36" font-family="Helvetica,sans-Serif" font-size="10.00">_correction</text>
</a>
</g>
</g>
<!-- Node170&#45;&gt;Node171 -->
<g id="edge12" class="edge"><title>Node170&#45;&gt;Node171</title>
<path fill="none" stroke="midnightblue" d="M401.295,-44C409.914,-44 418.951,-44 427.917,-44"/>
<polygon fill="midnightblue" stroke="midnightblue" points="427.983,-47.5001 437.983,-44 427.983,-40.5001 427.983,-47.5001"/>
</g>
<!-- Node172 -->
<g id="node12" class="node"><title>Node172</title>
<g id="a_node12"><a xlink:href="namespacecaiman_1_1motion__correction.html#aa13476234008dda16f62dc69804dab54" target="_top" xlink:title="Function that perform memory efficient hyper parallelized rigid motion corrections while also saving ...">
<polygon fill="white" stroke="black" points="602.5,-29 602.5,-59 715.5,-59 715.5,-29 602.5,-29"/>
<text text-anchor="start" x="610.5" y="-47" font-family="Helvetica,sans-Serif" font-size="10.00">motion_correct_batch</text>
<text text-anchor="middle" x="659" y="-36" font-family="Helvetica,sans-Serif" font-size="10.00">_rigid</text>
</a>
</g>
</g>
<!-- Node171&#45;&gt;Node172 -->
<g id="edge13" class="edge"><title>Node171&#45;&gt;Node172</title>
<path fill="none" stroke="midnightblue" d="M566.044,-44C574.719,-44 583.644,-44 592.364,-44"/>
<polygon fill="midnightblue" stroke="midnightblue" points="592.479,-47.5001 602.479,-44 592.479,-40.5001 592.479,-47.5001"/>
</g>
<!-- Node173 -->
<g id="node13" class="node"><title>Node173</title>
<g id="a_node13"><a xlink:href="namespacecaiman_1_1motion__correction.html#a29956f4cd15f5c59388862472d370986" target="_top" xlink:title="Function that perform memory efficient hyper parallelized rigid motion corrections while also saving ...">
<polygon fill="white" stroke="black" points="752.5,-29 752.5,-59 865.5,-59 865.5,-29 752.5,-29"/>
<text text-anchor="start" x="760.5" y="-47" font-family="Helvetica,sans-Serif" font-size="10.00">motion_correct_batch</text>
<text text-anchor="middle" x="809" y="-36" font-family="Helvetica,sans-Serif" font-size="10.00">_pwrigid</text>
</a>
</g>
</g>
<!-- Node172&#45;&gt;Node173 -->
<g id="edge14" class="edge"><title>Node172&#45;&gt;Node173</title>
<path fill="none" stroke="midnightblue" d="M715.531,-44C724.138,-44 733.101,-44 741.913,-44"/>
<polygon fill="midnightblue" stroke="midnightblue" points="742.158,-47.5001 752.158,-44 742.158,-40.5001 742.158,-47.5001"/>
</g>
<!-- Node173&#45;&gt;Node174 -->
<g id="edge15" class="edge"><title>Node173&#45;&gt;Node174</title>
<path fill="none" stroke="midnightblue" d="M865.523,-36.5518C874.394,-35.3617 883.729,-34.1095 893.046,-32.8597"/>
<polygon fill="midnightblue" stroke="midnightblue" points="893.679,-36.3061 903.125,-31.5076 892.749,-29.3683 893.679,-36.3061"/>
</g>
</g>
</svg>
