<?xml version="1.0" encoding="UTF-8" standalone="no"?>
<!DOCTYPE svg PUBLIC "-//W3C//DTD SVG 1.1//EN"
 "http://www.w3.org/Graphics/SVG/1.1/DTD/svg11.dtd">
<!-- Generated by graphviz version 2.36.0 (20140111.2315)
 -->
<!-- Title: save_memmap_each Pages: 1 -->
<svg width="1384pt" height="384pt"
 viewBox="0.00 0.00 1384.00 384.47" xmlns="http://www.w3.org/2000/svg" xmlns:xlink="http://www.w3.org/1999/xlink">
<g id="graph0" class="graph" transform="scale(1 1) rotate(0) translate(4 380.469)">
<title>save_memmap_each</title>
<polygon fill="white" stroke="none" points="-4,4 -4,-380.469 1380,-380.469 1380,4 -4,4"/>
<!-- Node51 -->
<g id="node1" class="node"><title>Node51</title>
<polygon fill="#bfbfbf" stroke="black" points="0,-182.969 0,-201.969 112,-201.969 112,-182.969 0,-182.969"/>
<text text-anchor="middle" x="56" y="-189.969" font-family="Helvetica,sans-Serif" font-size="10.00">save_memmap_each</text>
</g>
<!-- Node52 -->
<g id="node2" class="node"><title>Node52</title>
<g id="a_node2"><a xlink:href="namespacecaiman_1_1mmapping.html#aeb2ed62e4a9028089a2eec09d392707f" target="_top" xlink:title="Load a memory mapped file created by the function save_memmap. ">
<polygon fill="white" stroke="black" points="148.5,-182.969 148.5,-201.969 231.5,-201.969 231.5,-182.969 148.5,-182.969"/>
<text text-anchor="middle" x="190" y="-189.969" font-family="Helvetica,sans-Serif" font-size="10.00">load_memmap</text>
</a>
</g>
</g>
<!-- Node51&#45;&gt;Node52 -->
<g id="edge1" class="edge"><title>Node51&#45;&gt;Node52</title>
<path fill="none" stroke="midnightblue" d="M122.26,-192.469C131.196,-192.469 140.149,-192.469 148.465,-192.469"/>
<polygon fill="midnightblue" stroke="midnightblue" points="122.215,-188.969 112.215,-192.469 122.215,-195.969 122.215,-188.969"/>
</g>
<!-- Node53 -->
<g id="node3" class="node"><title>Node53</title>
<g id="a_node3"><a xlink:href="namespacecaiman_1_1cluster.html#a0791f5c2482e1707e24578a03446a69d" target="_top" xlink:title="caiman.cluster.function\l_place_holder">
<polygon fill="white" stroke="black" points="326.5,-346.469 326.5,-376.469 445.5,-376.469 445.5,-346.469 326.5,-346.469"/>
<text text-anchor="start" x="334.5" y="-364.469" font-family="Helvetica,sans-Serif" font-size="10.00">caiman.cluster.function</text>
<text text-anchor="middle" x="386" y="-353.469" font-family="Helvetica,sans-Serif" font-size="10.00">_place_holder</text>
</a>
</g>
</g>
<!-- Node52&#45;&gt;Node53 -->
<g id="edge2" class="edge"><title>Node52&#45;&gt;Node53</title>
<path fill="none" stroke="midnightblue" d="M195.664,-211.737C204.296,-243.071 225.853,-304.751 268,-336.469 284.679,-349.021 306.295,-355.571 326.4,-358.896"/>
<polygon fill="midnightblue" stroke="midnightblue" points="199.041,-210.816 193.137,-202.018 192.266,-212.577 199.041,-210.816"/>
</g>
<!-- Node54 -->
<g id="node4" class="node"><title>Node54</title>
<g id="a_node4"><a xlink:href="namespacecaiman_1_1source__extraction_1_1cnmf_1_1map__reduce.html#af6abfd3565abe5dcb4298e6c55cac9d1" target="_top" xlink:title="Function that is run for each patches. ">
<polygon fill="white" stroke="black" points="297.5,-297.469 297.5,-327.469 474.5,-327.469 474.5,-297.469 297.5,-297.469"/>
<text text-anchor="start" x="305.5" y="-315.469" font-family="Helvetica,sans-Serif" font-size="10.00">caiman.source_extraction.cnmf.map</text>
<text text-anchor="middle" x="386" y="-304.469" font-family="Helvetica,sans-Serif" font-size="10.00">_reduce.cnmf_patches</text>
</a>
</g>
</g>
<!-- Node52&#45;&gt;Node54 -->
<g id="edge3" class="edge"><title>Node52&#45;&gt;Node54</title>
<path fill="none" stroke="midnightblue" d="M200.821,-211.053C213.382,-232.912 237.238,-268.605 268,-287.469 277.03,-293.007 287.106,-297.33 297.453,-300.703"/>
<polygon fill="midnightblue" stroke="midnightblue" points="203.766,-209.147 195.861,-202.093 197.642,-212.537 203.766,-209.147"/>
</g>
<!-- Node55 -->
<g id="node5" class="node"><title>Node55</title>
<g id="a_node5"><a xlink:href="namespacecaiman_1_1mmapping.html#a0501b5275136a4c678312e5b2902deb2" target="_top" xlink:title="From small memory mappable files creates a large one. ">
<polygon fill="white" stroke="black" points="333,-258.969 333,-277.969 439,-277.969 439,-258.969 333,-258.969"/>
<text text-anchor="middle" x="386" y="-265.969" font-family="Helvetica,sans-Serif" font-size="10.00">save_memmap_join</text>
</a>
</g>
</g>
<!-- Node52&#45;&gt;Node55 -->
<g id="edge4" class="edge"><title>Node52&#45;&gt;Node55</title>
<path fill="none" stroke="midnightblue" d="M208.701,-209.469C223.39,-222.554 245.453,-239.96 268,-249.469 288.289,-258.025 312.057,-262.749 332.852,-265.348"/>
<polygon fill="midnightblue" stroke="midnightblue" points="210.689,-206.543 200.957,-202.356 205.954,-211.699 210.689,-206.543"/>
</g>
<!-- Node56 -->
<g id="node6" class="node"><title>Node56</title>
<g id="a_node6"><a xlink:href="namespacecaiman_1_1mmapping.html#a68a1fd663ff256d832c0355f4f851124" target="_top" xlink:title="save_portion">
<polygon fill="white" stroke="black" points="349,-220.969 349,-239.969 423,-239.969 423,-220.969 349,-220.969"/>
<text text-anchor="middle" x="386" y="-227.969" font-family="Helvetica,sans-Serif" font-size="10.00">save_portion</text>
</a>
</g>
</g>
<!-- Node52&#45;&gt;Node56 -->
<g id="edge5" class="edge"><title>Node52&#45;&gt;Node56</title>
<path fill="none" stroke="midnightblue" d="M237.178,-204.508C247.3,-206.966 257.983,-209.423 268,-211.469 294.917,-216.966 325.578,-221.897 348.758,-225.357"/>
<polygon fill="midnightblue" stroke="midnightblue" points="237.838,-201.065 227.29,-202.064 236.159,-207.861 237.838,-201.065"/>
</g>
<!-- Node57 -->
<g id="node7" class="node"><title>Node57</title>
<g id="a_node7"><a xlink:href="namespacecaiman_1_1mmapping.html#a14d47c076020d7d3adf2599ed3354e4b" target="_top" xlink:title="dot_place_holder">
<polygon fill="white" stroke="black" points="339.5,-182.969 339.5,-201.969 432.5,-201.969 432.5,-182.969 339.5,-182.969"/>
<text text-anchor="middle" x="386" y="-189.969" font-family="Helvetica,sans-Serif" font-size="10.00">dot_place_holder</text>
</a>
</g>
</g>
<!-- Node52&#45;&gt;Node57 -->
<g id="edge6" class="edge"><title>Node52&#45;&gt;Node57</title>
<path fill="none" stroke="midnightblue" d="M241.994,-192.469C272.173,-192.469 310.084,-192.469 339.289,-192.469"/>
<polygon fill="midnightblue" stroke="midnightblue" points="241.669,-188.969 231.669,-192.469 241.669,-195.969 241.669,-188.969"/>
</g>
<!-- Node65 -->
<g id="node15" class="node"><title>Node65</title>
<g id="a_node15"><a xlink:href="namespacecaiman_1_1base_1_1movies.html#a5392a2c6b37a9407231041bee3f521a4" target="_top" xlink:title="load movie from file. ">
<polygon fill="white" stroke="black" points="321.5,-144.969 321.5,-163.969 450.5,-163.969 450.5,-144.969 321.5,-144.969"/>
<text text-anchor="middle" x="386" y="-151.969" font-family="Helvetica,sans-Serif" font-size="10.00">caiman.base.movies.load</text>
</a>
</g>
</g>
<!-- Node52&#45;&gt;Node65 -->
<g id="edge15" class="edge"><title>Node52&#45;&gt;Node65</title>
<path fill="none" stroke="midnightblue" d="M237.178,-180.43C247.3,-177.972 257.983,-175.514 268,-173.469 285.239,-169.948 304.014,-166.66 321.375,-163.841"/>
<polygon fill="midnightblue" stroke="midnightblue" points="236.159,-177.077 227.29,-182.873 237.838,-183.872 236.159,-177.077"/>
</g>
<!-- Node67 -->
<g id="node17" class="node"><title>Node67</title>
<g id="a_node17"><a xlink:href="namespacecaiman_1_1source__extraction_1_1cnmf_1_1pre__processing.html#a2442af4ba144dd56a99ff21e770306ce" target="_top" xlink:title="helper function to parallelize get_noise_fft ">
<polygon fill="white" stroke="black" points="300,-95.4688 300,-125.469 472,-125.469 472,-95.4688 300,-95.4688"/>
<text text-anchor="start" x="308" y="-113.469" font-family="Helvetica,sans-Serif" font-size="10.00">caiman.source_extraction.cnmf.pre</text>
<text text-anchor="middle" x="386" y="-102.469" font-family="Helvetica,sans-Serif" font-size="10.00">_processing.fft_psd_multithreading</text>
</a>
</g>
</g>
<!-- Node52&#45;&gt;Node67 -->
<g id="edge18" class="edge"><title>Node52&#45;&gt;Node67</title>
<path fill="none" stroke="midnightblue" d="M208.833,-175.77C223.596,-162.856 245.695,-145.533 268,-135.469 278.034,-130.941 288.929,-127.216 299.897,-124.157"/>
<polygon fill="midnightblue" stroke="midnightblue" points="206.137,-173.487 201.042,-182.776 210.818,-178.692 206.137,-173.487"/>
</g>
<!-- Node68 -->
<g id="node18" class="node"><title>Node68</title>
<g id="a_node18"><a xlink:href="namespacecaiman_1_1source__extraction_1_1cnmf_1_1spatial.html#af3e32db8a5aeabf7269b756732a5e5a1" target="_top" xlink:title="update spatial footprints and background through Basis Pursuit Denoising ">
<polygon fill="white" stroke="black" points="268,-46.4688 268,-76.4688 504,-76.4688 504,-46.4688 268,-46.4688"/>
<text text-anchor="start" x="276" y="-64.4688" font-family="Helvetica,sans-Serif" font-size="10.00">caiman.source_extraction.cnmf.spatial.regression</text>
<text text-anchor="middle" x="386" y="-53.4688" font-family="Helvetica,sans-Serif" font-size="10.00">_ipyparallel</text>
</a>
</g>
</g>
<!-- Node52&#45;&gt;Node68 -->
<g id="edge19" class="edge"><title>Node52&#45;&gt;Node68</title>
<path fill="none" stroke="midnightblue" d="M199.151,-173.65C210.744,-149.246 234.382,-107.239 268,-85.4688 273.308,-82.0312 279.013,-79.072 284.943,-76.5261"/>
<polygon fill="midnightblue" stroke="midnightblue" points="195.889,-172.369 194.926,-182.92 202.258,-175.272 195.889,-172.369"/>
</g>
<!-- Node69 -->
<g id="node19" class="node"><title>Node69</title>
<g id="a_node19"><a xlink:href="namespacecaiman_1_1source__extraction_1_1cnmf_1_1spatial.html#a894e2773dd1e79c2efac3c759ff2fe9c" target="_top" xlink:title="memmap the C and Y objects in parallel ">
<polygon fill="white" stroke="black" points="540.5,-52.9688 540.5,-71.9688 799.5,-71.9688 799.5,-52.9688 540.5,-52.9688"/>
<text text-anchor="middle" x="670" y="-59.9688" font-family="Helvetica,sans-Serif" font-size="10.00">caiman.source_extraction.cnmf.spatial.creatememmap</text>
</a>
</g>
</g>
<!-- Node52&#45;&gt;Node69 -->
<g id="edge20" class="edge"><title>Node52&#45;&gt;Node69</title>
<path fill="none" stroke="midnightblue" d="M194.041,-172.513C200.54,-137.699 219.373,-66.695 268,-36.4688 392.722,41.0576 583.459,-26.4897 647.32,-52.9497"/>
<polygon fill="midnightblue" stroke="midnightblue" points="190.514,-172.375 192.284,-182.821 197.414,-173.551 190.514,-172.375"/>
</g>
<!-- Node58 -->
<g id="node8" class="node"><title>Node58</title>
<g id="a_node8"><a xlink:href="namespacecaiman_1_1mmapping.html#aa75ec735ea507b2ce7eb0e0bd33d2ba3" target="_top" xlink:title="Chunk matrix product between matrix and column vectors. ">
<polygon fill="white" stroke="black" points="616.5,-185.969 616.5,-204.969 723.5,-204.969 723.5,-185.969 616.5,-185.969"/>
<text text-anchor="middle" x="670" y="-192.969" font-family="Helvetica,sans-Serif" font-size="10.00">parallel_dot_product</text>
</a>
</g>
</g>
<!-- Node57&#45;&gt;Node58 -->
<g id="edge7" class="edge"><title>Node57&#45;&gt;Node58</title>
<path fill="none" stroke="midnightblue" d="M442.69,-193.061C493.085,-193.597 566.776,-194.381 616.241,-194.908"/>
<polygon fill="midnightblue" stroke="midnightblue" points="442.658,-189.561 432.622,-192.954 442.584,-196.56 442.658,-189.561"/>
</g>
<!-- Node59 -->
<g id="node9" class="node"><title>Node59</title>
<g id="a_node9"><a xlink:href="namespacecaiman_1_1source__extraction_1_1cnmf_1_1spatial.html#ac4b406f52054893ed2518a761921d4f4" target="_top" xlink:title="update spatial footprints and background through Basis Pursuit Denoising ">
<polygon fill="white" stroke="black" points="852,-107.469 852,-137.469 1072,-137.469 1072,-107.469 852,-107.469"/>
<text text-anchor="start" x="860" y="-125.469" font-family="Helvetica,sans-Serif" font-size="10.00">caiman.source_extraction.cnmf.spatial.update</text>
<text text-anchor="middle" x="962" y="-114.469" font-family="Helvetica,sans-Serif" font-size="10.00">_spatial_components</text>
</a>
</g>
</g>
<!-- Node58&#45;&gt;Node59 -->
<g id="edge8" class="edge"><title>Node58&#45;&gt;Node59</title>
<path fill="none" stroke="midnightblue" d="M733.705,-192.382C755.4,-189.608 779.419,-184.56 800,-175.469 818.794,-167.167 817.358,-155.107 836,-146.469 843.418,-143.031 851.304,-140.086 859.366,-137.563"/>
<polygon fill="midnightblue" stroke="midnightblue" points="733.134,-188.924 723.596,-193.535 733.928,-195.879 733.134,-188.924"/>
</g>
<!-- Node61 -->
<g id="node11" class="node"><title>Node61</title>
<g id="a_node11"><a xlink:href="namespacecaiman_1_1source__extraction_1_1cnmf_1_1temporal.html#ac3279e405da3b8cc2e4a21b68320971c" target="_top" xlink:title="Update temporal components and background given spatial components using a block coordinate descent a...">
<polygon fill="white" stroke="black" points="847,-156.469 847,-186.469 1077,-186.469 1077,-156.469 847,-156.469"/>
<text text-anchor="start" x="855" y="-174.469" font-family="Helvetica,sans-Serif" font-size="10.00">caiman.source_extraction.cnmf.temporal.update</text>
<text text-anchor="middle" x="962" y="-163.469" font-family="Helvetica,sans-Serif" font-size="10.00">_temporal_components</text>
</a>
</g>
</g>
<!-- Node58&#45;&gt;Node61 -->
<g id="edge10" class="edge"><title>Node58&#45;&gt;Node61</title>
<path fill="none" stroke="midnightblue" d="M733.505,-190.296C766.621,-187.555 808.341,-184.103 846.981,-180.905"/>
<polygon fill="midnightblue" stroke="midnightblue" points="733.194,-186.81 723.517,-191.123 733.771,-193.786 733.194,-186.81"/>
</g>
<!-- Node63 -->
<g id="node13" class="node"><title>Node63</title>
<g id="a_node13"><a xlink:href="namespacecaiman_1_1source__extraction_1_1cnmf_1_1utilities.html#a280d064e1a9888eca4b375647d031491" target="_top" xlink:title="Compute DFF function from cnmf output. ">
<polygon fill="white" stroke="black" points="836,-207.969 836,-226.969 1088,-226.969 1088,-207.969 836,-207.969"/>
<text text-anchor="middle" x="962" y="-214.969" font-family="Helvetica,sans-Serif" font-size="10.00">caiman.source_extraction.cnmf.utilities.extract_DF_F</text>
</a>
</g>
</g>
<!-- Node58&#45;&gt;Node63 -->
<g id="edge13" class="edge"><title>Node58&#45;&gt;Node63</title>
<path fill="none" stroke="midnightblue" d="M733.804,-200.233C763.75,-202.505 800.68,-205.307 835.997,-207.986"/>
<polygon fill="midnightblue" stroke="midnightblue" points="733.753,-196.719 723.517,-199.453 733.223,-203.699 733.753,-196.719"/>
</g>
<!-- Node60 -->
<g id="node10" class="node"><title>Node60</title>
<g id="a_node10"><a xlink:href="namespacecaiman_1_1source__extraction_1_1cnmf_1_1merging.html#ad08adf2e086a22ef379b10ed3ee36936" target="_top" xlink:title="Merging of spatially overlapping components that have highly correlated temporal activity. ">
<polygon fill="white" stroke="black" points="1137.5,-107.469 1137.5,-137.469 1362.5,-137.469 1362.5,-107.469 1137.5,-107.469"/>
<text text-anchor="start" x="1145.5" y="-125.469" font-family="Helvetica,sans-Serif" font-size="10.00">caiman.source_extraction.cnmf.merging.merge</text>
<text text-anchor="middle" x="1250" y="-114.469" font-family="Helvetica,sans-Serif" font-size="10.00">_components</text>
</a>
</g>
</g>
<!-- Node59&#45;&gt;Node60 -->
<g id="edge9" class="edge"><title>Node59&#45;&gt;Node60</title>
<path fill="none" stroke="midnightblue" d="M1082.4,-122.469C1100.6,-122.469 1119.32,-122.469 1137.34,-122.469"/>
<polygon fill="midnightblue" stroke="midnightblue" points="1082.35,-118.969 1072.35,-122.469 1082.35,-125.969 1082.35,-118.969"/>
</g>
<!-- Node61&#45;&gt;Node60 -->
<g id="edge11" class="edge"><title>Node61&#45;&gt;Node60</title>
<path fill="none" stroke="midnightblue" d="M1060.77,-154.719C1093.42,-149.124 1129.58,-142.928 1161.41,-137.475"/>
<polygon fill="midnightblue" stroke="midnightblue" points="1060.02,-151.296 1050.75,-156.434 1061.2,-158.195 1060.02,-151.296"/>
</g>
<!-- Node62 -->
<g id="node12" class="node"><title>Node62</title>
<g id="a_node12"><a xlink:href="namespacecaiman_1_1source__extraction_1_1cnmf_1_1temporal.html#a2ede407f1e0d0722f51ddb6e99f48f9f" target="_top" xlink:title="necessary for parallel computation of the function constrained_foopsi ">
<polygon fill="white" stroke="black" points="1124.5,-156.469 1124.5,-186.469 1375.5,-186.469 1375.5,-156.469 1124.5,-156.469"/>
<text text-anchor="start" x="1132.5" y="-174.469" font-family="Helvetica,sans-Serif" font-size="10.00">caiman.source_extraction.cnmf.temporal.constrained</text>
<text text-anchor="middle" x="1250" y="-163.469" font-family="Helvetica,sans-Serif" font-size="10.00">_foopsi_parallel</text>
</a>
</g>
</g>
<!-- Node61&#45;&gt;Node62 -->
<g id="edge12" class="edge"><title>Node61&#45;&gt;Node62</title>
<path fill="none" stroke="midnightblue" d="M1087.43,-171.469C1099.6,-171.469 1111.95,-171.469 1124.11,-171.469"/>
<polygon fill="midnightblue" stroke="midnightblue" points="1087.27,-167.969 1077.27,-171.469 1087.27,-174.969 1087.27,-167.969"/>
</g>
<!-- Node64 -->
<g id="node14" class="node"><title>Node64</title>
<g id="a_node14"><a xlink:href="namespacecaiman_1_1source__extraction_1_1cnmf_1_1utilities.html#aea3aa78c7c153170012079014e1f4895" target="_top" xlink:title="caiman.source_extraction.cnmf.utilities.compute\lDFF_traces">
<polygon fill="white" stroke="black" points="1135.5,-205.469 1135.5,-235.469 1364.5,-235.469 1364.5,-205.469 1135.5,-205.469"/>
<text text-anchor="start" x="1143.5" y="-223.469" font-family="Helvetica,sans-Serif" font-size="10.00">caiman.source_extraction.cnmf.utilities.compute</text>
<text text-anchor="middle" x="1250" y="-212.469" font-family="Helvetica,sans-Serif" font-size="10.00">DFF_traces</text>
</a>
</g>
</g>
<!-- Node63&#45;&gt;Node64 -->
<g id="edge14" class="edge"><title>Node63&#45;&gt;Node64</title>
<path fill="none" stroke="midnightblue" d="M1098.05,-218.885C1110.57,-219.017 1123.18,-219.149 1135.48,-219.278"/>
<polygon fill="midnightblue" stroke="midnightblue" points="1098.06,-215.385 1088.03,-218.78 1097.99,-222.385 1098.06,-215.385"/>
</g>
<!-- Node66 -->
<g id="node16" class="node"><title>Node66</title>
<g id="a_node16"><a xlink:href="namespacecaiman_1_1base_1_1movies.html#a5a35758b31edb4a9b2105a058a0882a6" target="_top" xlink:title="load movies from list of file names ">
<polygon fill="white" stroke="black" points="605.5,-136.469 605.5,-166.469 734.5,-166.469 734.5,-136.469 605.5,-136.469"/>
<text text-anchor="start" x="613.5" y="-154.469" font-family="Helvetica,sans-Serif" font-size="10.00">caiman.base.movies.load</text>
<text text-anchor="middle" x="670" y="-143.469" font-family="Helvetica,sans-Serif" font-size="10.00">_movie_chain</text>
</a>
</g>
</g>
<!-- Node65&#45;&gt;Node66 -->
<g id="edge16" class="edge"><title>Node65&#45;&gt;Node66</title>
<path fill="none" stroke="midnightblue" d="M460.879,-147.665C505.671,-146.132 562.25,-145.617 605.106,-146.39"/>
<polygon fill="midnightblue" stroke="midnightblue" points="460.503,-144.176 450.638,-148.041 460.76,-151.171 460.503,-144.176"/>
</g>
<!-- Node66&#45;&gt;Node65 -->
<g id="edge17" class="edge"><title>Node66&#45;&gt;Node65</title>
<path fill="none" stroke="midnightblue" d="M594.854,-158.282C550.015,-159.81 493.439,-160.321 450.638,-159.543"/>
<polygon fill="midnightblue" stroke="midnightblue" points="595.241,-161.77 605.106,-157.907 594.985,-154.775 595.241,-161.77"/>
</g>
<!-- Node69&#45;&gt;Node59 -->
<g id="edge21" class="edge"><title>Node69&#45;&gt;Node59</title>
<path fill="none" stroke="midnightblue" d="M726.745,-74.0023C772.739,-83.5182 838.341,-97.091 888.428,-107.454"/>
<polygon fill="midnightblue" stroke="midnightblue" points="727.453,-70.5747 716.951,-71.976 726.035,-77.4296 727.453,-70.5747"/>
</g>
</g>
</svg>
