<?xml version="1.0" encoding="UTF-8" standalone="no"?>
<!DOCTYPE svg PUBLIC "-//W3C//DTD SVG 1.1//EN"
 "http://www.w3.org/Graphics/SVG/1.1/DTD/svg11.dtd">
<!-- Generated by graphviz version 2.36.0 (20140111.2315)
 -->
<!-- Title: update_temporal_components Pages: 1 -->
<svg width="422pt" height="87pt"
 viewBox="0.00 0.00 422.00 87.00" xmlns="http://www.w3.org/2000/svg" xmlns:xlink="http://www.w3.org/1999/xlink">
<g id="graph0" class="graph" transform="scale(1 1) rotate(0) translate(4 83)">
<title>update_temporal_components</title>
<polygon fill="white" stroke="none" points="-4,4 -4,-83 418,-83 418,4 -4,4"/>
<!-- Node34 -->
<g id="node1" class="node"><title>Node34</title>
<polygon fill="#bfbfbf" stroke="black" points="0,-29.5 0,-48.5 152,-48.5 152,-29.5 0,-29.5"/>
<text text-anchor="middle" x="76" y="-36.5" font-family="Helvetica,sans-Serif" font-size="10.00">update_temporal_components</text>
</g>
<!-- Node35 -->
<g id="node2" class="node"><title>Node35</title>
<g id="a_node2"><a xlink:href="namespacecaiman_1_1source__extraction_1_1cnmf_1_1merging.html#ad08adf2e086a22ef379b10ed3ee36936" target="_top" xlink:title="Merging of spatially overlapping components that have highly correlated temporal activity. ">
<polygon fill="white" stroke="black" points="188.5,-49 188.5,-79 413.5,-79 413.5,-49 188.5,-49"/>
<text text-anchor="start" x="196.5" y="-67" font-family="Helvetica,sans-Serif" font-size="10.00">caiman.source_extraction.cnmf.merging.merge</text>
<text text-anchor="middle" x="301" y="-56" font-family="Helvetica,sans-Serif" font-size="10.00">_components</text>
</a>
</g>
</g>
<!-- Node34&#45;&gt;Node35 -->
<g id="edge1" class="edge"><title>Node34&#45;&gt;Node35</title>
<path fill="none" stroke="midnightblue" d="M162.129,-48.5436C170.696,-49.5041 179.484,-50.4892 188.273,-51.4745"/>
<polygon fill="midnightblue" stroke="midnightblue" points="162.514,-45.065 152.187,-47.429 161.735,-52.0214 162.514,-45.065"/>
</g>
<!-- Node36 -->
<g id="node3" class="node"><title>Node36</title>
<g id="a_node3"><a xlink:href="namespacecaiman_1_1source__extraction_1_1cnmf_1_1temporal.html#a2ede407f1e0d0722f51ddb6e99f48f9f" target="_top" xlink:title="necessary for parallel computation of the function constrained_foopsi ">
<polygon fill="white" stroke="black" points="251,-0 251,-30 351,-30 351,-0 251,-0"/>
<text text-anchor="start" x="259" y="-18" font-family="Helvetica,sans-Serif" font-size="10.00">constrained_foopsi</text>
<text text-anchor="middle" x="301" y="-7" font-family="Helvetica,sans-Serif" font-size="10.00">_parallel</text>
</a>
</g>
</g>
<!-- Node34&#45;&gt;Node36 -->
<g id="edge2" class="edge"><title>Node34&#45;&gt;Node36</title>
<path fill="none" stroke="midnightblue" d="M162.217,-29.8286C192.137,-26.6085 224.735,-23.1003 250.708,-20.3049"/>
<polygon fill="midnightblue" stroke="midnightblue" points="161.755,-26.3581 152.187,-30.9082 162.504,-33.3179 161.755,-26.3581"/>
</g>
</g>
</svg>
