<?xml version="1.0" encoding="UTF-8" standalone="no"?>
<!DOCTYPE svg PUBLIC "-//W3C//DTD SVG 1.1//EN"
 "http://www.w3.org/Graphics/SVG/1.1/DTD/svg11.dtd">
<!-- Generated by graphviz version 2.36.0 (20140111.2315)
 -->
<!-- Title: merge_components Pages: 1 -->
<svg width="1912pt" height="532pt"
 viewBox="0.00 0.00 1912.00 531.70" xmlns="http://www.w3.org/2000/svg" xmlns:xlink="http://www.w3.org/1999/xlink">
<g id="graph0" class="graph" transform="scale(1 1) rotate(0) translate(4 527.7)">
<title>merge_components</title>
<polygon fill="white" stroke="none" points="-4,4 -4,-527.7 1908,-527.7 1908,4 -4,4"/>
<!-- Node0 -->
<g id="node1" class="node"><title>Node0</title>
<polygon fill="#bfbfbf" stroke="black" points="0.5,-279.5 0.5,-298.5 105.5,-298.5 105.5,-279.5 0.5,-279.5"/>
<text text-anchor="middle" x="53" y="-286.5" font-family="Helvetica,sans-Serif" font-size="10.00">merge_components</text>
</g>
<!-- Node1 -->
<g id="node2" class="node"><title>Node1</title>
<g id="a_node2"><a xlink:href="namespacecaiman_1_1source__extraction_1_1cnmf_1_1deconvolution.html#a0afb63d84485a181bb40f2eefe7b581e" target="_top" xlink:title="Infer the most likely discretized spike train underlying a fluorescence trace. ">
<polygon fill="white" stroke="black" points="142,-421 142,-451 416,-451 416,-421 142,-421"/>
<text text-anchor="start" x="150" y="-439" font-family="Helvetica,sans-Serif" font-size="10.00">caiman.source_extraction.cnmf.deconvolution.constrained</text>
<text text-anchor="middle" x="279" y="-428" font-family="Helvetica,sans-Serif" font-size="10.00">_foopsi</text>
</a>
</g>
</g>
<!-- Node0&#45;&gt;Node1 -->
<g id="edge1" class="edge"><title>Node0&#45;&gt;Node1</title>
<path fill="none" stroke="midnightblue" d="M68.6973,-298.645C104.524,-322.156 197.016,-382.854 246.18,-415.118"/>
<polygon fill="midnightblue" stroke="midnightblue" points="244.552,-418.236 254.832,-420.796 248.392,-412.384 244.552,-418.236"/>
</g>
<!-- Node12 -->
<g id="node13" class="node"><title>Node12</title>
<g id="a_node13"><a xlink:href="namespacecaiman_1_1source__extraction_1_1cnmf_1_1temporal.html#ac3279e405da3b8cc2e4a21b68320971c" target="_top" xlink:title="Update temporal components and background given spatial components using a block coordinate descent a...">
<polygon fill="white" stroke="black" points="164,-274 164,-304 394,-304 394,-274 164,-274"/>
<text text-anchor="start" x="172" y="-292" font-family="Helvetica,sans-Serif" font-size="10.00">caiman.source_extraction.cnmf.temporal.update</text>
<text text-anchor="middle" x="279" y="-281" font-family="Helvetica,sans-Serif" font-size="10.00">_temporal_components</text>
</a>
</g>
</g>
<!-- Node0&#45;&gt;Node12 -->
<g id="edge16" class="edge"><title>Node0&#45;&gt;Node12</title>
<path fill="none" stroke="midnightblue" d="M105.671,-289C120.116,-289 136.469,-289 153.208,-289"/>
<polygon fill="midnightblue" stroke="midnightblue" points="153.667,-292.5 163.667,-289 153.667,-285.5 153.667,-292.5"/>
</g>
<!-- Node19 -->
<g id="node20" class="node"><title>Node19</title>
<g id="a_node20"><a xlink:href="namespacecaiman_1_1source__extraction_1_1cnmf_1_1spatial.html#a9f53b6bac6a1560b0102e55a7ec1710d" target="_top" xlink:title="update spatial footprints and background through Basis Pursuit Denoising ">
<polygon fill="white" stroke="black" points="169,-137 169,-167 389,-167 389,-137 169,-137"/>
<text text-anchor="start" x="177" y="-155" font-family="Helvetica,sans-Serif" font-size="10.00">caiman.source_extraction.cnmf.spatial.update</text>
<text text-anchor="middle" x="279" y="-144" font-family="Helvetica,sans-Serif" font-size="10.00">_spatial_components</text>
</a>
</g>
</g>
<!-- Node0&#45;&gt;Node19 -->
<g id="edge23" class="edge"><title>Node0&#45;&gt;Node19</title>
<path fill="none" stroke="midnightblue" d="M69.7512,-279.366C105.938,-257.234 195.658,-202.361 244.695,-172.37"/>
<polygon fill="midnightblue" stroke="midnightblue" points="246.651,-175.276 253.355,-167.073 242.998,-169.305 246.651,-175.276"/>
</g>
<!-- Node2 -->
<g id="node3" class="node"><title>Node2</title>
<g id="a_node3"><a xlink:href="namespacecaiman_1_1source__extraction_1_1cnmf_1_1deconvolution.html#a7199190b4f33e4a70dedc9deea7e4c45" target="_top" xlink:title="Estimate noise standard deviation and AR coefficients if they are not present. ">
<polygon fill="white" stroke="black" points="762,-458 762,-488 1022,-488 1022,-458 762,-458"/>
<text text-anchor="start" x="770" y="-476" font-family="Helvetica,sans-Serif" font-size="10.00">caiman.source_extraction.cnmf.deconvolution.estimate</text>
<text text-anchor="middle" x="892" y="-465" font-family="Helvetica,sans-Serif" font-size="10.00">_parameters</text>
</a>
</g>
</g>
<!-- Node1&#45;&gt;Node2 -->
<g id="edge2" class="edge"><title>Node1&#45;&gt;Node2</title>
<path fill="none" stroke="midnightblue" d="M306.316,-451.142C339.16,-469.086 397.642,-497.942 452,-509 571.334,-533.276 604.924,-522.055 726,-509 759.392,-505.4 795.938,-497.813 826.129,-490.529"/>
<polygon fill="midnightblue" stroke="midnightblue" points="827.234,-493.861 836.11,-488.076 825.564,-487.064 827.234,-493.861"/>
</g>
<!-- Node7 -->
<g id="node8" class="node"><title>Node7</title>
<g id="a_node8"><a xlink:href="namespacecaiman_1_1source__extraction_1_1cnmf_1_1deconvolution.html#a04aa84702e9977187b4ac0ba95891fb6" target="_top" xlink:title="Solve the deconvolution problem using cvxopt and picos packages. ">
<polygon fill="white" stroke="black" points="463.5,-470 463.5,-500 714.5,-500 714.5,-470 463.5,-470"/>
<text text-anchor="start" x="471.5" y="-488" font-family="Helvetica,sans-Serif" font-size="10.00">caiman.source_extraction.cnmf.deconvolution.cvxopt</text>
<text text-anchor="middle" x="589" y="-477" font-family="Helvetica,sans-Serif" font-size="10.00">_foopsi</text>
</a>
</g>
</g>
<!-- Node1&#45;&gt;Node7 -->
<g id="edge8" class="edge"><title>Node1&#45;&gt;Node7</title>
<path fill="none" stroke="midnightblue" d="M374.503,-451.035C408.945,-456.514 448.079,-462.74 483.351,-468.351"/>
<polygon fill="midnightblue" stroke="midnightblue" points="483.25,-471.879 493.675,-469.994 484.35,-464.966 483.25,-471.879"/>
</g>
<!-- Node8 -->
<g id="node9" class="node"><title>Node8</title>
<g id="a_node9"><a xlink:href="namespacecaiman_1_1source__extraction_1_1cnmf_1_1deconvolution.html#a0dd508a8cc717626fa4c45d0a5c08bfd" target="_top" xlink:title="Solves the deconvolution problem using the cvxpy package and the ECOS/SCS library. ">
<polygon fill="white" stroke="black" points="465,-421 465,-451 713,-451 713,-421 465,-421"/>
<text text-anchor="start" x="473" y="-439" font-family="Helvetica,sans-Serif" font-size="10.00">caiman.source_extraction.cnmf.deconvolution.cvxpy</text>
<text text-anchor="middle" x="589" y="-428" font-family="Helvetica,sans-Serif" font-size="10.00">_foopsi</text>
</a>
</g>
</g>
<!-- Node1&#45;&gt;Node8 -->
<g id="edge9" class="edge"><title>Node1&#45;&gt;Node8</title>
<path fill="none" stroke="midnightblue" d="M416.438,-436C429.135,-436 441.993,-436 454.661,-436"/>
<polygon fill="midnightblue" stroke="midnightblue" points="454.773,-439.5 464.773,-436 454.773,-432.5 454.773,-439.5"/>
</g>
<!-- Node9 -->
<g id="node10" class="node"><title>Node9</title>
<g id="a_node10"><a xlink:href="namespacecaiman_1_1source__extraction_1_1cnmf_1_1deconvolution.html#a5753e123f06d6f8a5f53e8f1cc50baba" target="_top" xlink:title="Infer the most likely discretized spike train underlying an AR(2) fluorescence trace. ">
<polygon fill="white" stroke="black" points="452,-372 452,-402 726,-402 726,-372 452,-372"/>
<text text-anchor="start" x="460" y="-390" font-family="Helvetica,sans-Serif" font-size="10.00">caiman.source_extraction.cnmf.deconvolution.constrained</text>
<text text-anchor="middle" x="589" y="-379" font-family="Helvetica,sans-Serif" font-size="10.00">_oasisAR2</text>
</a>
</g>
</g>
<!-- Node1&#45;&gt;Node9 -->
<g id="edge10" class="edge"><title>Node1&#45;&gt;Node9</title>
<path fill="none" stroke="midnightblue" d="M374.503,-420.965C408.945,-415.486 448.079,-409.26 483.351,-403.649"/>
<polygon fill="midnightblue" stroke="midnightblue" points="484.35,-407.034 493.675,-402.006 483.25,-400.121 484.35,-407.034"/>
</g>
<!-- Node3 -->
<g id="node4" class="node"><title>Node3</title>
<g id="a_node4"><a xlink:href="namespacecaiman_1_1source__extraction_1_1cnmf_1_1deconvolution.html#a16b9a254776edd0d9093ee35b1ef17a2" target="_top" xlink:title="Estimate noise power through the power spectral density over the range of large frequencies. ">
<polygon fill="white" stroke="black" points="1367,-458 1367,-488 1589,-488 1589,-458 1367,-458"/>
<text text-anchor="start" x="1375" y="-476" font-family="Helvetica,sans-Serif" font-size="10.00">caiman.source_extraction.cnmf.deconvolution.</text>
<text text-anchor="middle" x="1478" y="-465" font-family="Helvetica,sans-Serif" font-size="10.00">GetSn</text>
</a>
</g>
</g>
<!-- Node2&#45;&gt;Node3 -->
<g id="edge3" class="edge"><title>Node2&#45;&gt;Node3</title>
<path fill="none" stroke="midnightblue" d="M1022.25,-473C1122.03,-473 1259.06,-473 1356.56,-473"/>
<polygon fill="midnightblue" stroke="midnightblue" points="1356.75,-476.5 1366.75,-473 1356.75,-469.5 1356.75,-476.5"/>
</g>
<!-- Node4 -->
<g id="node5" class="node"><title>Node4</title>
<g id="a_node5"><a xlink:href="namespacecaiman_1_1source__extraction_1_1cnmf_1_1deconvolution.html#a7a73db2b3e0e88f4a5f30f80944c1319" target="_top" xlink:title="Estimate AR model parameters through the autocovariance function. ">
<polygon fill="white" stroke="black" points="1058,-414 1058,-444 1318,-444 1318,-414 1058,-414"/>
<text text-anchor="start" x="1066" y="-432" font-family="Helvetica,sans-Serif" font-size="10.00">caiman.source_extraction.cnmf.deconvolution.estimate</text>
<text text-anchor="middle" x="1188" y="-421" font-family="Helvetica,sans-Serif" font-size="10.00">_time_constant</text>
</a>
</g>
</g>
<!-- Node2&#45;&gt;Node4 -->
<g id="edge4" class="edge"><title>Node2&#45;&gt;Node4</title>
<path fill="none" stroke="midnightblue" d="M993.356,-457.981C1020.17,-453.968 1049.3,-449.609 1076.62,-445.519"/>
<polygon fill="midnightblue" stroke="midnightblue" points="1077.23,-448.968 1086.6,-444.026 1076.19,-442.045 1077.23,-448.968"/>
</g>
<!-- Node4&#45;&gt;Node3 -->
<g id="edge5" class="edge"><title>Node4&#45;&gt;Node3</title>
<path fill="none" stroke="midnightblue" d="M1287.31,-444.019C1313.46,-448.015 1341.86,-452.353 1368.52,-456.427"/>
<polygon fill="midnightblue" stroke="midnightblue" points="1368.23,-459.923 1378.65,-457.974 1369.29,-453.004 1368.23,-459.923"/>
</g>
<!-- Node5 -->
<g id="node6" class="node"><title>Node5</title>
<g id="a_node6"><a xlink:href="namespacecaiman_1_1source__extraction_1_1cnmf_1_1deconvolution.html#a458da977dee6e97910a1b006e899b309" target="_top" xlink:title="Compute the autocovariance of data at lag = &#45;maxlag:0:maxlag. ">
<polygon fill="white" stroke="black" points="1354,-419.5 1354,-438.5 1602,-438.5 1602,-419.5 1354,-419.5"/>
<text text-anchor="middle" x="1478" y="-426.5" font-family="Helvetica,sans-Serif" font-size="10.00">caiman.source_extraction.cnmf.deconvolution.axcov</text>
</a>
</g>
</g>
<!-- Node4&#45;&gt;Node5 -->
<g id="edge6" class="edge"><title>Node4&#45;&gt;Node5</title>
<path fill="none" stroke="midnightblue" d="M1318.26,-429C1326.66,-429 1335.12,-429 1343.54,-429"/>
<polygon fill="midnightblue" stroke="midnightblue" points="1343.78,-432.5 1353.78,-429 1343.78,-425.5 1343.78,-432.5"/>
</g>
<!-- Node6 -->
<g id="node7" class="node"><title>Node6</title>
<g id="a_node7"><a xlink:href="namespacecaiman_1_1source__extraction_1_1cnmf_1_1deconvolution.html#a8d83696f273bd0121651cf48a6b899ae" target="_top" xlink:title="Find exponent such that 2^exponent is equal to or greater than abs(value). ">
<polygon fill="white" stroke="black" points="1638.5,-419.5 1638.5,-438.5 1903.5,-438.5 1903.5,-419.5 1638.5,-419.5"/>
<text text-anchor="middle" x="1771" y="-426.5" font-family="Helvetica,sans-Serif" font-size="10.00">caiman.source_extraction.cnmf.deconvolution.nextpow2</text>
</a>
</g>
</g>
<!-- Node5&#45;&gt;Node6 -->
<g id="edge7" class="edge"><title>Node5&#45;&gt;Node6</title>
<path fill="none" stroke="midnightblue" d="M1602.41,-429C1610.98,-429 1619.66,-429 1628.32,-429"/>
<polygon fill="midnightblue" stroke="midnightblue" points="1628.47,-432.5 1638.47,-429 1628.47,-425.5 1628.47,-432.5"/>
</g>
<!-- Node9&#45;&gt;Node2 -->
<g id="edge15" class="edge"><title>Node9&#45;&gt;Node2</title>
<path fill="none" stroke="midnightblue" d="M699.93,-402.089C708.935,-404.856 717.74,-408.129 726,-412 744.859,-420.838 743.387,-432.655 762,-442 772.11,-447.076 783.089,-451.345 794.231,-454.93"/>
<polygon fill="midnightblue" stroke="midnightblue" points="793.461,-458.354 804.046,-457.908 795.493,-451.655 793.461,-458.354"/>
</g>
<!-- Node9&#45;&gt;Node4 -->
<g id="edge11" class="edge"><title>Node9&#45;&gt;Node4</title>
<path fill="none" stroke="midnightblue" d="M718.597,-402C733.225,-403.47 747.927,-404.843 762,-406 857.182,-413.827 964.584,-419.613 1047.61,-423.424"/>
<polygon fill="midnightblue" stroke="midnightblue" points="1047.46,-426.921 1057.61,-423.879 1047.78,-419.928 1047.46,-426.921"/>
</g>
<!-- Node10 -->
<g id="node11" class="node"><title>Node10</title>
<g id="a_node11"><a xlink:href="namespacecaiman_1_1source__extraction_1_1cnmf_1_1deconvolution.html#affae481e26d5e13bc6f62c6e643b63d5" target="_top" xlink:title="Infer the most likely discretized spike train underlying an AR(2) fluorescence trace. ">
<polygon fill="white" stroke="black" points="769,-377.5 769,-396.5 1015,-396.5 1015,-377.5 769,-377.5"/>
<text text-anchor="middle" x="892" y="-384.5" font-family="Helvetica,sans-Serif" font-size="10.00">caiman.source_extraction.cnmf.deconvolution.onnls</text>
</a>
</g>
</g>
<!-- Node9&#45;&gt;Node10 -->
<g id="edge12" class="edge"><title>Node9&#45;&gt;Node10</title>
<path fill="none" stroke="midnightblue" d="M726.409,-380.276C737.136,-380.236 747.959,-380.242 758.658,-380.294"/>
<polygon fill="midnightblue" stroke="midnightblue" points="758.848,-383.795 768.87,-380.358 758.892,-376.795 758.848,-383.795"/>
</g>
<!-- Node10&#45;&gt;Node9 -->
<g id="edge14" class="edge"><title>Node10&#45;&gt;Node9</title>
<path fill="none" stroke="midnightblue" d="M768.87,-393.642C758.273,-393.724 747.482,-393.759 736.716,-393.748"/>
<polygon fill="midnightblue" stroke="midnightblue" points="736.417,-390.247 726.409,-393.724 736.401,-397.247 736.417,-390.247"/>
</g>
<!-- Node11 -->
<g id="node12" class="node"><title>Node11</title>
<g id="a_node12"><a xlink:href="namespacecaiman_1_1source__extraction_1_1cnmf_1_1deconvolution.html#ad9f9b2ef0aad5c652f86bd8c7ae64bdd" target="_top" xlink:title="caiman.source_extraction.cnmf.deconvolution._nnls">
<polygon fill="white" stroke="black" points="1065,-375.5 1065,-394.5 1311,-394.5 1311,-375.5 1065,-375.5"/>
<text text-anchor="middle" x="1188" y="-382.5" font-family="Helvetica,sans-Serif" font-size="10.00">caiman.source_extraction.cnmf.deconvolution._nnls</text>
</a>
</g>
</g>
<!-- Node10&#45;&gt;Node11 -->
<g id="edge13" class="edge"><title>Node10&#45;&gt;Node11</title>
<path fill="none" stroke="midnightblue" d="M1015.13,-386.169C1028.2,-386.08 1041.55,-385.989 1054.73,-385.9"/>
<polygon fill="midnightblue" stroke="midnightblue" points="1054.8,-389.399 1064.78,-385.831 1054.76,-382.4 1054.8,-389.399"/>
</g>
<!-- Node13 -->
<g id="node14" class="node"><title>Node13</title>
<g id="a_node14"><a xlink:href="namespacecaiman_1_1mmapping.html#aa75ec735ea507b2ce7eb0e0bd33d2ba3" target="_top" xlink:title="Chunk matrix product between matrix and column vectors. ">
<polygon fill="white" stroke="black" points="522.5,-225 522.5,-255 655.5,-255 655.5,-225 522.5,-225"/>
<text text-anchor="start" x="530.5" y="-243" font-family="Helvetica,sans-Serif" font-size="10.00">caiman.mmapping.parallel</text>
<text text-anchor="middle" x="589" y="-232" font-family="Helvetica,sans-Serif" font-size="10.00">_dot_product</text>
</a>
</g>
</g>
<!-- Node12&#45;&gt;Node13 -->
<g id="edge17" class="edge"><title>Node12&#45;&gt;Node13</title>
<path fill="none" stroke="midnightblue" d="M374.503,-273.965C418.774,-266.922 470.798,-258.646 512.406,-252.026"/>
<polygon fill="midnightblue" stroke="midnightblue" points="513.15,-255.452 522.476,-250.424 512.05,-248.539 513.15,-255.452"/>
</g>
<!-- Node17 -->
<g id="node18" class="node"><title>Node17</title>
<g id="a_node18"><a xlink:href="namespacecaiman_1_1source__extraction_1_1cnmf_1_1utilities.html#aa1b3d1b8495a6d9dcecf91484544babb" target="_top" xlink:title="Determines the update order of the temporal components. ">
<polygon fill="white" stroke="black" points="478,-323 478,-353 700,-353 700,-323 478,-323"/>
<text text-anchor="start" x="486" y="-341" font-family="Helvetica,sans-Serif" font-size="10.00">caiman.source_extraction.cnmf.utilities.update</text>
<text text-anchor="middle" x="589" y="-330" font-family="Helvetica,sans-Serif" font-size="10.00">_order_greedy</text>
</a>
</g>
</g>
<!-- Node12&#45;&gt;Node17 -->
<g id="edge21" class="edge"><title>Node12&#45;&gt;Node17</title>
<path fill="none" stroke="midnightblue" d="M374.503,-304.035C408.945,-309.514 448.079,-315.74 483.351,-321.351"/>
<polygon fill="midnightblue" stroke="midnightblue" points="483.25,-324.879 493.675,-322.994 484.35,-317.966 483.25,-324.879"/>
</g>
<!-- Node18 -->
<g id="node19" class="node"><title>Node18</title>
<g id="a_node19"><a xlink:href="namespacecaiman_1_1source__extraction_1_1cnmf_1_1temporal.html#a89ac8f2ed05b17a8f7becca80506532a" target="_top" xlink:title="Update temporal components and background given spatial components using a block coordinate descent a...">
<polygon fill="white" stroke="black" points="474,-274 474,-304 704,-304 704,-274 474,-274"/>
<text text-anchor="start" x="482" y="-292" font-family="Helvetica,sans-Serif" font-size="10.00">caiman.source_extraction.cnmf.temporal.update</text>
<text text-anchor="middle" x="589" y="-281" font-family="Helvetica,sans-Serif" font-size="10.00">_iteration</text>
</a>
</g>
</g>
<!-- Node12&#45;&gt;Node18 -->
<g id="edge22" class="edge"><title>Node12&#45;&gt;Node18</title>
<path fill="none" stroke="midnightblue" d="M394.25,-289C416.918,-289 440.819,-289 463.8,-289"/>
<polygon fill="midnightblue" stroke="midnightblue" points="463.934,-292.5 473.934,-289 463.934,-285.5 463.934,-292.5"/>
</g>
<!-- Node14 -->
<g id="node15" class="node"><title>Node14</title>
<g id="a_node15"><a xlink:href="namespacecaiman_1_1mmapping.html#a14d47c076020d7d3adf2599ed3354e4b" target="_top" xlink:title="caiman.mmapping.dot\l_place_holder">
<polygon fill="white" stroke="black" points="834.5,-205 834.5,-235 949.5,-235 949.5,-205 834.5,-205"/>
<text text-anchor="start" x="842.5" y="-223" font-family="Helvetica,sans-Serif" font-size="10.00">caiman.mmapping.dot</text>
<text text-anchor="middle" x="892" y="-212" font-family="Helvetica,sans-Serif" font-size="10.00">_place_holder</text>
</a>
</g>
</g>
<!-- Node13&#45;&gt;Node14 -->
<g id="edge18" class="edge"><title>Node13&#45;&gt;Node14</title>
<path fill="none" stroke="midnightblue" d="M655.684,-235.636C705.528,-232.324 773.801,-227.787 823.972,-224.454"/>
<polygon fill="midnightblue" stroke="midnightblue" points="824.326,-227.938 834.072,-223.783 823.862,-220.953 824.326,-227.938"/>
</g>
<!-- Node15 -->
<g id="node16" class="node"><title>Node15</title>
<g id="a_node16"><a xlink:href="namespacecaiman_1_1mmapping.html#aeb2ed62e4a9028089a2eec09d392707f" target="_top" xlink:title="Load a memory mapped file created by the function save_memmap. ">
<polygon fill="white" stroke="black" points="1128,-149 1128,-179 1248,-179 1248,-149 1128,-149"/>
<text text-anchor="start" x="1136" y="-167" font-family="Helvetica,sans-Serif" font-size="10.00">caiman.mmapping.load</text>
<text text-anchor="middle" x="1188" y="-156" font-family="Helvetica,sans-Serif" font-size="10.00">_memmap</text>
</a>
</g>
</g>
<!-- Node14&#45;&gt;Node15 -->
<g id="edge19" class="edge"><title>Node14&#45;&gt;Node15</title>
<path fill="none" stroke="midnightblue" d="M949.686,-209.203C997.711,-200.055 1066.73,-186.908 1117.97,-177.149"/>
<polygon fill="midnightblue" stroke="midnightblue" points="1118.8,-180.553 1127.97,-175.244 1117.49,-173.677 1118.8,-180.553"/>
</g>
<!-- Node16 -->
<g id="node17" class="node"><title>Node16</title>
<g id="a_node17"><a xlink:href="namespacecaiman_1_1mmapping.html#ad949509ed734151b99d635a4264a59ad" target="_top" xlink:title="Create several memory mapped files using parallel processing. ">
<polygon fill="white" stroke="black" points="1417,-149 1417,-179 1539,-179 1539,-149 1417,-149"/>
<text text-anchor="start" x="1425" y="-167" font-family="Helvetica,sans-Serif" font-size="10.00">caiman.mmapping.save</text>
<text text-anchor="middle" x="1478" y="-156" font-family="Helvetica,sans-Serif" font-size="10.00">_memmap_each</text>
</a>
</g>
</g>
<!-- Node15&#45;&gt;Node16 -->
<g id="edge20" class="edge"><title>Node15&#45;&gt;Node16</title>
<path fill="none" stroke="midnightblue" d="M1248.32,-164C1294.29,-164 1358.11,-164 1406.65,-164"/>
<polygon fill="midnightblue" stroke="midnightblue" points="1406.76,-167.5 1416.76,-164 1406.76,-160.5 1406.76,-167.5"/>
</g>
<!-- Node19&#45;&gt;Node13 -->
<g id="edge30" class="edge"><title>Node19&#45;&gt;Node13</title>
<path fill="none" stroke="midnightblue" d="M315.664,-167.08C350.055,-181.137 403.834,-201.854 452,-215 471.416,-220.299 492.701,-224.809 512.548,-228.478"/>
<polygon fill="midnightblue" stroke="midnightblue" points="512.006,-231.936 522.468,-230.265 513.247,-225.047 512.006,-231.936"/>
</g>
<!-- Node20 -->
<g id="node21" class="node"><title>Node20</title>
<g id="a_node21"><a xlink:href="namespacecaiman_1_1source__extraction_1_1cnmf_1_1spatial.html#a618870d89b38009e6444a12357a31d3d" target="_top" xlink:title="test the shape of each matrix, reshape them, test the number of pixel per process ...">
<polygon fill="white" stroke="black" points="486.5,-186.5 486.5,-205.5 691.5,-205.5 691.5,-186.5 486.5,-186.5"/>
<text text-anchor="middle" x="589" y="-193.5" font-family="Helvetica,sans-Serif" font-size="10.00">caiman.source_extraction.cnmf.spatial.test</text>
</a>
</g>
</g>
<!-- Node19&#45;&gt;Node20 -->
<g id="edge24" class="edge"><title>Node19&#45;&gt;Node20</title>
<path fill="none" stroke="midnightblue" d="M385.135,-167.019C426.568,-172.938 473.265,-179.609 511.404,-185.058"/>
<polygon fill="midnightblue" stroke="midnightblue" points="511.019,-188.538 521.413,-186.488 512.009,-181.608 511.019,-188.538"/>
</g>
<!-- Node21 -->
<g id="node22" class="node"><title>Node21</title>
<g id="a_node22"><a xlink:href="namespacecaiman_1_1source__extraction_1_1cnmf_1_1spatial.html#aecc215caf3e87682f452e93ca491a477" target="_top" xlink:title="compute the indices of the distance from the cm to search for the spatial component (calling determin...">
<polygon fill="white" stroke="black" points="471.5,-137 471.5,-167 706.5,-167 706.5,-137 471.5,-137"/>
<text text-anchor="start" x="479.5" y="-155" font-family="Helvetica,sans-Serif" font-size="10.00">caiman.source_extraction.cnmf.spatial.computing</text>
<text text-anchor="middle" x="589" y="-144" font-family="Helvetica,sans-Serif" font-size="10.00">_indicator</text>
</a>
</g>
</g>
<!-- Node19&#45;&gt;Node21 -->
<g id="edge25" class="edge"><title>Node19&#45;&gt;Node21</title>
<path fill="none" stroke="midnightblue" d="M389.023,-152C412.341,-152 437.168,-152 461.094,-152"/>
<polygon fill="midnightblue" stroke="midnightblue" points="461.286,-155.5 471.286,-152 461.286,-148.5 461.286,-155.5"/>
</g>
<!-- Node23 -->
<g id="node24" class="node"><title>Node23</title>
<g id="a_node24"><a xlink:href="namespacecaiman_1_1source__extraction_1_1cnmf_1_1spatial.html#a894e2773dd1e79c2efac3c759ff2fe9c" target="_top" xlink:title="memmap the C and Y objects in parallel ">
<polygon fill="white" stroke="black" points="762.5,-98.5 762.5,-117.5 1021.5,-117.5 1021.5,-98.5 762.5,-98.5"/>
<text text-anchor="middle" x="892" y="-105.5" font-family="Helvetica,sans-Serif" font-size="10.00">caiman.source_extraction.cnmf.spatial.creatememmap</text>
</a>
</g>
</g>
<!-- Node19&#45;&gt;Node23 -->
<g id="edge27" class="edge"><title>Node19&#45;&gt;Node23</title>
<path fill="none" stroke="midnightblue" d="M371.289,-136.979C397.302,-133.176 425.713,-129.473 452,-127 552.09,-117.584 665.465,-112.828 751.923,-110.428"/>
<polygon fill="midnightblue" stroke="midnightblue" points="752.162,-113.923 762.064,-110.154 751.973,-106.926 752.162,-113.923"/>
</g>
<!-- Node24 -->
<g id="node25" class="node"><title>Node24</title>
<g id="a_node25"><a xlink:href="namespacecaiman_1_1source__extraction_1_1cnmf_1_1spatial.html#a3fa5db8c88b06457233eb35dbcea3588" target="_top" xlink:title="Post&#45;processing of spatial components which includes the following steps. ">
<polygon fill="white" stroke="black" points="474,-49 474,-79 704,-79 704,-49 474,-49"/>
<text text-anchor="start" x="482" y="-67" font-family="Helvetica,sans-Serif" font-size="10.00">caiman.source_extraction.cnmf.spatial.threshold</text>
<text text-anchor="middle" x="589" y="-56" font-family="Helvetica,sans-Serif" font-size="10.00">_components</text>
</a>
</g>
</g>
<!-- Node19&#45;&gt;Node24 -->
<g id="edge29" class="edge"><title>Node19&#45;&gt;Node24</title>
<path fill="none" stroke="midnightblue" d="M320.622,-136.915C355.234,-124.398 406.458,-106.662 452,-94 468.358,-89.4522 485.974,-85.1422 502.927,-81.2817"/>
<polygon fill="midnightblue" stroke="midnightblue" points="503.827,-84.6669 512.818,-79.0622 502.295,-77.8367 503.827,-84.6669"/>
</g>
<!-- Node25 -->
<g id="node26" class="node"><title>Node25</title>
<g id="a_node26"><a xlink:href="namespacecaiman_1_1source__extraction_1_1cnmf_1_1spatial.html#abc0875894e963dbd4b5b2adaf587421e" target="_top" xlink:title="caiman.source_extraction.cnmf.spatial.\lHALS4shape_bckgrnd">
<polygon fill="white" stroke="black" points="494.5,-0 494.5,-30 683.5,-30 683.5,-0 494.5,-0"/>
<text text-anchor="start" x="502.5" y="-18" font-family="Helvetica,sans-Serif" font-size="10.00">caiman.source_extraction.cnmf.spatial.</text>
<text text-anchor="middle" x="589" y="-7" font-family="Helvetica,sans-Serif" font-size="10.00">HALS4shape_bckgrnd</text>
</a>
</g>
</g>
<!-- Node19&#45;&gt;Node25 -->
<g id="edge31" class="edge"><title>Node19&#45;&gt;Node25</title>
<path fill="none" stroke="midnightblue" d="M297.693,-136.775C327.425,-112.064 390.235,-63.5244 452,-39 462.341,-34.894 473.402,-31.488 484.582,-28.6631"/>
<polygon fill="midnightblue" stroke="midnightblue" points="485.501,-32.0423 494.422,-26.3272 483.884,-25.2315 485.501,-32.0423"/>
</g>
<!-- Node22 -->
<g id="node23" class="node"><title>Node22</title>
<g id="a_node23"><a xlink:href="namespacecaiman_1_1source__extraction_1_1cnmf_1_1spatial.html#aca0edbf4c2cd31fe1a9c228c4099a485" target="_top" xlink:title="compute the indices of the distance from the cm to search for the spatial component ...">
<polygon fill="white" stroke="black" points="775,-137 775,-167 1009,-167 1009,-137 775,-137"/>
<text text-anchor="start" x="783" y="-155" font-family="Helvetica,sans-Serif" font-size="10.00">caiman.source_extraction.cnmf.spatial.determine</text>
<text text-anchor="middle" x="892" y="-144" font-family="Helvetica,sans-Serif" font-size="10.00">_search_location</text>
</a>
</g>
</g>
<!-- Node21&#45;&gt;Node22 -->
<g id="edge26" class="edge"><title>Node21&#45;&gt;Node22</title>
<path fill="none" stroke="midnightblue" d="M706.805,-152C725.716,-152 745.374,-152 764.502,-152"/>
<polygon fill="midnightblue" stroke="midnightblue" points="764.756,-155.5 774.756,-152 764.756,-148.5 764.756,-155.5"/>
</g>
<!-- Node23&#45;&gt;Node15 -->
<g id="edge28" class="edge"><title>Node23&#45;&gt;Node15</title>
<path fill="none" stroke="midnightblue" d="M964.128,-117.509C982.988,-120.294 1003.3,-123.532 1022,-127 1053.64,-132.869 1088.43,-140.495 1117.88,-147.298"/>
<polygon fill="midnightblue" stroke="midnightblue" points="1117.12,-150.714 1127.65,-149.57 1118.7,-143.895 1117.12,-150.714"/>
</g>
</g>
</svg>
