<?xml version="1.0" encoding="UTF-8" standalone="no"?>
<!DOCTYPE svg PUBLIC "-//W3C//DTD SVG 1.1//EN"
 "http://www.w3.org/Graphics/SVG/1.1/DTD/svg11.dtd">
<!-- Generated by graphviz version 2.36.0 (20140111.2315)
 -->
<!-- Title: extract_binary_masks_blob_parallel_place_holder Pages: 1 -->
<svg width="446pt" height="50pt"
 viewBox="0.00 0.00 446.00 50.00" xmlns="http://www.w3.org/2000/svg" xmlns:xlink="http://www.w3.org/1999/xlink">
<g id="graph0" class="graph" transform="scale(1 1) rotate(0) translate(4 46)">
<title>extract_binary_masks_blob_parallel_place_holder</title>
<polygon fill="white" stroke="none" points="-4,4 -4,-46 442,-46 442,4 -4,4"/>
<!-- Node29 -->
<g id="node1" class="node"><title>Node29</title>
<polygon fill="#bfbfbf" stroke="black" points="0,-0.5 0,-41.5 114,-41.5 114,-0.5 0,-0.5"/>
<text text-anchor="start" x="8" y="-29.5" font-family="Helvetica,sans-Serif" font-size="10.00">extract_binary_masks</text>
<text text-anchor="start" x="8" y="-18.5" font-family="Helvetica,sans-Serif" font-size="10.00">_blob_parallel_place</text>
<text text-anchor="middle" x="57" y="-7.5" font-family="Helvetica,sans-Serif" font-size="10.00">_holder</text>
</g>
<!-- Node30 -->
<g id="node2" class="node"><title>Node30</title>
<g id="a_node2"><a xlink:href="namespacecaiman_1_1base_1_1rois.html#a6c407af6009f8ede225fa785d6bfc040" target="_top" xlink:title="Function to extract masks from data. ">
<polygon fill="white" stroke="black" points="150,-11.5 150,-30.5 288,-30.5 288,-11.5 150,-11.5"/>
<text text-anchor="middle" x="219" y="-18.5" font-family="Helvetica,sans-Serif" font-size="10.00">extract_binary_masks_blob</text>
</a>
</g>
</g>
<!-- Node29&#45;&gt;Node30 -->
<g id="edge1" class="edge"><title>Node29&#45;&gt;Node30</title>
<path fill="none" stroke="midnightblue" d="M114.41,-21C122.623,-21 131.2,-21 139.75,-21"/>
<polygon fill="midnightblue" stroke="midnightblue" points="139.751,-24.5001 149.751,-21 139.751,-17.5001 139.751,-24.5001"/>
</g>
<!-- Node31 -->
<g id="node3" class="node"><title>Node31</title>
<g id="a_node3"><a xlink:href="namespacecaiman_1_1base_1_1rois.html#a63d291a9e615c3c0d2c281bc50465b19" target="_top" xlink:title="extract_binary_masks\l_blob_parallel">
<polygon fill="white" stroke="black" points="324,-6 324,-36 438,-36 438,-6 324,-6"/>
<text text-anchor="start" x="332" y="-24" font-family="Helvetica,sans-Serif" font-size="10.00">extract_binary_masks</text>
<text text-anchor="middle" x="381" y="-13" font-family="Helvetica,sans-Serif" font-size="10.00">_blob_parallel</text>
</a>
</g>
</g>
<!-- Node30&#45;&gt;Node31 -->
<g id="edge2" class="edge"><title>Node30&#45;&gt;Node31</title>
<path fill="none" stroke="midnightblue" d="M288.319,-21C296.772,-21 305.404,-21 313.825,-21"/>
<polygon fill="midnightblue" stroke="midnightblue" points="313.966,-24.5001 323.966,-21 313.966,-17.5001 313.966,-24.5001"/>
</g>
</g>
</svg>
