<?xml version="1.0" encoding="UTF-8" standalone="no"?>
<!DOCTYPE svg PUBLIC "-//W3C//DTD SVG 1.1//EN"
 "http://www.w3.org/Graphics/SVG/1.1/DTD/svg11.dtd">
<!-- Generated by graphviz version 2.36.0 (20140111.2315)
 -->
<!-- Title: merge_components Pages: 1 -->
<svg width="1912pt" height="483pt"
 viewBox="0.00 0.00 1912.00 482.70" xmlns="http://www.w3.org/2000/svg" xmlns:xlink="http://www.w3.org/1999/xlink">
<g id="graph0" class="graph" transform="scale(1 1) rotate(0) translate(4 478.7)">
<title>merge_components</title>
<polygon fill="white" stroke="none" points="-4,4 -4,-478.7 1908,-478.7 1908,4 -4,4"/>
<!-- Node0 -->
<g id="node1" class="node"><title>Node0</title>
<polygon fill="#bfbfbf" stroke="black" points="0.5,-230.5 0.5,-249.5 105.5,-249.5 105.5,-230.5 0.5,-230.5"/>
<text text-anchor="middle" x="53" y="-237.5" font-family="Helvetica,sans-Serif" font-size="10.00">merge_components</text>
</g>
<!-- Node1 -->
<g id="node2" class="node"><title>Node1</title>
<g id="a_node2"><a xlink:href="namespacecaiman_1_1source__extraction_1_1cnmf_1_1deconvolution.html#a0afb63d84485a181bb40f2eefe7b581e" target="_top" xlink:title="Infer the most likely discretized spike train underlying a fluorescence trace. ">
<polygon fill="white" stroke="black" points="142,-372 142,-402 416,-402 416,-372 142,-372"/>
<text text-anchor="start" x="150" y="-390" font-family="Helvetica,sans-Serif" font-size="10.00">caiman.source_extraction.cnmf.deconvolution.constrained</text>
<text text-anchor="middle" x="279" y="-379" font-family="Helvetica,sans-Serif" font-size="10.00">_foopsi</text>
</a>
</g>
</g>
<!-- Node0&#45;&gt;Node1 -->
<g id="edge1" class="edge"><title>Node0&#45;&gt;Node1</title>
<path fill="none" stroke="midnightblue" d="M68.6973,-249.645C104.524,-273.156 197.016,-333.854 246.18,-366.118"/>
<polygon fill="midnightblue" stroke="midnightblue" points="244.552,-369.236 254.832,-371.796 248.392,-363.384 244.552,-369.236"/>
</g>
<!-- Node12 -->
<g id="node13" class="node"><title>Node12</title>
<g id="a_node13"><a xlink:href="namespacecaiman_1_1source__extraction_1_1cnmf_1_1temporal.html#ac3279e405da3b8cc2e4a21b68320971c" target="_top" xlink:title="Update temporal components and background given spatial components using a block coordinate descent a...">
<polygon fill="white" stroke="black" points="164,-225 164,-255 394,-255 394,-225 164,-225"/>
<text text-anchor="start" x="172" y="-243" font-family="Helvetica,sans-Serif" font-size="10.00">caiman.source_extraction.cnmf.temporal.update</text>
<text text-anchor="middle" x="279" y="-232" font-family="Helvetica,sans-Serif" font-size="10.00">_temporal_components</text>
</a>
</g>
</g>
<!-- Node0&#45;&gt;Node12 -->
<g id="edge16" class="edge"><title>Node0&#45;&gt;Node12</title>
<path fill="none" stroke="midnightblue" d="M105.671,-240C120.116,-240 136.469,-240 153.208,-240"/>
<polygon fill="midnightblue" stroke="midnightblue" points="153.667,-243.5 163.667,-240 153.667,-236.5 153.667,-243.5"/>
</g>
<!-- Node19 -->
<g id="node20" class="node"><title>Node19</title>
<g id="a_node20"><a xlink:href="namespacecaiman_1_1source__extraction_1_1cnmf_1_1spatial.html#ac4b406f52054893ed2518a761921d4f4" target="_top" xlink:title="update spatial footprints and background through Basis Pursuit Denoising ">
<polygon fill="white" stroke="black" points="169,-110 169,-140 389,-140 389,-110 169,-110"/>
<text text-anchor="start" x="177" y="-128" font-family="Helvetica,sans-Serif" font-size="10.00">caiman.source_extraction.cnmf.spatial.update</text>
<text text-anchor="middle" x="279" y="-117" font-family="Helvetica,sans-Serif" font-size="10.00">_spatial_components</text>
</a>
</g>
</g>
<!-- Node0&#45;&gt;Node19 -->
<g id="edge23" class="edge"><title>Node0&#45;&gt;Node19</title>
<path fill="none" stroke="midnightblue" d="M72.7128,-230.393C109.361,-211.578 191.244,-169.54 239.793,-144.615"/>
<polygon fill="midnightblue" stroke="midnightblue" points="241.446,-147.701 248.744,-140.02 238.249,-141.474 241.446,-147.701"/>
</g>
<!-- Node2 -->
<g id="node3" class="node"><title>Node2</title>
<g id="a_node3"><a xlink:href="namespacecaiman_1_1source__extraction_1_1cnmf_1_1deconvolution.html#a7199190b4f33e4a70dedc9deea7e4c45" target="_top" xlink:title="Estimate noise standard deviation and AR coefficients if they are not present. ">
<polygon fill="white" stroke="black" points="762,-409 762,-439 1022,-439 1022,-409 762,-409"/>
<text text-anchor="start" x="770" y="-427" font-family="Helvetica,sans-Serif" font-size="10.00">caiman.source_extraction.cnmf.deconvolution.estimate</text>
<text text-anchor="middle" x="892" y="-416" font-family="Helvetica,sans-Serif" font-size="10.00">_parameters</text>
</a>
</g>
</g>
<!-- Node1&#45;&gt;Node2 -->
<g id="edge2" class="edge"><title>Node1&#45;&gt;Node2</title>
<path fill="none" stroke="midnightblue" d="M306.316,-402.142C339.16,-420.086 397.642,-448.942 452,-460 571.334,-484.276 604.924,-473.055 726,-460 759.392,-456.4 795.938,-448.813 826.129,-441.529"/>
<polygon fill="midnightblue" stroke="midnightblue" points="827.234,-444.861 836.11,-439.076 825.564,-438.064 827.234,-444.861"/>
</g>
<!-- Node7 -->
<g id="node8" class="node"><title>Node7</title>
<g id="a_node8"><a xlink:href="namespacecaiman_1_1source__extraction_1_1cnmf_1_1deconvolution.html#a04aa84702e9977187b4ac0ba95891fb6" target="_top" xlink:title="Solve the deconvolution problem using cvxopt and picos packages. ">
<polygon fill="white" stroke="black" points="463.5,-421 463.5,-451 714.5,-451 714.5,-421 463.5,-421"/>
<text text-anchor="start" x="471.5" y="-439" font-family="Helvetica,sans-Serif" font-size="10.00">caiman.source_extraction.cnmf.deconvolution.cvxopt</text>
<text text-anchor="middle" x="589" y="-428" font-family="Helvetica,sans-Serif" font-size="10.00">_foopsi</text>
</a>
</g>
</g>
<!-- Node1&#45;&gt;Node7 -->
<g id="edge8" class="edge"><title>Node1&#45;&gt;Node7</title>
<path fill="none" stroke="midnightblue" d="M374.503,-402.035C408.945,-407.514 448.079,-413.74 483.351,-419.351"/>
<polygon fill="midnightblue" stroke="midnightblue" points="483.25,-422.879 493.675,-420.994 484.35,-415.966 483.25,-422.879"/>
</g>
<!-- Node8 -->
<g id="node9" class="node"><title>Node8</title>
<g id="a_node9"><a xlink:href="namespacecaiman_1_1source__extraction_1_1cnmf_1_1deconvolution.html#a0dd508a8cc717626fa4c45d0a5c08bfd" target="_top" xlink:title="Solves the deconvolution problem using the cvxpy package and the ECOS/SCS library. ">
<polygon fill="white" stroke="black" points="465,-372 465,-402 713,-402 713,-372 465,-372"/>
<text text-anchor="start" x="473" y="-390" font-family="Helvetica,sans-Serif" font-size="10.00">caiman.source_extraction.cnmf.deconvolution.cvxpy</text>
<text text-anchor="middle" x="589" y="-379" font-family="Helvetica,sans-Serif" font-size="10.00">_foopsi</text>
</a>
</g>
</g>
<!-- Node1&#45;&gt;Node8 -->
<g id="edge9" class="edge"><title>Node1&#45;&gt;Node8</title>
<path fill="none" stroke="midnightblue" d="M416.438,-387C429.135,-387 441.993,-387 454.661,-387"/>
<polygon fill="midnightblue" stroke="midnightblue" points="454.773,-390.5 464.773,-387 454.773,-383.5 454.773,-390.5"/>
</g>
<!-- Node9 -->
<g id="node10" class="node"><title>Node9</title>
<g id="a_node10"><a xlink:href="namespacecaiman_1_1source__extraction_1_1cnmf_1_1deconvolution.html#a5753e123f06d6f8a5f53e8f1cc50baba" target="_top" xlink:title="Infer the most likely discretized spike train underlying an AR(2) fluorescence trace. ">
<polygon fill="white" stroke="black" points="452,-323 452,-353 726,-353 726,-323 452,-323"/>
<text text-anchor="start" x="460" y="-341" font-family="Helvetica,sans-Serif" font-size="10.00">caiman.source_extraction.cnmf.deconvolution.constrained</text>
<text text-anchor="middle" x="589" y="-330" font-family="Helvetica,sans-Serif" font-size="10.00">_oasisAR2</text>
</a>
</g>
</g>
<!-- Node1&#45;&gt;Node9 -->
<g id="edge10" class="edge"><title>Node1&#45;&gt;Node9</title>
<path fill="none" stroke="midnightblue" d="M374.503,-371.965C408.945,-366.486 448.079,-360.26 483.351,-354.649"/>
<polygon fill="midnightblue" stroke="midnightblue" points="484.35,-358.034 493.675,-353.006 483.25,-351.121 484.35,-358.034"/>
</g>
<!-- Node3 -->
<g id="node4" class="node"><title>Node3</title>
<g id="a_node4"><a xlink:href="namespacecaiman_1_1source__extraction_1_1cnmf_1_1deconvolution.html#a16b9a254776edd0d9093ee35b1ef17a2" target="_top" xlink:title="Estimate noise power through the power spectral density over the range of large frequencies. ">
<polygon fill="white" stroke="black" points="1367,-409 1367,-439 1589,-439 1589,-409 1367,-409"/>
<text text-anchor="start" x="1375" y="-427" font-family="Helvetica,sans-Serif" font-size="10.00">caiman.source_extraction.cnmf.deconvolution.</text>
<text text-anchor="middle" x="1478" y="-416" font-family="Helvetica,sans-Serif" font-size="10.00">GetSn</text>
</a>
</g>
</g>
<!-- Node2&#45;&gt;Node3 -->
<g id="edge3" class="edge"><title>Node2&#45;&gt;Node3</title>
<path fill="none" stroke="midnightblue" d="M1022.25,-424C1122.03,-424 1259.06,-424 1356.56,-424"/>
<polygon fill="midnightblue" stroke="midnightblue" points="1356.75,-427.5 1366.75,-424 1356.75,-420.5 1356.75,-427.5"/>
</g>
<!-- Node4 -->
<g id="node5" class="node"><title>Node4</title>
<g id="a_node5"><a xlink:href="namespacecaiman_1_1source__extraction_1_1cnmf_1_1deconvolution.html#a7a73db2b3e0e88f4a5f30f80944c1319" target="_top" xlink:title="Estimate AR model parameters through the autocovariance function. ">
<polygon fill="white" stroke="black" points="1058,-365 1058,-395 1318,-395 1318,-365 1058,-365"/>
<text text-anchor="start" x="1066" y="-383" font-family="Helvetica,sans-Serif" font-size="10.00">caiman.source_extraction.cnmf.deconvolution.estimate</text>
<text text-anchor="middle" x="1188" y="-372" font-family="Helvetica,sans-Serif" font-size="10.00">_time_constant</text>
</a>
</g>
</g>
<!-- Node2&#45;&gt;Node4 -->
<g id="edge4" class="edge"><title>Node2&#45;&gt;Node4</title>
<path fill="none" stroke="midnightblue" d="M993.356,-408.981C1020.17,-404.968 1049.3,-400.609 1076.62,-396.519"/>
<polygon fill="midnightblue" stroke="midnightblue" points="1077.23,-399.968 1086.6,-395.026 1076.19,-393.045 1077.23,-399.968"/>
</g>
<!-- Node4&#45;&gt;Node3 -->
<g id="edge5" class="edge"><title>Node4&#45;&gt;Node3</title>
<path fill="none" stroke="midnightblue" d="M1287.31,-395.019C1313.46,-399.015 1341.86,-403.353 1368.52,-407.427"/>
<polygon fill="midnightblue" stroke="midnightblue" points="1368.23,-410.923 1378.65,-408.974 1369.29,-404.004 1368.23,-410.923"/>
</g>
<!-- Node5 -->
<g id="node6" class="node"><title>Node5</title>
<g id="a_node6"><a xlink:href="namespacecaiman_1_1source__extraction_1_1cnmf_1_1deconvolution.html#a458da977dee6e97910a1b006e899b309" target="_top" xlink:title="Compute the autocovariance of data at lag = &#45;maxlag:0:maxlag. ">
<polygon fill="white" stroke="black" points="1354,-370.5 1354,-389.5 1602,-389.5 1602,-370.5 1354,-370.5"/>
<text text-anchor="middle" x="1478" y="-377.5" font-family="Helvetica,sans-Serif" font-size="10.00">caiman.source_extraction.cnmf.deconvolution.axcov</text>
</a>
</g>
</g>
<!-- Node4&#45;&gt;Node5 -->
<g id="edge6" class="edge"><title>Node4&#45;&gt;Node5</title>
<path fill="none" stroke="midnightblue" d="M1318.26,-380C1326.66,-380 1335.12,-380 1343.54,-380"/>
<polygon fill="midnightblue" stroke="midnightblue" points="1343.78,-383.5 1353.78,-380 1343.78,-376.5 1343.78,-383.5"/>
</g>
<!-- Node6 -->
<g id="node7" class="node"><title>Node6</title>
<g id="a_node7"><a xlink:href="namespacecaiman_1_1source__extraction_1_1cnmf_1_1deconvolution.html#a8d83696f273bd0121651cf48a6b899ae" target="_top" xlink:title="Find exponent such that 2^exponent is equal to or greater than abs(value). ">
<polygon fill="white" stroke="black" points="1638.5,-370.5 1638.5,-389.5 1903.5,-389.5 1903.5,-370.5 1638.5,-370.5"/>
<text text-anchor="middle" x="1771" y="-377.5" font-family="Helvetica,sans-Serif" font-size="10.00">caiman.source_extraction.cnmf.deconvolution.nextpow2</text>
</a>
</g>
</g>
<!-- Node5&#45;&gt;Node6 -->
<g id="edge7" class="edge"><title>Node5&#45;&gt;Node6</title>
<path fill="none" stroke="midnightblue" d="M1602.41,-380C1610.98,-380 1619.66,-380 1628.32,-380"/>
<polygon fill="midnightblue" stroke="midnightblue" points="1628.47,-383.5 1638.47,-380 1628.47,-376.5 1628.47,-383.5"/>
</g>
<!-- Node9&#45;&gt;Node2 -->
<g id="edge15" class="edge"><title>Node9&#45;&gt;Node2</title>
<path fill="none" stroke="midnightblue" d="M699.93,-353.089C708.935,-355.856 717.74,-359.129 726,-363 744.859,-371.838 743.387,-383.655 762,-393 772.11,-398.076 783.089,-402.345 794.231,-405.93"/>
<polygon fill="midnightblue" stroke="midnightblue" points="793.461,-409.354 804.046,-408.908 795.493,-402.655 793.461,-409.354"/>
</g>
<!-- Node9&#45;&gt;Node4 -->
<g id="edge11" class="edge"><title>Node9&#45;&gt;Node4</title>
<path fill="none" stroke="midnightblue" d="M718.597,-353C733.225,-354.47 747.927,-355.843 762,-357 857.182,-364.827 964.584,-370.613 1047.61,-374.424"/>
<polygon fill="midnightblue" stroke="midnightblue" points="1047.46,-377.921 1057.61,-374.879 1047.78,-370.928 1047.46,-377.921"/>
</g>
<!-- Node10 -->
<g id="node11" class="node"><title>Node10</title>
<g id="a_node11"><a xlink:href="namespacecaiman_1_1source__extraction_1_1cnmf_1_1deconvolution.html#affae481e26d5e13bc6f62c6e643b63d5" target="_top" xlink:title="Infer the most likely discretized spike train underlying an AR(2) fluorescence trace. ">
<polygon fill="white" stroke="black" points="769,-328.5 769,-347.5 1015,-347.5 1015,-328.5 769,-328.5"/>
<text text-anchor="middle" x="892" y="-335.5" font-family="Helvetica,sans-Serif" font-size="10.00">caiman.source_extraction.cnmf.deconvolution.onnls</text>
</a>
</g>
</g>
<!-- Node9&#45;&gt;Node10 -->
<g id="edge12" class="edge"><title>Node9&#45;&gt;Node10</title>
<path fill="none" stroke="midnightblue" d="M726.409,-331.276C737.136,-331.236 747.959,-331.242 758.658,-331.294"/>
<polygon fill="midnightblue" stroke="midnightblue" points="758.848,-334.795 768.87,-331.358 758.892,-327.795 758.848,-334.795"/>
</g>
<!-- Node10&#45;&gt;Node9 -->
<g id="edge14" class="edge"><title>Node10&#45;&gt;Node9</title>
<path fill="none" stroke="midnightblue" d="M768.87,-344.642C758.273,-344.724 747.482,-344.759 736.716,-344.748"/>
<polygon fill="midnightblue" stroke="midnightblue" points="736.417,-341.247 726.409,-344.724 736.401,-348.247 736.417,-341.247"/>
</g>
<!-- Node11 -->
<g id="node12" class="node"><title>Node11</title>
<g id="a_node12"><a xlink:href="namespacecaiman_1_1source__extraction_1_1cnmf_1_1deconvolution.html#ad9f9b2ef0aad5c652f86bd8c7ae64bdd" target="_top" xlink:title="caiman.source_extraction.cnmf.deconvolution._nnls">
<polygon fill="white" stroke="black" points="1065,-326.5 1065,-345.5 1311,-345.5 1311,-326.5 1065,-326.5"/>
<text text-anchor="middle" x="1188" y="-333.5" font-family="Helvetica,sans-Serif" font-size="10.00">caiman.source_extraction.cnmf.deconvolution._nnls</text>
</a>
</g>
</g>
<!-- Node10&#45;&gt;Node11 -->
<g id="edge13" class="edge"><title>Node10&#45;&gt;Node11</title>
<path fill="none" stroke="midnightblue" d="M1015.13,-337.169C1028.2,-337.08 1041.55,-336.989 1054.73,-336.9"/>
<polygon fill="midnightblue" stroke="midnightblue" points="1054.8,-340.399 1064.78,-336.831 1054.76,-333.4 1054.8,-340.399"/>
</g>
<!-- Node13 -->
<g id="node14" class="node"><title>Node13</title>
<g id="a_node14"><a xlink:href="namespacecaiman_1_1mmapping.html#aa75ec735ea507b2ce7eb0e0bd33d2ba3" target="_top" xlink:title="Chunk matrix product between matrix and column vectors. ">
<polygon fill="white" stroke="black" points="522.5,-176 522.5,-206 655.5,-206 655.5,-176 522.5,-176"/>
<text text-anchor="start" x="530.5" y="-194" font-family="Helvetica,sans-Serif" font-size="10.00">caiman.mmapping.parallel</text>
<text text-anchor="middle" x="589" y="-183" font-family="Helvetica,sans-Serif" font-size="10.00">_dot_product</text>
</a>
</g>
</g>
<!-- Node12&#45;&gt;Node13 -->
<g id="edge17" class="edge"><title>Node12&#45;&gt;Node13</title>
<path fill="none" stroke="midnightblue" d="M374.503,-224.965C418.774,-217.922 470.798,-209.646 512.406,-203.026"/>
<polygon fill="midnightblue" stroke="midnightblue" points="513.15,-206.452 522.476,-201.424 512.05,-199.539 513.15,-206.452"/>
</g>
<!-- Node17 -->
<g id="node18" class="node"><title>Node17</title>
<g id="a_node18"><a xlink:href="namespacecaiman_1_1source__extraction_1_1cnmf_1_1utilities.html#aa1b3d1b8495a6d9dcecf91484544babb" target="_top" xlink:title="Determines the update order of the temporal components. ">
<polygon fill="white" stroke="black" points="478,-274 478,-304 700,-304 700,-274 478,-274"/>
<text text-anchor="start" x="486" y="-292" font-family="Helvetica,sans-Serif" font-size="10.00">caiman.source_extraction.cnmf.utilities.update</text>
<text text-anchor="middle" x="589" y="-281" font-family="Helvetica,sans-Serif" font-size="10.00">_order_greedy</text>
</a>
</g>
</g>
<!-- Node12&#45;&gt;Node17 -->
<g id="edge21" class="edge"><title>Node12&#45;&gt;Node17</title>
<path fill="none" stroke="midnightblue" d="M374.503,-255.035C408.945,-260.514 448.079,-266.74 483.351,-272.351"/>
<polygon fill="midnightblue" stroke="midnightblue" points="483.25,-275.879 493.675,-273.994 484.35,-268.966 483.25,-275.879"/>
</g>
<!-- Node18 -->
<g id="node19" class="node"><title>Node18</title>
<g id="a_node19"><a xlink:href="namespacecaiman_1_1source__extraction_1_1cnmf_1_1temporal.html#a89ac8f2ed05b17a8f7becca80506532a" target="_top" xlink:title="Update temporal components and background given spatial components using a block coordinate descent a...">
<polygon fill="white" stroke="black" points="474,-225 474,-255 704,-255 704,-225 474,-225"/>
<text text-anchor="start" x="482" y="-243" font-family="Helvetica,sans-Serif" font-size="10.00">caiman.source_extraction.cnmf.temporal.update</text>
<text text-anchor="middle" x="589" y="-232" font-family="Helvetica,sans-Serif" font-size="10.00">_iteration</text>
</a>
</g>
</g>
<!-- Node12&#45;&gt;Node18 -->
<g id="edge22" class="edge"><title>Node12&#45;&gt;Node18</title>
<path fill="none" stroke="midnightblue" d="M394.25,-240C416.918,-240 440.819,-240 463.8,-240"/>
<polygon fill="midnightblue" stroke="midnightblue" points="463.934,-243.5 473.934,-240 463.934,-236.5 463.934,-243.5"/>
</g>
<!-- Node14 -->
<g id="node15" class="node"><title>Node14</title>
<g id="a_node15"><a xlink:href="namespacecaiman_1_1mmapping.html#a14d47c076020d7d3adf2599ed3354e4b" target="_top" xlink:title="caiman.mmapping.dot\l_place_holder">
<polygon fill="white" stroke="black" points="834.5,-156 834.5,-186 949.5,-186 949.5,-156 834.5,-156"/>
<text text-anchor="start" x="842.5" y="-174" font-family="Helvetica,sans-Serif" font-size="10.00">caiman.mmapping.dot</text>
<text text-anchor="middle" x="892" y="-163" font-family="Helvetica,sans-Serif" font-size="10.00">_place_holder</text>
</a>
</g>
</g>
<!-- Node13&#45;&gt;Node14 -->
<g id="edge18" class="edge"><title>Node13&#45;&gt;Node14</title>
<path fill="none" stroke="midnightblue" d="M655.684,-186.636C705.528,-183.324 773.801,-178.787 823.972,-175.454"/>
<polygon fill="midnightblue" stroke="midnightblue" points="824.326,-178.938 834.072,-174.783 823.862,-171.953 824.326,-178.938"/>
</g>
<!-- Node15 -->
<g id="node16" class="node"><title>Node15</title>
<g id="a_node16"><a xlink:href="namespacecaiman_1_1mmapping.html#aeb2ed62e4a9028089a2eec09d392707f" target="_top" xlink:title="Load a memory mapped file created by the function save_memmap. ">
<polygon fill="white" stroke="black" points="1128,-100 1128,-130 1248,-130 1248,-100 1128,-100"/>
<text text-anchor="start" x="1136" y="-118" font-family="Helvetica,sans-Serif" font-size="10.00">caiman.mmapping.load</text>
<text text-anchor="middle" x="1188" y="-107" font-family="Helvetica,sans-Serif" font-size="10.00">_memmap</text>
</a>
</g>
</g>
<!-- Node14&#45;&gt;Node15 -->
<g id="edge19" class="edge"><title>Node14&#45;&gt;Node15</title>
<path fill="none" stroke="midnightblue" d="M949.686,-160.203C997.711,-151.055 1066.73,-137.908 1117.97,-128.149"/>
<polygon fill="midnightblue" stroke="midnightblue" points="1118.8,-131.553 1127.97,-126.244 1117.49,-124.677 1118.8,-131.553"/>
</g>
<!-- Node16 -->
<g id="node17" class="node"><title>Node16</title>
<g id="a_node17"><a xlink:href="namespacecaiman_1_1mmapping.html#ad949509ed734151b99d635a4264a59ad" target="_top" xlink:title="Create several memory mapped files using parallel processing. ">
<polygon fill="white" stroke="black" points="1417,-100 1417,-130 1539,-130 1539,-100 1417,-100"/>
<text text-anchor="start" x="1425" y="-118" font-family="Helvetica,sans-Serif" font-size="10.00">caiman.mmapping.save</text>
<text text-anchor="middle" x="1478" y="-107" font-family="Helvetica,sans-Serif" font-size="10.00">_memmap_each</text>
</a>
</g>
</g>
<!-- Node15&#45;&gt;Node16 -->
<g id="edge20" class="edge"><title>Node15&#45;&gt;Node16</title>
<path fill="none" stroke="midnightblue" d="M1248.32,-115C1294.29,-115 1358.11,-115 1406.65,-115"/>
<polygon fill="midnightblue" stroke="midnightblue" points="1406.76,-118.5 1416.76,-115 1406.76,-111.5 1406.76,-118.5"/>
</g>
<!-- Node19&#45;&gt;Node13 -->
<g id="edge30" class="edge"><title>Node19&#45;&gt;Node13</title>
<path fill="none" stroke="midnightblue" d="M339.925,-140.096C372.901,-148.199 414.604,-158.111 452,-166 471.592,-170.133 492.855,-174.227 512.619,-177.868"/>
<polygon fill="midnightblue" stroke="midnightblue" points="512.027,-181.318 522.493,-179.673 513.286,-174.432 512.027,-181.318"/>
</g>
<!-- Node20 -->
<g id="node21" class="node"><title>Node20</title>
<g id="a_node21"><a xlink:href="namespacecaiman_1_1source__extraction_1_1cnmf_1_1spatial.html#a618870d89b38009e6444a12357a31d3d" target="_top" xlink:title="test the shape of each matrix, reshape them, test the number of pixel per process ...">
<polygon fill="white" stroke="black" points="486.5,-137.5 486.5,-156.5 691.5,-156.5 691.5,-137.5 486.5,-137.5"/>
<text text-anchor="middle" x="589" y="-144.5" font-family="Helvetica,sans-Serif" font-size="10.00">caiman.source_extraction.cnmf.spatial.test</text>
</a>
</g>
</g>
<!-- Node19&#45;&gt;Node20 -->
<g id="edge24" class="edge"><title>Node19&#45;&gt;Node20</title>
<path fill="none" stroke="midnightblue" d="M389.023,-132.787C417.227,-134.802 447.638,-136.974 475.993,-138.999"/>
<polygon fill="midnightblue" stroke="midnightblue" points="476.114,-142.517 486.338,-139.738 476.613,-135.535 476.114,-142.517"/>
</g>
<!-- Node21 -->
<g id="node22" class="node"><title>Node21</title>
<g id="a_node22"><a xlink:href="namespacecaiman_1_1source__extraction_1_1cnmf_1_1spatial.html#aecc215caf3e87682f452e93ca491a477" target="_top" xlink:title="compute the indices of the distance from the cm to search for the spatial component (calling determin...">
<polygon fill="white" stroke="black" points="471.5,-88 471.5,-118 706.5,-118 706.5,-88 471.5,-88"/>
<text text-anchor="start" x="479.5" y="-106" font-family="Helvetica,sans-Serif" font-size="10.00">caiman.source_extraction.cnmf.spatial.computing</text>
<text text-anchor="middle" x="589" y="-95" font-family="Helvetica,sans-Serif" font-size="10.00">_indicator</text>
</a>
</g>
</g>
<!-- Node19&#45;&gt;Node21 -->
<g id="edge25" class="edge"><title>Node19&#45;&gt;Node21</title>
<path fill="none" stroke="midnightblue" d="M389.023,-117.213C412.341,-115.547 437.168,-113.774 461.094,-112.065"/>
<polygon fill="midnightblue" stroke="midnightblue" points="461.56,-115.54 471.286,-111.337 461.062,-108.558 461.56,-115.54"/>
</g>
<!-- Node23 -->
<g id="node24" class="node"><title>Node23</title>
<g id="a_node24"><a xlink:href="namespacecaiman_1_1source__extraction_1_1cnmf_1_1spatial.html#a894e2773dd1e79c2efac3c759ff2fe9c" target="_top" xlink:title="memmap the C and Y objects in parallel ">
<polygon fill="white" stroke="black" points="762.5,-49.5 762.5,-68.5 1021.5,-68.5 1021.5,-49.5 762.5,-49.5"/>
<text text-anchor="middle" x="892" y="-56.5" font-family="Helvetica,sans-Serif" font-size="10.00">caiman.source_extraction.cnmf.spatial.creatememmap</text>
</a>
</g>
</g>
<!-- Node19&#45;&gt;Node23 -->
<g id="edge27" class="edge"><title>Node19&#45;&gt;Node23</title>
<path fill="none" stroke="midnightblue" d="M324.312,-109.949C358.702,-98.9899 407.805,-84.9056 452,-78 551.508,-62.4516 665.138,-57.887 751.858,-57.1125"/>
<polygon fill="midnightblue" stroke="midnightblue" points="752.056,-60.6112 762.03,-57.0379 752.004,-53.6114 752.056,-60.6112"/>
</g>
<!-- Node24 -->
<g id="node25" class="node"><title>Node24</title>
<g id="a_node25"><a xlink:href="namespacecaiman_1_1source__extraction_1_1cnmf_1_1spatial.html#a3fa5db8c88b06457233eb35dbcea3588" target="_top" xlink:title="Post&#45;processing of spatial components which includes the following steps. ">
<polygon fill="white" stroke="black" points="474,-0 474,-30 704,-30 704,-0 474,-0"/>
<text text-anchor="start" x="482" y="-18" font-family="Helvetica,sans-Serif" font-size="10.00">caiman.source_extraction.cnmf.spatial.threshold</text>
<text text-anchor="middle" x="589" y="-7" font-family="Helvetica,sans-Serif" font-size="10.00">_components</text>
</a>
</g>
</g>
<!-- Node19&#45;&gt;Node24 -->
<g id="edge29" class="edge"><title>Node19&#45;&gt;Node24</title>
<path fill="none" stroke="midnightblue" d="M307.53,-109.899C340.864,-92.1605 399.123,-62.8895 452,-45 466.091,-40.2327 481.264,-36.0242 496.185,-32.3811"/>
<polygon fill="midnightblue" stroke="midnightblue" points="497.017,-35.7809 505.94,-30.0685 495.402,-28.9697 497.017,-35.7809"/>
</g>
<!-- Node22 -->
<g id="node23" class="node"><title>Node22</title>
<g id="a_node23"><a xlink:href="namespacecaiman_1_1source__extraction_1_1cnmf_1_1spatial.html#aca0edbf4c2cd31fe1a9c228c4099a485" target="_top" xlink:title="compute the indices of the distance from the cm to search for the spatial component ...">
<polygon fill="white" stroke="black" points="775,-88 775,-118 1009,-118 1009,-88 775,-88"/>
<text text-anchor="start" x="783" y="-106" font-family="Helvetica,sans-Serif" font-size="10.00">caiman.source_extraction.cnmf.spatial.determine</text>
<text text-anchor="middle" x="892" y="-95" font-family="Helvetica,sans-Serif" font-size="10.00">_search_location</text>
</a>
</g>
</g>
<!-- Node21&#45;&gt;Node22 -->
<g id="edge26" class="edge"><title>Node21&#45;&gt;Node22</title>
<path fill="none" stroke="midnightblue" d="M706.805,-103C725.716,-103 745.374,-103 764.502,-103"/>
<polygon fill="midnightblue" stroke="midnightblue" points="764.756,-106.5 774.756,-103 764.756,-99.5001 764.756,-106.5"/>
</g>
<!-- Node23&#45;&gt;Node15 -->
<g id="edge28" class="edge"><title>Node23&#45;&gt;Node15</title>
<path fill="none" stroke="midnightblue" d="M964.128,-68.5087C982.988,-71.294 1003.3,-74.5318 1022,-78 1053.64,-83.8689 1088.43,-91.4951 1117.88,-98.2978"/>
<polygon fill="midnightblue" stroke="midnightblue" points="1117.12,-101.714 1127.65,-100.57 1118.7,-94.8954 1117.12,-101.714"/>
</g>
</g>
</svg>
