<?xml version="1.0" encoding="UTF-8" standalone="no"?>
<!DOCTYPE svg PUBLIC "-//W3C//DTD SVG 1.1//EN"
 "http://www.w3.org/Graphics/SVG/1.1/DTD/svg11.dtd">
<!-- Generated by graphviz version 2.36.0 (20140111.2315)
 -->
<!-- Title: extract_components Pages: 1 -->
<svg width="346pt" height="28pt"
 viewBox="0.00 0.00 346.00 28.00" xmlns="http://www.w3.org/2000/svg" xmlns:xlink="http://www.w3.org/1999/xlink">
<g id="graph0" class="graph" transform="scale(1 1) rotate(0) translate(4 24)">
<title>extract_components</title>
<polygon fill="white" stroke="none" points="-4,4 -4,-24 342,-24 342,4 -4,4"/>
<!-- Node6 -->
<g id="node1" class="node"><title>Node6</title>
<polygon fill="#bfbfbf" stroke="black" points="0.5,-0.5 0.5,-19.5 107.5,-19.5 107.5,-0.5 0.5,-0.5"/>
<text text-anchor="middle" x="54" y="-7.5" font-family="Helvetica,sans-Serif" font-size="10.00">extract_components</text>
</g>
<!-- Node7 -->
<g id="node2" class="node"><title>Node7</title>
<g id="a_node2"><a xlink:href="namespacecaiman_1_1behavior_1_1behavior.html#a513c5d7fc1e56d74ff55d4f74ee836a3" target="_top" xlink:title="main">
<polygon fill="white" stroke="black" points="144,-0.5 144,-19.5 182,-19.5 182,-0.5 144,-0.5"/>
<text text-anchor="middle" x="163" y="-7.5" font-family="Helvetica,sans-Serif" font-size="10.00">main</text>
</a>
</g>
</g>
<!-- Node6&#45;&gt;Node7 -->
<g id="edge1" class="edge"><title>Node6&#45;&gt;Node7</title>
<path fill="none" stroke="midnightblue" d="M117.658,-10C127.26,-10 136.455,-10 143.959,-10"/>
<polygon fill="midnightblue" stroke="midnightblue" points="117.56,-6.5001 107.56,-10 117.56,-13.5001 117.56,-6.5001"/>
</g>
<!-- Node8 -->
<g id="node3" class="node"><title>Node8</title>
<g id="a_node3"><a xlink:href="namespacecaiman_1_1behavior_1_1behavior.html#ac7ebff37cde3a2bef4c8613654b60395" target="_top" xlink:title="Normalize the components using the std of the components obtaining using biunary masks. ">
<polygon fill="white" stroke="black" points="218,-0.5 218,-19.5 338,-19.5 338,-0.5 218,-0.5"/>
<text text-anchor="middle" x="278" y="-7.5" font-family="Helvetica,sans-Serif" font-size="10.00">normalize_components</text>
</a>
</g>
</g>
<!-- Node7&#45;&gt;Node8 -->
<g id="edge2" class="edge"><title>Node7&#45;&gt;Node8</title>
<path fill="none" stroke="midnightblue" d="M192.176,-10C200.035,-10 208.879,-10 217.814,-10"/>
<polygon fill="midnightblue" stroke="midnightblue" points="192.155,-6.5001 182.155,-10 192.155,-13.5001 192.155,-6.5001"/>
</g>
</g>
</svg>
