<?xml version="1.0" encoding="UTF-8" standalone="no"?>
<!DOCTYPE svg PUBLIC "-//W3C//DTD SVG 1.1//EN"
 "http://www.w3.org/Graphics/SVG/1.1/DTD/svg11.dtd">
<!-- Generated by graphviz version 2.36.0 (20140111.2315)
 -->
<!-- Title: nf_merge_roi_zip Pages: 1 -->
<svg width="426pt" height="38pt"
 viewBox="0.00 0.00 426.00 38.00" xmlns="http://www.w3.org/2000/svg" xmlns:xlink="http://www.w3.org/1999/xlink">
<g id="graph0" class="graph" transform="scale(1 1) rotate(0) translate(4 34)">
<title>nf_merge_roi_zip</title>
<polygon fill="white" stroke="none" points="-4,4 -4,-34 422,-34 422,4 -4,4"/>
<!-- Node57 -->
<g id="node1" class="node"><title>Node57</title>
<polygon fill="#bfbfbf" stroke="black" points="0,-5.5 0,-24.5 94,-24.5 94,-5.5 0,-5.5"/>
<text text-anchor="middle" x="47" y="-12.5" font-family="Helvetica,sans-Serif" font-size="10.00">nf_merge_roi_zip</text>
</g>
<!-- Node58 -->
<g id="node2" class="node"><title>Node58</title>
<g id="a_node2"><a xlink:href="namespacecaiman_1_1base_1_1rois.html#a6c407af6009f8ede225fa785d6bfc040" target="_top" xlink:title="Function to extract masks from data. ">
<polygon fill="white" stroke="black" points="130,-5.5 130,-24.5 268,-24.5 268,-5.5 130,-5.5"/>
<text text-anchor="middle" x="199" y="-12.5" font-family="Helvetica,sans-Serif" font-size="10.00">extract_binary_masks_blob</text>
</a>
</g>
</g>
<!-- Node57&#45;&gt;Node58 -->
<g id="edge1" class="edge"><title>Node57&#45;&gt;Node58</title>
<path fill="none" stroke="midnightblue" d="M94.2289,-15C102.334,-15 110.967,-15 119.661,-15"/>
<polygon fill="midnightblue" stroke="midnightblue" points="119.866,-18.5001 129.866,-15 119.866,-11.5001 119.866,-18.5001"/>
</g>
<!-- Node59 -->
<g id="node3" class="node"><title>Node59</title>
<g id="a_node3"><a xlink:href="namespacecaiman_1_1base_1_1rois.html#a63d291a9e615c3c0d2c281bc50465b19" target="_top" xlink:title="extract_binary_masks\l_blob_parallel">
<polygon fill="white" stroke="black" points="304,-0 304,-30 418,-30 418,-0 304,-0"/>
<text text-anchor="start" x="312" y="-18" font-family="Helvetica,sans-Serif" font-size="10.00">extract_binary_masks</text>
<text text-anchor="middle" x="361" y="-7" font-family="Helvetica,sans-Serif" font-size="10.00">_blob_parallel</text>
</a>
</g>
</g>
<!-- Node58&#45;&gt;Node59 -->
<g id="edge2" class="edge"><title>Node58&#45;&gt;Node59</title>
<path fill="none" stroke="midnightblue" d="M268.319,-15C276.772,-15 285.404,-15 293.825,-15"/>
<polygon fill="midnightblue" stroke="midnightblue" points="293.966,-18.5001 303.966,-15 293.966,-11.5001 293.966,-18.5001"/>
</g>
</g>
</svg>
