<?xml version="1.0" encoding="UTF-8" standalone="no"?>
<!DOCTYPE svg PUBLIC "-//W3C//DTD SVG 1.1//EN"
 "http://www.w3.org/Graphics/SVG/1.1/DTD/svg11.dtd">
<!-- Generated by graphviz version 2.36.0 (20140111.2315)
 -->
<!-- Title: update_order_greedy Pages: 1 -->
<svg width="674pt" height="87pt"
 viewBox="0.00 0.00 674.00 87.00" xmlns="http://www.w3.org/2000/svg" xmlns:xlink="http://www.w3.org/1999/xlink">
<g id="graph0" class="graph" transform="scale(1 1) rotate(0) translate(4 83)">
<title>update_order_greedy</title>
<polygon fill="white" stroke="none" points="-4,4 -4,-83 670,-83 670,4 -4,4"/>
<!-- Node35 -->
<g id="node1" class="node"><title>Node35</title>
<polygon fill="#bfbfbf" stroke="black" points="0,-29.5 0,-48.5 112,-48.5 112,-29.5 0,-29.5"/>
<text text-anchor="middle" x="56" y="-36.5" font-family="Helvetica,sans-Serif" font-size="10.00">update_order_greedy</text>
</g>
<!-- Node36 -->
<g id="node2" class="node"><title>Node36</title>
<g id="a_node2"><a xlink:href="namespacecaiman_1_1source__extraction_1_1cnmf_1_1temporal.html#ac3279e405da3b8cc2e4a21b68320971c" target="_top" xlink:title="Update temporal components and background given spatial components using a block coordinate descent a...">
<polygon fill="white" stroke="black" points="148,-24 148,-54 378,-54 378,-24 148,-24"/>
<text text-anchor="start" x="156" y="-42" font-family="Helvetica,sans-Serif" font-size="10.00">caiman.source_extraction.cnmf.temporal.update</text>
<text text-anchor="middle" x="263" y="-31" font-family="Helvetica,sans-Serif" font-size="10.00">_temporal_components</text>
</a>
</g>
</g>
<!-- Node35&#45;&gt;Node36 -->
<g id="edge1" class="edge"><title>Node35&#45;&gt;Node36</title>
<path fill="none" stroke="midnightblue" d="M122.368,-39C130.56,-39 139.118,-39 147.789,-39"/>
<polygon fill="midnightblue" stroke="midnightblue" points="122.206,-35.5001 112.206,-39 122.206,-42.5001 122.206,-35.5001"/>
</g>
<!-- Node37 -->
<g id="node3" class="node"><title>Node37</title>
<g id="a_node3"><a xlink:href="namespacecaiman_1_1source__extraction_1_1cnmf_1_1merging.html#ad08adf2e086a22ef379b10ed3ee36936" target="_top" xlink:title="Merging of spatially overlapping components that have highly correlated temporal activity. ">
<polygon fill="white" stroke="black" points="427.5,-49 427.5,-79 652.5,-79 652.5,-49 427.5,-49"/>
<text text-anchor="start" x="435.5" y="-67" font-family="Helvetica,sans-Serif" font-size="10.00">caiman.source_extraction.cnmf.merging.merge</text>
<text text-anchor="middle" x="540" y="-56" font-family="Helvetica,sans-Serif" font-size="10.00">_components</text>
</a>
</g>
</g>
<!-- Node36&#45;&gt;Node37 -->
<g id="edge2" class="edge"><title>Node36&#45;&gt;Node37</title>
<path fill="none" stroke="midnightblue" d="M388.559,-50.3235C401.483,-51.4984 414.56,-52.6873 427.33,-53.8482"/>
<polygon fill="midnightblue" stroke="midnightblue" points="388.512,-46.8049 378.236,-49.3851 387.878,-53.7761 388.512,-46.8049"/>
</g>
<!-- Node38 -->
<g id="node4" class="node"><title>Node38</title>
<g id="a_node4"><a xlink:href="namespacecaiman_1_1source__extraction_1_1cnmf_1_1temporal.html#a2ede407f1e0d0722f51ddb6e99f48f9f" target="_top" xlink:title="necessary for parallel computation of the function constrained_foopsi ">
<polygon fill="white" stroke="black" points="414.5,-0 414.5,-30 665.5,-30 665.5,-0 414.5,-0"/>
<text text-anchor="start" x="422.5" y="-18" font-family="Helvetica,sans-Serif" font-size="10.00">caiman.source_extraction.cnmf.temporal.constrained</text>
<text text-anchor="middle" x="540" y="-7" font-family="Helvetica,sans-Serif" font-size="10.00">_foopsi_parallel</text>
</a>
</g>
</g>
<!-- Node36&#45;&gt;Node38 -->
<g id="edge3" class="edge"><title>Node36&#45;&gt;Node38</title>
<path fill="none" stroke="midnightblue" d="M388.37,-28.1459C397.038,-27.3894 405.776,-26.6268 414.444,-25.8703"/>
<polygon fill="midnightblue" stroke="midnightblue" points="387.893,-24.6741 378.236,-29.0303 388.502,-31.6476 387.893,-24.6741"/>
</g>
</g>
</svg>
