<?xml version="1.0" encoding="UTF-8" standalone="no"?>
<!DOCTYPE svg PUBLIC "-//W3C//DTD SVG 1.1//EN"
 "http://www.w3.org/Graphics/SVG/1.1/DTD/svg11.dtd">
<!-- Generated by graphviz version 2.36.0 (20140111.2315)
 -->
<!-- Title: motion_correction_piecewise Pages: 1 -->
<svg width="1054pt" height="77pt"
 viewBox="0.00 0.00 1054.00 77.00" xmlns="http://www.w3.org/2000/svg" xmlns:xlink="http://www.w3.org/1999/xlink">
<g id="graph0" class="graph" transform="scale(1 1) rotate(0) translate(4 73)">
<title>motion_correction_piecewise</title>
<polygon fill="white" stroke="none" points="-4,4 -4,-73 1050,-73 1050,4 -4,4"/>
<!-- Node120 -->
<g id="node1" class="node"><title>Node120</title>
<polygon fill="#bfbfbf" stroke="black" points="0.5,-22.5 0.5,-41.5 145.5,-41.5 145.5,-22.5 0.5,-22.5"/>
<text text-anchor="middle" x="73" y="-29.5" font-family="Helvetica,sans-Serif" font-size="10.00">motion_correction_piecewise</text>
</g>
<!-- Node121 -->
<g id="node2" class="node"><title>Node121</title>
<g id="a_node2"><a xlink:href="namespacecaiman_1_1motion__correction.html#a29956f4cd15f5c59388862472d370986" target="_top" xlink:title="Function that perform memory efficient hyper parallelized rigid motion corrections while also saving ...">
<polygon fill="white" stroke="black" points="182.5,-39 182.5,-69 295.5,-69 295.5,-39 182.5,-39"/>
<text text-anchor="start" x="190.5" y="-57" font-family="Helvetica,sans-Serif" font-size="10.00">motion_correct_batch</text>
<text text-anchor="middle" x="239" y="-46" font-family="Helvetica,sans-Serif" font-size="10.00">_pwrigid</text>
</a>
</g>
</g>
<!-- Node120&#45;&gt;Node121 -->
<g id="edge1" class="edge"><title>Node120&#45;&gt;Node121</title>
<path fill="none" stroke="midnightblue" d="M154.964,-42.861C164.192,-44.099 173.438,-45.3393 182.234,-46.5192"/>
<polygon fill="midnightblue" stroke="midnightblue" points="155.356,-39.3823 144.979,-41.5216 154.425,-46.3201 155.356,-39.3823"/>
</g>
<!-- Node127 -->
<g id="node8" class="node"><title>Node127</title>
<g id="a_node8"><a xlink:href="namespacecaiman_1_1motion__correction.html#a9c4d6e518f42c395cb58a08d2ff21f45" target="_top" xlink:title="tile_and_correct_wrapper">
<polygon fill="white" stroke="black" points="916.5,-0.5 916.5,-19.5 1045.5,-19.5 1045.5,-0.5 916.5,-0.5"/>
<text text-anchor="middle" x="981" y="-7.5" font-family="Helvetica,sans-Serif" font-size="10.00">tile_and_correct_wrapper</text>
</a>
</g>
</g>
<!-- Node120&#45;&gt;Node127 -->
<g id="edge9" class="edge"><title>Node120&#45;&gt;Node127</title>
<path fill="none" stroke="midnightblue" d="M155.926,-23.1098C219.223,-17.0053 309.057,-10 388,-10 388,-10 388,-10 702,-10 775.482,-10 859.889,-10 916.236,-10"/>
<polygon fill="midnightblue" stroke="midnightblue" points="155.22,-19.6622 145.608,-24.1196 155.902,-26.6289 155.22,-19.6622"/>
</g>
<!-- Node122 -->
<g id="node3" class="node"><title>Node122</title>
<g id="a_node3"><a xlink:href="namespacecaiman_1_1motion__correction.html#aa13476234008dda16f62dc69804dab54" target="_top" xlink:title="Function that perform memory efficient hyper parallelized rigid motion corrections while also saving ...">
<polygon fill="white" stroke="black" points="332.5,-39 332.5,-69 445.5,-69 445.5,-39 332.5,-39"/>
<text text-anchor="start" x="340.5" y="-57" font-family="Helvetica,sans-Serif" font-size="10.00">motion_correct_batch</text>
<text text-anchor="middle" x="389" y="-46" font-family="Helvetica,sans-Serif" font-size="10.00">_rigid</text>
</a>
</g>
</g>
<!-- Node121&#45;&gt;Node122 -->
<g id="edge2" class="edge"><title>Node121&#45;&gt;Node122</title>
<path fill="none" stroke="midnightblue" d="M305.768,-54C314.576,-54 323.542,-54 332.158,-54"/>
<polygon fill="midnightblue" stroke="midnightblue" points="305.531,-50.5001 295.531,-54 305.531,-57.5001 305.531,-50.5001"/>
</g>
<!-- Node123 -->
<g id="node4" class="node"><title>Node123</title>
<g id="a_node4"><a xlink:href="namespacecaiman_1_1motion__correction.html#a93dc0dbba76cd31384bb0fdca775fff6" target="_top" xlink:title="compute_metrics_motion\l_correction">
<polygon fill="white" stroke="black" points="482,-39 482,-69 610,-69 610,-39 482,-39"/>
<text text-anchor="start" x="490" y="-57" font-family="Helvetica,sans-Serif" font-size="10.00">compute_metrics_motion</text>
<text text-anchor="middle" x="546" y="-46" font-family="Helvetica,sans-Serif" font-size="10.00">_correction</text>
</a>
</g>
</g>
<!-- Node122&#45;&gt;Node123 -->
<g id="edge3" class="edge"><title>Node122&#45;&gt;Node123</title>
<path fill="none" stroke="midnightblue" d="M455.638,-54C464.359,-54 473.286,-54 481.963,-54"/>
<polygon fill="midnightblue" stroke="midnightblue" points="455.521,-50.5001 445.521,-54 455.521,-57.5001 455.521,-50.5001"/>
</g>
<!-- Node124 -->
<g id="node5" class="node"><title>Node124</title>
<g id="a_node5"><a xlink:href="namespacecaiman_1_1motion__correction.html#ab468f81cbf77caf649a1aa60b21fecdd" target="_top" xlink:title="compute_flow_single\l_frame">
<polygon fill="white" stroke="black" points="646,-39 646,-69 756,-69 756,-39 646,-39"/>
<text text-anchor="start" x="654" y="-57" font-family="Helvetica,sans-Serif" font-size="10.00">compute_flow_single</text>
<text text-anchor="middle" x="701" y="-46" font-family="Helvetica,sans-Serif" font-size="10.00">_frame</text>
</a>
</g>
</g>
<!-- Node123&#45;&gt;Node124 -->
<g id="edge4" class="edge"><title>Node123&#45;&gt;Node124</title>
<path fill="none" stroke="midnightblue" d="M620.194,-54C628.825,-54 637.513,-54 645.816,-54"/>
<polygon fill="midnightblue" stroke="midnightblue" points="620.114,-50.5001 610.114,-54 620.114,-57.5001 620.114,-50.5001"/>
</g>
<!-- Node125 -->
<g id="node6" class="node"><title>Node125</title>
<g id="a_node6"><a xlink:href="namespacecaiman_1_1motion__correction.html#aea060208c09f0e4fb01e6d31b9acf36f" target="_top" xlink:title="perform piecewise rigid motion correction iteration, by 1) dividing the FOV in patches 2) motion corr...">
<polygon fill="white" stroke="black" points="792,-44.5 792,-63.5 880,-63.5 880,-44.5 792,-44.5"/>
<text text-anchor="middle" x="836" y="-51.5" font-family="Helvetica,sans-Serif" font-size="10.00">tile_and_correct</text>
</a>
</g>
</g>
<!-- Node124&#45;&gt;Node125 -->
<g id="edge5" class="edge"><title>Node124&#45;&gt;Node125</title>
<path fill="none" stroke="midnightblue" d="M766.264,-54C774.977,-54 783.741,-54 791.956,-54"/>
<polygon fill="midnightblue" stroke="midnightblue" points="766.096,-50.5001 756.096,-54 766.096,-57.5001 766.096,-50.5001"/>
</g>
<!-- Node126 -->
<g id="node7" class="node"><title>Node126</title>
<g id="a_node7"><a xlink:href="namespacecaiman_1_1motion__correction.html#a88ef513cfa324fc8548e4fb46d7a67e5" target="_top" xlink:title="create a matrix that is used to normalize the intersection of the stiched patches ...">
<polygon fill="white" stroke="black" points="925,-39 925,-69 1037,-69 1037,-39 925,-39"/>
<text text-anchor="start" x="933" y="-57" font-family="Helvetica,sans-Serif" font-size="10.00">create_weight_matrix</text>
<text text-anchor="middle" x="981" y="-46" font-family="Helvetica,sans-Serif" font-size="10.00">_for_blending</text>
</a>
</g>
</g>
<!-- Node125&#45;&gt;Node126 -->
<g id="edge6" class="edge"><title>Node125&#45;&gt;Node126</title>
<path fill="none" stroke="midnightblue" d="M890.427,-47.4454C901.696,-47.1969 913.607,-47.1854 924.935,-47.4111"/>
<polygon fill="midnightblue" stroke="midnightblue" points="890.187,-43.9508 880.293,-47.7404 890.39,-50.9479 890.187,-43.9508"/>
</g>
<!-- Node125&#45;&gt;Node127 -->
<g id="edge8" class="edge"><title>Node125&#45;&gt;Node127</title>
<path fill="none" stroke="midnightblue" d="M876.378,-41.3862C889.017,-37.3785 903.086,-32.96 916,-29 926.195,-25.8739 937.328,-22.5409 947.408,-19.5533"/>
<polygon fill="midnightblue" stroke="midnightblue" points="875.067,-38.1303 866.597,-44.4957 877.188,-44.8013 875.067,-38.1303"/>
</g>
<!-- Node126&#45;&gt;Node125 -->
<g id="edge7" class="edge"><title>Node126&#45;&gt;Node125</title>
<path fill="none" stroke="midnightblue" d="M914.757,-60.727C903.073,-60.8132 891.165,-60.6574 880.293,-60.2596"/>
<polygon fill="midnightblue" stroke="midnightblue" points="914.984,-64.2243 924.935,-60.5889 914.889,-57.225 914.984,-64.2243"/>
</g>
</g>
</svg>
