<?xml version="1.0" encoding="UTF-8" standalone="no"?>
<!DOCTYPE svg PUBLIC "-//W3C//DTD SVG 1.1//EN"
 "http://www.w3.org/Graphics/SVG/1.1/DTD/svg11.dtd">
<!-- Generated by graphviz version 2.36.0 (20140111.2315)
 -->
<!-- Title: create_weight_matrix_for_blending Pages: 1 -->
<svg width="1036pt" height="191pt"
 viewBox="0.00 0.00 1036.00 191.00" xmlns="http://www.w3.org/2000/svg" xmlns:xlink="http://www.w3.org/1999/xlink">
<g id="graph0" class="graph" transform="scale(1 1) rotate(0) translate(4 187)">
<title>create_weight_matrix_for_blending</title>
<polygon fill="white" stroke="none" points="-4,4 -4,-187 1032,-187 1032,4 -4,4"/>
<!-- Node61 -->
<g id="node1" class="node"><title>Node61</title>
<polygon fill="#bfbfbf" stroke="black" points="0,-91 0,-121 112,-121 112,-91 0,-91"/>
<text text-anchor="start" x="8" y="-109" font-family="Helvetica,sans-Serif" font-size="10.00">create_weight_matrix</text>
<text text-anchor="middle" x="56" y="-98" font-family="Helvetica,sans-Serif" font-size="10.00">_for_blending</text>
</g>
<!-- Node62 -->
<g id="node2" class="node"><title>Node62</title>
<g id="a_node2"><a xlink:href="namespacecaiman_1_1motion__correction.html#aef362667b31a29dfcc1a0c35c87f01ad" target="_top" xlink:title="efficiently and lazily slides a window across the image ">
<polygon fill="white" stroke="black" points="285,-163.5 285,-182.5 369,-182.5 369,-163.5 285,-163.5"/>
<text text-anchor="middle" x="327" y="-170.5" font-family="Helvetica,sans-Serif" font-size="10.00">sliding_window</text>
</a>
</g>
</g>
<!-- Node61&#45;&gt;Node62 -->
<g id="edge1" class="edge"><title>Node61&#45;&gt;Node62</title>
<path fill="none" stroke="midnightblue" d="M112.085,-119.72C160.774,-131.847 231.094,-149.362 277.645,-160.956"/>
<polygon fill="midnightblue" stroke="midnightblue" points="276.941,-164.388 287.49,-163.408 278.633,-157.595 276.941,-164.388"/>
</g>
<!-- Node63 -->
<g id="node3" class="node"><title>Node63</title>
<g id="a_node3"><a xlink:href="namespacecaiman_1_1motion__correction.html#aea060208c09f0e4fb01e6d31b9acf36f" target="_top" xlink:title="perform piecewise rigid motion correction iteration, by 1) dividing the FOV in patches 2) motion corr...">
<polygon fill="white" stroke="black" points="148,-96.5 148,-115.5 236,-115.5 236,-96.5 148,-96.5"/>
<text text-anchor="middle" x="192" y="-103.5" font-family="Helvetica,sans-Serif" font-size="10.00">tile_and_correct</text>
</a>
</g>
</g>
<!-- Node61&#45;&gt;Node63 -->
<g id="edge2" class="edge"><title>Node61&#45;&gt;Node63</title>
<path fill="none" stroke="midnightblue" d="M112.277,-99.3427C120.682,-99.2085 129.342,-99.22 137.704,-99.3771"/>
<polygon fill="midnightblue" stroke="midnightblue" points="137.631,-102.876 147.72,-99.6409 137.815,-95.8787 137.631,-102.876"/>
</g>
<!-- Node63&#45;&gt;Node61 -->
<g id="edge9" class="edge"><title>Node63&#45;&gt;Node61</title>
<path fill="none" stroke="midnightblue" d="M147.72,-112.359C139.602,-112.638 130.952,-112.767 122.338,-112.748"/>
<polygon fill="midnightblue" stroke="midnightblue" points="122.308,-109.248 112.277,-112.657 122.245,-116.248 122.308,-109.248"/>
</g>
<!-- Node63&#45;&gt;Node62 -->
<g id="edge8" class="edge"><title>Node63&#45;&gt;Node62</title>
<path fill="none" stroke="midnightblue" d="M206.778,-115.589C222.167,-126.005 248.067,-142.67 272,-154 276.373,-156.07 281.037,-158.041 285.721,-159.874"/>
<polygon fill="midnightblue" stroke="midnightblue" points="284.687,-163.224 295.28,-163.432 287.13,-156.663 284.687,-163.224"/>
</g>
<!-- Node64 -->
<g id="node4" class="node"><title>Node64</title>
<g id="a_node4"><a xlink:href="namespacecaiman_1_1motion__correction.html#a0700d66a3a6b2556b1c712daf9c18a9b" target="_top" xlink:title="register_translation">
<polygon fill="white" stroke="black" points="276,-125.5 276,-144.5 378,-144.5 378,-125.5 276,-125.5"/>
<text text-anchor="middle" x="327" y="-132.5" font-family="Helvetica,sans-Serif" font-size="10.00">register_translation</text>
</a>
</g>
</g>
<!-- Node63&#45;&gt;Node64 -->
<g id="edge3" class="edge"><title>Node63&#45;&gt;Node64</title>
<path fill="none" stroke="midnightblue" d="M236.181,-115.415C247.677,-117.922 260.238,-120.661 272.225,-123.275"/>
<polygon fill="midnightblue" stroke="midnightblue" points="271.608,-126.722 282.124,-125.433 273.099,-119.883 271.608,-126.722"/>
</g>
<!-- Node67 -->
<g id="node7" class="node"><title>Node67</title>
<g id="a_node7"><a xlink:href="namespacecaiman_1_1motion__correction.html#a54e0e94e8c54dadcad8bc6688e46c590" target="_top" xlink:title="apply_shift_iteration">
<polygon fill="white" stroke="black" points="274.5,-87.5 274.5,-106.5 379.5,-106.5 379.5,-87.5 274.5,-87.5"/>
<text text-anchor="middle" x="327" y="-94.5" font-family="Helvetica,sans-Serif" font-size="10.00">apply_shift_iteration</text>
</a>
</g>
</g>
<!-- Node63&#45;&gt;Node67 -->
<g id="edge6" class="edge"><title>Node63&#45;&gt;Node67</title>
<path fill="none" stroke="midnightblue" d="M236.181,-103.078C245.094,-102.475 254.646,-101.828 264.075,-101.19"/>
<polygon fill="midnightblue" stroke="midnightblue" points="264.481,-104.671 274.222,-100.504 264.008,-97.687 264.481,-104.671"/>
</g>
<!-- Node68 -->
<g id="node8" class="node"><title>Node68</title>
<g id="a_node8"><a xlink:href="namespacecaiman_1_1motion__correction.html#ad4fabc7e2b2082da438e99a60ca41d96" target="_top" xlink:title="apply_shifts_dft">
<polygon fill="white" stroke="black" points="284,-49.5 284,-68.5 370,-68.5 370,-49.5 284,-49.5"/>
<text text-anchor="middle" x="327" y="-56.5" font-family="Helvetica,sans-Serif" font-size="10.00">apply_shifts_dft</text>
</a>
</g>
</g>
<!-- Node63&#45;&gt;Node68 -->
<g id="edge7" class="edge"><title>Node63&#45;&gt;Node68</title>
<path fill="none" stroke="midnightblue" d="M220.051,-96.395C235.304,-90.9835 254.712,-84.1052 272,-78 277.583,-76.0283 283.492,-73.9453 289.273,-71.9096"/>
<polygon fill="midnightblue" stroke="midnightblue" points="290.531,-75.1776 298.802,-68.5562 288.207,-68.5746 290.531,-75.1776"/>
</g>
<!-- Node69 -->
<g id="node9" class="node"><title>Node69</title>
<g id="a_node9"><a xlink:href="namespacecaiman_1_1motion__correction.html#ab468f81cbf77caf649a1aa60b21fecdd" target="_top" xlink:title="compute_flow_single\l_frame">
<polygon fill="white" stroke="black" points="272,-0 272,-30 382,-30 382,-0 272,-0"/>
<text text-anchor="start" x="280" y="-18" font-family="Helvetica,sans-Serif" font-size="10.00">compute_flow_single</text>
<text text-anchor="middle" x="327" y="-7" font-family="Helvetica,sans-Serif" font-size="10.00">_frame</text>
</a>
</g>
</g>
<!-- Node63&#45;&gt;Node69 -->
<g id="edge10" class="edge"><title>Node63&#45;&gt;Node69</title>
<path fill="none" stroke="midnightblue" d="M203.049,-96.0945C217.432,-82.284 245.128,-57.0267 272,-40 274.793,-38.2306 277.731,-36.5129 280.734,-34.8616"/>
<polygon fill="midnightblue" stroke="midnightblue" points="282.6,-37.8365 289.862,-30.1219 279.374,-31.6241 282.6,-37.8365"/>
</g>
<!-- Node65 -->
<g id="node5" class="node"><title>Node65</title>
<g id="a_node5"><a xlink:href="namespacecaiman_1_1motion__correction.html#aa339d12f180017a763175f450816f158" target="_top" xlink:title="adapted from SIMA (https://github.com/losonczylab) and the scikit&#45;image (http://scikit&#45;image.org/) package. ">
<polygon fill="white" stroke="black" points="438,-144.5 438,-163.5 526,-163.5 526,-144.5 438,-144.5"/>
<text text-anchor="middle" x="482" y="-151.5" font-family="Helvetica,sans-Serif" font-size="10.00">_upsampled_dft</text>
</a>
</g>
</g>
<!-- Node64&#45;&gt;Node65 -->
<g id="edge4" class="edge"><title>Node64&#45;&gt;Node65</title>
<path fill="none" stroke="midnightblue" d="M378.098,-141.221C393.969,-143.192 411.568,-145.378 427.658,-147.376"/>
<polygon fill="midnightblue" stroke="midnightblue" points="427.625,-150.899 437.98,-148.658 428.488,-143.952 427.625,-150.899"/>
</g>
<!-- Node66 -->
<g id="node6" class="node"><title>Node66</title>
<g id="a_node6"><a xlink:href="namespacecaiman_1_1motion__correction.html#a09859fe5f2beba321b5397662b26651b" target="_top" xlink:title="Compute global phase difference between the two images (should be zero if images are non&#45;negative)...">
<polygon fill="white" stroke="black" points="428.5,-106.5 428.5,-125.5 535.5,-125.5 535.5,-106.5 428.5,-106.5"/>
<text text-anchor="middle" x="482" y="-113.5" font-family="Helvetica,sans-Serif" font-size="10.00">_compute_phasediff</text>
</a>
</g>
</g>
<!-- Node64&#45;&gt;Node66 -->
<g id="edge5" class="edge"><title>Node64&#45;&gt;Node66</title>
<path fill="none" stroke="midnightblue" d="M378.098,-128.779C390.946,-127.183 404.926,-125.447 418.322,-123.784"/>
<polygon fill="midnightblue" stroke="midnightblue" points="418.931,-127.235 428.423,-122.529 418.068,-120.288 418.931,-127.235"/>
</g>
<!-- Node70 -->
<g id="node10" class="node"><title>Node70</title>
<g id="a_node10"><a xlink:href="namespacecaiman_1_1motion__correction.html#a93dc0dbba76cd31384bb0fdca775fff6" target="_top" xlink:title="compute_metrics_motion\l_correction">
<polygon fill="white" stroke="black" points="418,-0 418,-30 546,-30 546,-0 418,-0"/>
<text text-anchor="start" x="426" y="-18" font-family="Helvetica,sans-Serif" font-size="10.00">compute_metrics_motion</text>
<text text-anchor="middle" x="482" y="-7" font-family="Helvetica,sans-Serif" font-size="10.00">_correction</text>
</a>
</g>
</g>
<!-- Node69&#45;&gt;Node70 -->
<g id="edge11" class="edge"><title>Node69&#45;&gt;Node70</title>
<path fill="none" stroke="midnightblue" d="M382.373,-15C390.645,-15 399.295,-15 407.889,-15"/>
<polygon fill="midnightblue" stroke="midnightblue" points="407.924,-18.5001 417.924,-15 407.924,-11.5001 407.924,-18.5001"/>
</g>
<!-- Node71 -->
<g id="node11" class="node"><title>Node71</title>
<g id="a_node11"><a xlink:href="namespacecaiman_1_1motion__correction.html#aa13476234008dda16f62dc69804dab54" target="_top" xlink:title="Function that perform memory efficient hyper parallelized rigid motion corrections while also saving ...">
<polygon fill="white" stroke="black" points="582.5,-0 582.5,-30 695.5,-30 695.5,-0 582.5,-0"/>
<text text-anchor="start" x="590.5" y="-18" font-family="Helvetica,sans-Serif" font-size="10.00">motion_correct_batch</text>
<text text-anchor="middle" x="639" y="-7" font-family="Helvetica,sans-Serif" font-size="10.00">_rigid</text>
</a>
</g>
</g>
<!-- Node70&#45;&gt;Node71 -->
<g id="edge12" class="edge"><title>Node70&#45;&gt;Node71</title>
<path fill="none" stroke="midnightblue" d="M546.044,-15C554.719,-15 563.644,-15 572.364,-15"/>
<polygon fill="midnightblue" stroke="midnightblue" points="572.479,-18.5001 582.479,-15 572.479,-11.5001 572.479,-18.5001"/>
</g>
<!-- Node72 -->
<g id="node12" class="node"><title>Node72</title>
<g id="a_node12"><a xlink:href="namespacecaiman_1_1motion__correction.html#a29956f4cd15f5c59388862472d370986" target="_top" xlink:title="Function that perform memory efficient hyper parallelized rigid motion corrections while also saving ...">
<polygon fill="white" stroke="black" points="732.5,-0 732.5,-30 845.5,-30 845.5,-0 732.5,-0"/>
<text text-anchor="start" x="740.5" y="-18" font-family="Helvetica,sans-Serif" font-size="10.00">motion_correct_batch</text>
<text text-anchor="middle" x="789" y="-7" font-family="Helvetica,sans-Serif" font-size="10.00">_pwrigid</text>
</a>
</g>
</g>
<!-- Node71&#45;&gt;Node72 -->
<g id="edge13" class="edge"><title>Node71&#45;&gt;Node72</title>
<path fill="none" stroke="midnightblue" d="M695.531,-15C704.138,-15 713.101,-15 721.913,-15"/>
<polygon fill="midnightblue" stroke="midnightblue" points="722.158,-18.5001 732.158,-15 722.158,-11.5001 722.158,-18.5001"/>
</g>
<!-- Node73 -->
<g id="node13" class="node"><title>Node73</title>
<g id="a_node13"><a xlink:href="namespacecaiman_1_1motion__correction.html#a0609d5c64bb9cae41d945bbc89535d2a" target="_top" xlink:title="motion_correction_piecewise">
<polygon fill="white" stroke="black" points="882.5,-5.5 882.5,-24.5 1027.5,-24.5 1027.5,-5.5 882.5,-5.5"/>
<text text-anchor="middle" x="955" y="-12.5" font-family="Helvetica,sans-Serif" font-size="10.00">motion_correction_piecewise</text>
</a>
</g>
</g>
<!-- Node72&#45;&gt;Node73 -->
<g id="edge14" class="edge"><title>Node72&#45;&gt;Node73</title>
<path fill="none" stroke="midnightblue" d="M845.523,-15C854.097,-15 863.105,-15 872.11,-15"/>
<polygon fill="midnightblue" stroke="midnightblue" points="872.254,-18.5001 882.254,-15 872.254,-11.5001 872.254,-18.5001"/>
</g>
</g>
</svg>
