<?xml version="1.0" encoding="UTF-8" standalone="no"?>
<!DOCTYPE svg PUBLIC "-//W3C//DTD SVG 1.1//EN"
 "http://www.w3.org/Graphics/SVG/1.1/DTD/svg11.dtd">
<!-- Generated by graphviz version 2.36.0 (20140111.2315)
 -->
<!-- Title: mode_robust Pages: 1 -->
<svg width="980pt" height="111pt"
 viewBox="0.00 0.00 980.00 111.00" xmlns="http://www.w3.org/2000/svg" xmlns:xlink="http://www.w3.org/1999/xlink">
<g id="graph0" class="graph" transform="scale(1 1) rotate(0) translate(4 107)">
<title>mode_robust</title>
<polygon fill="white" stroke="none" points="-4,4 -4,-107 976,-107 976,4 -4,4"/>
<!-- Node12 -->
<g id="node1" class="node"><title>Node12</title>
<polygon fill="#bfbfbf" stroke="black" points="0.5,-53.5 0.5,-72.5 75.5,-72.5 75.5,-53.5 0.5,-53.5"/>
<text text-anchor="middle" x="38" y="-60.5" font-family="Helvetica,sans-Serif" font-size="10.00">mode_robust</text>
</g>
<!-- Node13 -->
<g id="node2" class="node"><title>Node13</title>
<g id="a_node2"><a xlink:href="namespacecaiman_1_1components__evaluation.html#a115ea8d0f9c41cb31cb7fe05535f65f7" target="_top" xlink:title="estimate the noise in the traces under assumption that signals are sparse and only positive...">
<polygon fill="white" stroke="black" points="112,-73 112,-103 310,-103 310,-73 112,-73"/>
<text text-anchor="start" x="120" y="-91" font-family="Helvetica,sans-Serif" font-size="10.00">caiman.components_evaluation.estimate</text>
<text text-anchor="middle" x="211" y="-80" font-family="Helvetica,sans-Serif" font-size="10.00">_noise_mode</text>
</a>
</g>
</g>
<!-- Node12&#45;&gt;Node13 -->
<g id="edge1" class="edge"><title>Node12&#45;&gt;Node13</title>
<path fill="none" stroke="midnightblue" d="M85.7743,-69.8384C94.0228,-71.0443 102.881,-72.3393 111.931,-73.6624"/>
<polygon fill="midnightblue" stroke="midnightblue" points="86.0849,-66.3466 75.6838,-68.3631 85.0723,-73.273 86.0849,-66.3466"/>
</g>
<!-- Node14 -->
<g id="node3" class="node"><title>Node14</title>
<g id="a_node3"><a xlink:href="namespacecaiman_1_1components__evaluation.html#a967e8c445c84976814609f9c120153a2" target="_top" xlink:title="Define a metric and order components according to the probabilty if some &quot;exceptional events&quot; (like a...">
<polygon fill="white" stroke="black" points="112,-24 112,-54 310,-54 310,-24 112,-24"/>
<text text-anchor="start" x="120" y="-42" font-family="Helvetica,sans-Serif" font-size="10.00">caiman.components_evaluation.compute</text>
<text text-anchor="middle" x="211" y="-31" font-family="Helvetica,sans-Serif" font-size="10.00">_event_exceptionality</text>
</a>
</g>
</g>
<!-- Node12&#45;&gt;Node14 -->
<g id="edge2" class="edge"><title>Node12&#45;&gt;Node14</title>
<path fill="none" stroke="midnightblue" d="M85.7743,-56.4352C94.0228,-55.2775 102.881,-54.0343 111.931,-52.7641"/>
<polygon fill="midnightblue" stroke="midnightblue" points="85.1002,-52.9954 75.6838,-57.8514 86.0732,-59.9275 85.1002,-52.9954"/>
</g>
<!-- Node15 -->
<g id="node4" class="node"><title>Node15</title>
<g id="a_node4"><a xlink:href="namespacecaiman_1_1components__evaluation.html#ad2a8435be788c8e75130e41f884adb0f" target="_top" xlink:title="Define a metric and order components according to the probabilty if some &quot;exceptional events&quot; (like a...">
<polygon fill="white" stroke="black" points="346,-24 346,-54 544,-54 544,-24 346,-24"/>
<text text-anchor="start" x="354" y="-42" font-family="Helvetica,sans-Serif" font-size="10.00">caiman.components_evaluation.evaluate</text>
<text text-anchor="middle" x="445" y="-31" font-family="Helvetica,sans-Serif" font-size="10.00">_components</text>
</a>
</g>
</g>
<!-- Node14&#45;&gt;Node15 -->
<g id="edge3" class="edge"><title>Node14&#45;&gt;Node15</title>
<path fill="none" stroke="midnightblue" d="M320.119,-39C328.727,-39 337.393,-39 345.926,-39"/>
<polygon fill="midnightblue" stroke="midnightblue" points="320.053,-35.5001 310.053,-39 320.053,-42.5001 320.053,-35.5001"/>
</g>
<!-- Node16 -->
<g id="node5" class="node"><title>Node16</title>
<g id="a_node5"><a xlink:href="namespacecaiman_1_1components__evaluation.html#ad0d76d63424939fa0004f5cc800f0105" target="_top" xlink:title="caiman.components_evaluation.classify\l_components_ep">
<polygon fill="white" stroke="black" points="582.5,-49 582.5,-79 775.5,-79 775.5,-49 582.5,-49"/>
<text text-anchor="start" x="590.5" y="-67" font-family="Helvetica,sans-Serif" font-size="10.00">caiman.components_evaluation.classify</text>
<text text-anchor="middle" x="679" y="-56" font-family="Helvetica,sans-Serif" font-size="10.00">_components_ep</text>
</a>
</g>
</g>
<!-- Node15&#45;&gt;Node16 -->
<g id="edge4" class="edge"><title>Node15&#45;&gt;Node16</title>
<path fill="none" stroke="midnightblue" d="M554.33,-43.9366C569.231,-45.4913 584.302,-47.2133 598.554,-48.9961"/>
<polygon fill="midnightblue" stroke="midnightblue" points="554.356,-40.4212 544.053,-42.8883 553.646,-47.3851 554.356,-40.4212"/>
</g>
<!-- Node17 -->
<g id="node6" class="node"><title>Node17</title>
<g id="a_node6"><a xlink:href="namespacecaiman_1_1components__evaluation.html#a57b89e19503abe333d5767d462266e7a" target="_top" xlink:title="caiman.components_evaluation.estimate\l_components_quality">
<polygon fill="white" stroke="black" points="580,-0 580,-30 778,-30 778,-0 580,-0"/>
<text text-anchor="start" x="588" y="-18" font-family="Helvetica,sans-Serif" font-size="10.00">caiman.components_evaluation.estimate</text>
<text text-anchor="middle" x="679" y="-7" font-family="Helvetica,sans-Serif" font-size="10.00">_components_quality</text>
</a>
</g>
</g>
<!-- Node15&#45;&gt;Node17 -->
<g id="edge6" class="edge"><title>Node15&#45;&gt;Node17</title>
<path fill="none" stroke="midnightblue" d="M538.719,-22.7807C552.28,-21.2336 566.284,-19.7682 579.947,-18.4657"/>
<polygon fill="midnightblue" stroke="midnightblue" points="537.975,-19.3436 528.448,-23.9784 538.786,-26.2965 537.975,-19.3436"/>
</g>
<!-- Node16&#45;&gt;Node15 -->
<g id="edge5" class="edge"><title>Node16&#45;&gt;Node15</title>
<path fill="none" stroke="midnightblue" d="M571.946,-59.2996C556.331,-57.6865 540.473,-55.8831 525.517,-54.0127"/>
<polygon fill="midnightblue" stroke="midnightblue" points="571.859,-62.8086 582.16,-60.331 572.563,-55.844 571.859,-62.8086"/>
</g>
<!-- Node17&#45;&gt;Node15 -->
<g id="edge7" class="edge"><title>Node17&#45;&gt;Node15</title>
<path fill="none" stroke="midnightblue" d="M585.385,-31.2075C571.791,-32.759 557.751,-34.2285 544.053,-35.5343"/>
<polygon fill="midnightblue" stroke="midnightblue" points="586.152,-34.6418 595.679,-30.0064 585.341,-27.6889 586.152,-34.6418"/>
</g>
<!-- Node18 -->
<g id="node7" class="node"><title>Node18</title>
<g id="a_node7"><a xlink:href="namespacecaiman_1_1tests_1_1comparison_1_1create__gt.html#a6d8adb7810bd5f7de466b0a661a69743" target="_top" xlink:title="the function that will create a groundtruth ">
<polygon fill="white" stroke="black" points="814,-0 814,-30 972,-30 972,-0 814,-0"/>
<text text-anchor="start" x="822" y="-18" font-family="Helvetica,sans-Serif" font-size="10.00">caiman.tests.comparison.create</text>
<text text-anchor="middle" x="893" y="-7" font-family="Helvetica,sans-Serif" font-size="10.00">_gt.create</text>
</a>
</g>
</g>
<!-- Node17&#45;&gt;Node18 -->
<g id="edge8" class="edge"><title>Node17&#45;&gt;Node18</title>
<path fill="none" stroke="midnightblue" d="M788.313,-15C796.895,-15 805.457,-15 813.773,-15"/>
<polygon fill="midnightblue" stroke="midnightblue" points="788.243,-11.5001 778.242,-15 788.242,-18.5001 788.243,-11.5001"/>
</g>
</g>
</svg>
