<?xml version="1.0" encoding="UTF-8" standalone="no"?>
<!DOCTYPE svg PUBLIC "-//W3C//DTD SVG 1.1//EN"
 "http://www.w3.org/Graphics/SVG/1.1/DTD/svg11.dtd">
<!-- Generated by graphviz version 2.36.0 (20140111.2315)
 -->
<!-- Title: motion_correct_batch_pwrigid Pages: 1 -->
<svg width="872pt" height="77pt"
 viewBox="0.00 0.00 872.00 77.00" xmlns="http://www.w3.org/2000/svg" xmlns:xlink="http://www.w3.org/1999/xlink">
<g id="graph0" class="graph" transform="scale(1 1) rotate(0) translate(4 73)">
<title>motion_correct_batch_pwrigid</title>
<polygon fill="white" stroke="none" points="-4,4 -4,-73 868,-73 868,4 -4,4"/>
<!-- Node81 -->
<g id="node1" class="node"><title>Node81</title>
<polygon fill="#bfbfbf" stroke="black" points="0.5,-39 0.5,-69 113.5,-69 113.5,-39 0.5,-39"/>
<text text-anchor="start" x="8.5" y="-57" font-family="Helvetica,sans-Serif" font-size="10.00">motion_correct_batch</text>
<text text-anchor="middle" x="57" y="-46" font-family="Helvetica,sans-Serif" font-size="10.00">_pwrigid</text>
</g>
<!-- Node82 -->
<g id="node2" class="node"><title>Node82</title>
<g id="a_node2"><a xlink:href="namespacecaiman_1_1motion__correction.html#aa13476234008dda16f62dc69804dab54" target="_top" xlink:title="Function that perform memory efficient hyper parallelized rigid motion corrections while also saving ...">
<polygon fill="white" stroke="black" points="150.5,-39 150.5,-69 263.5,-69 263.5,-39 150.5,-39"/>
<text text-anchor="start" x="158.5" y="-57" font-family="Helvetica,sans-Serif" font-size="10.00">motion_correct_batch</text>
<text text-anchor="middle" x="207" y="-46" font-family="Helvetica,sans-Serif" font-size="10.00">_rigid</text>
</a>
</g>
</g>
<!-- Node81&#45;&gt;Node82 -->
<g id="edge1" class="edge"><title>Node81&#45;&gt;Node82</title>
<path fill="none" stroke="midnightblue" d="M123.768,-54C132.576,-54 141.542,-54 150.158,-54"/>
<polygon fill="midnightblue" stroke="midnightblue" points="123.531,-50.5001 113.531,-54 123.531,-57.5001 123.531,-50.5001"/>
</g>
<!-- Node83 -->
<g id="node3" class="node"><title>Node83</title>
<g id="a_node3"><a xlink:href="namespacecaiman_1_1motion__correction.html#a93dc0dbba76cd31384bb0fdca775fff6" target="_top" xlink:title="compute_metrics_motion\l_correction">
<polygon fill="white" stroke="black" points="300,-39 300,-69 428,-69 428,-39 300,-39"/>
<text text-anchor="start" x="308" y="-57" font-family="Helvetica,sans-Serif" font-size="10.00">compute_metrics_motion</text>
<text text-anchor="middle" x="364" y="-46" font-family="Helvetica,sans-Serif" font-size="10.00">_correction</text>
</a>
</g>
</g>
<!-- Node82&#45;&gt;Node83 -->
<g id="edge2" class="edge"><title>Node82&#45;&gt;Node83</title>
<path fill="none" stroke="midnightblue" d="M273.638,-54C282.359,-54 291.286,-54 299.963,-54"/>
<polygon fill="midnightblue" stroke="midnightblue" points="273.521,-50.5001 263.521,-54 273.521,-57.5001 273.521,-50.5001"/>
</g>
<!-- Node84 -->
<g id="node4" class="node"><title>Node84</title>
<g id="a_node4"><a xlink:href="namespacecaiman_1_1motion__correction.html#ab468f81cbf77caf649a1aa60b21fecdd" target="_top" xlink:title="compute_flow_single\l_frame">
<polygon fill="white" stroke="black" points="464,-39 464,-69 574,-69 574,-39 464,-39"/>
<text text-anchor="start" x="472" y="-57" font-family="Helvetica,sans-Serif" font-size="10.00">compute_flow_single</text>
<text text-anchor="middle" x="519" y="-46" font-family="Helvetica,sans-Serif" font-size="10.00">_frame</text>
</a>
</g>
</g>
<!-- Node83&#45;&gt;Node84 -->
<g id="edge3" class="edge"><title>Node83&#45;&gt;Node84</title>
<path fill="none" stroke="midnightblue" d="M438.194,-54C446.825,-54 455.513,-54 463.816,-54"/>
<polygon fill="midnightblue" stroke="midnightblue" points="438.114,-50.5001 428.114,-54 438.114,-57.5001 438.114,-50.5001"/>
</g>
<!-- Node85 -->
<g id="node5" class="node"><title>Node85</title>
<g id="a_node5"><a xlink:href="namespacecaiman_1_1motion__correction.html#aea060208c09f0e4fb01e6d31b9acf36f" target="_top" xlink:title="perform piecewise rigid motion correction iteration, by 1) dividing the FOV in patches 2) motion corr...">
<polygon fill="white" stroke="black" points="610,-44.5 610,-63.5 698,-63.5 698,-44.5 610,-44.5"/>
<text text-anchor="middle" x="654" y="-51.5" font-family="Helvetica,sans-Serif" font-size="10.00">tile_and_correct</text>
</a>
</g>
</g>
<!-- Node84&#45;&gt;Node85 -->
<g id="edge4" class="edge"><title>Node84&#45;&gt;Node85</title>
<path fill="none" stroke="midnightblue" d="M584.264,-54C592.977,-54 601.741,-54 609.956,-54"/>
<polygon fill="midnightblue" stroke="midnightblue" points="584.096,-50.5001 574.096,-54 584.096,-57.5001 584.096,-50.5001"/>
</g>
<!-- Node86 -->
<g id="node6" class="node"><title>Node86</title>
<g id="a_node6"><a xlink:href="namespacecaiman_1_1motion__correction.html#a88ef513cfa324fc8548e4fb46d7a67e5" target="_top" xlink:title="create a matrix that is used to normalize the intersection of the stiched patches ...">
<polygon fill="white" stroke="black" points="743,-39 743,-69 855,-69 855,-39 743,-39"/>
<text text-anchor="start" x="751" y="-57" font-family="Helvetica,sans-Serif" font-size="10.00">create_weight_matrix</text>
<text text-anchor="middle" x="799" y="-46" font-family="Helvetica,sans-Serif" font-size="10.00">_for_blending</text>
</a>
</g>
</g>
<!-- Node85&#45;&gt;Node86 -->
<g id="edge5" class="edge"><title>Node85&#45;&gt;Node86</title>
<path fill="none" stroke="midnightblue" d="M708.427,-47.4454C719.696,-47.1969 731.607,-47.1854 742.935,-47.4111"/>
<polygon fill="midnightblue" stroke="midnightblue" points="708.187,-43.9508 698.293,-47.7404 708.39,-50.9479 708.187,-43.9508"/>
</g>
<!-- Node87 -->
<g id="node7" class="node"><title>Node87</title>
<g id="a_node7"><a xlink:href="namespacecaiman_1_1motion__correction.html#a9c4d6e518f42c395cb58a08d2ff21f45" target="_top" xlink:title="tile_and_correct_wrapper">
<polygon fill="white" stroke="black" points="734.5,-0.5 734.5,-19.5 863.5,-19.5 863.5,-0.5 734.5,-0.5"/>
<text text-anchor="middle" x="799" y="-7.5" font-family="Helvetica,sans-Serif" font-size="10.00">tile_and_correct_wrapper</text>
</a>
</g>
</g>
<!-- Node85&#45;&gt;Node87 -->
<g id="edge7" class="edge"><title>Node85&#45;&gt;Node87</title>
<path fill="none" stroke="midnightblue" d="M695.717,-41.4715C718.384,-34.4973 746.151,-25.9535 767.032,-19.5287"/>
<polygon fill="midnightblue" stroke="midnightblue" points="694.557,-38.1665 686.029,-44.4527 696.616,-44.857 694.557,-38.1665"/>
</g>
<!-- Node86&#45;&gt;Node85 -->
<g id="edge6" class="edge"><title>Node86&#45;&gt;Node85</title>
<path fill="none" stroke="midnightblue" d="M732.757,-60.727C721.073,-60.8132 709.165,-60.6574 698.293,-60.2596"/>
<polygon fill="midnightblue" stroke="midnightblue" points="732.984,-64.2243 742.935,-60.5889 732.889,-57.225 732.984,-64.2243"/>
</g>
</g>
</svg>
