<?xml version="1.0" encoding="UTF-8" standalone="no"?>
<!DOCTYPE svg PUBLIC "-//W3C//DTD SVG 1.1//EN"
 "http://www.w3.org/Graphics/SVG/1.1/DTD/svg11.dtd">
<!-- Generated by graphviz version 2.36.0 (20140111.2315)
 -->
<!-- Title: dot_place_holder Pages: 1 -->
<svg width="822pt" height="136pt"
 viewBox="0.00 0.00 822.00 136.00" xmlns="http://www.w3.org/2000/svg" xmlns:xlink="http://www.w3.org/1999/xlink">
<g id="graph0" class="graph" transform="scale(1 1) rotate(0) translate(4 132)">
<title>dot_place_holder</title>
<polygon fill="white" stroke="none" points="-4,4 -4,-132 818,-132 818,4 -4,4"/>
<!-- Node3 -->
<g id="node1" class="node"><title>Node3</title>
<polygon fill="#bfbfbf" stroke="black" points="0.5,-54.5 0.5,-73.5 93.5,-73.5 93.5,-54.5 0.5,-54.5"/>
<text text-anchor="middle" x="47" y="-61.5" font-family="Helvetica,sans-Serif" font-size="10.00">dot_place_holder</text>
</g>
<!-- Node4 -->
<g id="node2" class="node"><title>Node4</title>
<g id="a_node2"><a xlink:href="namespacecaiman_1_1mmapping.html#aa75ec735ea507b2ce7eb0e0bd33d2ba3" target="_top" xlink:title="Chunk matrix product between matrix and column vectors. ">
<polygon fill="white" stroke="black" points="130.5,-54.5 130.5,-73.5 237.5,-73.5 237.5,-54.5 130.5,-54.5"/>
<text text-anchor="middle" x="184" y="-61.5" font-family="Helvetica,sans-Serif" font-size="10.00">parallel_dot_product</text>
</a>
</g>
</g>
<!-- Node3&#45;&gt;Node4 -->
<g id="edge1" class="edge"><title>Node3&#45;&gt;Node4</title>
<path fill="none" stroke="midnightblue" d="M103.843,-64C112.616,-64 121.66,-64 130.358,-64"/>
<polygon fill="midnightblue" stroke="midnightblue" points="103.705,-60.5001 93.7048,-64 103.705,-67.5001 103.705,-60.5001"/>
</g>
<!-- Node5 -->
<g id="node3" class="node"><title>Node5</title>
<g id="a_node3"><a xlink:href="namespacecaiman_1_1source__extraction_1_1cnmf_1_1spatial.html#ac4b406f52054893ed2518a761921d4f4" target="_top" xlink:title="update spatial footprints and background through Basis Pursuit Denoising ">
<polygon fill="white" stroke="black" points="290,-98 290,-128 510,-128 510,-98 290,-98"/>
<text text-anchor="start" x="298" y="-116" font-family="Helvetica,sans-Serif" font-size="10.00">caiman.source_extraction.cnmf.spatial.update</text>
<text text-anchor="middle" x="400" y="-105" font-family="Helvetica,sans-Serif" font-size="10.00">_spatial_components</text>
</a>
</g>
</g>
<!-- Node4&#45;&gt;Node5 -->
<g id="edge2" class="edge"><title>Node4&#45;&gt;Node5</title>
<path fill="none" stroke="midnightblue" d="M228.001,-76.2101C242.555,-80.1786 258.936,-84.4665 274,-88 288.759,-91.462 304.57,-94.8612 319.812,-97.9834"/>
<polygon fill="midnightblue" stroke="midnightblue" points="228.826,-72.8071 218.256,-73.527 226.968,-79.556 228.826,-72.8071"/>
</g>
<!-- Node7 -->
<g id="node5" class="node"><title>Node7</title>
<g id="a_node5"><a xlink:href="namespacecaiman_1_1source__extraction_1_1cnmf_1_1temporal.html#ac3279e405da3b8cc2e4a21b68320971c" target="_top" xlink:title="Update temporal components and background given spatial components using a block coordinate descent a...">
<polygon fill="white" stroke="black" points="285,-49 285,-79 515,-79 515,-49 285,-49"/>
<text text-anchor="start" x="293" y="-67" font-family="Helvetica,sans-Serif" font-size="10.00">caiman.source_extraction.cnmf.temporal.update</text>
<text text-anchor="middle" x="400" y="-56" font-family="Helvetica,sans-Serif" font-size="10.00">_temporal_components</text>
</a>
</g>
</g>
<!-- Node4&#45;&gt;Node7 -->
<g id="edge4" class="edge"><title>Node4&#45;&gt;Node7</title>
<path fill="none" stroke="midnightblue" d="M247.726,-64C259.496,-64 272.134,-64 284.908,-64"/>
<polygon fill="midnightblue" stroke="midnightblue" points="247.624,-60.5001 237.624,-64 247.624,-67.5001 247.624,-60.5001"/>
</g>
<!-- Node9 -->
<g id="node7" class="node"><title>Node9</title>
<g id="a_node7"><a xlink:href="namespacecaiman_1_1source__extraction_1_1cnmf_1_1utilities.html#a280d064e1a9888eca4b375647d031491" target="_top" xlink:title="Compute DFF function from cnmf output. ">
<polygon fill="white" stroke="black" points="274,-8.5 274,-27.5 526,-27.5 526,-8.5 274,-8.5"/>
<text text-anchor="middle" x="400" y="-15.5" font-family="Helvetica,sans-Serif" font-size="10.00">caiman.source_extraction.cnmf.utilities.extract_DF_F</text>
</a>
</g>
</g>
<!-- Node4&#45;&gt;Node9 -->
<g id="edge7" class="edge"><title>Node4&#45;&gt;Node9</title>
<path fill="none" stroke="midnightblue" d="M226.086,-51.4644C241.076,-47.1548 258.22,-42.531 274,-39 293.434,-34.6512 314.75,-30.7527 334.187,-27.5296"/>
<polygon fill="midnightblue" stroke="midnightblue" points="224.714,-48.2188 216.095,-54.3805 226.675,-54.9384 224.714,-48.2188"/>
</g>
<!-- Node6 -->
<g id="node4" class="node"><title>Node6</title>
<g id="a_node4"><a xlink:href="namespacecaiman_1_1source__extraction_1_1cnmf_1_1merging.html#ad08adf2e086a22ef379b10ed3ee36936" target="_top" xlink:title="Merging of spatially overlapping components that have highly correlated temporal activity. ">
<polygon fill="white" stroke="black" points="575.5,-98 575.5,-128 800.5,-128 800.5,-98 575.5,-98"/>
<text text-anchor="start" x="583.5" y="-116" font-family="Helvetica,sans-Serif" font-size="10.00">caiman.source_extraction.cnmf.merging.merge</text>
<text text-anchor="middle" x="688" y="-105" font-family="Helvetica,sans-Serif" font-size="10.00">_components</text>
</a>
</g>
</g>
<!-- Node5&#45;&gt;Node6 -->
<g id="edge3" class="edge"><title>Node5&#45;&gt;Node6</title>
<path fill="none" stroke="midnightblue" d="M520.397,-113C538.595,-113 557.318,-113 575.343,-113"/>
<polygon fill="midnightblue" stroke="midnightblue" points="520.349,-109.5 510.349,-113 520.349,-116.5 520.349,-109.5"/>
</g>
<!-- Node7&#45;&gt;Node6 -->
<g id="edge5" class="edge"><title>Node7&#45;&gt;Node6</title>
<path fill="none" stroke="midnightblue" d="M498.766,-80.7501C531.42,-86.3448 567.583,-92.5405 599.413,-97.9938"/>
<polygon fill="midnightblue" stroke="midnightblue" points="499.201,-77.2736 488.753,-79.0346 498.018,-84.1731 499.201,-77.2736"/>
</g>
<!-- Node8 -->
<g id="node6" class="node"><title>Node8</title>
<g id="a_node6"><a xlink:href="namespacecaiman_1_1source__extraction_1_1cnmf_1_1temporal.html#a2ede407f1e0d0722f51ddb6e99f48f9f" target="_top" xlink:title="necessary for parallel computation of the function constrained_foopsi ">
<polygon fill="white" stroke="black" points="562.5,-49 562.5,-79 813.5,-79 813.5,-49 562.5,-49"/>
<text text-anchor="start" x="570.5" y="-67" font-family="Helvetica,sans-Serif" font-size="10.00">caiman.source_extraction.cnmf.temporal.constrained</text>
<text text-anchor="middle" x="688" y="-56" font-family="Helvetica,sans-Serif" font-size="10.00">_foopsi_parallel</text>
</a>
</g>
</g>
<!-- Node7&#45;&gt;Node8 -->
<g id="edge6" class="edge"><title>Node7&#45;&gt;Node8</title>
<path fill="none" stroke="midnightblue" d="M525.435,-64C537.599,-64 549.946,-64 562.114,-64"/>
<polygon fill="midnightblue" stroke="midnightblue" points="525.268,-60.5001 515.268,-64 525.268,-67.5001 525.268,-60.5001"/>
</g>
<!-- Node10 -->
<g id="node8" class="node"><title>Node10</title>
<g id="a_node8"><a xlink:href="namespacecaiman_1_1source__extraction_1_1cnmf_1_1utilities.html#aea3aa78c7c153170012079014e1f4895" target="_top" xlink:title="caiman.source_extraction.cnmf.utilities.compute\lDFF_traces">
<polygon fill="white" stroke="black" points="573.5,-0 573.5,-30 802.5,-30 802.5,-0 573.5,-0"/>
<text text-anchor="start" x="581.5" y="-18" font-family="Helvetica,sans-Serif" font-size="10.00">caiman.source_extraction.cnmf.utilities.compute</text>
<text text-anchor="middle" x="688" y="-7" font-family="Helvetica,sans-Serif" font-size="10.00">DFF_traces</text>
</a>
</g>
</g>
<!-- Node9&#45;&gt;Node10 -->
<g id="edge8" class="edge"><title>Node9&#45;&gt;Node10</title>
<path fill="none" stroke="midnightblue" d="M536.047,-16.5834C548.572,-16.452 561.178,-16.3198 573.48,-16.1908"/>
<polygon fill="midnightblue" stroke="midnightblue" points="535.99,-13.0837 526.028,-16.6885 536.064,-20.0833 535.99,-13.0837"/>
</g>
</g>
</svg>
