<?xml version="1.0" encoding="UTF-8" standalone="no"?>
<!DOCTYPE svg PUBLIC "-//W3C//DTD SVG 1.1//EN"
 "http://www.w3.org/Graphics/SVG/1.1/DTD/svg11.dtd">
<!-- Generated by graphviz version 2.36.0 (20140111.2315)
 -->
<!-- Title: compute_metrics_motion_correction Pages: 1 -->
<svg width="572pt" height="77pt"
 viewBox="0.00 0.00 572.00 77.00" xmlns="http://www.w3.org/2000/svg" xmlns:xlink="http://www.w3.org/1999/xlink">
<g id="graph0" class="graph" transform="scale(1 1) rotate(0) translate(4 73)">
<title>compute_metrics_motion_correction</title>
<polygon fill="white" stroke="none" points="-4,4 -4,-73 568,-73 568,4 -4,4"/>
<!-- Node56 -->
<g id="node1" class="node"><title>Node56</title>
<polygon fill="#bfbfbf" stroke="black" points="0,-39 0,-69 128,-69 128,-39 0,-39"/>
<text text-anchor="start" x="8" y="-57" font-family="Helvetica,sans-Serif" font-size="10.00">compute_metrics_motion</text>
<text text-anchor="middle" x="64" y="-46" font-family="Helvetica,sans-Serif" font-size="10.00">_correction</text>
</g>
<!-- Node57 -->
<g id="node2" class="node"><title>Node57</title>
<g id="a_node2"><a xlink:href="namespacecaiman_1_1motion__correction.html#ab468f81cbf77caf649a1aa60b21fecdd" target="_top" xlink:title="compute_flow_single\l_frame">
<polygon fill="white" stroke="black" points="164,-39 164,-69 274,-69 274,-39 164,-39"/>
<text text-anchor="start" x="172" y="-57" font-family="Helvetica,sans-Serif" font-size="10.00">compute_flow_single</text>
<text text-anchor="middle" x="219" y="-46" font-family="Helvetica,sans-Serif" font-size="10.00">_frame</text>
</a>
</g>
</g>
<!-- Node56&#45;&gt;Node57 -->
<g id="edge1" class="edge"><title>Node56&#45;&gt;Node57</title>
<path fill="none" stroke="midnightblue" d="M138.194,-54C146.825,-54 155.513,-54 163.816,-54"/>
<polygon fill="midnightblue" stroke="midnightblue" points="138.114,-50.5001 128.114,-54 138.114,-57.5001 138.114,-50.5001"/>
</g>
<!-- Node58 -->
<g id="node3" class="node"><title>Node58</title>
<g id="a_node3"><a xlink:href="namespacecaiman_1_1motion__correction.html#aea060208c09f0e4fb01e6d31b9acf36f" target="_top" xlink:title="perform piecewise rigid motion correction iteration, by 1) dividing the FOV in patches 2) motion corr...">
<polygon fill="white" stroke="black" points="310,-44.5 310,-63.5 398,-63.5 398,-44.5 310,-44.5"/>
<text text-anchor="middle" x="354" y="-51.5" font-family="Helvetica,sans-Serif" font-size="10.00">tile_and_correct</text>
</a>
</g>
</g>
<!-- Node57&#45;&gt;Node58 -->
<g id="edge2" class="edge"><title>Node57&#45;&gt;Node58</title>
<path fill="none" stroke="midnightblue" d="M284.264,-54C292.977,-54 301.741,-54 309.956,-54"/>
<polygon fill="midnightblue" stroke="midnightblue" points="284.096,-50.5001 274.096,-54 284.096,-57.5001 284.096,-50.5001"/>
</g>
<!-- Node59 -->
<g id="node4" class="node"><title>Node59</title>
<g id="a_node4"><a xlink:href="namespacecaiman_1_1motion__correction.html#a88ef513cfa324fc8548e4fb46d7a67e5" target="_top" xlink:title="create a matrix that is used to normalize the intersection of the stiched patches ...">
<polygon fill="white" stroke="black" points="443,-39 443,-69 555,-69 555,-39 443,-39"/>
<text text-anchor="start" x="451" y="-57" font-family="Helvetica,sans-Serif" font-size="10.00">create_weight_matrix</text>
<text text-anchor="middle" x="499" y="-46" font-family="Helvetica,sans-Serif" font-size="10.00">_for_blending</text>
</a>
</g>
</g>
<!-- Node58&#45;&gt;Node59 -->
<g id="edge3" class="edge"><title>Node58&#45;&gt;Node59</title>
<path fill="none" stroke="midnightblue" d="M408.427,-47.4454C419.696,-47.1969 431.607,-47.1854 442.935,-47.4111"/>
<polygon fill="midnightblue" stroke="midnightblue" points="408.187,-43.9508 398.293,-47.7404 408.39,-50.9479 408.187,-43.9508"/>
</g>
<!-- Node60 -->
<g id="node5" class="node"><title>Node60</title>
<g id="a_node5"><a xlink:href="namespacecaiman_1_1motion__correction.html#a9c4d6e518f42c395cb58a08d2ff21f45" target="_top" xlink:title="tile_and_correct_wrapper">
<polygon fill="white" stroke="black" points="434.5,-0.5 434.5,-19.5 563.5,-19.5 563.5,-0.5 434.5,-0.5"/>
<text text-anchor="middle" x="499" y="-7.5" font-family="Helvetica,sans-Serif" font-size="10.00">tile_and_correct_wrapper</text>
</a>
</g>
</g>
<!-- Node58&#45;&gt;Node60 -->
<g id="edge5" class="edge"><title>Node58&#45;&gt;Node60</title>
<path fill="none" stroke="midnightblue" d="M395.717,-41.4715C418.384,-34.4973 446.151,-25.9535 467.032,-19.5287"/>
<polygon fill="midnightblue" stroke="midnightblue" points="394.557,-38.1665 386.029,-44.4527 396.616,-44.857 394.557,-38.1665"/>
</g>
<!-- Node59&#45;&gt;Node58 -->
<g id="edge4" class="edge"><title>Node59&#45;&gt;Node58</title>
<path fill="none" stroke="midnightblue" d="M432.757,-60.727C421.073,-60.8132 409.165,-60.6574 398.293,-60.2596"/>
<polygon fill="midnightblue" stroke="midnightblue" points="432.984,-64.2243 442.935,-60.5889 432.889,-57.225 432.984,-64.2243"/>
</g>
</g>
</svg>
