<?xml version="1.0" encoding="UTF-8" standalone="no"?>
<!DOCTYPE svg PUBLIC "-//W3C//DTD SVG 1.1//EN"
 "http://www.w3.org/Graphics/SVG/1.1/DTD/svg11.dtd">
<!-- Generated by graphviz version 2.36.0 (20140111.2315)
 -->
<!-- Title: plot_components Pages: 1 -->
<svg width="332pt" height="28pt"
 viewBox="0.00 0.00 332.00 28.00" xmlns="http://www.w3.org/2000/svg" xmlns:xlink="http://www.w3.org/1999/xlink">
<g id="graph0" class="graph" transform="scale(1 1) rotate(0) translate(4 24)">
<title>plot_components</title>
<polygon fill="white" stroke="none" points="-4,4 -4,-24 328,-24 328,4 -4,4"/>
<!-- Node34 -->
<g id="node1" class="node"><title>Node34</title>
<polygon fill="#bfbfbf" stroke="black" points="0.5,-0.5 0.5,-19.5 93.5,-19.5 93.5,-0.5 0.5,-0.5"/>
<text text-anchor="middle" x="47" y="-7.5" font-family="Helvetica,sans-Serif" font-size="10.00">plot_components</text>
</g>
<!-- Node35 -->
<g id="node2" class="node"><title>Node35</title>
<g id="a_node2"><a xlink:href="namespacecaiman_1_1behavior_1_1behavior.html#a513c5d7fc1e56d74ff55d4f74ee836a3" target="_top" xlink:title="main">
<polygon fill="white" stroke="black" points="130,-0.5 130,-19.5 168,-19.5 168,-0.5 130,-0.5"/>
<text text-anchor="middle" x="149" y="-7.5" font-family="Helvetica,sans-Serif" font-size="10.00">main</text>
</a>
</g>
</g>
<!-- Node34&#45;&gt;Node35 -->
<g id="edge1" class="edge"><title>Node34&#45;&gt;Node35</title>
<path fill="none" stroke="midnightblue" d="M103.809,-10C113.166,-10 122.248,-10 129.72,-10"/>
<polygon fill="midnightblue" stroke="midnightblue" points="103.611,-6.5001 93.6105,-10 103.61,-13.5001 103.611,-6.5001"/>
</g>
<!-- Node36 -->
<g id="node3" class="node"><title>Node36</title>
<g id="a_node3"><a xlink:href="namespacecaiman_1_1behavior_1_1behavior.html#ac7ebff37cde3a2bef4c8613654b60395" target="_top" xlink:title="Normalize the components using the std of the components obtaining using biunary masks. ">
<polygon fill="white" stroke="black" points="204,-0.5 204,-19.5 324,-19.5 324,-0.5 204,-0.5"/>
<text text-anchor="middle" x="264" y="-7.5" font-family="Helvetica,sans-Serif" font-size="10.00">normalize_components</text>
</a>
</g>
</g>
<!-- Node35&#45;&gt;Node36 -->
<g id="edge2" class="edge"><title>Node35&#45;&gt;Node36</title>
<path fill="none" stroke="midnightblue" d="M178.176,-10C186.035,-10 194.879,-10 203.814,-10"/>
<polygon fill="midnightblue" stroke="midnightblue" points="178.155,-6.5001 168.155,-10 178.155,-13.5001 178.155,-6.5001"/>
</g>
</g>
</svg>
