<?xml version="1.0" encoding="UTF-8" standalone="no"?>
<!DOCTYPE svg PUBLIC "-//W3C//DTD SVG 1.1//EN"
 "http://www.w3.org/Graphics/SVG/1.1/DTD/svg11.dtd">
<!-- Generated by graphviz version 2.36.0 (20140111.2315)
 -->
<!-- Title: tile_and_correct Pages: 1 -->
<svg width="890pt" height="259pt"
 viewBox="0.00 0.00 890.00 259.00" xmlns="http://www.w3.org/2000/svg" xmlns:xlink="http://www.w3.org/1999/xlink">
<g id="graph0" class="graph" transform="scale(1 1) rotate(0) translate(4 255)">
<title>tile_and_correct</title>
<polygon fill="white" stroke="none" points="-4,4 -4,-255 886,-255 886,4 -4,4"/>
<!-- Node145 -->
<g id="node1" class="node"><title>Node145</title>
<polygon fill="#bfbfbf" stroke="black" points="0,-98.5 0,-117.5 88,-117.5 88,-98.5 0,-98.5"/>
<text text-anchor="middle" x="44" y="-105.5" font-family="Helvetica,sans-Serif" font-size="10.00">tile_and_correct</text>
</g>
<!-- Node146 -->
<g id="node2" class="node"><title>Node146</title>
<g id="a_node2"><a xlink:href="namespacecaiman_1_1motion__correction.html#a0700d66a3a6b2556b1c712daf9c18a9b" target="_top" xlink:title="register_translation">
<polygon fill="white" stroke="black" points="129,-212.5 129,-231.5 231,-231.5 231,-212.5 129,-212.5"/>
<text text-anchor="middle" x="180" y="-219.5" font-family="Helvetica,sans-Serif" font-size="10.00">register_translation</text>
</a>
</g>
</g>
<!-- Node145&#45;&gt;Node146 -->
<g id="edge1" class="edge"><title>Node145&#45;&gt;Node146</title>
<path fill="none" stroke="midnightblue" d="M50.458,-117.56C61.7656,-136.544 89.5924,-179.214 124,-203 126.742,-204.896 129.692,-206.618 132.749,-208.181"/>
<polygon fill="midnightblue" stroke="midnightblue" points="131.59,-211.497 142.146,-212.403 134.458,-205.112 131.59,-211.497"/>
</g>
<!-- Node149 -->
<g id="node5" class="node"><title>Node149</title>
<g id="a_node5"><a xlink:href="namespacecaiman_1_1motion__correction.html#a54e0e94e8c54dadcad8bc6688e46c590" target="_top" xlink:title="apply_shift_iteration">
<polygon fill="white" stroke="black" points="127.5,-174.5 127.5,-193.5 232.5,-193.5 232.5,-174.5 127.5,-174.5"/>
<text text-anchor="middle" x="180" y="-181.5" font-family="Helvetica,sans-Serif" font-size="10.00">apply_shift_iteration</text>
</a>
</g>
</g>
<!-- Node145&#45;&gt;Node149 -->
<g id="edge4" class="edge"><title>Node145&#45;&gt;Node149</title>
<path fill="none" stroke="midnightblue" d="M56.0844,-117.625C70.7718,-129.982 97.8816,-151.442 124,-165 128.043,-167.099 132.369,-169.048 136.751,-170.835"/>
<polygon fill="midnightblue" stroke="midnightblue" points="135.759,-174.202 146.35,-174.482 138.245,-167.658 135.759,-174.202"/>
</g>
<!-- Node150 -->
<g id="node6" class="node"><title>Node150</title>
<g id="a_node6"><a xlink:href="namespacecaiman_1_1motion__correction.html#ad4fabc7e2b2082da438e99a60ca41d96" target="_top" xlink:title="apply_shifts_dft">
<polygon fill="white" stroke="black" points="137,-136.5 137,-155.5 223,-155.5 223,-136.5 137,-136.5"/>
<text text-anchor="middle" x="180" y="-143.5" font-family="Helvetica,sans-Serif" font-size="10.00">apply_shifts_dft</text>
</a>
</g>
</g>
<!-- Node145&#45;&gt;Node150 -->
<g id="edge5" class="edge"><title>Node145&#45;&gt;Node150</title>
<path fill="none" stroke="midnightblue" d="M78.8139,-117.589C96.0326,-122.472 117.164,-128.464 135.573,-133.685"/>
<polygon fill="midnightblue" stroke="midnightblue" points="134.621,-137.053 145.197,-136.414 136.531,-130.319 134.621,-137.053"/>
</g>
<!-- Node151 -->
<g id="node7" class="node"><title>Node151</title>
<g id="a_node7"><a xlink:href="namespacecaiman_1_1motion__correction.html#aef362667b31a29dfcc1a0c35c87f01ad" target="_top" xlink:title="efficiently and lazily slides a window across the image ">
<polygon fill="white" stroke="black" points="294,-76.5 294,-95.5 378,-95.5 378,-76.5 294,-76.5"/>
<text text-anchor="middle" x="336" y="-83.5" font-family="Helvetica,sans-Serif" font-size="10.00">sliding_window</text>
</a>
</g>
</g>
<!-- Node145&#45;&gt;Node151 -->
<g id="edge6" class="edge"><title>Node145&#45;&gt;Node151</title>
<path fill="none" stroke="midnightblue" d="M88.1028,-104.73C140.24,-100.775 227.916,-94.1236 283.544,-89.9036"/>
<polygon fill="midnightblue" stroke="midnightblue" points="283.836,-93.3916 293.542,-89.1451 283.306,-86.4116 283.836,-93.3916"/>
</g>
<!-- Node152 -->
<g id="node8" class="node"><title>Node152</title>
<g id="a_node8"><a xlink:href="namespacecaiman_1_1motion__correction.html#a88ef513cfa324fc8548e4fb46d7a67e5" target="_top" xlink:title="create a matrix that is used to normalize the intersection of the stiched patches ...">
<polygon fill="white" stroke="black" points="124,-49 124,-79 236,-79 236,-49 124,-49"/>
<text text-anchor="start" x="132" y="-67" font-family="Helvetica,sans-Serif" font-size="10.00">create_weight_matrix</text>
<text text-anchor="middle" x="180" y="-56" font-family="Helvetica,sans-Serif" font-size="10.00">_for_blending</text>
</a>
</g>
</g>
<!-- Node145&#45;&gt;Node152 -->
<g id="edge7" class="edge"><title>Node145&#45;&gt;Node152</title>
<path fill="none" stroke="midnightblue" d="M60.3715,-98.4587C73.7231,-92.5172 94.0152,-85.1031 114.061,-78.5761"/>
<polygon fill="midnightblue" stroke="midnightblue" points="115.387,-81.827 123.85,-75.4535 113.26,-75.158 115.387,-81.827"/>
</g>
<!-- Node153 -->
<g id="node9" class="node"><title>Node153</title>
<g id="a_node9"><a xlink:href="namespacecaiman_1_1motion__correction.html#ab468f81cbf77caf649a1aa60b21fecdd" target="_top" xlink:title="compute_flow_single\l_frame">
<polygon fill="white" stroke="black" points="125,-0 125,-30 235,-30 235,-0 125,-0"/>
<text text-anchor="start" x="133" y="-18" font-family="Helvetica,sans-Serif" font-size="10.00">compute_flow_single</text>
<text text-anchor="middle" x="180" y="-7" font-family="Helvetica,sans-Serif" font-size="10.00">_frame</text>
</a>
</g>
</g>
<!-- Node145&#45;&gt;Node153 -->
<g id="edge10" class="edge"><title>Node145&#45;&gt;Node153</title>
<path fill="none" stroke="midnightblue" d="M53.9687,-98.4828C67.885,-84.1287 96.0028,-56.7364 124,-39 126.313,-37.5347 128.731,-36.1174 131.207,-34.7535"/>
<polygon fill="midnightblue" stroke="midnightblue" points="133.053,-37.7401 140.351,-30.0592 129.856,-31.5129 133.053,-37.7401"/>
</g>
<!-- Node147 -->
<g id="node3" class="node"><title>Node147</title>
<g id="a_node3"><a xlink:href="namespacecaiman_1_1motion__correction.html#aa339d12f180017a763175f450816f158" target="_top" xlink:title="adapted from SIMA (https://github.com/losonczylab) and the scikit&#45;image (http://scikit&#45;image.org/) package. ">
<polygon fill="white" stroke="black" points="292,-231.5 292,-250.5 380,-250.5 380,-231.5 292,-231.5"/>
<text text-anchor="middle" x="336" y="-238.5" font-family="Helvetica,sans-Serif" font-size="10.00">_upsampled_dft</text>
</a>
</g>
</g>
<!-- Node146&#45;&gt;Node147 -->
<g id="edge2" class="edge"><title>Node146&#45;&gt;Node147</title>
<path fill="none" stroke="midnightblue" d="M231.425,-228.221C247.625,-230.22 265.613,-232.439 281.992,-234.46"/>
<polygon fill="midnightblue" stroke="midnightblue" points="281.599,-237.938 291.952,-235.689 282.456,-230.991 281.599,-237.938"/>
</g>
<!-- Node148 -->
<g id="node4" class="node"><title>Node148</title>
<g id="a_node4"><a xlink:href="namespacecaiman_1_1motion__correction.html#a09859fe5f2beba321b5397662b26651b" target="_top" xlink:title="Compute global phase difference between the two images (should be zero if images are non&#45;negative)...">
<polygon fill="white" stroke="black" points="282.5,-193.5 282.5,-212.5 389.5,-212.5 389.5,-193.5 282.5,-193.5"/>
<text text-anchor="middle" x="336" y="-200.5" font-family="Helvetica,sans-Serif" font-size="10.00">_compute_phasediff</text>
</a>
</g>
</g>
<!-- Node146&#45;&gt;Node148 -->
<g id="edge3" class="edge"><title>Node146&#45;&gt;Node148</title>
<path fill="none" stroke="midnightblue" d="M231.425,-215.779C244.427,-214.175 258.581,-212.428 272.131,-210.757"/>
<polygon fill="midnightblue" stroke="midnightblue" points="272.849,-214.195 282.345,-209.496 271.992,-207.247 272.849,-214.195"/>
</g>
<!-- Node152&#45;&gt;Node145 -->
<g id="edge9" class="edge"><title>Node152&#45;&gt;Node145</title>
<path fill="none" stroke="midnightblue" d="M150.323,-79.0692C135.047,-85.0732 115.766,-91.725 97.8889,-97.2486"/>
<polygon fill="midnightblue" stroke="midnightblue" points="96.6995,-93.9516 88.136,-100.19 98.7207,-100.653 96.6995,-93.9516"/>
</g>
<!-- Node152&#45;&gt;Node151 -->
<g id="edge8" class="edge"><title>Node152&#45;&gt;Node151</title>
<path fill="none" stroke="midnightblue" d="M236.163,-71.8804C251.59,-74.0843 268.292,-76.4703 283.498,-78.6426"/>
<polygon fill="midnightblue" stroke="midnightblue" points="283.358,-82.1581 293.753,-80.1076 284.348,-75.2284 283.358,-82.1581"/>
</g>
<!-- Node154 -->
<g id="node10" class="node"><title>Node154</title>
<g id="a_node10"><a xlink:href="namespacecaiman_1_1motion__correction.html#a93dc0dbba76cd31384bb0fdca775fff6" target="_top" xlink:title="compute_metrics_motion\l_correction">
<polygon fill="white" stroke="black" points="272,-0 272,-30 400,-30 400,-0 272,-0"/>
<text text-anchor="start" x="280" y="-18" font-family="Helvetica,sans-Serif" font-size="10.00">compute_metrics_motion</text>
<text text-anchor="middle" x="336" y="-7" font-family="Helvetica,sans-Serif" font-size="10.00">_correction</text>
</a>
</g>
</g>
<!-- Node153&#45;&gt;Node154 -->
<g id="edge11" class="edge"><title>Node153&#45;&gt;Node154</title>
<path fill="none" stroke="midnightblue" d="M235.295,-15C243.914,-15 252.951,-15 261.917,-15"/>
<polygon fill="midnightblue" stroke="midnightblue" points="261.983,-18.5001 271.983,-15 261.983,-11.5001 261.983,-18.5001"/>
</g>
<!-- Node155 -->
<g id="node11" class="node"><title>Node155</title>
<g id="a_node11"><a xlink:href="namespacecaiman_1_1motion__correction.html#aa13476234008dda16f62dc69804dab54" target="_top" xlink:title="Function that perform memory efficient hyper parallelized rigid motion corrections while also saving ...">
<polygon fill="white" stroke="black" points="436.5,-0 436.5,-30 549.5,-30 549.5,-0 436.5,-0"/>
<text text-anchor="start" x="444.5" y="-18" font-family="Helvetica,sans-Serif" font-size="10.00">motion_correct_batch</text>
<text text-anchor="middle" x="493" y="-7" font-family="Helvetica,sans-Serif" font-size="10.00">_rigid</text>
</a>
</g>
</g>
<!-- Node154&#45;&gt;Node155 -->
<g id="edge12" class="edge"><title>Node154&#45;&gt;Node155</title>
<path fill="none" stroke="midnightblue" d="M400.044,-15C408.719,-15 417.644,-15 426.364,-15"/>
<polygon fill="midnightblue" stroke="midnightblue" points="426.479,-18.5001 436.479,-15 426.479,-11.5001 426.479,-18.5001"/>
</g>
<!-- Node156 -->
<g id="node12" class="node"><title>Node156</title>
<g id="a_node12"><a xlink:href="namespacecaiman_1_1motion__correction.html#a29956f4cd15f5c59388862472d370986" target="_top" xlink:title="Function that perform memory efficient hyper parallelized rigid motion corrections while also saving ...">
<polygon fill="white" stroke="black" points="586.5,-0 586.5,-30 699.5,-30 699.5,-0 586.5,-0"/>
<text text-anchor="start" x="594.5" y="-18" font-family="Helvetica,sans-Serif" font-size="10.00">motion_correct_batch</text>
<text text-anchor="middle" x="643" y="-7" font-family="Helvetica,sans-Serif" font-size="10.00">_pwrigid</text>
</a>
</g>
</g>
<!-- Node155&#45;&gt;Node156 -->
<g id="edge13" class="edge"><title>Node155&#45;&gt;Node156</title>
<path fill="none" stroke="midnightblue" d="M549.531,-15C558.138,-15 567.101,-15 575.913,-15"/>
<polygon fill="midnightblue" stroke="midnightblue" points="576.158,-18.5001 586.158,-15 576.158,-11.5001 576.158,-18.5001"/>
</g>
<!-- Node157 -->
<g id="node13" class="node"><title>Node157</title>
<g id="a_node13"><a xlink:href="namespacecaiman_1_1motion__correction.html#a0609d5c64bb9cae41d945bbc89535d2a" target="_top" xlink:title="motion_correction_piecewise">
<polygon fill="white" stroke="black" points="736.5,-5.5 736.5,-24.5 881.5,-24.5 881.5,-5.5 736.5,-5.5"/>
<text text-anchor="middle" x="809" y="-12.5" font-family="Helvetica,sans-Serif" font-size="10.00">motion_correction_piecewise</text>
</a>
</g>
</g>
<!-- Node156&#45;&gt;Node157 -->
<g id="edge14" class="edge"><title>Node156&#45;&gt;Node157</title>
<path fill="none" stroke="midnightblue" d="M699.523,-15C708.097,-15 717.105,-15 726.11,-15"/>
<polygon fill="midnightblue" stroke="midnightblue" points="726.254,-18.5001 736.254,-15 726.254,-11.5001 726.254,-18.5001"/>
</g>
</g>
</svg>
