<?xml version="1.0" encoding="UTF-8" standalone="no"?>
<!DOCTYPE svg PUBLIC "-//W3C//DTD SVG 1.1//EN"
 "http://www.w3.org/Graphics/SVG/1.1/DTD/svg11.dtd">
<!-- Generated by graphviz version 2.36.0 (20140111.2315)
 -->
<!-- Title: detect_duplicates Pages: 1 -->
<svg width="330pt" height="66pt"
 viewBox="0.00 0.00 330.00 66.00" xmlns="http://www.w3.org/2000/svg" xmlns:xlink="http://www.w3.org/1999/xlink">
<g id="graph0" class="graph" transform="scale(1 1) rotate(0) translate(4 62)">
<title>detect_duplicates</title>
<polygon fill="white" stroke="none" points="-4,4 -4,-62 326,-62 326,4 -4,4"/>
<!-- Node9 -->
<g id="node1" class="node"><title>Node9</title>
<polygon fill="#bfbfbf" stroke="black" points="0,-19.5 0,-38.5 94,-38.5 94,-19.5 0,-19.5"/>
<text text-anchor="middle" x="47" y="-26.5" font-family="Helvetica,sans-Serif" font-size="10.00">detect_duplicates</text>
</g>
<!-- Node10 -->
<g id="node2" class="node"><title>Node10</title>
<g id="a_node2"><a xlink:href="namespacecaiman_1_1base_1_1rois.html#a2dd16ae2c4f6fb213f12f340bb019957" target="_top" xlink:title="nf_read_roi_zip">
<polygon fill="white" stroke="black" points="131.5,-38.5 131.5,-57.5 216.5,-57.5 216.5,-38.5 131.5,-38.5"/>
<text text-anchor="middle" x="174" y="-45.5" font-family="Helvetica,sans-Serif" font-size="10.00">nf_read_roi_zip</text>
</a>
</g>
</g>
<!-- Node9&#45;&gt;Node10 -->
<g id="edge1" class="edge"><title>Node9&#45;&gt;Node10</title>
<path fill="none" stroke="midnightblue" d="M94.1902,-36.0209C102.982,-37.3573 112.238,-38.7641 121.191,-40.1251"/>
<polygon fill="midnightblue" stroke="midnightblue" points="120.719,-43.5933 131.131,-41.6359 121.771,-36.6728 120.719,-43.5933"/>
</g>
<!-- Node12 -->
<g id="node4" class="node"><title>Node12</title>
<g id="a_node4"><a xlink:href="namespacecaiman_1_1base_1_1rois.html#adc8128004edb81aefbc6d8ba07557414" target="_top" xlink:title="distance_masks">
<polygon fill="white" stroke="black" points="130,-0.5 130,-19.5 218,-19.5 218,-0.5 130,-0.5"/>
<text text-anchor="middle" x="174" y="-7.5" font-family="Helvetica,sans-Serif" font-size="10.00">distance_masks</text>
</a>
</g>
</g>
<!-- Node9&#45;&gt;Node12 -->
<g id="edge3" class="edge"><title>Node9&#45;&gt;Node12</title>
<path fill="none" stroke="midnightblue" d="M94.1902,-21.9791C102.588,-20.7026 111.408,-19.362 119.984,-18.0584"/>
<polygon fill="midnightblue" stroke="midnightblue" points="120.54,-21.5143 129.9,-16.5512 119.488,-14.5938 120.54,-21.5143"/>
</g>
<!-- Node11 -->
<g id="node3" class="node"><title>Node11</title>
<g id="a_node3"><a xlink:href="namespacecaiman_1_1base_1_1rois.html#a7943f7c71c288a233576f4f83df0665e" target="_top" xlink:title="points = read_roi(fileobj) ">
<polygon fill="white" stroke="black" points="254.5,-38.5 254.5,-57.5 321.5,-57.5 321.5,-38.5 254.5,-38.5"/>
<text text-anchor="middle" x="288" y="-45.5" font-family="Helvetica,sans-Serif" font-size="10.00">nf_read_roi</text>
</a>
</g>
</g>
<!-- Node10&#45;&gt;Node11 -->
<g id="edge2" class="edge"><title>Node10&#45;&gt;Node11</title>
<path fill="none" stroke="midnightblue" d="M216.705,-48C225.645,-48 235.106,-48 244.091,-48"/>
<polygon fill="midnightblue" stroke="midnightblue" points="244.36,-51.5001 254.36,-48 244.36,-44.5001 244.36,-51.5001"/>
</g>
</g>
</svg>
