<?xml version="1.0" encoding="UTF-8" standalone="no"?>
<!DOCTYPE svg PUBLIC "-//W3C//DTD SVG 1.1//EN"
 "http://www.w3.org/Graphics/SVG/1.1/DTD/svg11.dtd">
<!-- Generated by graphviz version 2.36.0 (20140111.2315)
 -->
<!-- Title: main Pages: 1 -->
<svg width="196pt" height="142pt"
 viewBox="0.00 0.00 196.00 142.00" xmlns="http://www.w3.org/2000/svg" xmlns:xlink="http://www.w3.org/1999/xlink">
<g id="graph0" class="graph" transform="scale(1 1) rotate(0) translate(4 138)">
<title>main</title>
<polygon fill="white" stroke="none" points="-4,4 -4,-138 192,-138 192,4 -4,4"/>
<!-- Node19 -->
<g id="node1" class="node"><title>Node19</title>
<polygon fill="#bfbfbf" stroke="black" points="0,-57.5 0,-76.5 38,-76.5 38,-57.5 0,-57.5"/>
<text text-anchor="middle" x="19" y="-64.5" font-family="Helvetica,sans-Serif" font-size="10.00">main</text>
</g>
<!-- Node20 -->
<g id="node2" class="node"><title>Node20</title>
<g id="a_node2"><a xlink:href="namespacecaiman_1_1behavior_1_1behavior.html#ac24ea957986e39f33ac3ceb78ed989d1" target="_top" xlink:title="Create a mask from a the convex polygon enclosed between selected points. ">
<polygon fill="white" stroke="black" points="101.5,-114.5 101.5,-133.5 160.5,-133.5 160.5,-114.5 101.5,-114.5"/>
<text text-anchor="middle" x="131" y="-121.5" font-family="Helvetica,sans-Serif" font-size="10.00">select_roi</text>
</a>
</g>
</g>
<!-- Node19&#45;&gt;Node20 -->
<g id="edge1" class="edge"><title>Node19&#45;&gt;Node20</title>
<path fill="none" stroke="midnightblue" d="M31.8041,-76.8105C42.3415,-85.1898 58.4659,-97.1062 74,-105 79.646,-107.869 85.8227,-110.459 91.9464,-112.737"/>
<polygon fill="midnightblue" stroke="midnightblue" points="90.8471,-116.06 101.442,-116.056 93.157,-109.452 90.8471,-116.06"/>
</g>
<!-- Node21 -->
<g id="node3" class="node"><title>Node21</title>
<g id="a_node3"><a xlink:href="namespacecaiman_1_1behavior_1_1behavior.html#a8f9ed50a7ba21081b068bf7967f74e09" target="_top" xlink:title="This function compute the optical flow of behavioral movies using the opencv cv2.calcOpticalFlowFarne...">
<polygon fill="white" stroke="black" points="74.5,-76.5 74.5,-95.5 187.5,-95.5 187.5,-76.5 74.5,-76.5"/>
<text text-anchor="middle" x="131" y="-83.5" font-family="Helvetica,sans-Serif" font-size="10.00">compute_optical_flow</text>
</a>
</g>
</g>
<!-- Node19&#45;&gt;Node21 -->
<g id="edge2" class="edge"><title>Node19&#45;&gt;Node21</title>
<path fill="none" stroke="midnightblue" d="M38.1643,-70.1375C45.7615,-71.4497 55.0941,-73.0617 64.8689,-74.7501"/>
<polygon fill="midnightblue" stroke="midnightblue" points="64.2934,-78.2024 74.7432,-76.4556 65.4849,-71.3046 64.2934,-78.2024"/>
</g>
<!-- Node22 -->
<g id="node4" class="node"><title>Node22</title>
<g id="a_node4"><a xlink:href="namespacecaiman_1_1behavior_1_1behavior.html#ab7ca16e11cc59cf634fcdd9a2c6848f6" target="_top" xlink:title="From optical flow images can extract spatial and temporal components. ">
<polygon fill="white" stroke="black" points="77.5,-38.5 77.5,-57.5 184.5,-57.5 184.5,-38.5 77.5,-38.5"/>
<text text-anchor="middle" x="131" y="-45.5" font-family="Helvetica,sans-Serif" font-size="10.00">extract_components</text>
</a>
</g>
</g>
<!-- Node19&#45;&gt;Node22 -->
<g id="edge3" class="edge"><title>Node19&#45;&gt;Node22</title>
<path fill="none" stroke="midnightblue" d="M38.1643,-63.8625C46.303,-62.4568 56.4334,-60.707 66.9655,-58.8878"/>
<polygon fill="midnightblue" stroke="midnightblue" points="67.8762,-62.2824 77.1345,-57.1313 66.6847,-55.3845 67.8762,-62.2824"/>
</g>
<!-- Node23 -->
<g id="node5" class="node"><title>Node23</title>
<g id="a_node5"><a xlink:href="namespacecaiman_1_1behavior_1_1behavior.html#abd4cdefdebaf9128bc642c37c14eeec1" target="_top" xlink:title="plot_components">
<polygon fill="white" stroke="black" points="84.5,-0.5 84.5,-19.5 177.5,-19.5 177.5,-0.5 84.5,-0.5"/>
<text text-anchor="middle" x="131" y="-7.5" font-family="Helvetica,sans-Serif" font-size="10.00">plot_components</text>
</a>
</g>
</g>
<!-- Node19&#45;&gt;Node23 -->
<g id="edge4" class="edge"><title>Node19&#45;&gt;Node23</title>
<path fill="none" stroke="midnightblue" d="M31.8041,-57.1895C42.3415,-48.8102 58.4659,-36.8938 74,-29 78.2388,-26.846 82.7767,-24.8495 87.3668,-23.0241"/>
<polygon fill="midnightblue" stroke="midnightblue" points="88.6302,-26.2885 96.7825,-19.5216 86.1897,-19.7277 88.6302,-26.2885"/>
</g>
</g>
</svg>
