<?xml version="1.0" encoding="UTF-8" standalone="no"?>
<!DOCTYPE svg PUBLIC "-//W3C//DTD SVG 1.1//EN"
 "http://www.w3.org/Graphics/SVG/1.1/DTD/svg11.dtd">
<!-- Generated by graphviz version 2.36.0 (20140111.2315)
 -->
<!-- Title: update_temporal_components Pages: 1 -->
<svg width="884pt" height="126pt"
 viewBox="0.00 0.00 884.00 126.00" xmlns="http://www.w3.org/2000/svg" xmlns:xlink="http://www.w3.org/1999/xlink">
<g id="graph0" class="graph" transform="scale(1 1) rotate(0) translate(4 122)">
<title>update_temporal_components</title>
<polygon fill="white" stroke="none" points="-4,4 -4,-122 880,-122 880,4 -4,4"/>
<!-- Node27 -->
<g id="node1" class="node"><title>Node27</title>
<polygon fill="#bfbfbf" stroke="black" points="0,-44.5 0,-63.5 152,-63.5 152,-44.5 0,-44.5"/>
<text text-anchor="middle" x="76" y="-51.5" font-family="Helvetica,sans-Serif" font-size="10.00">update_temporal_components</text>
</g>
<!-- Node28 -->
<g id="node2" class="node"><title>Node28</title>
<g id="a_node2"><a xlink:href="namespacecaiman_1_1mmapping.html#aa75ec735ea507b2ce7eb0e0bd33d2ba3" target="_top" xlink:title="Chunk matrix product between matrix and column vectors. ">
<polygon fill="white" stroke="black" points="232.5,-88 232.5,-118 365.5,-118 365.5,-88 232.5,-88"/>
<text text-anchor="start" x="240.5" y="-106" font-family="Helvetica,sans-Serif" font-size="10.00">caiman.mmapping.parallel</text>
<text text-anchor="middle" x="299" y="-95" font-family="Helvetica,sans-Serif" font-size="10.00">_dot_product</text>
</a>
</g>
</g>
<!-- Node27&#45;&gt;Node28 -->
<g id="edge1" class="edge"><title>Node27&#45;&gt;Node28</title>
<path fill="none" stroke="midnightblue" d="M119.873,-63.5058C148.892,-69.9398 188.02,-78.6154 222.213,-86.1966"/>
<polygon fill="midnightblue" stroke="midnightblue" points="221.66,-89.6588 232.18,-88.4065 223.175,-82.8247 221.66,-89.6588"/>
</g>
<!-- Node32 -->
<g id="node6" class="node"><title>Node32</title>
<g id="a_node6"><a xlink:href="namespacecaiman_1_1source__extraction_1_1cnmf_1_1utilities.html#aa1b3d1b8495a6d9dcecf91484544babb" target="_top" xlink:title="Determines the update order of the temporal components. ">
<polygon fill="white" stroke="black" points="188,-39 188,-69 410,-69 410,-39 188,-39"/>
<text text-anchor="start" x="196" y="-57" font-family="Helvetica,sans-Serif" font-size="10.00">caiman.source_extraction.cnmf.utilities.update</text>
<text text-anchor="middle" x="299" y="-46" font-family="Helvetica,sans-Serif" font-size="10.00">_order_greedy</text>
</a>
</g>
</g>
<!-- Node27&#45;&gt;Node32 -->
<g id="edge5" class="edge"><title>Node27&#45;&gt;Node32</title>
<path fill="none" stroke="midnightblue" d="M152.129,-54C160.403,-54 168.974,-54 177.625,-54"/>
<polygon fill="midnightblue" stroke="midnightblue" points="177.806,-57.5001 187.806,-54 177.806,-50.5001 177.806,-57.5001"/>
</g>
<!-- Node33 -->
<g id="node7" class="node"><title>Node33</title>
<g id="a_node7"><a xlink:href="namespacecaiman_1_1source__extraction_1_1cnmf_1_1temporal.html#a89ac8f2ed05b17a8f7becca80506532a" target="_top" xlink:title="Update temporal components and background given spatial components using a block coordinate descent a...">
<polygon fill="white" stroke="black" points="255,-0.5 255,-19.5 343,-19.5 343,-0.5 255,-0.5"/>
<text text-anchor="middle" x="299" y="-7.5" font-family="Helvetica,sans-Serif" font-size="10.00">update_iteration</text>
</a>
</g>
</g>
<!-- Node27&#45;&gt;Node33 -->
<g id="edge6" class="edge"><title>Node27&#45;&gt;Node33</title>
<path fill="none" stroke="midnightblue" d="M119.363,-44.4963C140.031,-39.9474 165.279,-34.5206 188,-30 206.466,-26.3259 226.732,-22.5646 244.782,-19.3097"/>
<polygon fill="midnightblue" stroke="midnightblue" points="245.613,-22.7167 254.838,-17.507 244.377,-15.8265 245.613,-22.7167"/>
</g>
<!-- Node29 -->
<g id="node3" class="node"><title>Node29</title>
<g id="a_node3"><a xlink:href="namespacecaiman_1_1mmapping.html#a14d47c076020d7d3adf2599ed3354e4b" target="_top" xlink:title="caiman.mmapping.dot\l_place_holder">
<polygon fill="white" stroke="black" points="446.5,-88 446.5,-118 561.5,-118 561.5,-88 446.5,-88"/>
<text text-anchor="start" x="454.5" y="-106" font-family="Helvetica,sans-Serif" font-size="10.00">caiman.mmapping.dot</text>
<text text-anchor="middle" x="504" y="-95" font-family="Helvetica,sans-Serif" font-size="10.00">_place_holder</text>
</a>
</g>
</g>
<!-- Node28&#45;&gt;Node29 -->
<g id="edge2" class="edge"><title>Node28&#45;&gt;Node29</title>
<path fill="none" stroke="midnightblue" d="M365.628,-103C388.23,-103 413.556,-103 436.247,-103"/>
<polygon fill="midnightblue" stroke="midnightblue" points="436.467,-106.5 446.467,-103 436.467,-99.5001 436.467,-106.5"/>
</g>
<!-- Node30 -->
<g id="node4" class="node"><title>Node30</title>
<g id="a_node4"><a xlink:href="namespacecaiman_1_1mmapping.html#aeb2ed62e4a9028089a2eec09d392707f" target="_top" xlink:title="Load a memory mapped file created by the function save_memmap. ">
<polygon fill="white" stroke="black" points="598,-88 598,-118 718,-118 718,-88 598,-88"/>
<text text-anchor="start" x="606" y="-106" font-family="Helvetica,sans-Serif" font-size="10.00">caiman.mmapping.load</text>
<text text-anchor="middle" x="658" y="-95" font-family="Helvetica,sans-Serif" font-size="10.00">_memmap</text>
</a>
</g>
</g>
<!-- Node29&#45;&gt;Node30 -->
<g id="edge3" class="edge"><title>Node29&#45;&gt;Node30</title>
<path fill="none" stroke="midnightblue" d="M561.599,-103C570.093,-103 578.932,-103 587.654,-103"/>
<polygon fill="midnightblue" stroke="midnightblue" points="587.811,-106.5 597.811,-103 587.811,-99.5001 587.811,-106.5"/>
</g>
<!-- Node31 -->
<g id="node5" class="node"><title>Node31</title>
<g id="a_node5"><a xlink:href="namespacecaiman_1_1mmapping.html#ad949509ed734151b99d635a4264a59ad" target="_top" xlink:title="Create several memory mapped files using parallel processing. ">
<polygon fill="white" stroke="black" points="754,-88 754,-118 876,-118 876,-88 754,-88"/>
<text text-anchor="start" x="762" y="-106" font-family="Helvetica,sans-Serif" font-size="10.00">caiman.mmapping.save</text>
<text text-anchor="middle" x="815" y="-95" font-family="Helvetica,sans-Serif" font-size="10.00">_memmap_each</text>
</a>
</g>
</g>
<!-- Node30&#45;&gt;Node31 -->
<g id="edge4" class="edge"><title>Node30&#45;&gt;Node31</title>
<path fill="none" stroke="midnightblue" d="M718.041,-103C726.465,-103 735.198,-103 743.81,-103"/>
<polygon fill="midnightblue" stroke="midnightblue" points="743.838,-106.5 753.838,-103 743.838,-99.5001 743.838,-106.5"/>
</g>
</g>
</svg>
