<?xml version="1.0" encoding="UTF-8" standalone="no"?>
<!DOCTYPE svg PUBLIC "-//W3C//DTD SVG 1.1//EN"
 "http://www.w3.org/Graphics/SVG/1.1/DTD/svg11.dtd">
<!-- Generated by graphviz version 2.36.0 (20140111.2315)
 -->
<!-- Title: extract_binary_masks_blob Pages: 1 -->
<svg width="296pt" height="88pt"
 viewBox="0.00 0.00 296.00 88.00" xmlns="http://www.w3.org/2000/svg" xmlns:xlink="http://www.w3.org/1999/xlink">
<g id="graph0" class="graph" transform="scale(1 1) rotate(0) translate(4 84)">
<title>extract_binary_masks_blob</title>
<polygon fill="white" stroke="none" points="-4,4 -4,-84 292,-84 292,4 -4,4"/>
<!-- Node21 -->
<g id="node1" class="node"><title>Node21</title>
<polygon fill="#bfbfbf" stroke="black" points="0,-35.5 0,-54.5 138,-54.5 138,-35.5 0,-35.5"/>
<text text-anchor="middle" x="69" y="-42.5" font-family="Helvetica,sans-Serif" font-size="10.00">extract_binary_masks_blob</text>
</g>
<!-- Node22 -->
<g id="node2" class="node"><title>Node22</title>
<g id="a_node2"><a xlink:href="namespacecaiman_1_1base_1_1rois.html#a547c857f35b0906431911026c4cb5bff" target="_top" xlink:title="Create a zip file containing ROIs for ImageJ by combining elements from a list of ROI zip files...">
<polygon fill="white" stroke="black" points="184,-60.5 184,-79.5 278,-79.5 278,-60.5 184,-60.5"/>
<text text-anchor="middle" x="231" y="-67.5" font-family="Helvetica,sans-Serif" font-size="10.00">nf_merge_roi_zip</text>
</a>
</g>
</g>
<!-- Node21&#45;&gt;Node22 -->
<g id="edge1" class="edge"><title>Node21&#45;&gt;Node22</title>
<path fill="none" stroke="midnightblue" d="M140.894,-56.0771C155.391,-58.3423 170.292,-60.6706 183.659,-62.7593"/>
<polygon fill="midnightblue" stroke="midnightblue" points="141.366,-52.6086 130.946,-54.5227 140.285,-59.5246 141.366,-52.6086"/>
</g>
<!-- Node23 -->
<g id="node3" class="node"><title>Node23</title>
<g id="a_node3"><a xlink:href="namespacecaiman_1_1base_1_1rois.html#afde6c0bad0f753a9a785404bdfda1000" target="_top" xlink:title="extract_binary_masks\l_blob_parallel_place\l_holder">
<polygon fill="white" stroke="black" points="174,-0.5 174,-41.5 288,-41.5 288,-0.5 174,-0.5"/>
<text text-anchor="start" x="182" y="-29.5" font-family="Helvetica,sans-Serif" font-size="10.00">extract_binary_masks</text>
<text text-anchor="start" x="182" y="-18.5" font-family="Helvetica,sans-Serif" font-size="10.00">_blob_parallel_place</text>
<text text-anchor="middle" x="231" y="-7.5" font-family="Helvetica,sans-Serif" font-size="10.00">_holder</text>
</a>
</g>
</g>
<!-- Node21&#45;&gt;Node23 -->
<g id="edge2" class="edge"><title>Node21&#45;&gt;Node23</title>
<path fill="none" stroke="midnightblue" d="M143.723,-33.9415C153.82,-32.4271 164.05,-30.8925 173.766,-29.4351"/>
<polygon fill="midnightblue" stroke="midnightblue" points="143.066,-30.5008 133.696,-35.4456 144.105,-37.4234 143.066,-30.5008"/>
</g>
</g>
</svg>
