<?xml version="1.0" encoding="UTF-8" standalone="no"?>
<!DOCTYPE svg PUBLIC "-//W3C//DTD SVG 1.1//EN"
 "http://www.w3.org/Graphics/SVG/1.1/DTD/svg11.dtd">
<!-- Generated by graphviz version 2.36.0 (20140111.2315)
 -->
<!-- Title: update_iteration Pages: 1 -->
<svg width="546pt" height="87pt"
 viewBox="0.00 0.00 546.00 87.00" xmlns="http://www.w3.org/2000/svg" xmlns:xlink="http://www.w3.org/1999/xlink">
<g id="graph0" class="graph" transform="scale(1 1) rotate(0) translate(4 83)">
<title>update_iteration</title>
<polygon fill="white" stroke="none" points="-4,4 -4,-83 542,-83 542,4 -4,4"/>
<!-- Node23 -->
<g id="node1" class="node"><title>Node23</title>
<polygon fill="#bfbfbf" stroke="black" points="0,-29.5 0,-48.5 88,-48.5 88,-29.5 0,-29.5"/>
<text text-anchor="middle" x="44" y="-36.5" font-family="Helvetica,sans-Serif" font-size="10.00">update_iteration</text>
</g>
<!-- Node24 -->
<g id="node2" class="node"><title>Node24</title>
<g id="a_node2"><a xlink:href="namespacecaiman_1_1source__extraction_1_1cnmf_1_1temporal.html#ac3279e405da3b8cc2e4a21b68320971c" target="_top" xlink:title="Update temporal components and background given spatial components using a block coordinate descent a...">
<polygon fill="white" stroke="black" points="124,-29.5 124,-48.5 276,-48.5 276,-29.5 124,-29.5"/>
<text text-anchor="middle" x="200" y="-36.5" font-family="Helvetica,sans-Serif" font-size="10.00">update_temporal_components</text>
</a>
</g>
</g>
<!-- Node23&#45;&gt;Node24 -->
<g id="edge1" class="edge"><title>Node23&#45;&gt;Node24</title>
<path fill="none" stroke="midnightblue" d="M98.4881,-39C106.718,-39 115.345,-39 123.939,-39"/>
<polygon fill="midnightblue" stroke="midnightblue" points="98.3074,-35.5001 88.3074,-39 98.3074,-42.5001 98.3074,-35.5001"/>
</g>
<!-- Node25 -->
<g id="node3" class="node"><title>Node25</title>
<g id="a_node3"><a xlink:href="namespacecaiman_1_1source__extraction_1_1cnmf_1_1merging.html#ad08adf2e086a22ef379b10ed3ee36936" target="_top" xlink:title="Merging of spatially overlapping components that have highly correlated temporal activity. ">
<polygon fill="white" stroke="black" points="312.5,-49 312.5,-79 537.5,-79 537.5,-49 312.5,-49"/>
<text text-anchor="start" x="320.5" y="-67" font-family="Helvetica,sans-Serif" font-size="10.00">caiman.source_extraction.cnmf.merging.merge</text>
<text text-anchor="middle" x="425" y="-56" font-family="Helvetica,sans-Serif" font-size="10.00">_components</text>
</a>
</g>
</g>
<!-- Node24&#45;&gt;Node25 -->
<g id="edge2" class="edge"><title>Node24&#45;&gt;Node25</title>
<path fill="none" stroke="midnightblue" d="M286.129,-48.5436C294.696,-49.5041 303.484,-50.4892 312.273,-51.4745"/>
<polygon fill="midnightblue" stroke="midnightblue" points="286.514,-45.065 276.187,-47.429 285.735,-52.0214 286.514,-45.065"/>
</g>
<!-- Node26 -->
<g id="node4" class="node"><title>Node26</title>
<g id="a_node4"><a xlink:href="namespacecaiman_1_1source__extraction_1_1cnmf_1_1temporal.html#a2ede407f1e0d0722f51ddb6e99f48f9f" target="_top" xlink:title="necessary for parallel computation of the function constrained_foopsi ">
<polygon fill="white" stroke="black" points="375,-0 375,-30 475,-30 475,-0 375,-0"/>
<text text-anchor="start" x="383" y="-18" font-family="Helvetica,sans-Serif" font-size="10.00">constrained_foopsi</text>
<text text-anchor="middle" x="425" y="-7" font-family="Helvetica,sans-Serif" font-size="10.00">_parallel</text>
</a>
</g>
</g>
<!-- Node24&#45;&gt;Node26 -->
<g id="edge3" class="edge"><title>Node24&#45;&gt;Node26</title>
<path fill="none" stroke="midnightblue" d="M286.217,-29.8286C316.137,-26.6085 348.735,-23.1003 374.708,-20.3049"/>
<polygon fill="midnightblue" stroke="midnightblue" points="285.755,-26.3581 276.187,-30.9082 286.504,-33.3179 285.755,-26.3581"/>
</g>
</g>
</svg>
