<?xml version="1.0" encoding="UTF-8" standalone="no"?>
<!DOCTYPE svg PUBLIC "-//W3C//DTD SVG 1.1//EN"
 "http://www.w3.org/Graphics/SVG/1.1/DTD/svg11.dtd">
<!-- Generated by graphviz version 2.36.0 (20140111.2315)
 -->
<!-- Title: load Pages: 1 -->
<svg width="550pt" height="153pt"
 viewBox="0.00 0.00 550.00 153.00" xmlns="http://www.w3.org/2000/svg" xmlns:xlink="http://www.w3.org/1999/xlink">
<g id="graph0" class="graph" transform="scale(1 1) rotate(0) translate(4 149)">
<title>load</title>
<polygon fill="white" stroke="none" points="-4,4 -4,-149 546,-149 546,4 -4,4"/>
<!-- Node18 -->
<g id="node1" class="node"><title>Node18</title>
<polygon fill="#bfbfbf" stroke="black" points="0.5,-38.5 0.5,-57.5 35.5,-57.5 35.5,-38.5 0.5,-38.5"/>
<text text-anchor="middle" x="18" y="-45.5" font-family="Helvetica,sans-Serif" font-size="10.00">load</text>
</g>
<!-- Node19 -->
<g id="node2" class="node"><title>Node19</title>
<g id="a_node2"><a xlink:href="namespacecaiman_1_1mmapping.html#aeb2ed62e4a9028089a2eec09d392707f" target="_top" xlink:title="Load a memory mapped file created by the function save_memmap. ">
<polygon fill="white" stroke="black" points="72,-115 72,-145 192,-145 192,-115 72,-115"/>
<text text-anchor="start" x="80" y="-133" font-family="Helvetica,sans-Serif" font-size="10.00">caiman.mmapping.load</text>
<text text-anchor="middle" x="132" y="-122" font-family="Helvetica,sans-Serif" font-size="10.00">_memmap</text>
</a>
</g>
</g>
<!-- Node18&#45;&gt;Node19 -->
<g id="edge1" class="edge"><title>Node18&#45;&gt;Node19</title>
<path fill="none" stroke="midnightblue" d="M25.9033,-57.6447C35.1804,-70.023 52.7455,-91.5062 72,-105 74.642,-106.852 77.4425,-108.604 80.3317,-110.257"/>
<polygon fill="midnightblue" stroke="midnightblue" points="78.7153,-113.362 89.1958,-114.914 81.9709,-107.165 78.7153,-113.362"/>
</g>
<!-- Node21 -->
<g id="node4" class="node"><title>Node21</title>
<g id="a_node4"><a xlink:href="namespacecaiman_1_1base_1_1movies.html#ad9b115e435b36308da1248112f09f0db" target="_top" xlink:title="sbxreadskip">
<polygon fill="white" stroke="black" points="97,-76.5 97,-95.5 167,-95.5 167,-76.5 97,-76.5"/>
<text text-anchor="middle" x="132" y="-83.5" font-family="Helvetica,sans-Serif" font-size="10.00">sbxreadskip</text>
</a>
</g>
</g>
<!-- Node18&#45;&gt;Node21 -->
<g id="edge3" class="edge"><title>Node18&#45;&gt;Node21</title>
<path fill="none" stroke="midnightblue" d="M35.6604,-54.1302C46.0753,-57.9232 59.7847,-62.8448 72,-67 78.084,-69.0695 84.5402,-71.2075 90.8638,-73.2693"/>
<polygon fill="midnightblue" stroke="midnightblue" points="90.0274,-76.6772 100.619,-76.4258 92.1824,-70.0172 90.0274,-76.6772"/>
</g>
<!-- Node25 -->
<g id="node8" class="node"><title>Node25</title>
<g id="a_node8"><a xlink:href="namespacecaiman_1_1base_1_1movies.html#ad72bfc8cc5386d4470caa0be723598e9" target="_top" xlink:title="sbxread">
<polygon fill="white" stroke="black" points="106,-38.5 106,-57.5 158,-57.5 158,-38.5 106,-38.5"/>
<text text-anchor="middle" x="132" y="-45.5" font-family="Helvetica,sans-Serif" font-size="10.00">sbxread</text>
</a>
</g>
</g>
<!-- Node18&#45;&gt;Node25 -->
<g id="edge7" class="edge"><title>Node18&#45;&gt;Node25</title>
<path fill="none" stroke="midnightblue" d="M35.526,-48C51.2783,-48 75.509,-48 95.6175,-48"/>
<polygon fill="midnightblue" stroke="midnightblue" points="95.6904,-51.5001 105.69,-48 95.6904,-44.5001 95.6904,-51.5001"/>
</g>
<!-- Node26 -->
<g id="node9" class="node"><title>Node26</title>
<g id="a_node9"><a xlink:href="namespacecaiman_1_1base_1_1movies.html#a5a35758b31edb4a9b2105a058a0882a6" target="_top" xlink:title="load movies from list of file names ">
<polygon fill="white" stroke="black" points="83.5,-0.5 83.5,-19.5 180.5,-19.5 180.5,-0.5 83.5,-0.5"/>
<text text-anchor="middle" x="132" y="-7.5" font-family="Helvetica,sans-Serif" font-size="10.00">load_movie_chain</text>
</a>
</g>
</g>
<!-- Node18&#45;&gt;Node26 -->
<g id="edge9" class="edge"><title>Node18&#45;&gt;Node26</title>
<path fill="none" stroke="midnightblue" d="M27.5989,-38.4553C38.0583,-31.9741 56.2681,-25.3514 72,-20 72.5731,-19.8051 73.1494,-19.6095 73.7287,-19.4136"/>
<polygon fill="midnightblue" stroke="midnightblue" points="74.9085,-22.7099 83.298,-16.2394 72.7045,-16.0658 74.9085,-22.7099"/>
</g>
<!-- Node20 -->
<g id="node3" class="node"><title>Node20</title>
<g id="a_node3"><a xlink:href="namespacecaiman_1_1mmapping.html#ad949509ed734151b99d635a4264a59ad" target="_top" xlink:title="Create several memory mapped files using parallel processing. ">
<polygon fill="white" stroke="black" points="228,-115 228,-145 350,-145 350,-115 228,-115"/>
<text text-anchor="start" x="236" y="-133" font-family="Helvetica,sans-Serif" font-size="10.00">caiman.mmapping.save</text>
<text text-anchor="middle" x="289" y="-122" font-family="Helvetica,sans-Serif" font-size="10.00">_memmap_each</text>
</a>
</g>
</g>
<!-- Node19&#45;&gt;Node20 -->
<g id="edge2" class="edge"><title>Node19&#45;&gt;Node20</title>
<path fill="none" stroke="midnightblue" d="M192.041,-130C200.465,-130 209.198,-130 217.81,-130"/>
<polygon fill="midnightblue" stroke="midnightblue" points="217.838,-133.5 227.838,-130 217.838,-126.5 217.838,-133.5"/>
</g>
<!-- Node22 -->
<g id="node5" class="node"><title>Node22</title>
<g id="a_node5"><a xlink:href="namespacecaiman_1_1base_1_1movies.html#a1dae08ecd6c4b9ef41d5e820eb86604d" target="_top" xlink:title="this function should be called instead of direct spio.loadmat ">
<polygon fill="white" stroke="black" points="252.5,-57.5 252.5,-76.5 325.5,-76.5 325.5,-57.5 252.5,-57.5"/>
<text text-anchor="middle" x="289" y="-64.5" font-family="Helvetica,sans-Serif" font-size="10.00">loadmat_sbx</text>
</a>
</g>
</g>
<!-- Node21&#45;&gt;Node22 -->
<g id="edge4" class="edge"><title>Node21&#45;&gt;Node22</title>
<path fill="none" stroke="midnightblue" d="M167.015,-81.8304C189.16,-79.1158 218.309,-75.5428 242.446,-72.584"/>
<polygon fill="midnightblue" stroke="midnightblue" points="242.949,-76.0487 252.449,-71.3579 242.097,-69.1007 242.949,-76.0487"/>
</g>
<!-- Node23 -->
<g id="node6" class="node"><title>Node23</title>
<g id="a_node6"><a xlink:href="namespacecaiman_1_1base_1_1movies.html#abb80862aafd574c59a95c0b24268be69" target="_top" xlink:title="checks if entries in dictionary rare mat&#45;objects. ">
<polygon fill="white" stroke="black" points="386,-57.5 386,-76.5 460,-76.5 460,-57.5 386,-57.5"/>
<text text-anchor="middle" x="423" y="-64.5" font-family="Helvetica,sans-Serif" font-size="10.00">_check_keys</text>
</a>
</g>
</g>
<!-- Node22&#45;&gt;Node23 -->
<g id="edge5" class="edge"><title>Node22&#45;&gt;Node23</title>
<path fill="none" stroke="midnightblue" d="M325.721,-67C341.003,-67 359.051,-67 375.366,-67"/>
<polygon fill="midnightblue" stroke="midnightblue" points="375.791,-70.5001 385.791,-67 375.791,-63.5001 375.791,-70.5001"/>
</g>
<!-- Node24 -->
<g id="node7" class="node"><title>Node24</title>
<g id="a_node7"><a xlink:href="namespacecaiman_1_1base_1_1movies.html#a3678b9e2ae337ad61ebe7630c5e08ead" target="_top" xlink:title="A recursive function which constructs from matobjects nested dictionaries. ">
<polygon fill="white" stroke="black" points="496,-57.5 496,-76.5 542,-76.5 542,-57.5 496,-57.5"/>
<text text-anchor="middle" x="519" y="-64.5" font-family="Helvetica,sans-Serif" font-size="10.00">_todict</text>
</a>
</g>
</g>
<!-- Node23&#45;&gt;Node24 -->
<g id="edge6" class="edge"><title>Node23&#45;&gt;Node24</title>
<path fill="none" stroke="midnightblue" d="M460.074,-67C468.52,-67 477.464,-67 485.731,-67"/>
<polygon fill="midnightblue" stroke="midnightblue" points="485.753,-70.5001 495.753,-67 485.753,-63.5001 485.753,-70.5001"/>
</g>
<!-- Node25&#45;&gt;Node22 -->
<g id="edge8" class="edge"><title>Node25&#45;&gt;Node22</title>
<path fill="none" stroke="midnightblue" d="M158.248,-51.095C180.916,-53.8736 214.746,-58.0205 242.18,-61.3833"/>
<polygon fill="midnightblue" stroke="midnightblue" points="241.993,-64.8865 252.344,-62.6293 242.844,-57.9385 241.993,-64.8865"/>
</g>
<!-- Node26&#45;&gt;Node18 -->
<g id="edge10" class="edge"><title>Node26&#45;&gt;Node18</title>
<path fill="none" stroke="midnightblue" d="M120.945,-19.5844C109.176,-25.8147 89.1155,-32.178 72,-38 63.3157,-40.9541 53.8762,-44.2956 45.4022,-46.9001"/>
<polygon fill="midnightblue" stroke="midnightblue" points="44.3415,-43.5625 35.6604,-49.636 46.2343,-50.3018 44.3415,-43.5625"/>
</g>
</g>
</svg>
