<?xml version="1.0" encoding="UTF-8" standalone="no"?>
<!DOCTYPE svg PUBLIC "-//W3C//DTD SVG 1.1//EN"
 "http://www.w3.org/Graphics/SVG/1.1/DTD/svg11.dtd">
<!-- Generated by graphviz version 2.36.0 (20140111.2315)
 -->
<!-- Title: motion_correct_batch_rigid Pages: 1 -->
<svg width="722pt" height="77pt"
 viewBox="0.00 0.00 722.00 77.00" xmlns="http://www.w3.org/2000/svg" xmlns:xlink="http://www.w3.org/1999/xlink">
<g id="graph0" class="graph" transform="scale(1 1) rotate(0) translate(4 73)">
<title>motion_correct_batch_rigid</title>
<polygon fill="white" stroke="none" points="-4,4 -4,-73 718,-73 718,4 -4,4"/>
<!-- Node91 -->
<g id="node1" class="node"><title>Node91</title>
<polygon fill="#bfbfbf" stroke="black" points="0.5,-39 0.5,-69 113.5,-69 113.5,-39 0.5,-39"/>
<text text-anchor="start" x="8.5" y="-57" font-family="Helvetica,sans-Serif" font-size="10.00">motion_correct_batch</text>
<text text-anchor="middle" x="57" y="-46" font-family="Helvetica,sans-Serif" font-size="10.00">_rigid</text>
</g>
<!-- Node92 -->
<g id="node2" class="node"><title>Node92</title>
<g id="a_node2"><a xlink:href="namespacecaiman_1_1motion__correction.html#a93dc0dbba76cd31384bb0fdca775fff6" target="_top" xlink:title="compute_metrics_motion\l_correction">
<polygon fill="white" stroke="black" points="150,-39 150,-69 278,-69 278,-39 150,-39"/>
<text text-anchor="start" x="158" y="-57" font-family="Helvetica,sans-Serif" font-size="10.00">compute_metrics_motion</text>
<text text-anchor="middle" x="214" y="-46" font-family="Helvetica,sans-Serif" font-size="10.00">_correction</text>
</a>
</g>
</g>
<!-- Node91&#45;&gt;Node92 -->
<g id="edge1" class="edge"><title>Node91&#45;&gt;Node92</title>
<path fill="none" stroke="midnightblue" d="M123.638,-54C132.359,-54 141.286,-54 149.963,-54"/>
<polygon fill="midnightblue" stroke="midnightblue" points="123.521,-50.5001 113.521,-54 123.521,-57.5001 123.521,-50.5001"/>
</g>
<!-- Node93 -->
<g id="node3" class="node"><title>Node93</title>
<g id="a_node3"><a xlink:href="namespacecaiman_1_1motion__correction.html#ab468f81cbf77caf649a1aa60b21fecdd" target="_top" xlink:title="compute_flow_single\l_frame">
<polygon fill="white" stroke="black" points="314,-39 314,-69 424,-69 424,-39 314,-39"/>
<text text-anchor="start" x="322" y="-57" font-family="Helvetica,sans-Serif" font-size="10.00">compute_flow_single</text>
<text text-anchor="middle" x="369" y="-46" font-family="Helvetica,sans-Serif" font-size="10.00">_frame</text>
</a>
</g>
</g>
<!-- Node92&#45;&gt;Node93 -->
<g id="edge2" class="edge"><title>Node92&#45;&gt;Node93</title>
<path fill="none" stroke="midnightblue" d="M288.194,-54C296.825,-54 305.513,-54 313.816,-54"/>
<polygon fill="midnightblue" stroke="midnightblue" points="288.114,-50.5001 278.114,-54 288.114,-57.5001 288.114,-50.5001"/>
</g>
<!-- Node94 -->
<g id="node4" class="node"><title>Node94</title>
<g id="a_node4"><a xlink:href="namespacecaiman_1_1motion__correction.html#aea060208c09f0e4fb01e6d31b9acf36f" target="_top" xlink:title="perform piecewise rigid motion correction iteration, by 1) dividing the FOV in patches 2) motion corr...">
<polygon fill="white" stroke="black" points="460,-44.5 460,-63.5 548,-63.5 548,-44.5 460,-44.5"/>
<text text-anchor="middle" x="504" y="-51.5" font-family="Helvetica,sans-Serif" font-size="10.00">tile_and_correct</text>
</a>
</g>
</g>
<!-- Node93&#45;&gt;Node94 -->
<g id="edge3" class="edge"><title>Node93&#45;&gt;Node94</title>
<path fill="none" stroke="midnightblue" d="M434.264,-54C442.977,-54 451.741,-54 459.956,-54"/>
<polygon fill="midnightblue" stroke="midnightblue" points="434.096,-50.5001 424.096,-54 434.096,-57.5001 434.096,-50.5001"/>
</g>
<!-- Node95 -->
<g id="node5" class="node"><title>Node95</title>
<g id="a_node5"><a xlink:href="namespacecaiman_1_1motion__correction.html#a88ef513cfa324fc8548e4fb46d7a67e5" target="_top" xlink:title="create a matrix that is used to normalize the intersection of the stiched patches ...">
<polygon fill="white" stroke="black" points="593,-39 593,-69 705,-69 705,-39 593,-39"/>
<text text-anchor="start" x="601" y="-57" font-family="Helvetica,sans-Serif" font-size="10.00">create_weight_matrix</text>
<text text-anchor="middle" x="649" y="-46" font-family="Helvetica,sans-Serif" font-size="10.00">_for_blending</text>
</a>
</g>
</g>
<!-- Node94&#45;&gt;Node95 -->
<g id="edge4" class="edge"><title>Node94&#45;&gt;Node95</title>
<path fill="none" stroke="midnightblue" d="M558.427,-47.4454C569.696,-47.1969 581.607,-47.1854 592.935,-47.4111"/>
<polygon fill="midnightblue" stroke="midnightblue" points="558.187,-43.9508 548.293,-47.7404 558.39,-50.9479 558.187,-43.9508"/>
</g>
<!-- Node96 -->
<g id="node6" class="node"><title>Node96</title>
<g id="a_node6"><a xlink:href="namespacecaiman_1_1motion__correction.html#a9c4d6e518f42c395cb58a08d2ff21f45" target="_top" xlink:title="tile_and_correct_wrapper">
<polygon fill="white" stroke="black" points="584.5,-0.5 584.5,-19.5 713.5,-19.5 713.5,-0.5 584.5,-0.5"/>
<text text-anchor="middle" x="649" y="-7.5" font-family="Helvetica,sans-Serif" font-size="10.00">tile_and_correct_wrapper</text>
</a>
</g>
</g>
<!-- Node94&#45;&gt;Node96 -->
<g id="edge6" class="edge"><title>Node94&#45;&gt;Node96</title>
<path fill="none" stroke="midnightblue" d="M545.717,-41.4715C568.384,-34.4973 596.151,-25.9535 617.032,-19.5287"/>
<polygon fill="midnightblue" stroke="midnightblue" points="544.557,-38.1665 536.029,-44.4527 546.616,-44.857 544.557,-38.1665"/>
</g>
<!-- Node95&#45;&gt;Node94 -->
<g id="edge5" class="edge"><title>Node95&#45;&gt;Node94</title>
<path fill="none" stroke="midnightblue" d="M582.757,-60.727C571.073,-60.8132 559.165,-60.6574 548.293,-60.2596"/>
<polygon fill="midnightblue" stroke="midnightblue" points="582.984,-64.2243 592.935,-60.5889 582.889,-57.225 582.984,-64.2243"/>
</g>
</g>
</svg>
