<?xml version="1.0" encoding="UTF-8" standalone="no"?>
<!DOCTYPE svg PUBLIC "-//W3C//DTD SVG 1.1//EN"
 "http://www.w3.org/Graphics/SVG/1.1/DTD/svg11.dtd">
<!-- Generated by graphviz version 2.36.0 (20140111.2315)
 -->
<!-- Title: _upsampled_dft Pages: 1 -->
<svg width="576pt" height="148pt"
 viewBox="0.00 0.00 576.00 148.00" xmlns="http://www.w3.org/2000/svg" xmlns:xlink="http://www.w3.org/1999/xlink">
<g id="graph0" class="graph" transform="scale(1 1) rotate(0) translate(4 144)">
<title>_upsampled_dft</title>
<polygon fill="white" stroke="none" points="-4,4 -4,-144 572,-144 572,4 -4,4"/>
<!-- Node13 -->
<g id="node1" class="node"><title>Node13</title>
<polygon fill="#bfbfbf" stroke="black" points="0,-101.5 0,-120.5 88,-120.5 88,-101.5 0,-101.5"/>
<text text-anchor="middle" x="44" y="-108.5" font-family="Helvetica,sans-Serif" font-size="10.00">_upsampled_dft</text>
</g>
<!-- Node14 -->
<g id="node2" class="node"><title>Node14</title>
<g id="a_node2"><a xlink:href="namespacecaiman_1_1motion__correction.html#a7d2c5818773d564a27f831175498ee9a" target="_top" xlink:title="motion correct many movies usingthe ipyparallel cluster ">
<polygon fill="white" stroke="black" points="124,-120.5 124,-139.5 244,-139.5 244,-120.5 124,-120.5"/>
<text text-anchor="middle" x="184" y="-127.5" font-family="Helvetica,sans-Serif" font-size="10.00">motion_correct_parallel</text>
</a>
</g>
</g>
<!-- Node13&#45;&gt;Node14 -->
<g id="edge1" class="edge"><title>Node13&#45;&gt;Node14</title>
<path fill="none" stroke="midnightblue" d="M98.3211,-118.341C106.711,-119.496 115.427,-120.696 123.937,-121.868"/>
<polygon fill="midnightblue" stroke="midnightblue" points="98.6694,-114.856 88.2854,-116.96 97.7146,-121.791 98.6694,-114.856"/>
</g>
<!-- Node16 -->
<g id="node4" class="node"><title>Node16</title>
<g id="a_node4"><a xlink:href="namespacecaiman_1_1motion__correction.html#a0700d66a3a6b2556b1c712daf9c18a9b" target="_top" xlink:title="register_translation">
<polygon fill="white" stroke="black" points="133,-82.5 133,-101.5 235,-101.5 235,-82.5 133,-82.5"/>
<text text-anchor="middle" x="184" y="-89.5" font-family="Helvetica,sans-Serif" font-size="10.00">register_translation</text>
</a>
</g>
</g>
<!-- Node13&#45;&gt;Node16 -->
<g id="edge3" class="edge"><title>Node13&#45;&gt;Node16</title>
<path fill="none" stroke="midnightblue" d="M98.4159,-103.646C109.665,-102.097 121.498,-100.468 132.631,-98.9348"/>
<polygon fill="midnightblue" stroke="midnightblue" points="97.7146,-100.209 88.2854,-105.04 98.6694,-107.144 97.7146,-100.209"/>
</g>
<!-- Node15 -->
<g id="node3" class="node"><title>Node15</title>
<g id="a_node3"><a xlink:href="namespacecaiman_1_1motion__correction.html#ac516b7c059d60b6dd4ba80de17f659bb" target="_top" xlink:title="buffer_mean=np.zeros((bin_size,)+tf[0].shape).astype() template=np.mean(means_partials[:count_part],0)[ms_h:h_i&#45;ms_h,ms_w:w_i&#45;ms_w] if multicolor: buffer_mean[countbin_size]=page.asarray()[:,:,0]&#45;to_remove else: buffer_mean[countbin_size]=page.asarray()&#45;to_remove ">
<polygon fill="white" stroke="black" points="280,-120.5 280,-139.5 402,-139.5 402,-120.5 280,-120.5"/>
<text text-anchor="middle" x="341" y="-127.5" font-family="Helvetica,sans-Serif" font-size="10.00">process_movie_parallel</text>
</a>
</g>
</g>
<!-- Node14&#45;&gt;Node15 -->
<g id="edge2" class="edge"><title>Node14&#45;&gt;Node15</title>
<path fill="none" stroke="midnightblue" d="M254.047,-130C262.647,-130 271.387,-130 279.838,-130"/>
<polygon fill="midnightblue" stroke="midnightblue" points="254.041,-126.5 244.041,-130 254.041,-133.5 254.041,-126.5"/>
</g>
<!-- Node17 -->
<g id="node5" class="node"><title>Node17</title>
<g id="a_node5"><a xlink:href="namespacecaiman_1_1motion__correction.html#a683f5ee23e529946b17f6a87ae45e0a4" target="_top" xlink:title="Compute RMS error metric between src_image and target_image. ">
<polygon fill="white" stroke="black" points="297.5,-82.5 297.5,-101.5 384.5,-101.5 384.5,-82.5 297.5,-82.5"/>
<text text-anchor="middle" x="341" y="-89.5" font-family="Helvetica,sans-Serif" font-size="10.00">_compute_error</text>
</a>
</g>
</g>
<!-- Node16&#45;&gt;Node17 -->
<g id="edge4" class="edge"><title>Node16&#45;&gt;Node17</title>
<path fill="none" stroke="midnightblue" d="M245.397,-92C262.79,-92 281.392,-92 297.459,-92"/>
<polygon fill="midnightblue" stroke="midnightblue" points="245.324,-88.5001 235.324,-92 245.324,-95.5001 245.324,-88.5001"/>
</g>
<!-- Node18 -->
<g id="node6" class="node"><title>Node18</title>
<g id="a_node6"><a xlink:href="namespacecaiman_1_1motion__correction.html#aea060208c09f0e4fb01e6d31b9acf36f" target="_top" xlink:title="perform piecewise rigid motion correction iteration, by 1) dividing the FOV in patches 2) motion corr...">
<polygon fill="white" stroke="black" points="297,-44.5 297,-63.5 385,-63.5 385,-44.5 297,-44.5"/>
<text text-anchor="middle" x="341" y="-51.5" font-family="Helvetica,sans-Serif" font-size="10.00">tile_and_correct</text>
</a>
</g>
</g>
<!-- Node16&#45;&gt;Node18 -->
<g id="edge5" class="edge"><title>Node16&#45;&gt;Node18</title>
<path fill="none" stroke="midnightblue" d="M234.111,-79.96C255.765,-74.6512 280.85,-68.5012 301.168,-63.5201"/>
<polygon fill="midnightblue" stroke="midnightblue" points="232.992,-76.6305 224.113,-82.411 234.659,-83.4292 232.992,-76.6305"/>
</g>
<!-- Node19 -->
<g id="node7" class="node"><title>Node19</title>
<g id="a_node7"><a xlink:href="namespacecaiman_1_1motion__correction.html#a88ef513cfa324fc8548e4fb46d7a67e5" target="_top" xlink:title="create a matrix that is used to normalize the intersection of the stiched patches ...">
<polygon fill="white" stroke="black" points="447,-39 447,-69 559,-69 559,-39 447,-39"/>
<text text-anchor="start" x="455" y="-57" font-family="Helvetica,sans-Serif" font-size="10.00">create_weight_matrix</text>
<text text-anchor="middle" x="503" y="-46" font-family="Helvetica,sans-Serif" font-size="10.00">_for_blending</text>
</a>
</g>
</g>
<!-- Node18&#45;&gt;Node19 -->
<g id="edge6" class="edge"><title>Node18&#45;&gt;Node19</title>
<path fill="none" stroke="midnightblue" d="M395.363,-47.5942C411.932,-47.1507 430.222,-47.1358 446.906,-47.5496"/>
<polygon fill="midnightblue" stroke="midnightblue" points="395.178,-44.0983 385.298,-47.9258 395.408,-51.0945 395.178,-44.0983"/>
</g>
<!-- Node20 -->
<g id="node8" class="node"><title>Node20</title>
<g id="a_node8"><a xlink:href="namespacecaiman_1_1motion__correction.html#a9c4d6e518f42c395cb58a08d2ff21f45" target="_top" xlink:title="tile_and_correct_wrapper">
<polygon fill="white" stroke="black" points="438.5,-0.5 438.5,-19.5 567.5,-19.5 567.5,-0.5 438.5,-0.5"/>
<text text-anchor="middle" x="503" y="-7.5" font-family="Helvetica,sans-Serif" font-size="10.00">tile_and_correct_wrapper</text>
</a>
</g>
</g>
<!-- Node18&#45;&gt;Node20 -->
<g id="edge8" class="edge"><title>Node18&#45;&gt;Node20</title>
<path fill="none" stroke="midnightblue" d="M386.538,-41.7522C412.082,-34.7276 443.673,-26.04 467.35,-19.5287"/>
<polygon fill="midnightblue" stroke="midnightblue" points="385.432,-38.4263 376.718,-44.4527 387.288,-45.1757 385.432,-38.4263"/>
</g>
<!-- Node19&#45;&gt;Node18 -->
<g id="edge7" class="edge"><title>Node19&#45;&gt;Node18</title>
<path fill="none" stroke="midnightblue" d="M436.827,-60.6459C419.475,-60.8921 401.158,-60.7016 385.298,-60.0742"/>
<polygon fill="midnightblue" stroke="midnightblue" points="436.976,-64.1437 446.906,-60.4504 436.84,-57.1451 436.976,-64.1437"/>
</g>
</g>
</svg>
